# Mesh "C_ENV_TunnelRing_02" exported with Unity Assets Bundle Extractor; 94 vertices, 156 indices, 384 bits per vertex
g C_ENV_TunnelRing_02
# SubMesh 0
# Vertices
v -8.640304 28.514837 9.045150
vt 0.464844 0.312500
vn -0.237156 0.971472 0.000000
v -8.640309 28.514830 -9.045150
vt 0.464844 0.688440
vn -0.237156 0.971472 0.000000
v -4.860172 29.437641 -9.045150
vt 0.468750 0.688440
vn -0.184752 0.982785 0.000000
v -4.860187 29.437639 9.045150
vt 0.468750 0.312500
vn -0.184752 0.982785 0.000000
v -1.951357 29.772278 -9.045150
vt 0.472656 0.688440
vn -0.065404 0.997859 0.000000
v -1.951404 29.772270 9.045150
vt 0.472656 0.312500
vn -0.065404 0.997859 0.000000
v 0.976197 29.820179 -9.045150
vt 0.476563 0.688440
vn 0.032719 0.999465 0.000000
v 0.976178 29.820179 9.045150
vt 0.476563 0.312500
vn 0.032719 0.999465 0.000000
v 3.894401 29.580902 -9.045150
vt 0.480469 0.688440
vn 0.130526 0.991445 0.000000
v 3.894402 29.580902 9.045150
vt 0.480469 0.312500
vn 0.130526 0.991445 0.000000
v 6.775107 29.056738 -9.045150
vt 0.484375 0.688440
vn 0.209959 0.977710 0.000000
v 6.775094 29.056740 9.045150
vt 0.484375 0.312500
vn 0.209959 0.977710 0.000000
v 8.651022 28.559437 -9.045150
vt 0.488281 0.688440
vn 0.256247 0.966611 0.000000
v 8.651019 28.559437 9.045150
vt 0.488281 0.312500
vn 0.256247 0.966611 0.000000
v -4.860187 29.437639 9.045150
vt 0.468750 0.312500
vn -0.000241 0.001309 0.999999
v -4.358573 26.399471 9.049230
vt 1.000000 1.000000
vn -0.000242 0.001309 0.999999
v -7.793172 25.606096 9.049230
vt 0.000000 1.000000
vn -0.000310 0.001302 0.999999
v -8.640304 28.514837 9.045150
vt 0.464844 0.312500
vn -0.000310 0.001302 0.999999
v -1.951404 29.772270 9.045150
vt 0.472656 0.312500
vn -0.000087 0.001322 0.999999
v -1.749988 26.699562 9.049230
vt 1.000000 1.000000
vn -0.000087 0.001322 0.999999
v -4.358573 26.399471 9.049230
vt 0.000000 1.000000
vn -0.000242 0.001309 0.999999
v -4.860187 29.437639 9.045150
vt 0.468750 0.312500
vn -0.000241 0.001309 0.999999
v 0.976178 29.820179 9.045150
vt 0.476563 0.312500
vn 0.000043 0.001324 0.999999
v 0.875459 26.742531 9.049230
vt 1.000000 1.000000
vn 0.000043 0.001324 0.999999
v -1.749988 26.699562 9.049230
vt 0.000000 1.000000
vn -0.000087 0.001322 0.999999
v -1.951404 29.772270 9.045150
vt 0.472656 0.312500
vn -0.000087 0.001322 0.999999
v 3.894402 29.580902 9.045150
vt 0.480469 0.312500
vn 0.000173 0.001314 0.999999
v 3.492465 26.527948 9.049230
vt 1.000000 1.000000
vn 0.000173 0.001314 0.999999
v 0.875459 26.742531 9.049230
vt 0.000000 1.000000
vn 0.000043 0.001324 0.999999
v 0.976178 29.820179 9.045150
vt 0.476563 0.312500
vn 0.000043 0.001324 0.999999
v 6.775094 29.056740 9.045150
vt 0.484375 0.312500
vn 0.000277 0.001297 0.999999
v 6.075842 26.057884 9.049230
vt 1.000000 1.000000
vn 0.000276 0.001298 0.999999
v 3.492465 26.527948 9.049230
vt 0.000000 1.000000
vn 0.000173 0.001314 0.999999
v 3.894402 29.580902 9.045150
vt 0.480469 0.312500
vn 0.000173 0.001314 0.999999
v 8.651019 28.559437 9.045150
vt 0.488281 0.312500
vn 0.000335 0.001286 0.999999
v 7.746691 25.631214 9.049230
vt 1.000000 1.000000
vn 0.000335 0.001286 0.999999
v 6.075842 26.057884 9.049230
vt 0.000000 1.000000
vn 0.000276 0.001298 0.999999
v 6.775094 29.056740 9.045150
vt 0.484375 0.312500
vn 0.000277 0.001297 0.999999
v -7.793172 25.606096 -9.045150
vt 0.000000 0.000000
vn 0.225068 -0.974343 0.000000
v -7.793172 25.606096 9.049230
vt 0.000000 1.000000
vn 0.225068 -0.974343 0.000000
v -4.358573 26.399471 9.049230
vt 1.000000 1.000000
vn 0.225068 -0.974343 0.000000
v -4.358573 26.399471 -9.045150
vt 1.000000 0.000000
vn 0.225068 -0.974343 0.000000
v -4.358573 26.399471 -9.045150
vt 0.000000 0.000000
vn 0.114286 -0.993448 0.000000
v -4.358573 26.399471 9.049230
vt 0.000000 1.000000
vn 0.114286 -0.993448 0.000000
v -1.749988 26.699562 9.049230
vt 1.000000 1.000000
vn 0.114286 -0.993448 0.000000
v -1.749988 26.699562 -9.045150
vt 1.000000 0.000000
vn 0.114286 -0.993448 0.000000
v -1.749988 26.699562 -9.045150
vt 0.000000 0.000000
vn 0.016364 -0.999866 0.000000
v -1.749988 26.699562 9.049230
vt 0.000000 1.000000
vn 0.016364 -0.999866 0.000000
v 0.875459 26.742531 9.049230
vt 1.000000 1.000000
vn 0.016364 -0.999866 0.000000
v 0.875459 26.742531 -9.045150
vt 1.000000 0.000000
vn 0.016364 -0.999866 0.000000
v 0.875459 26.742531 -9.045150
vt 0.000000 0.000000
vn -0.081721 -0.996655 0.000000
v 0.875459 26.742531 9.049230
vt 0.000000 1.000000
vn -0.081721 -0.996655 0.000000
v 3.492465 26.527948 9.049230
vt 1.000000 1.000000
vn -0.081721 -0.996655 0.000000
v 3.492465 26.527948 -9.045150
vt 1.000000 0.000000
vn -0.081721 -0.996655 0.000000
v 3.492465 26.527948 -9.045150
vt 0.000000 0.000000
vn -0.179018 -0.983846 0.000000
v 3.492465 26.527948 9.049230
vt 0.000000 1.000000
vn -0.179018 -0.983846 0.000000
v 6.075842 26.057884 9.049230
vt 1.000000 1.000000
vn -0.179018 -0.983846 0.000000
v 6.075842 26.057884 -9.045150
vt 1.000000 0.000000
vn -0.179018 -0.983846 0.000000
v 6.075842 26.057884 -9.045150
vt 0.000000 0.000000
vn -0.247422 -0.968908 0.000000
v 6.075842 26.057884 9.049230
vt 0.000000 1.000000
vn -0.247422 -0.968908 0.000000
v 7.746691 25.631214 9.049230
vt 1.000000 1.000000
vn -0.247422 -0.968908 0.000000
v 7.746691 25.631214 -9.045150
vt 1.000000 0.000000
vn -0.247422 -0.968908 0.000000
v -4.860172 29.437641 -9.045150
vt 0.468750 0.688440
vn -0.000000 0.000000 -1.000000
v -8.640309 28.514830 -9.045150
vt 0.464844 0.688440
vn -0.000000 0.000000 -1.000000
v -7.793172 25.606096 -9.045150
vt 0.000000 0.000000
vn -0.000000 0.000000 -1.000000
v -4.358573 26.399471 -9.045150
vt 1.000000 0.000000
vn -0.000000 0.000000 -1.000000
v -1.951357 29.772278 -9.045150
vt 0.472656 0.688440
vn -0.000000 0.000000 -1.000000
v -4.860172 29.437641 -9.045150
vt 0.468750 0.688440
vn -0.000000 0.000000 -1.000000
v -4.358573 26.399471 -9.045150
vt 0.000000 0.000000
vn -0.000000 0.000000 -1.000000
v -1.749988 26.699562 -9.045150
vt 1.000000 0.000000
vn -0.000000 0.000000 -1.000000
v 0.976197 29.820179 -9.045150
vt 0.476563 0.688440
vn -0.000000 0.000000 -1.000000
v -1.951357 29.772278 -9.045150
vt 0.472656 0.688440
vn -0.000000 0.000000 -1.000000
v -1.749988 26.699562 -9.045150
vt 0.000000 0.000000
vn -0.000000 0.000000 -1.000000
v 0.875459 26.742531 -9.045150
vt 1.000000 0.000000
vn -0.000000 0.000000 -1.000000
v 3.894401 29.580902 -9.045150
vt 0.480469 0.688440
vn -0.000000 0.000000 -1.000000
v 0.976197 29.820179 -9.045150
vt 0.476563 0.688440
vn -0.000000 0.000000 -1.000000
v 0.875459 26.742531 -9.045150
vt 0.000000 0.000000
vn -0.000000 0.000000 -1.000000
v 3.492465 26.527948 -9.045150
vt 1.000000 0.000000
vn -0.000000 0.000000 -1.000000
v 6.775107 29.056738 -9.045150
vt 0.484375 0.688440
vn -0.000000 0.000000 -1.000000
v 3.894401 29.580902 -9.045150
vt 0.480469 0.688440
vn -0.000000 0.000000 -1.000000
v 3.492465 26.527948 -9.045150
vt 0.000000 0.000000
vn -0.000000 0.000000 -1.000000
v 6.075842 26.057884 -9.045150
vt 1.000000 0.000000
vn -0.000000 0.000000 -1.000000
v 8.651022 28.559437 -9.045150
vt 0.488281 0.688440
vn -0.000000 0.000000 -1.000000
v 6.775107 29.056738 -9.045150
vt 0.484375 0.688440
vn -0.000000 0.000000 -1.000000
v 6.075842 26.057884 -9.045150
vt 0.000000 0.000000
vn -0.000000 0.000000 -1.000000
v 7.746691 25.631214 -9.045150
vt 1.000000 0.000000
vn -0.000000 0.000000 -1.000000
v -7.793172 25.606096 9.049230
vt 0.000000 1.000000
vn -0.960110 -0.279621 0.000000
v -7.793172 25.606096 -9.045150
vt 0.000000 0.000000
vn -0.960110 -0.279621 0.000000
v -8.640309 28.514830 -9.045150
vt 0.464844 0.688440
vn -0.960110 -0.279621 0.000000
v -8.640304 28.514837 9.045150
vt 0.464844 0.312500
vn -0.960110 -0.279621 0.000000
v 8.651022 28.559437 -9.045150
vt 0.488281 0.688440
vn 0.955472 -0.295081 0.000000
v 7.746691 25.631214 -9.045150
vt 1.000000 0.000000
vn 0.955472 -0.295081 0.000000
v 7.746691 25.631214 9.049230
vt 1.000000 1.000000
vn 0.955472 -0.295081 0.000000
v 8.651019 28.559437 9.045150
vt 0.488281 0.312500
vn 0.955472 -0.295081 0.000000
# Faces (1 to 94)
g C_ENV_TunnelRing_02_0
f -92/-92/-92 -93/-93/-93 -94/-94/-94
f -91/-91/-91 -92/-92/-92 -94/-94/-94
f -90/-90/-90 -92/-92/-92 -91/-91/-91
f -89/-89/-89 -90/-90/-90 -91/-91/-91
f -88/-88/-88 -90/-90/-90 -89/-89/-89
f -87/-87/-87 -88/-88/-88 -89/-89/-89
f -86/-86/-86 -88/-88/-88 -87/-87/-87
f -85/-85/-85 -86/-86/-86 -87/-87/-87
f -84/-84/-84 -86/-86/-86 -85/-85/-85
f -83/-83/-83 -84/-84/-84 -85/-85/-85
f -82/-82/-82 -84/-84/-84 -83/-83/-83
f -81/-81/-81 -82/-82/-82 -83/-83/-83
f -78/-78/-78 -79/-79/-79 -80/-80/-80
f -77/-77/-77 -78/-78/-78 -80/-80/-80
f -74/-74/-74 -75/-75/-75 -76/-76/-76
f -73/-73/-73 -74/-74/-74 -76/-76/-76
f -70/-70/-70 -71/-71/-71 -72/-72/-72
f -69/-69/-69 -70/-70/-70 -72/-72/-72
f -66/-66/-66 -67/-67/-67 -68/-68/-68
f -65/-65/-65 -66/-66/-66 -68/-68/-68
f -62/-62/-62 -63/-63/-63 -64/-64/-64
f -61/-61/-61 -62/-62/-62 -64/-64/-64
f -58/-58/-58 -59/-59/-59 -60/-60/-60
f -57/-57/-57 -58/-58/-58 -60/-60/-60
f -54/-54/-54 -55/-55/-55 -56/-56/-56
f -53/-53/-53 -54/-54/-54 -56/-56/-56
f -50/-50/-50 -51/-51/-51 -52/-52/-52
f -49/-49/-49 -50/-50/-50 -52/-52/-52
f -46/-46/-46 -47/-47/-47 -48/-48/-48
f -45/-45/-45 -46/-46/-46 -48/-48/-48
f -42/-42/-42 -43/-43/-43 -44/-44/-44
f -41/-41/-41 -42/-42/-42 -44/-44/-44
f -38/-38/-38 -39/-39/-39 -40/-40/-40
f -37/-37/-37 -38/-38/-38 -40/-40/-40
f -34/-34/-34 -35/-35/-35 -36/-36/-36
f -33/-33/-33 -34/-34/-34 -36/-36/-36
f -30/-30/-30 -31/-31/-31 -32/-32/-32
f -29/-29/-29 -30/-30/-30 -32/-32/-32
f -26/-26/-26 -27/-27/-27 -28/-28/-28
f -25/-25/-25 -26/-26/-26 -28/-28/-28
f -22/-22/-22 -23/-23/-23 -24/-24/-24
f -21/-21/-21 -22/-22/-22 -24/-24/-24
f -18/-18/-18 -19/-19/-19 -20/-20/-20
f -17/-17/-17 -18/-18/-18 -20/-20/-20
f -14/-14/-14 -15/-15/-15 -16/-16/-16
f -13/-13/-13 -14/-14/-14 -16/-16/-16
f -10/-10/-10 -11/-11/-11 -12/-12/-12
f -9/-9/-9 -10/-10/-10 -12/-12/-12
f -6/-6/-6 -7/-7/-7 -8/-8/-8
f -5/-5/-5 -6/-6/-6 -8/-8/-8
f -2/-2/-2 -3/-3/-3 -4/-4/-4
f -1/-1/-1 -2/-2/-2 -4/-4/-4

