# Mesh "C_ENV_TunnelRing_03" exported with Unity Assets Bundle Extractor; 134 vertices, 300 indices, 384 bits per vertex
g C_ENV_TunnelRing_03
# SubMesh 0
# Vertices
v -16.576080 24.807858 9.045150
vt 0.000002 0.229959
vn -0.514104 0.857728 0.000000
v -16.576101 24.807838 -9.045150
vt -0.000000 0.774605
vn -0.514104 0.857728 0.000000
v -14.064673 26.313135 -9.045150
vt 0.075755 0.771820
vn -0.471398 0.881921 0.000000
v -14.064683 26.313133 9.045150
vt 0.075755 0.227174
vn -0.471398 0.881921 0.000000
v -11.417791 27.565025 -9.045150
vt 0.155595 0.769503
vn -0.382683 0.923880 0.000000
v -11.417799 27.565016 9.045150
vt 0.155596 0.224857
vn -0.382683 0.923880 0.000000
v -8.660999 28.551414 -9.045150
vt 0.238751 0.767678
vn -0.290284 0.956941 0.000000
v -8.660977 28.551418 9.045150
vt 0.238752 0.223032
vn -0.290284 0.956941 0.000000
v -5.820769 29.262856 -9.045150
vt 0.324423 0.766362
vn -0.195091 0.980785 0.000000
v -5.820744 29.262863 9.045150
vt 0.324425 0.221716
vn -0.195091 0.980785 0.000000
v -2.924460 29.692486 -9.045150
vt 0.411787 0.765567
vn -0.098018 0.995185 0.000000
v -2.924453 29.692486 9.045150
vt 0.411788 0.220921
vn -0.098018 0.995185 0.000000
v 0.000013 29.836157 -9.045150
vt 0.500000 0.765301
vn -0.000000 1.000000 0.000000
v -0.000017 29.836157 9.045150
vt 0.500000 0.220655
vn -0.000000 1.000000 0.000000
v 2.924450 29.692486 -9.045150
vt 0.588213 0.765568
vn 0.098018 0.995185 0.000000
v 2.924455 29.692486 9.045150
vt 0.588214 0.220921
vn 0.098018 0.995185 0.000000
v 5.820738 29.262863 -9.045150
vt 0.675576 0.766363
vn 0.195090 0.980785 0.000000
v 5.820747 29.262859 9.045150
vt 0.675577 0.221716
vn 0.195090 0.980785 0.000000
v 8.660955 28.551428 -9.045150
vt 0.761248 0.767679
vn 0.290284 0.956940 0.000000
v 8.660961 28.551428 9.045150
vt 0.761249 0.223033
vn 0.290284 0.956940 0.000000
v 11.417780 27.565025 -9.045150
vt 0.844405 0.769505
vn 0.382683 0.923880 0.000000
v 11.417803 27.565012 9.045150
vt 0.844406 0.224859
vn 0.382683 0.923880 0.000000
v 14.064678 26.313135 -9.045150
vt 0.924245 0.771821
vn 0.471396 0.881922 0.000000
v 14.064651 26.313148 9.045150
vt 0.924245 0.227175
vn 0.471396 0.881922 0.000000
v 16.576090 24.807858 -9.045150
vt 0.999999 0.774607
vn 0.514102 0.857729 0.000000
v 16.576082 24.807858 9.045150
vt 1.000000 0.229961
vn 0.514102 0.857729 0.000000
v -14.064683 26.313133 9.045150
vt 0.075755 0.227174
vn -0.000625 0.001168 0.999999
v -14.865314 22.247513 9.049230
vt 0.051605 0.234574
vn -0.000682 0.001138 0.999999
v -16.576080 24.807858 9.045150
vt 0.000002 0.229959
vn -0.000682 0.001138 0.999999
v -12.613098 23.597445 9.049230
vt 0.119540 0.232076
vn -0.000625 0.001168 0.999999
v -11.417799 27.565016 9.045150
vt 0.155596 0.224857
vn -0.000507 0.001224 0.999999
v -10.239408 24.720112 9.049230
vt 0.191140 0.229999
vn -0.000507 0.001224 0.999999
v -8.660977 28.551418 9.045150
vt 0.238752 0.223032
vn -0.000385 0.001268 0.999999
v -7.767106 25.604713 9.049230
vt 0.265715 0.228362
vn -0.000385 0.001268 0.999999
v -5.820744 29.262863 9.045150
vt 0.324425 0.221716
vn -0.000259 0.001299 0.999999
v -5.220005 26.242731 9.049230
vt 0.342545 0.227182
vn -0.000259 0.001299 0.999999
v -2.924453 29.692486 9.045150
vt 0.411788 0.220921
vn -0.000130 0.001319 0.999999
v -2.622632 26.628016 9.049230
vt 0.420892 0.226469
vn -0.000130 0.001319 0.999999
v -0.000017 29.836157 9.045150
vt 0.500000 0.220655
vn -0.000000 0.001325 0.999999
v -0.000002 26.756855 9.049230
vt 0.500001 0.226231
vn -0.000000 0.001325 0.999999
v 2.924455 29.692486 9.045150
vt 0.588214 0.220921
vn 0.000130 0.001319 0.999999
v 2.622629 26.628016 9.049230
vt 0.579110 0.226469
vn 0.000130 0.001319 0.999999
v 5.820747 29.262859 9.045150
vt 0.675577 0.221716
vn 0.000258 0.001299 0.999999
v 5.220002 26.242731 9.049230
vt 0.657456 0.227182
vn 0.000258 0.001299 0.999999
v 8.660961 28.551428 9.045150
vt 0.761249 0.223033
vn 0.000384 0.001268 0.999999
v 7.767104 25.604713 9.049230
vt 0.734287 0.228363
vn 0.000384 0.001268 0.999999
v 11.417803 27.565012 9.045150
vt 0.844406 0.224859
vn 0.000507 0.001224 0.999999
v 10.239405 24.720112 9.049230
vt 0.808861 0.230000
vn 0.000507 0.001224 0.999999
v 14.064651 26.313148 9.045150
vt 0.924245 0.227175
vn 0.000625 0.001168 0.999999
v 12.613098 23.597445 9.049230
vt 0.880461 0.232078
vn 0.000625 0.001168 0.999999
v 16.576082 24.807858 9.045150
vt 1.000000 0.229961
vn 0.000682 0.001138 0.999999
v 14.865312 22.247517 9.049230
vt 0.948396 0.234576
vn 0.000682 0.001138 0.999999
v -14.865314 22.247513 -9.045150
vt 0.051604 0.779343
vn 0.514104 -0.857728 0.000000
v -14.865314 22.247513 9.049230
vt 0.051605 0.234574
vn 0.514104 -0.857728 0.000000
v -12.613098 23.597445 9.049230
vt 0.119540 0.232076
vn 0.514104 -0.857728 0.000000
v -12.613098 23.597445 -9.045150
vt 0.119539 0.776845
vn 0.514104 -0.857728 0.000000
v -12.613098 23.597445 -9.045150
vt 0.119539 0.776845
vn 0.427554 -0.903990 0.000000
v -12.613098 23.597445 9.049230
vt 0.119540 0.232076
vn 0.427554 -0.903990 0.000000
v -10.239408 24.720112 9.049230
vt 0.191140 0.229999
vn 0.427554 -0.903990 0.000000
v -10.239408 24.720112 -9.045150
vt 0.191139 0.774768
vn 0.427554 -0.903990 0.000000
v -10.239408 24.720112 -9.045150
vt 0.191139 0.774768
vn 0.336889 -0.941544 0.000000
v -10.239408 24.720112 9.049230
vt 0.191140 0.229999
vn 0.336889 -0.941544 0.000000
v -7.767106 25.604713 9.049230
vt 0.265715 0.228362
vn 0.336889 -0.941544 0.000000
v -7.767106 25.604713 -9.045150
vt 0.265714 0.773131
vn 0.336889 -0.941544 0.000000
v -7.767106 25.604713 -9.045150
vt 0.265714 0.773131
vn 0.242981 -0.970031 0.000000
v -7.767106 25.604713 9.049230
vt 0.265715 0.228362
vn 0.242981 -0.970031 0.000000
v -5.220005 26.242731 9.049230
vt 0.342545 0.227182
vn 0.242981 -0.970031 0.000000
v -5.220005 26.242731 -9.045150
vt 0.342544 0.771951
vn 0.242981 -0.970031 0.000000
v -5.220005 26.242731 -9.045150
vt 0.342544 0.771951
vn 0.146731 -0.989176 0.000000
v -5.220005 26.242731 9.049230
vt 0.342545 0.227182
vn 0.146731 -0.989176 0.000000
v -2.622632 26.628016 9.049230
vt 0.420892 0.226469
vn 0.146731 -0.989176 0.000000
v -2.622632 26.628016 -9.045150
vt 0.420891 0.771238
vn 0.146731 -0.989176 0.000000
v -2.622632 26.628016 -9.045150
vt 0.420891 0.771238
vn 0.049067 -0.998796 0.000000
v -2.622632 26.628016 9.049230
vt 0.420892 0.226469
vn 0.049067 -0.998796 0.000000
v -0.000002 26.756855 9.049230
vt 0.500001 0.226231
vn 0.049067 -0.998796 0.000000
v -0.000002 26.756855 -9.045150
vt 0.500000 0.771000
vn 0.049067 -0.998796 0.000000
v -0.000002 26.756855 -9.045150
vt 0.500000 0.771000
vn -0.049067 -0.998796 0.000000
v -0.000002 26.756855 9.049230
vt 0.500001 0.226231
vn -0.049067 -0.998796 0.000000
v 2.622629 26.628016 9.049230
vt 0.579110 0.226469
vn -0.049067 -0.998796 0.000000
v 2.622629 26.628016 -9.045150
vt 0.579109 0.771238
vn -0.049067 -0.998796 0.000000
v 2.622629 26.628016 -9.045150
vt 0.579109 0.771238
vn -0.146731 -0.989176 0.000000
v 2.622629 26.628016 9.049230
vt 0.579110 0.226469
vn -0.146731 -0.989176 0.000000
v 5.220002 26.242731 9.049230
vt 0.657456 0.227182
vn -0.146731 -0.989176 0.000000
v 5.220002 26.242731 -9.045150
vt 0.657455 0.771951
vn -0.146731 -0.989176 0.000000
v 5.220002 26.242731 -9.045150
vt 0.657455 0.771951
vn -0.242981 -0.970031 0.000000
v 5.220002 26.242731 9.049230
vt 0.657456 0.227182
vn -0.242981 -0.970031 0.000000
v 7.767104 25.604713 9.049230
vt 0.734287 0.228363
vn -0.242981 -0.970031 0.000000
v 7.767104 25.604713 -9.045150
vt 0.734286 0.773132
vn -0.242981 -0.970031 0.000000
v 7.767104 25.604713 -9.045150
vt 0.734286 0.773132
vn -0.336889 -0.941544 0.000000
v 7.767104 25.604713 9.049230
vt 0.734287 0.228363
vn -0.336889 -0.941544 0.000000
v 10.239405 24.720112 9.049230
vt 0.808861 0.230000
vn -0.336889 -0.941544 0.000000
v 10.239405 24.720112 -9.045150
vt 0.808860 0.774769
vn -0.336889 -0.941544 0.000000
v 10.239405 24.720112 -9.045150
vt 0.808860 0.774769
vn -0.427553 -0.903990 0.000000
v 10.239405 24.720112 9.049230
vt 0.808861 0.230000
vn -0.427553 -0.903990 0.000000
v 12.613098 23.597445 9.049230
vt 0.880461 0.232078
vn -0.427553 -0.903990 0.000000
v 12.613098 23.597445 -9.045150
vt 0.880460 0.776847
vn -0.427553 -0.903990 0.000000
v 12.613098 23.597445 -9.045150
vt 0.880460 0.776847
vn -0.514104 -0.857728 0.000000
v 12.613098 23.597445 9.049230
vt 0.880461 0.232078
vn -0.514104 -0.857728 0.000000
v 14.865312 22.247517 9.049230
vt 0.948396 0.234576
vn -0.514104 -0.857728 0.000000
v 14.865312 22.247517 -9.045150
vt 0.948395 0.779345
vn -0.514104 -0.857728 0.000000
v -14.064673 26.313135 -9.045150
vt 0.075755 0.771820
vn -0.000000 0.000000 -1.000000
v -16.576101 24.807838 -9.045150
vt -0.000000 0.774605
vn -0.000000 0.000000 -1.000000
v -14.865314 22.247513 -9.045150
vt 0.051604 0.779343
vn -0.000000 0.000000 -1.000000
v -12.613098 23.597445 -9.045150
vt 0.119539 0.776845
vn -0.000000 0.000000 -1.000000
v -11.417791 27.565025 -9.045150
vt 0.155595 0.769503
vn -0.000000 0.000000 -1.000000
v -10.239408 24.720112 -9.045150
vt 0.191139 0.774768
vn -0.000000 0.000000 -1.000000
v -8.660999 28.551414 -9.045150
vt 0.238751 0.767678
vn -0.000000 0.000000 -1.000000
v -7.767106 25.604713 -9.045150
vt 0.265714 0.773131
vn -0.000000 0.000000 -1.000000
v -5.820769 29.262856 -9.045150
vt 0.324423 0.766362
vn -0.000000 0.000000 -1.000000
v -5.220005 26.242731 -9.045150
vt 0.342544 0.771951
vn -0.000000 0.000000 -1.000000
v -2.924460 29.692486 -9.045150
vt 0.411787 0.765567
vn -0.000000 0.000000 -1.000000
v -2.622632 26.628016 -9.045150
vt 0.420891 0.771238
vn -0.000000 0.000000 -1.000000
v 0.000013 29.836157 -9.045150
vt 0.500000 0.765301
vn -0.000000 0.000000 -1.000000
v -0.000002 26.756855 -9.045150
vt 0.500000 0.771000
vn -0.000000 0.000000 -1.000000
v 2.924450 29.692486 -9.045150
vt 0.588213 0.765568
vn -0.000000 0.000000 -1.000000
v 2.622629 26.628016 -9.045150
vt 0.579109 0.771238
vn -0.000000 0.000000 -1.000000
v 5.820738 29.262863 -9.045150
vt 0.675576 0.766363
vn -0.000000 0.000000 -1.000000
v 5.220002 26.242731 -9.045150
vt 0.657455 0.771951
vn -0.000000 0.000000 -1.000000
v 8.660955 28.551428 -9.045150
vt 0.761248 0.767679
vn -0.000000 0.000000 -1.000000
v 7.767104 25.604713 -9.045150
vt 0.734286 0.773132
vn -0.000000 0.000000 -1.000000
v 11.417780 27.565025 -9.045150
vt 0.844405 0.769505
vn -0.000000 0.000000 -1.000000
v 10.239405 24.720112 -9.045150
vt 0.808860 0.774769
vn -0.000000 0.000000 -1.000000
v 14.064678 26.313135 -9.045150
vt 0.924245 0.771821
vn -0.000000 0.000000 -1.000000
v 12.613098 23.597445 -9.045150
vt 0.880460 0.776847
vn -0.000000 0.000000 -1.000000
v 16.576090 24.807858 -9.045150
vt 0.999999 0.774607
vn -0.000000 0.000000 -1.000000
v 14.865312 22.247517 -9.045150
vt 0.948395 0.779345
vn -0.000000 0.000000 -1.000000
v -16.576080 24.807858 9.045150
vt 0.000002 0.229959
vn -0.831467 -0.555574 0.000000
v -14.865314 22.247513 9.049230
vt 0.051605 0.234574
vn -0.831467 -0.555574 0.000000
v -14.865314 22.247513 -9.045150
vt 0.051604 0.779343
vn -0.831467 -0.555574 0.000000
v -16.576101 24.807838 -9.045150
vt -0.000000 0.774605
vn -0.831467 -0.555574 0.000000
v 16.576090 24.807858 -9.045150
vt 0.999999 0.774607
vn 0.831468 -0.555573 0.000000
v 14.865312 22.247517 -9.045150
vt 0.948395 0.779345
vn 0.831468 -0.555573 0.000000
v 14.865312 22.247517 9.049230
vt 0.948396 0.234576
vn 0.831468 -0.555573 0.000000
v 16.576082 24.807858 9.045150
vt 1.000000 0.229961
vn 0.831468 -0.555573 0.000000
# Faces (1 to 134)
g C_ENV_TunnelRing_03_0
f -132/-132/-132 -133/-133/-133 -134/-134/-134
f -131/-131/-131 -132/-132/-132 -134/-134/-134
f -130/-130/-130 -132/-132/-132 -131/-131/-131
f -129/-129/-129 -130/-130/-130 -131/-131/-131
f -128/-128/-128 -130/-130/-130 -129/-129/-129
f -127/-127/-127 -128/-128/-128 -129/-129/-129
f -126/-126/-126 -128/-128/-128 -127/-127/-127
f -125/-125/-125 -126/-126/-126 -127/-127/-127
f -124/-124/-124 -126/-126/-126 -125/-125/-125
f -123/-123/-123 -124/-124/-124 -125/-125/-125
f -122/-122/-122 -124/-124/-124 -123/-123/-123
f -121/-121/-121 -122/-122/-122 -123/-123/-123
f -120/-120/-120 -122/-122/-122 -121/-121/-121
f -119/-119/-119 -120/-120/-120 -121/-121/-121
f -118/-118/-118 -120/-120/-120 -119/-119/-119
f -117/-117/-117 -118/-118/-118 -119/-119/-119
f -116/-116/-116 -118/-118/-118 -117/-117/-117
f -115/-115/-115 -116/-116/-116 -117/-117/-117
f -114/-114/-114 -116/-116/-116 -115/-115/-115
f -113/-113/-113 -114/-114/-114 -115/-115/-115
f -112/-112/-112 -114/-114/-114 -113/-113/-113
f -111/-111/-111 -112/-112/-112 -113/-113/-113
f -110/-110/-110 -112/-112/-112 -111/-111/-111
f -109/-109/-109 -110/-110/-110 -111/-111/-111
f -106/-106/-106 -107/-107/-107 -108/-108/-108
f -107/-107/-107 -105/-105/-105 -108/-108/-108
f -108/-108/-108 -105/-105/-105 -104/-104/-104
f -105/-105/-105 -103/-103/-103 -104/-104/-104
f -104/-104/-104 -103/-103/-103 -102/-102/-102
f -103/-103/-103 -101/-101/-101 -102/-102/-102
f -102/-102/-102 -101/-101/-101 -100/-100/-100
f -101/-101/-101 -99/-99/-99 -100/-100/-100
f -100/-100/-100 -99/-99/-99 -98/-98/-98
f -99/-99/-99 -97/-97/-97 -98/-98/-98
f -98/-98/-98 -97/-97/-97 -96/-96/-96
f -97/-97/-97 -95/-95/-95 -96/-96/-96
f -96/-96/-96 -95/-95/-95 -94/-94/-94
f -95/-95/-95 -93/-93/-93 -94/-94/-94
f -94/-94/-94 -93/-93/-93 -92/-92/-92
f -93/-93/-93 -91/-91/-91 -92/-92/-92
f -92/-92/-92 -91/-91/-91 -90/-90/-90
f -91/-91/-91 -89/-89/-89 -90/-90/-90
f -90/-90/-90 -89/-89/-89 -88/-88/-88
f -89/-89/-89 -87/-87/-87 -88/-88/-88
f -88/-88/-88 -87/-87/-87 -86/-86/-86
f -87/-87/-87 -85/-85/-85 -86/-86/-86
f -86/-86/-86 -85/-85/-85 -84/-84/-84
f -85/-85/-85 -83/-83/-83 -84/-84/-84
f -80/-80/-80 -81/-81/-81 -82/-82/-82
f -79/-79/-79 -80/-80/-80 -82/-82/-82
f -76/-76/-76 -77/-77/-77 -78/-78/-78
f -75/-75/-75 -76/-76/-76 -78/-78/-78
f -72/-72/-72 -73/-73/-73 -74/-74/-74
f -71/-71/-71 -72/-72/-72 -74/-74/-74
f -68/-68/-68 -69/-69/-69 -70/-70/-70
f -67/-67/-67 -68/-68/-68 -70/-70/-70
f -64/-64/-64 -65/-65/-65 -66/-66/-66
f -63/-63/-63 -64/-64/-64 -66/-66/-66
f -60/-60/-60 -61/-61/-61 -62/-62/-62
f -59/-59/-59 -60/-60/-60 -62/-62/-62
f -56/-56/-56 -57/-57/-57 -58/-58/-58
f -55/-55/-55 -56/-56/-56 -58/-58/-58
f -52/-52/-52 -53/-53/-53 -54/-54/-54
f -51/-51/-51 -52/-52/-52 -54/-54/-54
f -48/-48/-48 -49/-49/-49 -50/-50/-50
f -47/-47/-47 -48/-48/-48 -50/-50/-50
f -44/-44/-44 -45/-45/-45 -46/-46/-46
f -43/-43/-43 -44/-44/-44 -46/-46/-46
f -40/-40/-40 -41/-41/-41 -42/-42/-42
f -39/-39/-39 -40/-40/-40 -42/-42/-42
f -36/-36/-36 -37/-37/-37 -38/-38/-38
f -35/-35/-35 -36/-36/-36 -38/-38/-38
f -32/-32/-32 -33/-33/-33 -34/-34/-34
f -31/-31/-31 -32/-32/-32 -34/-34/-34
f -31/-31/-31 -34/-34/-34 -30/-30/-30
f -29/-29/-29 -31/-31/-31 -30/-30/-30
f -29/-29/-29 -30/-30/-30 -28/-28/-28
f -27/-27/-27 -29/-29/-29 -28/-28/-28
f -27/-27/-27 -28/-28/-28 -26/-26/-26
f -25/-25/-25 -27/-27/-27 -26/-26/-26
f -25/-25/-25 -26/-26/-26 -24/-24/-24
f -23/-23/-23 -25/-25/-25 -24/-24/-24
f -23/-23/-23 -24/-24/-24 -22/-22/-22
f -21/-21/-21 -23/-23/-23 -22/-22/-22
f -21/-21/-21 -22/-22/-22 -20/-20/-20
f -19/-19/-19 -21/-21/-21 -20/-20/-20
f -19/-19/-19 -20/-20/-20 -18/-18/-18
f -17/-17/-17 -19/-19/-19 -18/-18/-18
f -17/-17/-17 -18/-18/-18 -16/-16/-16
f -15/-15/-15 -17/-17/-17 -16/-16/-16
f -15/-15/-15 -16/-16/-16 -14/-14/-14
f -13/-13/-13 -15/-15/-15 -14/-14/-14
f -13/-13/-13 -14/-14/-14 -12/-12/-12
f -11/-11/-11 -13/-13/-13 -12/-12/-12
f -11/-11/-11 -12/-12/-12 -10/-10/-10
f -9/-9/-9 -11/-11/-11 -10/-10/-10
f -6/-6/-6 -7/-7/-7 -8/-8/-8
f -5/-5/-5 -6/-6/-6 -8/-8/-8
f -2/-2/-2 -3/-3/-3 -4/-4/-4
f -1/-1/-1 -2/-2/-2 -4/-4/-4

