# Mesh "ENV_PushPullBlock03_MO" exported with Unity Assets Bundle Extractor; 24 vertices, 36 indices, 384 bits per vertex
g ENV_PushPullBlock03_MO
# SubMesh 0
# Vertices
v -2.500000 0.000000 2.525682
vt -4.000000 0.000000
vn -0.000000 0.000000 1.000000
v -2.500000 5.034150 2.525682
vt -4.000000 5.034151
vn -0.000000 0.000000 1.000000
v 2.500000 5.011383 2.525682
vt 1.000000 5.011384
vn -0.000000 0.000000 1.000000
v 2.500000 0.000000 2.525682
vt 1.000000 0.000000
vn -0.000000 0.000000 1.000000
v -2.500000 5.034150 2.525682
vt -4.000001 0.000010
vn 0.002277 0.999995 0.002253
v -2.500000 5.034150 -2.525682
vt -4.000001 5.051373
vn 0.002277 0.999995 0.002253
v 2.500000 5.034150 -2.525682
vt 0.999999 5.051373
vn 0.002277 0.999995 0.002253
v 2.500000 5.011383 2.525682
vt 0.999999 0.000010
vn 0.002277 0.999995 0.002253
v -2.500000 5.034150 -2.525682
vt -4.000000 -4.034146
vn -0.000000 0.000000 -1.000000
v -2.500000 0.000000 -2.525682
vt -3.999999 1.000002
vn -0.000000 0.000000 -1.000000
v 2.500000 0.000000 -2.525682
vt 1.000000 1.000000
vn -0.000000 0.000000 -1.000000
v 2.500000 5.034150 -2.525682
vt 1.000000 -4.034148
vn -0.000000 0.000000 -1.000000
v -2.500000 0.000000 -2.525682
vt -4.000000 -4.051364
vn -0.000000 -1.000000 0.000000
v -2.500000 0.000000 2.525682
vt -4.000000 1.000000
vn -0.000000 -1.000000 0.000000
v 2.500000 0.000000 2.525682
vt 1.000000 1.000000
vn -0.000000 -1.000000 0.000000
v 2.500000 0.000000 -2.525682
vt 1.000000 -4.051364
vn -0.000000 -1.000000 0.000000
v 2.500000 0.000000 2.525682
vt 0.000000 0.000000
vn 1.000000 0.000000 0.000000
v 2.500000 5.011383 2.525682
vt -0.000000 5.011384
vn 1.000000 0.000000 0.000000
v 2.500000 5.034150 -2.525682
vt 5.051365 5.034151
vn 1.000000 0.000000 0.000000
v 2.500000 0.000000 -2.525682
vt 5.051365 0.000000
vn 1.000000 0.000000 0.000000
v -2.500000 0.000000 -2.525682
vt -4.051363 -0.000002
vn -1.000000 0.000000 0.000000
v -2.500000 5.034150 -2.525682
vt -4.051364 5.034151
vn -1.000000 0.000000 0.000000
v -2.500000 5.034150 2.525682
vt 0.999999 5.034151
vn -1.000000 0.000000 0.000000
v -2.500000 0.000000 2.525682
vt 1.000000 -0.000002
vn -1.000000 0.000000 0.000000
# Faces (1 to 24)
g ENV_PushPullBlock03_MO_0
f -22/-22/-22 -23/-23/-23 -24/-24/-24
f -21/-21/-21 -22/-22/-22 -24/-24/-24
f -18/-18/-18 -19/-19/-19 -20/-20/-20
f -17/-17/-17 -18/-18/-18 -20/-20/-20
f -14/-14/-14 -15/-15/-15 -16/-16/-16
f -13/-13/-13 -14/-14/-14 -16/-16/-16
f -10/-10/-10 -11/-11/-11 -12/-12/-12
f -9/-9/-9 -10/-10/-10 -12/-12/-12
f -6/-6/-6 -7/-7/-7 -8/-8/-8
f -5/-5/-5 -6/-6/-6 -8/-8/-8
f -2/-2/-2 -3/-3/-3 -4/-4/-4
f -1/-1/-1 -2/-2/-2 -4/-4/-4

