# Mesh "ENV_RoundCloud_Small01" exported with Unity Assets Bundle Extractor; 104 vertices, 564 indices, 256 bits per vertex
g ENV_RoundCloud_Small01
# SubMesh 0
# Vertices
v -28.434935 -0.409131 18.898529
vt 0.955799 0.514838
vn -0.314471 0.533045 0.785475
v -25.679960 -10.272536 22.115746
vt 0.964493 0.523462
vn -0.236423 -0.015471 0.971527
v -35.760948 -12.225718 16.587223
vt 0.963633 0.489966
vn -0.722832 -0.114094 0.681540
v -15.349417 -11.939436 21.558964
vt 0.955498 0.549407
vn -0.293291 -0.074898 0.953085
v -37.949631 -1.849961 9.279458
vt 0.950402 0.489377
vn -0.845122 0.496655 0.197745
v -40.019028 -14.744449 6.493533
vt 0.941943 0.460182
vn -0.953265 -0.263487 0.147855
v -15.436087 0.923018 16.507069
vt 0.943448 0.537460
vn -0.372260 0.297244 0.879243
v -10.767469 -0.061059 25.777121
vt 0.935223 0.553692
vn -0.633222 0.366204 0.681854
v -10.462141 -14.563795 27.756342
vt 0.946003 0.567268
vn -0.578085 -0.382613 0.720712
v -0.921774 -4.330010 33.539677
vt 0.920422 0.570470
vn -0.199945 0.202923 0.958564
v 3.339796 -16.903206 32.430626
vt 0.920757 0.586613
vn -0.069408 -0.526137 0.847563
v 12.638521 -11.244093 32.833931
vt 0.897232 0.584053
vn 0.303180 -0.163539 0.938795
v 14.463110 0.298305 30.074808
vt 0.891255 0.570372
vn 0.406498 0.488642 0.772003
v 20.894173 -10.648695 27.540335
vt 0.872288 0.577043
vn 0.241041 0.101012 0.965244
v 24.408312 -0.371003 18.989706
vt 0.865698 0.557876
vn 0.462437 0.731914 0.500453
v 30.616390 -9.477601 28.749908
vt 0.850624 0.566863
vn 0.361964 0.400241 0.841897
v 37.956093 -7.259612 18.733347
vt 0.834824 0.537944
vn 0.645696 0.670454 0.365470
v 2.613115 7.541165 26.714691
vt 0.910719 0.559629
vn -0.088472 0.748632 0.657056
v -9.802275 6.510310 18.862186
vt 0.930973 0.545118
vn -0.363829 0.548622 0.752757
v 13.767177 9.248834 17.932611
vt 0.890004 0.555982
vn 0.402476 0.859009 0.316413
v -0.326891 11.441331 16.720860
vt 0.912978 0.549823
vn 0.187515 0.714181 0.674377
v -15.462446 13.566128 18.469479
vt 0.934160 0.536542
vn -0.249882 0.262883 0.931908
v -23.560591 5.252776 12.901377
vt 0.946091 0.520019
vn -0.587768 0.269590 0.762791
v -27.795780 7.109256 4.945240
vt 0.942204 0.506778
vn -0.790297 0.561926 0.244272
v -24.349815 20.098528 10.112302
vt 0.935412 0.521714
vn -0.758390 0.494939 0.424123
v 8.567019 12.306762 6.594973
vt 0.894956 0.545302
vn 0.551041 0.741482 0.382829
v -3.000479 20.954739 15.099024
vt 0.915991 0.542030
vn 0.500162 0.550969 0.668035
v -9.149923 27.797331 10.638021
vt 0.920276 0.533437
vn -0.114316 0.830852 0.544626
v -1.133738 28.682817 -1.317524
vt 0.907874 0.530056
vn 0.517161 0.855804 -0.012018
v 16.997023 7.870288 6.349860
vt 0.881629 0.546321
vn 0.389668 0.842701 0.371502
v -16.580458 29.103104 -2.194132
vt 0.920592 0.520792
vn -0.323279 0.944945 -0.050682
v -32.426102 1.664701 -5.780082
vt 0.935425 0.488706
vn -0.893268 0.397928 -0.209107
v -28.527592 8.757863 -5.411298
vt 0.933829 0.498740
vn -0.889127 0.436377 -0.137943
v -24.349012 21.936108 -4.907560
vt 0.926506 0.511689
vn -0.775826 0.530108 -0.342168
v -12.096796 23.963198 -13.075182
vt 0.912459 0.515089
vn -0.107829 0.707681 -0.698255
v -19.341116 13.611274 -15.240691
vt 0.918416 0.504061
vn -0.539415 0.626625 -0.562470
v -38.703606 -8.357301 -3.326339
vt 0.936515 0.473471
vn -0.918099 0.093176 -0.385243
v -26.624668 6.523767 -21.589146
vt 0.919954 0.493397
vn -0.703633 0.547865 -0.452488
v 6.411676 17.873932 -4.262378
vt 0.895555 0.532022
vn 0.481455 0.861585 -0.160850
v 0.375566 20.776669 -11.116883
vt 0.901254 0.522870
vn 0.488646 0.545377 -0.681020
v -8.187742 14.133697 -17.610941
vt 0.905763 0.510486
vn 0.163150 0.697841 -0.697424
v -16.990805 11.147876 -23.556522
vt 0.911857 0.501137
vn -0.184897 0.789328 -0.585469
v 2.306928 11.329541 -13.143345
vt 0.895088 0.518419
vn 0.378059 0.668160 -0.640807
v 16.140318 17.649340 -2.607888
vt 0.886146 0.536024
vn 0.430277 0.892116 0.137807
v -3.030920 7.896237 -27.431118
vt 0.897650 0.504411
vn 0.377163 0.637749 -0.671583
v -13.699923 1.917386 -32.850643
vt 0.903999 0.493860
vn -0.164442 0.340484 -0.925759
v -30.297997 -5.369153 -24.139555
vt 0.918250 0.481309
vn -0.832474 -0.039283 -0.552670
v 9.069262 14.624648 -14.185226
vt 0.889974 0.523375
vn -0.035931 0.761761 -0.646861
v 7.627210 4.234786 -17.038179
vt 0.886913 0.513407
vn 0.363802 0.550505 -0.751393
v 17.927694 11.343236 -15.219108
vt 0.881239 0.524158
vn 0.515917 0.505793 -0.691378
v 22.889090 9.221196 -2.099603
vt 0.874489 0.535957
vn 0.594026 0.803509 0.038811
v 31.859371 6.891608 4.794830
vt 0.862795 0.540115
vn 0.546599 0.817029 0.183557
v 23.049898 6.406131 -10.704907
vt 0.874387 0.525976
vn 0.506561 0.601370 -0.617859
v -31.811247 -11.047825 -10.543674
vt 0.924290 0.472600
vn -0.852172 -0.187936 -0.488347
v -35.301426 -22.692085 -1.602129
vt 0.923594 0.457373
vn -0.658183 -0.660208 -0.361829
v 17.384405 -0.009198 -15.262137
vt 0.876422 0.515141
vn 0.448130 0.390898 -0.803976
v 23.684034 -9.257646 -18.439783
vt 0.868098 0.506750
vn 0.529985 0.055727 -0.846174
v 17.032690 -4.184537 -22.745272
vt 0.876553 0.506667
vn 0.475620 0.529450 -0.702473
v 7.927408 -1.270967 -23.740108
vt 0.884962 0.504859
vn 0.465817 0.470602 -0.749366
v 15.526609 -15.440536 -26.552057
vt 0.874112 0.495424
vn 0.388198 -0.339168 -0.856894
v 3.695136 -7.848306 -29.537107
vt 0.885735 0.494653
vn 0.309001 -0.062911 -0.948979
v -26.562910 -19.715487 -10.437950
vt 0.912542 0.463635
vn -0.537017 -0.734277 -0.415271
v -14.731836 -9.302392 -33.539680
vt 0.900624 0.485004
vn -0.178341 -0.268150 -0.946726
v 36.332504 -1.833634 -8.889994
vt 0.859938 0.522933
vn 0.729296 0.461413 -0.505198
v -23.246374 -15.104308 -25.949091
vt 0.906878 0.476348
vn -0.571897 -0.597412 -0.562168
v -13.426714 -23.234810 -22.317110
vt 0.894617 0.471180
vn -0.208577 -0.875501 -0.435882
v -4.919538 -17.207054 -29.146130
vt 0.889529 0.482419
vn 0.205960 -0.594071 -0.777599
v 0.910616 -21.489988 -20.085423
vt 0.880073 0.478182
vn 0.088058 -0.853361 -0.513830
v -20.254965 -28.523878 0.411530
vt 0.899148 0.451739
vn 0.042889 -0.992401 -0.115330
v -16.874571 -24.015793 -5.414997
vt 0.895786 0.457782
vn -0.044822 -0.997137 -0.060904
v -7.748461 -25.661837 -11.002018
vt 0.885022 0.465871
vn 0.108791 -0.993294 -0.039126
v 1.862268 -22.304062 -3.434616
vt 0.869346 0.465738
vn -0.090480 -0.991319 -0.095390
v 10.125532 -25.351852 -18.154696
vt 0.870848 0.483153
vn 0.018122 -0.961355 -0.274713
v 18.572933 -23.454536 -12.045387
vt 0.861298 0.488587
vn 0.211268 -0.871183 -0.443178
v -30.414762 -25.651365 11.716002
vt 0.913071 0.442703
vn -0.380517 -0.850083 0.364095
v -11.725454 -22.300325 13.958372
vt 0.877033 0.441040
vn -0.157939 -0.910721 0.381630
v -35.760948 -12.225718 16.587223
vt 0.926949 0.434437
vn -0.722832 -0.114094 0.681540
v -9.345846 -21.814665 3.492871
vt 0.879833 0.453044
vn 0.013423 -0.991158 -0.132006
v -26.457207 -20.212196 19.064457
vt 0.903977 0.433152
vn -0.114289 -0.543665 0.831485
v -25.679960 -10.272536 22.115746
vt 0.903130 0.420866
vn -0.236423 -0.015471 0.971527
v -15.349417 -11.939436 21.558964
vt 0.879294 0.424269
vn -0.293291 -0.074898 0.953085
v -10.462141 -14.563795 27.756342
vt 0.860198 0.426501
vn -0.578085 -0.382613 0.720712
v 3.178988 -29.103104 9.666711
vt 0.856999 0.459796
vn -0.080677 -0.995260 -0.054300
v -0.691862 -26.293024 21.624922
vt 0.851658 0.448886
vn -0.208888 -0.856925 0.471217
v 17.390032 -23.537544 22.941080
vt 0.829768 0.474485
vn 0.111118 -0.806765 0.580330
v 3.339796 -16.903206 32.430626
vt 0.831671 0.444980
vn -0.069408 -0.526137 0.847563
v 12.638521 -11.244093 32.833931
vt 0.815042 0.460868
vn 0.303180 -0.163539 0.938795
v 20.894173 -10.648695 27.540335
vt 0.810732 0.481384
vn 0.241041 0.101012 0.965244
v 27.293385 -20.796467 28.471207
vt 0.820236 0.493446
vn 0.094707 -0.428040 0.898784
v 30.616390 -9.477601 28.749908
vt 0.811262 0.507968
vn 0.361964 0.400241 0.841897
v 40.019028 -16.432652 20.874487
vt 0.828480 0.520124
vn 0.931101 -0.224752 0.287292
v 36.273373 -5.641551 11.718157
vt 0.843954 0.536904
vn 0.859179 0.438832 0.263130
v 39.691727 -4.858232 4.344284
vt 0.848722 0.530225
vn 0.967211 0.233084 0.100874
v 36.513985 -17.255827 8.655000
vt 0.839174 0.515346
vn 0.975877 -0.214689 0.039663
v 32.387630 -24.160734 8.712502
vt 0.838535 0.502002
vn 0.531094 -0.847269 -0.008568
v 39.450466 -15.366158 -2.456954
vt 0.847980 0.515032
vn 0.921509 -0.339816 -0.188006
v 32.656391 -25.092758 22.881971
vt 0.827543 0.500367
vn 0.449728 -0.854067 0.261370
v 22.691717 -26.574711 17.548098
vt 0.833437 0.484720
vn -0.045242 -0.988957 0.141125
v 20.781185 -24.819054 11.527308
vt 0.839917 0.482727
vn 0.068129 -0.993511 0.091072
v 10.139284 -25.854630 0.468509
vt 0.858532 0.473033
vn -0.035129 -0.991871 -0.122307
v 20.253456 -28.592314 0.620227
vt 0.849761 0.484543
vn -0.026905 -0.996372 -0.080742
v 30.237322 -25.492558 -5.154030
vt 0.850452 0.498162
vn 0.463086 -0.848880 -0.254860
v 29.281624 -20.612703 -12.963917
vt 0.857510 0.500775
vn 0.469254 -0.489446 -0.735012
v 35.679848 -11.143823 -11.065135
vt 0.857035 0.513391
vn 0.688264 -0.102620 -0.718166
# Faces (1 to 104)
g ENV_RoundCloud_Small01_0
f -102/-102/-102 -103/-103/-103 -104/-104/-104
f -101/-101/-101 -104/-104/-104 -103/-103/-103
f -100/-100/-100 -102/-102/-102 -104/-104/-104
f -99/-99/-99 -102/-102/-102 -100/-100/-100
f -98/-98/-98 -104/-104/-104 -101/-101/-101
f -98/-98/-98 -101/-101/-101 -97/-97/-97
f -96/-96/-96 -97/-97/-97 -101/-101/-101
f -95/-95/-95 -97/-97/-97 -96/-96/-96
f -94/-94/-94 -95/-95/-95 -96/-96/-96
f -95/-95/-95 -94/-94/-94 -93/-93/-93
f -92/-92/-92 -95/-95/-95 -93/-93/-93
f -92/-92/-92 -93/-93/-93 -91/-91/-91
f -90/-90/-90 -92/-92/-92 -91/-91/-91
f -90/-90/-90 -91/-91/-91 -89/-89/-89
f -89/-89/-89 -88/-88/-88 -90/-90/-90
f -97/-97/-97 -95/-95/-95 -87/-87/-87
f -87/-87/-87 -95/-95/-95 -92/-92/-92
f -86/-86/-86 -98/-98/-98 -97/-97/-97
f -86/-86/-86 -97/-97/-97 -87/-87/-87
f -92/-92/-92 -85/-85/-85 -87/-87/-87
f -90/-90/-90 -85/-85/-85 -92/-92/-92
f -87/-87/-87 -84/-84/-84 -86/-86/-86
f -87/-87/-87 -85/-85/-85 -84/-84/-84
f -98/-98/-98 -86/-86/-86 -83/-83/-83
f -86/-86/-86 -84/-84/-84 -83/-83/-83
f -98/-98/-98 -83/-83/-83 -82/-82/-82
f -104/-104/-104 -98/-98/-98 -82/-82/-82
f -104/-104/-104 -82/-82/-82 -81/-81/-81
f -104/-104/-104 -81/-81/-81 -100/-100/-100
f -82/-82/-82 -83/-83/-83 -80/-80/-80
f -80/-80/-80 -81/-81/-81 -82/-82/-82
f -84/-84/-84 -85/-85/-85 -79/-79/-79
f -83/-83/-83 -84/-84/-84 -78/-78/-78
f -79/-79/-79 -78/-78/-78 -84/-84/-84
f -77/-77/-77 -83/-83/-83 -78/-78/-78
f -80/-80/-80 -83/-83/-83 -77/-77/-77
f -78/-78/-78 -76/-76/-76 -77/-77/-77
f -76/-76/-76 -78/-78/-78 -79/-79/-79
f -75/-75/-75 -85/-85/-85 -90/-90/-90
f -79/-79/-79 -85/-85/-85 -75/-75/-75
f -74/-74/-74 -80/-80/-80 -77/-77/-77
f -74/-74/-74 -77/-77/-77 -76/-76/-76
f -100/-100/-100 -81/-81/-81 -73/-73/-73
f -72/-72/-72 -81/-81/-81 -80/-80/-80
f -81/-81/-81 -72/-72/-72 -73/-73/-73
f -80/-80/-80 -74/-74/-74 -71/-71/-71
f -71/-71/-71 -72/-72/-72 -80/-80/-80
f -70/-70/-70 -71/-71/-71 -74/-74/-74
f -74/-74/-74 -76/-76/-76 -70/-70/-70
f -69/-69/-69 -72/-72/-72 -71/-71/-71
f -70/-70/-70 -69/-69/-69 -71/-71/-71
f -68/-68/-68 -100/-100/-100 -73/-73/-73
f -68/-68/-68 -99/-99/-99 -100/-100/-100
f -72/-72/-72 -69/-69/-69 -67/-67/-67
f -73/-73/-73 -72/-72/-72 -67/-67/-67
f -76/-76/-76 -79/-79/-79 -66/-66/-66
f -70/-70/-70 -76/-76/-76 -65/-65/-65
f -65/-65/-65 -76/-76/-76 -66/-66/-66
f -70/-70/-70 -64/-64/-64 -69/-69/-69
f -70/-70/-70 -65/-65/-65 -64/-64/-64
f -69/-69/-69 -63/-63/-63 -67/-67/-67
f -69/-69/-69 -64/-64/-64 -63/-63/-63
f -65/-65/-65 -62/-62/-62 -64/-64/-64
f -65/-65/-65 -66/-66/-66 -62/-62/-62
f -79/-79/-79 -61/-61/-61 -66/-66/-66
f -61/-61/-61 -79/-79/-79 -75/-75/-75
f -63/-63/-63 -64/-64/-64 -60/-60/-60
f -64/-64/-64 -62/-62/-62 -60/-60/-60
f -59/-59/-59 -67/-67/-67 -63/-63/-63
f -59/-59/-59 -63/-63/-63 -60/-60/-60
f -67/-67/-67 -58/-58/-58 -73/-73/-73
f -67/-67/-67 -59/-59/-59 -58/-58/-58
f -66/-66/-66 -57/-57/-57 -62/-62/-62
f -66/-66/-66 -61/-61/-61 -57/-57/-57
f -57/-57/-57 -56/-56/-56 -62/-62/-62
f -60/-60/-60 -62/-62/-62 -56/-56/-56
f -55/-55/-55 -57/-57/-57 -61/-61/-61
f -55/-55/-55 -56/-56/-56 -57/-57/-57
f -61/-61/-61 -75/-75/-75 -54/-54/-54
f -55/-55/-55 -61/-61/-61 -54/-54/-54
f -75/-75/-75 -53/-53/-53 -54/-54/-54
f -90/-90/-90 -53/-53/-53 -75/-75/-75
f -55/-55/-55 -54/-54/-54 -52/-52/-52
f -52/-52/-52 -54/-54/-54 -53/-53/-53
f -58/-58/-58 -51/-51/-51 -73/-73/-73
f -73/-73/-73 -51/-51/-51 -68/-68/-68
f -68/-68/-68 -51/-51/-51 -50/-50/-50
f -68/-68/-68 -50/-50/-50 -99/-99/-99
f -49/-49/-49 -56/-56/-56 -55/-55/-55
f -55/-55/-55 -52/-52/-52 -49/-49/-49
f -52/-52/-52 -48/-48/-48 -49/-49/-49
f -56/-56/-56 -49/-49/-49 -47/-47/-47
f -47/-47/-47 -49/-49/-49 -48/-48/-48
f -46/-46/-46 -56/-56/-56 -47/-47/-47
f -46/-46/-46 -60/-60/-60 -56/-56/-56
f -46/-46/-46 -47/-47/-47 -45/-45/-45
f -47/-47/-47 -48/-48/-48 -45/-45/-45
f -46/-46/-46 -44/-44/-44 -60/-60/-60
f -45/-45/-45 -44/-44/-44 -46/-46/-46
f -60/-60/-60 -44/-44/-44 -59/-59/-59
f -50/-50/-50 -51/-51/-51 -43/-43/-43
f -58/-58/-58 -43/-43/-43 -51/-51/-51
f -58/-58/-58 -59/-59/-59 -42/-42/-42
f -59/-59/-59 -44/-44/-44 -42/-42/-42
f -41/-41/-41 -48/-48/-48 -52/-52/-52
f -41/-41/-41 -52/-52/-52 -53/-53/-53
f -40/-40/-40 -43/-43/-43 -58/-58/-58
f -42/-42/-42 -40/-40/-40 -58/-58/-58
f -42/-42/-42 -39/-39/-39 -40/-40/-40
f -40/-40/-40 -39/-39/-39 -43/-43/-43
f -44/-44/-44 -38/-38/-38 -42/-42/-42
f -42/-42/-42 -38/-38/-38 -39/-39/-39
f -37/-37/-37 -38/-38/-38 -44/-44/-44
f -37/-37/-37 -39/-39/-39 -38/-38/-38
f -45/-45/-45 -37/-37/-37 -44/-44/-44
f -50/-50/-50 -43/-43/-43 -36/-36/-36
f -39/-39/-39 -35/-35/-35 -43/-43/-43
f -35/-35/-35 -36/-36/-36 -43/-43/-43
f -37/-37/-37 -34/-34/-34 -39/-39/-39
f -34/-34/-34 -35/-35/-35 -39/-39/-39
f -37/-37/-37 -33/-33/-33 -34/-34/-34
f -33/-33/-33 -35/-35/-35 -34/-34/-34
f -45/-45/-45 -32/-32/-32 -37/-37/-37
f -32/-32/-32 -33/-33/-33 -37/-37/-37
f -45/-45/-45 -31/-31/-31 -32/-32/-32
f -33/-33/-33 -32/-32/-32 -31/-31/-31
f -45/-45/-45 -48/-48/-48 -31/-31/-31
f -36/-36/-36 -30/-30/-30 -50/-50/-50
f -36/-36/-36 -29/-29/-29 -30/-30/-30
f -50/-50/-50 -30/-30/-30 -99/-99/-99
f -28/-28/-28 -99/-99/-99 -30/-30/-30
f -35/-35/-35 -27/-27/-27 -36/-36/-36
f -35/-35/-35 -33/-33/-33 -27/-27/-27
f -27/-27/-27 -29/-29/-29 -36/-36/-36
f -30/-30/-30 -26/-26/-26 -28/-28/-28
f -26/-26/-26 -30/-30/-30 -29/-29/-29
f -25/-25/-25 -28/-28/-28 -26/-26/-26
f -26/-26/-26 -24/-24/-24 -25/-25/-25
f -26/-26/-26 -29/-29/-29 -24/-24/-24
f -29/-29/-29 -23/-23/-23 -24/-24/-24
f -22/-22/-22 -29/-29/-29 -27/-27/-27
f -22/-22/-22 -27/-27/-27 -33/-33/-33
f -29/-29/-29 -21/-21/-21 -23/-23/-23
f -29/-29/-29 -22/-22/-22 -21/-21/-21
f -22/-22/-22 -20/-20/-20 -21/-21/-21
f -21/-21/-21 -19/-19/-19 -23/-23/-23
f -21/-21/-21 -20/-20/-20 -19/-19/-19
f -20/-20/-20 -18/-18/-18 -19/-19/-19
f -20/-20/-20 -17/-17/-17 -18/-18/-18
f -20/-20/-20 -16/-16/-16 -17/-17/-17
f -15/-15/-15 -17/-17/-17 -16/-16/-16
f -16/-16/-16 -14/-14/-14 -15/-15/-15
f -14/-14/-14 -88/-88/-88 -15/-15/-15
f -13/-13/-13 -88/-88/-88 -14/-14/-14
f -13/-13/-13 -90/-90/-90 -88/-88/-88
f -13/-13/-13 -53/-53/-53 -90/-90/-90
f -13/-13/-13 -12/-12/-12 -53/-53/-53
f -41/-41/-41 -53/-53/-53 -12/-12/-12
f -13/-13/-13 -11/-11/-11 -12/-12/-12
f -14/-14/-14 -11/-11/-11 -13/-13/-13
f -14/-14/-14 -10/-10/-10 -11/-11/-11
f -9/-9/-9 -12/-12/-12 -11/-11/-11
f -41/-41/-41 -12/-12/-12 -9/-9/-9
f -10/-10/-10 -9/-9/-9 -11/-11/-11
f -14/-14/-14 -16/-16/-16 -8/-8/-8
f -10/-10/-10 -14/-14/-14 -8/-8/-8
f -16/-16/-16 -7/-7/-7 -8/-8/-8
f -20/-20/-20 -7/-7/-7 -16/-16/-16
f -10/-10/-10 -8/-8/-8 -7/-7/-7
f -7/-7/-7 -20/-20/-20 -6/-6/-6
f -10/-10/-10 -7/-7/-7 -6/-6/-6
f -6/-6/-6 -20/-20/-20 -22/-22/-22
f -6/-6/-6 -22/-22/-22 -5/-5/-5
f -33/-33/-33 -5/-5/-5 -22/-22/-22
f -4/-4/-4 -6/-6/-6 -5/-5/-5
f -4/-4/-4 -5/-5/-5 -33/-33/-33
f -6/-6/-6 -4/-4/-4 -10/-10/-10
f -31/-31/-31 -4/-4/-4 -33/-33/-33
f -3/-3/-3 -10/-10/-10 -4/-4/-4
f -3/-3/-3 -4/-4/-4 -31/-31/-31
f -9/-9/-9 -10/-10/-10 -3/-3/-3
f -3/-3/-3 -31/-31/-31 -2/-2/-2
f -3/-3/-3 -2/-2/-2 -9/-9/-9
f -31/-31/-31 -48/-48/-48 -2/-2/-2
f -1/-1/-1 -9/-9/-9 -2/-2/-2
f -48/-48/-48 -1/-1/-1 -2/-2/-2
f -9/-9/-9 -1/-1/-1 -41/-41/-41
f -1/-1/-1 -48/-48/-48 -41/-41/-41

