# Mesh "ENV_Rail_MO" exported with Unity Assets Bundle Extractor; 82 vertices, 288 indices, 448 bits per vertex
g ENV_Rail_MO
# SubMesh 0
# Vertices
v -26.988213 -0.047568 0.080493
vt 0.505654 0.008061
vn -0.994200 0.000000 0.107552
v -26.964640 0.028545 0.137427
vt 0.506260 0.009736
vn -0.922522 0.055339 0.381956
v -26.964640 -0.047568 0.137427
vt 0.507113 0.008904
vn -0.923942 0.000000 0.382533
v -26.988213 0.028545 0.080493
vt 0.505237 0.009177
vn -0.992449 0.059767 0.107114
v -26.982641 0.041997 0.079399
vt 0.505177 0.009426
vn -0.916691 0.387461 0.097733
v -26.960379 0.041997 0.133149
vt 0.506095 0.009882
vn -0.853612 0.382614 0.353488
v -26.982651 0.041997 -0.079341
vt 0.502225 0.009428
vn -0.916792 0.387291 -0.097455
v -26.988213 0.028545 -0.080469
vt 0.502172 0.009188
vn -0.992449 0.059704 -0.107149
v -26.988213 -0.047568 -0.080469
vt 0.501727 0.007872
vn -0.994198 0.000000 -0.107564
v -26.960405 0.041997 -0.133091
vt 0.501301 0.009816
vn -0.853857 0.382024 -0.353535
v -26.964640 -0.047568 -0.137378
vt 0.500235 0.008832
vn -0.923884 0.000000 -0.382673
v -26.964640 0.028545 -0.137378
vt 0.501145 0.009655
vn -0.922482 0.055201 -0.382073
v 26.907734 -0.047568 0.160996
vt 0.500809 0.989724
vn 0.000874 0.000000 1.000000
v 26.964640 0.028545 0.137427
vt 0.498853 0.990347
vn 0.382081 0.055430 0.922465
v 26.964640 -0.047568 0.137427
vt 0.499763 0.991169
vn 0.382653 0.000000 0.923892
v 26.907734 0.028545 0.160996
vt 0.499457 0.989376
vn 0.000869 0.059675 0.998218
v 26.906654 0.041997 0.155415
vt 0.499190 0.989332
vn 0.000787 0.383122 0.923697
v 26.960373 0.041997 0.133149
vt 0.498697 0.990185
vn 0.353593 0.382953 0.853416
v 0.000001 0.041997 0.155420
vt 0.502872 0.500032
vn -0.000000 0.382924 0.923780
v -0.000000 0.028545 0.160996
vt 0.503139 0.500035
vn -0.000000 0.062137 0.998068
v -0.000000 -0.047568 0.160996
vt 0.504492 0.500036
vn -0.000000 0.000000 1.000000
v -26.906626 0.041997 0.155425
vt 0.506554 0.010732
vn -0.000785 0.382837 0.923816
v -26.907734 0.028545 0.160996
vt 0.506821 0.010695
vn -0.000869 0.059554 0.998225
v -26.907734 -0.047568 0.160996
vt 0.508175 0.010347
vn -0.000874 0.000000 1.000000
v -26.960379 0.041997 0.133149
vt 0.506095 0.009882
vn -0.353557 0.383000 0.853410
v -26.964640 -0.047568 0.137427
vt 0.507113 0.008904
vn -0.382653 0.000000 0.923892
v -26.964640 0.028545 0.137427
vt 0.506260 0.009736
vn -0.382076 0.055462 0.922465
v -26.964640 0.028545 -0.137378
vt 0.501145 0.009655
vn -0.382416 0.055507 -0.922322
v -26.964640 -0.047568 -0.137378
vt 0.500235 0.008832
vn -0.382991 0.000000 -0.923752
v -26.907734 -0.047568 -0.160972
vt 0.499189 0.010277
vn -0.000875 0.000000 -1.000000
v -26.907734 0.028545 -0.160972
vt 0.500542 0.010624
vn -0.000870 0.059680 -0.998217
v -26.906656 0.041997 -0.155391
vt 0.500808 0.010668
vn -0.000788 0.383122 -0.923697
v -26.960405 0.041997 -0.133091
vt 0.501301 0.009816
vn -0.353913 0.382865 -0.853323
v 0.000001 0.041997 -0.155396
vt 0.497126 0.499970
vn -0.000000 0.382924 -0.923780
v -0.000000 0.028545 -0.160972
vt 0.496859 0.499967
vn -0.000000 0.062137 -0.998068
v -0.000000 -0.047568 -0.160972
vt 0.495506 0.499968
vn -0.000000 0.000000 -1.000000
v 26.906626 0.041997 -0.155400
vt 0.493444 0.989273
vn 0.000786 0.382836 -0.923816
v 26.907734 0.028545 -0.160972
vt 0.493177 0.989310
vn 0.000870 0.059554 -0.998225
v 26.907734 -0.047568 -0.160972
vt 0.491823 0.989659
vn 0.000875 0.000000 -1.000000
v 26.960373 0.041997 -0.133115
vt 0.493905 0.990121
vn 0.353860 0.382594 -0.853466
v 26.964640 -0.047568 -0.137378
vt 0.492890 0.991101
vn 0.382991 0.000000 -0.923752
v 26.964640 0.028545 -0.137378
vt 0.493740 0.990268
vn 0.382405 0.055370 -0.922334
v 26.964640 0.028545 -0.137378
vt 0.493740 0.990268
vn 0.922464 0.055394 -0.382089
v 26.964640 -0.047568 -0.137378
vt 0.492890 0.991101
vn 0.923884 0.000000 -0.382673
v 26.988213 -0.047568 -0.080469
vt 0.494350 0.991941
vn 0.994198 0.000000 -0.107564
v 26.988213 0.028545 -0.080469
vt 0.494765 0.990824
vn 0.992446 0.059791 -0.107125
v 26.982635 0.041997 -0.079375
vt 0.494824 0.990574
vn 0.916634 0.387592 -0.097750
v 26.960373 0.041997 -0.133115
vt 0.493905 0.990121
vn 0.853540 0.382700 -0.353567
v 26.982651 0.041997 0.079365
vt 0.497772 0.990575
vn 0.916664 0.387587 0.097488
v 26.988213 0.028545 0.080493
vt 0.497826 0.990814
vn 0.992446 0.059760 0.107145
v 26.988213 -0.047568 0.080493
vt 0.498273 0.992129
vn 0.994200 0.000000 0.107552
v 26.960373 0.041997 0.133149
vt 0.498697 0.990185
vn 0.853576 0.382703 0.353477
v 26.964640 -0.047568 0.137427
vt 0.499763 0.991169
vn 0.923942 0.000000 0.382533
v 26.964640 0.028545 0.137427
vt 0.498853 0.990347
vn 0.922520 0.055374 0.381955
v -26.903952 0.047568 0.141958
vt 0.506286 0.010776
vn -0.000016 0.999784 0.020802
v 0.000001 0.041997 0.155420
vt 0.502872 0.500032
vn 0.000000 0.924168 0.381987
v -26.906626 0.041997 0.155425
vt 0.506554 0.010732
vn -0.000293 0.924127 0.382086
v -0.000000 0.047568 0.141941
vt 0.502604 0.500028
vn -0.000000 0.999825 0.018735
v 26.906654 0.041997 0.155415
vt 0.499190 0.989332
vn 0.000290 0.924248 0.381792
v 26.904060 0.047568 0.141924
vt 0.498923 0.989283
vn 0.000016 0.999785 0.020750
v 26.960373 0.041997 0.133149
vt 0.498697 0.990185
vn 0.252866 0.934003 0.252384
v -26.950077 0.047568 0.122866
vt 0.505918 0.010036
vn -0.152036 0.976605 0.152080
v -26.960379 0.041997 0.133149
vt 0.506095 0.009882
vn -0.252777 0.933958 0.252638
v -26.969187 0.047568 0.076724
vt 0.505117 0.009677
vn -0.051652 0.998652 0.005194
v -26.982641 0.041997 0.079399
vt 0.505177 0.009426
vn -0.376139 0.925791 0.037818
v -26.969223 0.047568 -0.076572
vt 0.502281 0.009668
vn -0.051729 0.998648 -0.005145
v -26.982651 0.041997 -0.079341
vt 0.502225 0.009428
vn -0.376230 0.925749 -0.037934
v -26.904060 0.047568 -0.141899
vt 0.501075 0.010717
vn -0.000016 0.999785 -0.020751
v -26.950186 0.047568 -0.122749
vt 0.501471 0.009984
vn -0.152389 0.976606 -0.151721
v -26.960405 0.041997 -0.133091
vt 0.501301 0.009816
vn -0.252463 0.933920 -0.253092
v -26.906656 0.041997 -0.155391
vt 0.500808 0.010668
vn -0.000291 0.924249 -0.381791
v 0.000002 0.047568 -0.141916
vt 0.497394 0.499974
vn -0.000000 0.999825 -0.018735
v 0.000001 0.041997 -0.155396
vt 0.497126 0.499970
vn -0.000000 0.924168 -0.381987
v 26.903948 0.047568 -0.141934
vt 0.493712 0.989228
vn 0.000016 0.999784 -0.020806
v 26.906626 0.041997 -0.155400
vt 0.493444 0.989273
vn 0.000293 0.924127 -0.382086
v 26.950077 0.047568 -0.122832
vt 0.494081 0.989966
vn 0.152074 0.976594 -0.152108
v 26.960373 0.041997 -0.133115
vt 0.493905 0.990121
vn 0.252769 0.933946 -0.252690
v 26.969187 0.047568 -0.076699
vt 0.494883 0.990322
vn 0.051657 0.998651 -0.005194
v 26.982635 0.041997 -0.079375
vt 0.494824 0.990574
vn 0.376101 0.925807 -0.037811
v 26.969213 0.047568 0.076597
vt 0.497716 0.990335
vn 0.051743 0.998647 0.005165
v 26.982651 0.041997 0.079365
vt 0.497772 0.990575
vn 0.375961 0.925856 0.038007
v 26.950077 0.047568 0.122866
vt 0.498528 0.990015
vn 0.152116 0.976621 0.151893
# Faces (1 to 82)
g ENV_Rail_MO_0
f -80/-80/-80 -81/-81/-81 -82/-82/-82
f -81/-81/-81 -79/-79/-79 -82/-82/-82
f -79/-79/-79 -81/-81/-81 -78/-78/-78
f -81/-81/-81 -77/-77/-77 -78/-78/-78
f -78/-78/-78 -76/-76/-76 -79/-79/-79
f -82/-82/-82 -79/-79/-79 -75/-75/-75
f -76/-76/-76 -75/-75/-75 -79/-79/-79
f -74/-74/-74 -82/-82/-82 -75/-75/-75
f -76/-76/-76 -73/-73/-73 -75/-75/-75
f -72/-72/-72 -74/-74/-74 -75/-75/-75
f -73/-73/-73 -71/-71/-71 -75/-75/-75
f -71/-71/-71 -72/-72/-72 -75/-75/-75
f -68/-68/-68 -69/-69/-69 -70/-70/-70
f -69/-69/-69 -67/-67/-67 -70/-70/-70
f -67/-67/-67 -69/-69/-69 -66/-66/-66
f -69/-69/-69 -65/-65/-65 -66/-66/-66
f -67/-67/-67 -66/-66/-66 -64/-64/-64
f -70/-70/-70 -67/-67/-67 -63/-63/-63
f -63/-63/-63 -67/-67/-67 -64/-64/-64
f -62/-62/-62 -70/-70/-70 -63/-63/-63
f -63/-63/-63 -64/-64/-64 -61/-61/-61
f -62/-62/-62 -63/-63/-63 -60/-60/-60
f -60/-60/-60 -63/-63/-63 -61/-61/-61
f -59/-59/-59 -62/-62/-62 -60/-60/-60
f -61/-61/-61 -58/-58/-58 -60/-60/-60
f -59/-59/-59 -60/-60/-60 -57/-57/-57
f -58/-58/-58 -56/-56/-56 -60/-60/-60
f -60/-60/-60 -56/-56/-56 -57/-57/-57
f -53/-53/-53 -54/-54/-54 -55/-55/-55
f -52/-52/-52 -53/-53/-53 -55/-55/-55
f -52/-52/-52 -55/-55/-55 -51/-51/-51
f -55/-55/-55 -50/-50/-50 -51/-51/-51
f -51/-51/-51 -49/-49/-49 -52/-52/-52
f -52/-52/-52 -48/-48/-48 -53/-53/-53
f -49/-49/-49 -48/-48/-48 -52/-52/-52
f -48/-48/-48 -47/-47/-47 -53/-53/-53
f -49/-49/-49 -46/-46/-46 -48/-48/-48
f -48/-48/-48 -45/-45/-45 -47/-47/-47
f -46/-46/-46 -45/-45/-45 -48/-48/-48
f -45/-45/-45 -44/-44/-44 -47/-47/-47
f -46/-46/-46 -43/-43/-43 -45/-45/-45
f -42/-42/-42 -44/-44/-44 -45/-45/-45
f -43/-43/-43 -41/-41/-41 -45/-45/-45
f -41/-41/-41 -42/-42/-42 -45/-45/-45
f -38/-38/-38 -39/-39/-39 -40/-40/-40
f -37/-37/-37 -38/-38/-38 -40/-40/-40
f -37/-37/-37 -40/-40/-40 -36/-36/-36
f -40/-40/-40 -35/-35/-35 -36/-36/-36
f -37/-37/-37 -36/-36/-36 -34/-34/-34
f -38/-38/-38 -37/-37/-37 -33/-33/-33
f -33/-33/-33 -37/-37/-37 -34/-34/-34
f -32/-32/-32 -38/-38/-38 -33/-33/-33
f -34/-34/-34 -31/-31/-31 -33/-33/-33
f -32/-32/-32 -33/-33/-33 -30/-30/-30
f -31/-31/-31 -29/-29/-29 -33/-33/-33
f -33/-33/-33 -29/-29/-29 -30/-30/-30
f -26/-26/-26 -27/-27/-27 -28/-28/-28
f -27/-27/-27 -25/-25/-25 -28/-28/-28
f -27/-27/-27 -24/-24/-24 -25/-25/-25
f -24/-24/-24 -23/-23/-23 -25/-25/-25
f -24/-24/-24 -22/-22/-22 -23/-23/-23
f -28/-28/-28 -21/-21/-21 -26/-26/-26
f -21/-21/-21 -20/-20/-20 -26/-26/-26
f -20/-20/-20 -21/-21/-21 -19/-19/-19
f -19/-19/-19 -21/-21/-21 -28/-28/-28
f -18/-18/-18 -20/-20/-20 -19/-19/-19
f -19/-19/-19 -17/-17/-17 -18/-18/-18
f -17/-17/-17 -19/-19/-19 -28/-28/-28
f -17/-17/-17 -16/-16/-16 -18/-18/-18
f -15/-15/-15 -28/-28/-28 -25/-25/-25
f -15/-15/-15 -17/-17/-17 -28/-28/-28
f -17/-17/-17 -14/-14/-14 -16/-16/-16
f -15/-15/-15 -14/-14/-14 -17/-17/-17
f -14/-14/-14 -13/-13/-13 -16/-16/-16
f -13/-13/-13 -14/-14/-14 -15/-15/-15
f -12/-12/-12 -13/-13/-13 -15/-15/-15
f -11/-11/-11 -15/-15/-15 -25/-25/-25
f -15/-15/-15 -11/-11/-11 -12/-12/-12
f -11/-11/-11 -10/-10/-10 -12/-12/-12
f -11/-11/-11 -25/-25/-25 -23/-23/-23
f -11/-11/-11 -9/-9/-9 -10/-10/-10
f -9/-9/-9 -11/-11/-11 -23/-23/-23
f -9/-9/-9 -8/-8/-8 -10/-10/-10
f -9/-9/-9 -7/-7/-7 -8/-8/-8
f -7/-7/-7 -6/-6/-6 -8/-8/-8
f -9/-9/-9 -5/-5/-5 -7/-7/-7
f -6/-6/-6 -7/-7/-7 -5/-5/-5
f -9/-9/-9 -23/-23/-23 -5/-5/-5
f -4/-4/-4 -6/-6/-6 -5/-5/-5
f -4/-4/-4 -5/-5/-5 -3/-3/-3
f -23/-23/-23 -3/-3/-3 -5/-5/-5
f -2/-2/-2 -4/-4/-4 -3/-3/-3
f -23/-23/-23 -1/-1/-1 -3/-3/-3
f -3/-3/-3 -1/-1/-1 -2/-2/-2
f -22/-22/-22 -1/-1/-1 -23/-23/-23
f -1/-1/-1 -22/-22/-22 -2/-2/-2

