# Mesh "ENV_RoundBush_Red" exported with Unity Assets Bundle Extractor; 161 vertices, 768 indices, 448 bits per vertex
g ENV_RoundBush_Red
# SubMesh 0
# Vertices
v 15.978608 12.608385 2.611980
vt 0.070155 0.567681
vn 0.943365 -0.331206 0.019085
v 15.929070 15.449534 -3.208133
vt 0.089112 0.577597
vn 0.960259 0.269251 -0.073531
v 17.279024 9.434625 1.872414
vt 0.071262 0.555533
vn 0.972270 0.223596 0.068527
v 18.943001 14.463992 -11.370108
vt 0.108785 0.568213
vn 0.855856 0.508497 0.094553
v 12.353398 18.779255 -7.141367
vt 0.109041 0.596586
vn 0.603318 0.731776 -0.317035
v 19.238920 7.178125 -8.477372
vt 0.100852 0.545403
vn 0.955398 -0.294847 0.016741
v 16.762732 5.266609 0.906217
vt 0.074629 0.538983
vn 0.939527 -0.317474 -0.128451
v 14.812490 2.332355 -0.152647
vt 0.078934 0.525167
vn 0.700529 -0.712627 -0.037696
v 14.694473 18.073626 -21.306040
vt 0.134535 0.573083
vn 0.441478 0.885368 -0.145673
v 7.141283 20.194536 -8.540030
vt 0.128345 0.608033
vn 0.227525 0.901357 -0.368494
v 15.433146 2.339037 -10.977453
vt 0.113488 0.526502
vn 0.601988 -0.790495 -0.112816
v 10.163046 -0.363010 -2.537768
vt 0.091479 0.505015
vn 0.477114 -0.875266 -0.079195
v 9.548157 0.000203 -13.428961
vt 0.134937 0.505015
vn 0.387173 -0.894593 -0.223160
v 19.113625 12.861380 -19.508179
vt 0.125193 0.558633
vn 0.961790 0.033329 -0.271753
v 9.045329 17.921839 -23.277430
vt 0.150015 0.575729
vn -0.117480 0.889700 -0.441172
v 3.739243 19.633991 -13.723125
vt 0.150512 0.600351
vn 0.424947 0.736657 -0.526076
v -0.129113 17.807089 -16.360214
vt 0.170353 0.592614
vn -0.000460 0.532753 -0.846271
v 12.052959 3.429349 -19.185999
vt 0.139306 0.529458
vn 0.300852 -0.794586 -0.527371
v 3.759631 -1.045491 -15.380269
vt 0.164999 0.505015
vn -0.136175 -0.793396 -0.593278
v 16.731550 6.416803 -18.378675
vt 0.127243 0.540753
vn 0.770167 -0.550125 -0.322809
v 15.098386 13.985038 -25.172710
vt 0.139889 0.561308
vn 0.480858 0.407054 -0.776584
v 14.595969 9.901788 -25.198900
vt 0.141214 0.551614
vn 0.492502 -0.447666 -0.746349
v -0.616781 14.087230 -21.037226
vt 0.175334 0.572736
vn -0.532750 0.462928 -0.708432
v -4.507806 14.887101 -16.257231
vt 0.189929 0.580373
vn -0.339981 -0.012031 -0.940355
v 8.336108 13.886910 -26.506260
vt 0.154572 0.562965
vn -0.241619 0.166158 -0.956040
v 8.201747 7.417609 -25.116119
vt 0.155080 0.546298
vn -0.047979 -0.541192 -0.839529
v 1.585573 3.079982 -20.165779
vt 0.172052 0.532903
vn -0.166554 -0.709878 -0.684349
v -1.238606 7.761399 -21.979822
vt 0.178909 0.551427
vn -0.496513 -0.164525 -0.852295
v -8.400426 9.448421 -15.818187
vt 0.204069 0.560343
vn -0.486113 0.138756 -0.862810
v -8.999474 14.210813 -13.486963
vt 0.208199 0.580544
vn -0.460097 0.111629 -0.880823
v -8.432294 3.279697 -14.715481
vt 0.206040 0.535918
vn -0.351687 -0.549298 -0.758016
v -13.636289 -0.838031 -7.232804
vt 0.237264 0.505015
vn -0.290018 -0.852987 -0.433940
v -18.805368 11.094565 -13.604644
vt 0.231386 0.564701
vn -0.369365 0.046272 -0.928132
v -15.149605 2.423869 -12.246132
vt 0.227415 0.534672
vn -0.402363 -0.620203 -0.673389
v -19.279890 16.019497 -10.419103
vt 0.240133 0.581295
vn -0.215773 0.711293 -0.668957
v -12.737170 17.554506 -9.360891
vt 0.229983 0.596556
vn -0.626961 0.654160 -0.423078
v -21.673332 19.284046 -3.547461
vt 0.262199 0.592027
vn -0.149902 0.971523 -0.183503
v -11.495099 19.970676 -1.132124
vt 0.262739 0.616529
vn -0.648785 0.747603 -0.142014
v -15.391912 18.813646 6.807416
vt 0.300528 0.603398
vn -0.705391 0.686196 0.177645
v -28.441027 15.278487 -6.605453
vt 0.259129 0.571762
vn -0.608108 0.410552 -0.679450
v -21.238096 0.652769 -1.490715
vt 0.267798 0.526618
vn -0.430740 -0.893047 -0.130114
v -16.451513 -0.888160 4.084630
vt 0.290047 0.505015
vn -0.316817 -0.910112 0.267063
v -25.716356 7.309038 -8.288885
vt 0.252375 0.551924
vn -0.658202 -0.359758 -0.661320
v -22.924475 3.298766 -6.304595
vt 0.254845 0.539029
vn -0.521876 -0.755540 -0.395986
v -26.473873 4.671520 -1.610245
vt 0.269361 0.542542
vn -0.742660 -0.666979 -0.059964
v -31.248835 11.545081 -1.726620
vt 0.270253 0.561733
vn -0.965339 -0.208808 -0.156590
v -29.014111 17.221773 -1.281248
vt 0.271045 0.575847
vn -0.599399 0.799646 -0.035871
v -23.346161 18.591764 3.801221
vt 0.284652 0.586346
vn -0.280278 0.912337 0.298471
v -29.498247 14.898210 3.937588
vt 0.282493 0.570426
vn -0.726940 0.410827 0.550254
v -20.951298 15.534420 9.515154
vt 0.302717 0.579905
vn -0.294990 0.690785 0.660149
v -11.676395 13.337193 13.848984
vt 0.333431 0.574653
vn -0.555230 0.074964 0.828312
v -28.668301 8.466012 5.020919
vt 0.285292 0.554995
vn -0.841356 -0.280467 0.462016
v -21.766041 12.250909 11.260312
vt 0.306348 0.567817
vn -0.501806 0.188767 0.844132
v -25.912540 7.298127 7.707972
vt 0.293283 0.551624
vn -0.672831 -0.481262 0.561859
v -23.875944 2.731337 3.219968
vt 0.282249 0.536684
vn -0.633097 -0.743498 0.215404
v -19.571741 1.475972 7.646043
vt 0.298220 0.529216
vn -0.446989 -0.782159 0.434084
v -11.691386 9.379347 15.449971
vt 0.335454 0.558427
vn -0.496205 0.190003 0.847160
v -6.938689 15.122403 17.066391
vt 0.354325 0.579385
vn -0.481913 0.314142 0.817970
v -18.075420 5.663895 13.319198
vt 0.315457 0.546301
vn -0.457491 -0.348531 0.818064
v -10.562769 1.548810 13.080055
vt 0.329422 0.525748
vn -0.392587 -0.725587 0.565155
v 2.754724 -1.037068 18.296982
vt 0.377972 0.505015
vn -0.205534 -0.820816 0.532933
v -11.351947 5.282441 15.278765
vt 0.333653 0.541829
vn -0.478758 -0.316811 0.818793
v -7.119895 8.477857 20.813816
vt 0.354349 0.551523
vn -0.625604 -0.072941 0.776723
v -1.506153 3.162739 22.166496
vt 0.368446 0.528960
vn -0.356780 -0.612639 0.705253
v 9.920743 4.144841 25.052464
vt 0.401486 0.525860
vn 0.051576 -0.672060 0.738698
v 10.180035 -0.119161 17.935183
vt 0.412952 0.505015
vn 0.268381 -0.858839 0.436311
v 2.984924 8.108133 26.517176
vt 0.382885 0.542284
vn -0.289472 -0.355428 0.888750
v 2.078248 11.854768 26.597414
vt 0.381879 0.554042
vn -0.466317 0.250135 0.848517
v 10.734961 11.008998 28.611885
vt 0.401163 0.546126
vn -0.034367 -0.190862 0.981015
v 14.434125 4.647094 23.156162
vt 0.415112 0.527258
vn 0.462490 -0.692973 0.553074
v 15.984286 10.763962 27.357275
vt 0.412708 0.544694
vn 0.480678 -0.306512 0.821583
v 10.542115 15.545341 27.682701
vt 0.402314 0.557632
vn -0.013926 0.501033 0.865316
v 3.188518 15.367411 25.380777
vt 0.386762 0.564294
vn -0.375617 0.663279 0.647281
v 15.040956 1.926105 17.939590
vt 0.427030 0.518085
vn 0.561739 -0.785599 0.259392
v 12.470188 -0.873950 10.509714
vt 0.449909 0.505015
vn 0.485241 -0.873968 0.026853
v 19.887806 7.725503 20.486637
vt 0.429686 0.538136
vn 0.862059 -0.413400 0.293181
v 17.908367 2.414355 8.971128
vt 0.457016 0.525287
vn 0.686886 -0.725907 -0.035307
v 10.163046 -0.363010 -2.537768
vt 0.495438 0.505015
vn 0.477114 -0.875266 -0.079195
v 14.812490 2.332355 -0.152647
vt 0.485772 0.524544
vn 0.700529 -0.712627 -0.037696
v 16.762732 5.266609 0.906217
vt 0.482103 0.536778
vn 0.939527 -0.317474 -0.128451
v 1.512445 17.707178 20.923498
vt 0.384549 0.578478
vn -0.260820 0.897182 0.356423
v -1.114966 18.484806 15.992214
vt 0.379483 0.592434
vn 0.267871 0.352842 0.896520
v 3.496018 19.939070 12.146996
vt 0.403861 0.603898
vn 0.178189 0.911060 0.371778
v 10.742051 18.622900 23.311752
vt 0.406971 0.570131
vn -0.030451 0.933579 0.357077
v 17.415022 14.815201 26.022387
vt 0.417262 0.554530
vn 0.735718 0.447323 0.508547
v 15.338770 18.155993 21.877796
vt 0.419537 0.567425
vn 0.316442 0.947104 0.053463
v 7.559152 19.767643 11.403606
vt 0.418922 0.598593
vn 0.230115 0.747678 0.622917
v 13.110504 17.814838 9.593882
vt 0.441947 0.587206
vn 0.569284 0.782680 0.251648
v 18.632467 15.790833 17.205835
vt 0.434053 0.563497
vn 0.751647 0.652734 -0.094684
v 15.501238 15.601351 6.818887
vt 0.457100 0.577421
vn 0.943881 0.267935 0.193129
v 20.611763 11.555595 17.088085
vt 0.437261 0.550487
vn 0.992008 0.122111 0.031754
v 19.387543 10.083941 7.164663
vt 0.461321 0.553011
vn 0.919173 0.292935 -0.263266
v 19.264694 5.371070 7.863303
vt 0.460506 0.536479
vn 0.967297 -0.224922 -0.117247
v 17.279024 9.434625 1.872414
vt 0.477678 0.552715
vn 0.972270 0.223596 0.068527
v 15.978608 12.608385 2.611980
vt 0.473075 0.565645
vn 0.943365 -0.331206 0.019085
v 13.110504 17.814838 9.593882
vt 0.065494 0.783042
vn 0.569284 0.782680 0.251648
v 16.698271 24.812857 7.464802
vt 0.090178 0.783924
vn 0.492952 0.308168 0.813653
v 15.501238 15.601351 6.818887
vt 0.065506 0.770155
vn 0.943881 0.267935 0.193129
v 7.559152 19.767643 11.403606
vt 0.061058 0.800934
vn 0.230115 0.747678 0.622917
v 11.343452 27.058527 7.420725
vt 0.088966 0.801443
vn 0.089548 0.609402 0.787788
v 3.444510 23.600101 9.455380
vt 0.067901 0.817916
vn 0.358615 0.508480 0.782843
v 6.244955 27.582550 6.351389
vt 0.085743 0.817123
vn 0.412809 0.584131 0.698841
v 3.496018 19.939070 12.146996
vt 0.054185 0.811051
vn 0.178189 0.911060 0.371778
v 1.278363 32.588711 7.633192
vt 0.088825 0.839374
vn 0.245875 0.396615 0.884445
v 3.435539 37.306389 4.095981
vt 0.108797 0.842637
vn 0.658626 0.527122 0.536987
v -3.153785 39.540817 3.406599
vt 0.102574 0.860746
vn -0.557052 0.603235 0.570790
v 1.018556 41.057873 1.197525
vt 0.117412 0.860279
vn 0.252098 0.963136 0.093894
v -3.301432 25.332533 16.237171
vt 0.049693 0.834690
vn 0.546063 0.459255 0.700643
v -1.114966 18.484806 15.992214
vt 0.034985 0.819505
vn 0.267871 0.352842 0.896520
v -1.705070 28.200172 9.368376
vt 0.071755 0.841072
vn 0.158299 0.714929 0.681041
v -10.258707 23.216259 19.806364
vt 0.033386 0.845649
vn -0.098980 -0.059945 0.993282
v -6.938689 15.122403 17.066391
vt 0.015141 0.835477
vn -0.481913 0.314142 0.817970
v -11.676395 13.337193 13.848984
vt 0.004695 0.854948
vn -0.555230 0.074964 0.828312
v -9.596729 28.718716 16.925697
vt 0.047944 0.850305
vn 0.046087 0.882618 0.467826
v -14.702322 20.508802 15.626739
vt 0.026148 0.860345
vn -0.843237 -0.311113 0.438360
v -15.391912 18.813646 6.807416
vt 0.026311 0.885783
vn -0.705391 0.686196 0.177645
v -15.198174 25.147972 15.456772
vt 0.036874 0.861378
vn -0.905275 0.343488 0.249985
v -6.395965 29.357430 6.464018
vt 0.071723 0.862016
vn -0.439087 0.872606 0.213921
v -13.689673 25.670113 7.028798
vt 0.048070 0.876900
vn -0.775488 0.538022 -0.330379
v -11.495099 19.970676 -1.132124
vt 0.049990 0.903982
vn -0.648785 0.747603 -0.142014
v -12.190341 28.597931 12.365777
vt 0.049771 0.861771
vn -0.485773 0.871471 -0.067549
v -9.144410 26.672995 2.224558
vt 0.065759 0.881833
vn -0.871752 0.486682 -0.056476
v -6.386538 34.550907 -0.977333
vt 0.092946 0.878860
vn -0.865219 0.452404 -0.216161
v -8.568885 26.578194 -3.514398
vt 0.075249 0.897191
vn -0.859057 0.508533 0.058443
v -1.853577 39.334404 -2.505933
vt 0.110782 0.873820
vn -0.352080 0.648198 -0.675188
v -12.778313 23.075764 -7.818425
vt 0.065515 0.917570
vn -0.944551 0.285149 0.162828
v -12.737170 17.554506 -9.360891
vt 0.055896 0.934739
vn -0.626961 0.654160 -0.423078
v -5.441543 29.379440 -6.372629
vt 0.093898 0.900256
vn -0.496323 0.775529 -0.390151
v 3.814948 38.297817 -2.553620
vt 0.125677 0.875754
vn 0.675246 0.517700 -0.525384
v 3.435539 37.306389 4.095981
vt 0.136017 0.860961
vn 0.658626 0.527122 0.536987
v -12.532820 21.830847 -15.437590
vt 0.074560 0.935522
vn -0.905544 -0.222033 -0.361513
v -8.999474 14.210813 -13.486963
vt 0.067851 0.957983
vn -0.460097 0.111629 -0.880823
v -10.305679 28.318558 -10.946534
vt 0.083511 0.914767
vn -0.609883 0.784847 0.109807
v -0.108939 29.113573 -8.665971
vt 0.114020 0.908227
vn 0.282168 0.675372 -0.681362
v 6.031116 24.648058 -6.892767
vt 0.137367 0.918346
vn 0.532882 0.496990 -0.684863
v 7.986920 29.316309 1.773513
vt 0.154893 0.885652
vn 0.675112 0.732548 0.087161
v 6.244955 27.582550 6.351389
vt 0.164974 0.872393
vn 0.412809 0.584131 0.698841
v -8.736440 21.054159 -19.007633
vt 0.085744 0.943727
vn -0.411496 -0.273076 -0.869541
v -4.507806 14.887101 -16.257231
vt 0.088192 0.963439
vn -0.339981 -0.012031 -0.940355
v -11.927652 26.353558 -16.438431
vt 0.082695 0.928651
vn -0.860825 0.372050 -0.347217
v -5.924541 29.869162 -13.835264
vt 0.097377 0.918683
vn 0.107394 0.968893 -0.222965
v -8.200713 28.074059 -18.048342
vt 0.092445 0.928810
vn -0.085800 0.675338 -0.732500
v -5.130056 23.185659 -19.263626
vt 0.096596 0.941422
vn 0.277739 -0.008291 -0.960621
v -0.129113 17.807089 -16.360214
vt 0.108134 0.956899
vn -0.000460 0.532753 -0.846271
v -0.060378 25.626669 -15.823881
vt 0.111549 0.932395
vn 0.595365 0.502616 -0.626832
v 3.739243 19.633991 -13.723125
vt 0.124474 0.946455
vn 0.424947 0.736657 -0.526076
v 7.141283 20.194536 -8.540030
vt 0.140814 0.934955
vn 0.227525 0.901357 -0.368494
v 13.764784 24.503780 -5.738457
vt 0.158731 0.921151
vn 0.345019 0.345658 -0.872630
v 12.353398 18.779255 -7.141367
vt 0.158812 0.939346
vn 0.603318 0.731776 -0.317035
v 19.187740 20.665388 -2.829562
vt 0.178116 0.926819
vn 0.807986 -0.243654 -0.536463
v 15.929070 15.449534 -3.208133
vt 0.182025 0.942221
vn 0.960259 0.269251 -0.073531
v 15.978608 12.608385 2.611980
vt 0.204600 0.940342
vn 0.943365 -0.331206 0.019085
v 21.075788 22.779840 3.251494
vt 0.189488 0.912477
vn 0.938767 -0.195235 0.283902
v 15.501238 15.601351 6.818887
vt 0.212471 0.924139
vn 0.943881 0.267935 0.193129
v 16.698271 24.812857 7.464802
vt 0.195724 0.895125
vn 0.492952 0.308168 0.813653
v 19.859623 25.412336 -1.688801
vt 0.175558 0.914520
vn 0.722446 0.350806 -0.595825
v 14.697876 28.920303 -1.868003
vt 0.163361 0.904451
vn 0.175696 0.847069 -0.501603
v 19.682070 27.845284 1.751016
vt 0.179203 0.905070
vn 0.604202 0.765507 0.221224
v 13.010818 29.531549 3.050801
vt 0.169565 0.891538
vn 0.152295 0.929581 0.335686
v 11.343452 27.058527 7.420725
vt 0.179599 0.880719
vn 0.089548 0.609402 0.787788
v 7.559157 28.166538 -2.916894
vt 0.145036 0.901187
vn 0.589093 0.648406 -0.482222
# Faces (1 to 161)
g ENV_RoundBush_Red_0
f -159/-159/-159 -160/-160/-160 -161/-161/-161
f -158/-158/-158 -160/-160/-160 -159/-159/-159
f -157/-157/-157 -160/-160/-160 -158/-158/-158
f -156/-156/-156 -158/-158/-158 -159/-159/-159
f -159/-159/-159 -155/-155/-155 -156/-156/-156
f -156/-156/-156 -155/-155/-155 -154/-154/-154
f -153/-153/-153 -157/-157/-157 -158/-158/-158
f -153/-153/-153 -152/-152/-152 -157/-157/-157
f -151/-151/-151 -156/-156/-156 -154/-154/-154
f -150/-150/-150 -151/-151/-151 -154/-154/-154
f -150/-150/-150 -149/-149/-149 -151/-151/-151
f -148/-148/-148 -158/-158/-158 -156/-156/-156
f -153/-153/-153 -158/-158/-158 -148/-148/-148
f -153/-153/-153 -147/-147/-147 -152/-152/-152
f -147/-147/-147 -146/-146/-146 -152/-152/-152
f -147/-147/-147 -145/-145/-145 -146/-146/-146
f -151/-151/-151 -149/-149/-149 -144/-144/-144
f -144/-144/-144 -149/-149/-149 -143/-143/-143
f -156/-156/-156 -151/-151/-151 -142/-142/-142
f -142/-142/-142 -148/-148/-148 -156/-156/-156
f -151/-151/-151 -144/-144/-144 -142/-142/-142
f -141/-141/-141 -153/-153/-153 -148/-148/-148
f -147/-147/-147 -153/-153/-153 -141/-141/-141
f -142/-142/-142 -140/-140/-140 -148/-148/-148
f -148/-148/-148 -140/-140/-140 -141/-141/-141
f -144/-144/-144 -140/-140/-140 -142/-142/-142
f -145/-145/-145 -147/-147/-147 -139/-139/-139
f -138/-138/-138 -145/-145/-145 -139/-139/-139
f -137/-137/-137 -147/-147/-147 -141/-141/-141
f -137/-137/-137 -141/-141/-141 -140/-140/-140
f -147/-147/-147 -137/-137/-137 -139/-139/-139
f -144/-144/-144 -136/-136/-136 -140/-140/-140
f -136/-136/-136 -137/-137/-137 -140/-140/-140
f -144/-144/-144 -143/-143/-143 -135/-135/-135
f -135/-135/-135 -136/-136/-136 -144/-144/-144
f -137/-137/-137 -136/-136/-136 -134/-134/-134
f -139/-139/-139 -137/-137/-137 -134/-134/-134
f -134/-134/-134 -136/-136/-136 -135/-135/-135
f -138/-138/-138 -139/-139/-139 -133/-133/-133
f -133/-133/-133 -139/-139/-139 -134/-134/-134
f -132/-132/-132 -138/-138/-138 -133/-133/-133
f -131/-131/-131 -135/-135/-135 -143/-143/-143
f -134/-134/-134 -135/-135/-135 -131/-131/-131
f -131/-131/-131 -133/-133/-133 -134/-134/-134
f -131/-131/-131 -143/-143/-143 -130/-130/-130
f -133/-133/-133 -129/-129/-129 -132/-132/-132
f -129/-129/-129 -133/-133/-133 -131/-131/-131
f -128/-128/-128 -131/-131/-131 -130/-130/-130
f -128/-128/-128 -129/-129/-129 -131/-131/-131
f -132/-132/-132 -129/-129/-129 -127/-127/-127
f -126/-126/-126 -132/-132/-132 -127/-127/-127
f -125/-125/-125 -126/-126/-126 -127/-127/-127
f -125/-125/-125 -124/-124/-124 -126/-126/-126
f -125/-125/-125 -123/-123/-123 -124/-124/-124
f -127/-127/-127 -129/-129/-129 -122/-122/-122
f -125/-125/-125 -127/-127/-127 -122/-122/-122
f -130/-130/-130 -121/-121/-121 -128/-128/-128
f -120/-120/-120 -121/-121/-121 -130/-130/-130
f -128/-128/-128 -119/-119/-119 -129/-129/-129
f -119/-119/-119 -122/-122/-122 -129/-129/-129
f -121/-121/-121 -118/-118/-118 -128/-128/-128
f -118/-118/-118 -119/-119/-119 -128/-128/-128
f -117/-117/-117 -119/-119/-119 -118/-118/-118
f -121/-121/-121 -117/-117/-117 -118/-118/-118
f -119/-119/-119 -116/-116/-116 -122/-122/-122
f -116/-116/-116 -119/-119/-119 -117/-117/-117
f -115/-115/-115 -125/-125/-125 -122/-122/-122
f -116/-116/-116 -115/-115/-115 -122/-122/-122
f -114/-114/-114 -123/-123/-123 -125/-125/-125
f -115/-115/-115 -114/-114/-114 -125/-125/-125
f -113/-113/-113 -115/-115/-115 -116/-116/-116
f -114/-114/-114 -115/-115/-115 -113/-113/-113
f -123/-123/-123 -114/-114/-114 -112/-112/-112
f -112/-112/-112 -114/-114/-114 -113/-113/-113
f -111/-111/-111 -123/-123/-123 -112/-112/-112
f -116/-116/-116 -110/-110/-110 -113/-113/-113
f -110/-110/-110 -116/-116/-116 -117/-117/-117
f -109/-109/-109 -112/-112/-112 -113/-113/-113
f -109/-109/-109 -111/-111/-111 -112/-112/-112
f -109/-109/-109 -113/-113/-113 -110/-110/-110
f -110/-110/-110 -117/-117/-117 -108/-108/-108
f -108/-108/-108 -109/-109/-109 -110/-110/-110
f -121/-121/-121 -107/-107/-107 -117/-117/-117
f -117/-117/-117 -107/-107/-107 -108/-108/-108
f -107/-107/-107 -121/-121/-121 -106/-106/-106
f -107/-107/-107 -106/-106/-106 -108/-108/-108
f -121/-121/-121 -120/-120/-120 -106/-106/-106
f -109/-109/-109 -105/-105/-105 -111/-111/-111
f -111/-111/-111 -105/-105/-105 -104/-104/-104
f -109/-109/-109 -108/-108/-108 -103/-103/-103
f -106/-106/-106 -103/-103/-103 -108/-108/-108
f -103/-103/-103 -105/-105/-105 -109/-109/-109
f -120/-120/-120 -102/-102/-102 -106/-106/-106
f -102/-102/-102 -103/-103/-103 -106/-106/-106
f -120/-120/-120 -101/-101/-101 -102/-102/-102
f -100/-100/-100 -105/-105/-105 -103/-103/-103
f -103/-103/-103 -102/-102/-102 -100/-100/-100
f -105/-105/-105 -100/-100/-100 -99/-99/-99
f -99/-99/-99 -100/-100/-100 -102/-102/-102
f -99/-99/-99 -104/-104/-104 -105/-105/-105
f -101/-101/-101 -98/-98/-98 -102/-102/-102
f -98/-98/-98 -99/-99/-99 -102/-102/-102
f -101/-101/-101 -97/-97/-97 -98/-98/-98
f -101/-101/-101 -96/-96/-96 -97/-97/-97
f -98/-98/-98 -95/-95/-95 -99/-99/-99
f -97/-97/-97 -95/-95/-95 -98/-98/-98
f -95/-95/-95 -94/-94/-94 -99/-99/-99
f -104/-104/-104 -99/-99/-99 -94/-94/-94
f -97/-97/-97 -93/-93/-93 -95/-95/-95
f -95/-95/-95 -93/-93/-93 -94/-94/-94
f -96/-96/-96 -92/-92/-92 -97/-97/-97
f -93/-93/-93 -97/-97/-97 -91/-91/-91
f -91/-91/-91 -97/-97/-97 -92/-92/-92
f -94/-94/-94 -93/-93/-93 -90/-90/-90
f -93/-93/-93 -91/-91/-91 -90/-90/-90
f -89/-89/-89 -104/-104/-104 -94/-94/-94
f -89/-89/-89 -94/-94/-94 -90/-90/-90
f -96/-96/-96 -88/-88/-88 -92/-92/-92
f -96/-96/-96 -87/-87/-87 -88/-88/-88
f -91/-91/-91 -92/-92/-92 -86/-86/-86
f -86/-86/-86 -92/-92/-92 -88/-88/-88
f -87/-87/-87 -85/-85/-85 -88/-88/-88
f -85/-85/-85 -86/-86/-86 -88/-88/-88
f -87/-87/-87 -84/-84/-84 -85/-85/-85
f -84/-84/-84 -83/-83/-83 -85/-85/-85
f -83/-83/-83 -82/-82/-82 -85/-85/-85
f -89/-89/-89 -81/-81/-81 -104/-104/-104
f -81/-81/-81 -80/-80/-80 -104/-104/-104
f -80/-80/-80 -81/-81/-81 -79/-79/-79
f -78/-78/-78 -81/-81/-81 -89/-89/-89
f -78/-78/-78 -79/-79/-79 -81/-81/-81
f -90/-90/-90 -78/-78/-78 -89/-89/-89
f -91/-91/-91 -77/-77/-77 -90/-90/-90
f -78/-78/-78 -90/-90/-90 -77/-77/-77
f -77/-77/-77 -91/-91/-91 -86/-86/-86
f -78/-78/-78 -76/-76/-76 -79/-79/-79
f -76/-76/-76 -78/-78/-78 -77/-77/-77
f -76/-76/-76 -75/-75/-75 -79/-79/-79
f -76/-76/-76 -74/-74/-74 -75/-75/-75
f -74/-74/-74 -76/-76/-76 -73/-73/-73
f -73/-73/-73 -76/-76/-76 -77/-77/-77
f -72/-72/-72 -74/-74/-74 -73/-73/-73
f -86/-86/-86 -71/-71/-71 -77/-77/-77
f -71/-71/-71 -73/-73/-73 -77/-77/-77
f -70/-70/-70 -72/-72/-72 -73/-73/-73
f -71/-71/-71 -70/-70/-70 -73/-73/-73
f -86/-86/-86 -69/-69/-69 -71/-71/-71
f -69/-69/-69 -70/-70/-70 -71/-71/-71
f -86/-86/-86 -85/-85/-85 -69/-69/-69
f -82/-82/-82 -69/-69/-69 -85/-85/-85
f -70/-70/-70 -69/-69/-69 -82/-82/-82
f -68/-68/-68 -70/-70/-70 -82/-82/-82
f -68/-68/-68 -72/-72/-72 -70/-70/-70
f -67/-67/-67 -72/-72/-72 -68/-68/-68
f -64/-64/-64 -65/-65/-65 -66/-66/-66
f -63/-63/-63 -66/-66/-66 -65/-65/-65
f -62/-62/-62 -63/-63/-63 -65/-65/-65
f -61/-61/-61 -63/-63/-63 -62/-62/-62
f -60/-60/-60 -61/-61/-61 -62/-62/-62
f -63/-63/-63 -61/-61/-61 -59/-59/-59
f -61/-61/-61 -60/-60/-60 -58/-58/-58
f -60/-60/-60 -57/-57/-57 -58/-58/-58
f -58/-58/-58 -57/-57/-57 -56/-56/-56
f -57/-57/-57 -55/-55/-55 -56/-56/-56
f -54/-54/-54 -59/-59/-59 -61/-61/-61
f -54/-54/-54 -53/-53/-53 -59/-59/-59
f -61/-61/-61 -58/-58/-58 -52/-52/-52
f -52/-52/-52 -58/-58/-58 -56/-56/-56
f -52/-52/-52 -54/-54/-54 -61/-61/-61
f -53/-53/-53 -54/-54/-54 -51/-51/-51
f -50/-50/-50 -53/-53/-53 -51/-51/-51
f -49/-49/-49 -50/-50/-50 -51/-51/-51
f -54/-54/-54 -52/-52/-52 -48/-48/-48
f -48/-48/-48 -51/-51/-51 -54/-54/-54
f -51/-51/-51 -47/-47/-47 -49/-49/-49
f -46/-46/-46 -49/-49/-49 -47/-47/-47
f -47/-47/-47 -51/-51/-51 -45/-45/-45
f -45/-45/-45 -46/-46/-46 -47/-47/-47
f -51/-51/-51 -48/-48/-48 -45/-45/-45
f -52/-52/-52 -44/-44/-44 -48/-48/-48
f -44/-44/-44 -52/-52/-52 -56/-56/-56
f -43/-43/-43 -46/-46/-46 -45/-45/-45
f -42/-42/-42 -46/-46/-46 -43/-43/-43
f -45/-45/-45 -48/-48/-48 -41/-41/-41
f -41/-41/-41 -48/-48/-48 -44/-44/-44
f -45/-45/-45 -41/-41/-41 -43/-43/-43
f -43/-43/-43 -41/-41/-41 -44/-44/-44
f -40/-40/-40 -43/-43/-43 -44/-44/-44
f -40/-40/-40 -44/-44/-44 -56/-56/-56
f -43/-43/-43 -40/-40/-40 -42/-42/-42
f -39/-39/-39 -40/-40/-40 -56/-56/-56
f -40/-40/-40 -38/-38/-38 -42/-42/-42
f -38/-38/-38 -40/-40/-40 -39/-39/-39
f -56/-56/-56 -37/-37/-37 -39/-39/-39
f -56/-56/-56 -55/-55/-55 -37/-37/-37
f -36/-36/-36 -42/-42/-42 -38/-38/-38
f -36/-36/-36 -35/-35/-35 -42/-42/-42
f -38/-38/-38 -39/-39/-39 -34/-34/-34
f -37/-37/-37 -34/-34/-34 -39/-39/-39
f -33/-33/-33 -37/-37/-37 -55/-55/-55
f -32/-32/-32 -33/-33/-33 -55/-55/-55
f -35/-35/-35 -36/-36/-36 -31/-31/-31
f -31/-31/-31 -30/-30/-30 -35/-35/-35
f -29/-29/-29 -36/-36/-36 -38/-38/-38
f -38/-38/-38 -34/-34/-34 -29/-29/-29
f -34/-34/-34 -37/-37/-37 -28/-28/-28
f -37/-37/-37 -33/-33/-33 -28/-28/-28
f -28/-28/-28 -33/-33/-33 -27/-27/-27
f -33/-33/-33 -32/-32/-32 -26/-26/-26
f -32/-32/-32 -25/-25/-25 -26/-26/-26
f -31/-31/-31 -24/-24/-24 -30/-30/-30
f -24/-24/-24 -23/-23/-23 -30/-30/-30
f -22/-22/-22 -31/-31/-31 -36/-36/-36
f -29/-29/-29 -22/-22/-22 -36/-36/-36
f -24/-24/-24 -31/-31/-31 -22/-22/-22
f -34/-34/-34 -28/-28/-28 -21/-21/-21
f -29/-29/-29 -34/-34/-34 -21/-21/-21
f -20/-20/-20 -22/-22/-22 -29/-29/-29
f -22/-22/-22 -20/-20/-20 -24/-24/-24
f -21/-21/-21 -20/-20/-20 -29/-29/-29
f -23/-23/-23 -24/-24/-24 -19/-19/-19
f -20/-20/-20 -19/-19/-19 -24/-24/-24
f -23/-23/-23 -19/-19/-19 -18/-18/-18
f -28/-28/-28 -17/-17/-17 -21/-21/-21
f -20/-20/-20 -21/-21/-21 -17/-17/-17
f -19/-19/-19 -20/-20/-20 -17/-17/-17
f -19/-19/-19 -17/-17/-17 -18/-18/-18
f -18/-18/-18 -17/-17/-17 -16/-16/-16
f -17/-17/-17 -28/-28/-28 -27/-27/-27
f -17/-17/-17 -27/-27/-27 -16/-16/-16
f -27/-27/-27 -15/-15/-15 -16/-16/-16
f -27/-27/-27 -14/-14/-14 -15/-15/-15
f -14/-14/-14 -13/-13/-13 -15/-15/-15
f -12/-12/-12 -13/-13/-13 -14/-14/-14
f -11/-11/-11 -13/-13/-13 -12/-12/-12
f -11/-11/-11 -12/-12/-12 -10/-10/-10
f -12/-12/-12 -9/-9/-9 -10/-10/-10
f -8/-8/-8 -10/-10/-10 -9/-9/-9
f -7/-7/-7 -8/-8/-8 -9/-9/-9
f -6/-6/-6 -12/-12/-12 -14/-14/-14
f -12/-12/-12 -6/-6/-6 -9/-9/-9
f -14/-14/-14 -27/-27/-27 -5/-5/-5
f -5/-5/-5 -6/-6/-6 -14/-14/-14
f -6/-6/-6 -4/-4/-4 -9/-9/-9
f -9/-9/-9 -4/-4/-4 -7/-7/-7
f -5/-5/-5 -4/-4/-4 -6/-6/-6
f -4/-4/-4 -3/-3/-3 -7/-7/-7
f -4/-4/-4 -5/-5/-5 -3/-3/-3
f -3/-3/-3 -2/-2/-2 -7/-7/-7
f -2/-2/-2 -3/-3/-3 -25/-25/-25
f -3/-3/-3 -26/-26/-26 -25/-25/-25
f -3/-3/-3 -5/-5/-5 -26/-26/-26
f -27/-27/-27 -1/-1/-1 -5/-5/-5
f -26/-26/-26 -5/-5/-5 -1/-1/-1
f -27/-27/-27 -33/-33/-33 -1/-1/-1
f -26/-26/-26 -1/-1/-1 -33/-33/-33

