# Mesh "ENV_TerrainIslandLarge" exported with Unity Assets Bundle Extractor; 84 vertices, 423 indices, 480 bits per vertex
g ENV_TerrainIslandLarge
# SubMesh 0
# Vertices
v -33.515999 10.779356 -11.526374
vt 0.383464 0.490810
vn -0.763284 0.640760 -0.082612
v -52.257668 -12.263155 -2.628241
vt 0.376450 0.487480
vn -0.790268 0.612211 0.025957
v -51.577320 -12.263155 -15.771821
vt 0.376704 0.492398
vn -0.777260 0.621905 -0.095404
v -49.406322 -12.263155 -24.011545
vt 0.377517 0.495482
vn -0.723783 0.631725 -0.277600
v -34.339607 10.768126 -2.423127
vt 0.383155 0.487403
vn -0.777985 0.627807 -0.024439
v -33.766518 10.782713 3.163061
vt 0.383370 0.485312
vn -0.761870 0.632992 0.137387
v -49.037834 -12.263155 14.004201
vt 0.377655 0.481255
vn -0.763515 0.598738 0.241989
v -32.181087 12.113234 -5.338771
vt 0.383963 0.488494
vn -0.259185 0.965681 -0.016843
v -29.509884 12.259489 -15.984045
vt 0.384963 0.492478
vn 0.016500 0.999862 -0.001745
v -32.374367 10.711134 -15.662231
vt 0.383891 0.492357
vn -0.710362 0.656268 -0.254357
v -30.390783 10.847120 -20.001930
vt 0.384633 0.493981
vn -0.644061 0.680107 -0.350200
v -45.124027 -12.263155 -32.758984
vt 0.379119 0.498756
vn -0.640839 0.637367 -0.427888
v -31.016769 12.169706 4.941734
vt 0.384399 0.484646
vn -0.115464 0.993002 0.024786
v -32.382832 10.675001 9.056460
vt 0.383888 0.483107
vn -0.725709 0.634904 0.265035
v -28.035578 10.770826 -23.504213
vt 0.385515 0.495292
vn -0.587855 0.659837 -0.468019
v -38.207485 -12.263155 -40.838097
vt 0.381708 0.501779
vn -0.519260 0.638559 -0.567988
v -29.438803 10.651442 15.350183
vt 0.384989 0.480751
vn -0.673795 0.620671 0.400959
v -43.273048 -12.263155 25.677711
vt 0.379812 0.476886
vn -0.673404 0.596071 0.437295
v -28.026497 12.074064 13.436954
vt 0.385518 0.481467
vn -0.299423 0.939246 0.167815
v -24.687611 10.812330 21.549149
vt 0.386768 0.478431
vn -0.568301 0.628378 0.531201
v -34.792084 -12.263155 35.730690
vt 0.382986 0.473124
vn -0.546938 0.591389 0.592552
v -24.339443 12.136396 -24.382299
vt 0.386898 0.495621
vn -0.147105 0.977798 -0.149235
v -16.426176 12.257048 -29.375214
vt 0.389859 0.497489
vn 0.003396 0.999929 0.011389
v -25.509010 10.799955 -26.282446
vt 0.386460 0.496332
vn -0.503711 0.660424 -0.556880
v -20.932871 10.807341 -29.881021
vt 0.388173 0.497679
vn -0.342785 0.655681 -0.672741
v -29.410564 -12.263155 -47.115192
vt 0.385000 0.504128
vn -0.352521 0.638128 -0.684487
v -12.496844 10.829283 -33.606495
vt 0.391330 0.499073
vn -0.267622 0.650681 -0.710629
v -18.560764 -12.263155 -51.628586
vt 0.389060 0.505817
vn -0.252486 0.635854 -0.729343
v -17.311756 10.710081 28.093103
vt 0.389528 0.475982
vn -0.476374 0.629843 0.613486
v -19.969151 -12.263155 46.979458
vt 0.388533 0.468914
vn -0.395217 0.594442 0.700316
v 0.002560 11.068007 -9.507810
vt 0.396008 0.490054
vn 0.006222 0.999943 0.008693
v -25.897440 12.263090 12.963918
vt 0.386315 0.481644
vn 0.027283 0.999541 -0.013164
v -10.976898 12.255156 29.330948
vt 0.391899 0.475519
vn 0.000563 0.999971 -0.007574
v -21.373913 12.128691 21.694714
vt 0.388008 0.478377
vn -0.158390 0.973341 0.165893
v -5.963610 10.787245 -35.137135
vt 0.393775 0.499646
vn -0.095623 0.657567 -0.747303
v -6.930649 -12.263155 -53.880928
vt 0.393413 0.506660
vn -0.073362 0.628117 -0.774653
v -12.432565 10.750135 31.265957
vt 0.391354 0.474795
vn -0.380684 0.626831 0.679825
v -6.964190 10.726393 33.847237
vt 0.393400 0.473829
vn -0.243351 0.638345 0.730271
v -4.215760 -12.263155 53.146938
vt 0.394429 0.466606
vn -0.188469 0.609408 0.770131
v 1.245206 10.829741 35.368538
vt 0.396473 0.473260
vn -0.064672 0.650842 0.756454
v 6.711556 -12.263155 53.888885
vt 0.398518 0.466329
vn 0.055427 0.624788 0.778825
v -1.643736 12.157682 32.803761
vt 0.395391 0.474219
vn -0.031563 0.982722 0.182379
v 6.784197 10.722929 35.068241
vt 0.398546 0.473372
vn 0.135820 0.652602 0.745428
v 16.552578 -12.263155 51.754333
vt 0.402201 0.467127
vn 0.264639 0.626017 0.733532
v 8.733100 12.263136 29.499458
vt 0.399275 0.475456
vn -0.004596 0.999669 -0.025323
v 5.797467 12.137999 32.788345
vt 0.398176 0.474225
vn 0.038088 0.966501 0.253821
v 12.083521 10.788221 33.466221
vt 0.400529 0.473972
vn 0.267621 0.649304 0.711888
v 11.877833 12.054274 31.292173
vt 0.400452 0.474785
vn 0.128476 0.939331 0.318044
v 16.396076 10.749525 31.464037
vt 0.402143 0.474721
vn 0.389401 0.647797 0.654771
v 27.879427 -12.263155 46.157864
vt 0.406440 0.469222
vn 0.428888 0.622557 0.654582
v 17.343616 12.157637 27.970514
vt 0.402497 0.476028
vn 0.128720 0.974578 0.183379
v 22.331394 10.700468 27.227634
vt 0.404364 0.476306
vn 0.502966 0.651932 0.567460
v 37.578213 -12.263155 37.847309
vt 0.410070 0.472332
vn 0.587839 0.616199 0.524160
v 23.614122 12.242613 22.195906
vt 0.404844 0.478189
vn -0.000346 0.999983 -0.005824
v 27.032215 10.784132 22.009871
vt 0.406123 0.478259
vn 0.609458 0.648671 0.455837
v 46.287895 -12.263155 25.348471
vt 0.413329 0.477010
vn 0.704396 0.612003 0.359553
v 29.393114 12.106062 13.767025
vt 0.407007 0.481344
vn 0.213195 0.972581 0.092922
v 30.499954 10.616468 16.708523
vt 0.407421 0.480243
vn 0.683521 0.639728 0.351492
v 32.534969 10.780973 11.298481
vt 0.408183 0.482268
vn 0.735983 0.630397 0.246837
v 51.250381 -12.263155 10.971636
vt 0.415187 0.482390
vn 0.778794 0.614219 0.127340
v 31.699295 12.175398 3.750312
vt 0.407870 0.485092
vn 0.002702 0.999957 -0.008823
v 33.499065 10.825026 7.277012
vt 0.408543 0.483773
vn 0.771994 0.631256 0.074438
v 34.260925 10.833738 -3.435128
vt 0.408828 0.487781
vn 0.776846 0.629488 0.015967
v 52.257668 -12.263155 -3.886847
vt 0.415564 0.487951
vn 0.790285 0.612112 -0.027719
v 31.716585 12.144407 -6.308699
vt 0.407876 0.488857
vn 0.008856 0.999952 -0.004261
v 33.287849 10.714521 -10.396669
vt 0.408464 0.490387
vn 0.749335 0.637369 -0.179605
v 48.465977 -12.263155 -22.040573
vt 0.414145 0.494744
vn 0.737759 0.612057 -0.284777
v 28.849470 12.145842 -15.667887
vt 0.406803 0.492359
vn 0.002114 0.999986 0.004838
v 31.122267 10.735899 -16.203506
vt 0.407654 0.492560
vn 0.680358 0.637741 -0.361109
v 40.738667 -12.263155 -34.508205
vt 0.411253 0.499410
vn 0.612644 0.619126 -0.491275
v 27.264137 10.698195 -22.096676
vt 0.406210 0.494765
vn 0.588464 0.654423 -0.474806
v 15.117724 12.237852 -29.012098
vt 0.401664 0.497353
vn -0.002068 0.999767 0.021505
v 22.378378 10.679396 -27.043056
vt 0.404382 0.496617
vn 0.511311 0.642705 -0.570519
v 31.543352 -12.263155 -43.330101
vt 0.407811 0.502712
vn 0.474108 0.622124 -0.623044
v 22.602444 12.088453 -23.808420
vt 0.404465 0.495406
vn 0.201924 0.958748 -0.200073
v 18.048550 10.827299 -30.150398
vt 0.402761 0.497779
vn 0.404320 0.655536 -0.637807
v 20.566206 -12.263155 -49.868328
vt 0.403703 0.505159
vn 0.304512 0.622368 -0.721062
v 12.827230 10.689924 -33.123684
vt 0.400807 0.498892
vn 0.299685 0.653000 -0.695543
v 8.578732 12.179319 -32.040585
vt 0.399217 0.498487
vn 0.028953 0.992938 -0.115051
v 7.501207 10.836515 -34.694500
vt 0.398814 0.499480
vn 0.176767 0.649697 -0.739356
v 6.436436 -12.263155 -53.888889
vt 0.398415 0.506663
vn 0.110568 0.625189 -0.772602
v -8.635201 12.137480 -32.305000
vt 0.392775 0.498586
vn -0.035325 0.981087 -0.190317
v 0.813367 12.069807 -33.326309
vt 0.396311 0.498968
vn 0.002111 0.944281 -0.329133
v 2.167026 10.595060 -35.608593
vt 0.396818 0.499822
vn 0.021845 0.647398 -0.761839
# Faces (1 to 84)
g ENV_TerrainIslandLarge_0
f -82/-82/-82 -83/-83/-83 -84/-84/-84
f -84/-84/-84 -81/-81/-81 -82/-82/-82
f -83/-83/-83 -80/-80/-80 -84/-84/-84
f -80/-80/-80 -83/-83/-83 -79/-79/-79
f -83/-83/-83 -78/-78/-78 -79/-79/-79
f -84/-84/-84 -80/-80/-80 -77/-77/-77
f -80/-80/-80 -79/-79/-79 -77/-77/-77
f -84/-84/-84 -77/-77/-77 -76/-76/-76
f -84/-84/-84 -76/-76/-76 -75/-75/-75
f -75/-75/-75 -81/-81/-81 -84/-84/-84
f -74/-74/-74 -81/-81/-81 -75/-75/-75
f -74/-74/-74 -75/-75/-75 -76/-76/-76
f -73/-73/-73 -81/-81/-81 -74/-74/-74
f -79/-79/-79 -72/-72/-72 -77/-77/-77
f -72/-72/-72 -76/-76/-76 -77/-77/-77
f -79/-79/-79 -78/-78/-78 -71/-71/-71
f -79/-79/-79 -71/-71/-71 -72/-72/-72
f -70/-70/-70 -73/-73/-73 -74/-74/-74
f -69/-69/-69 -73/-73/-73 -70/-70/-70
f -71/-71/-71 -78/-78/-78 -68/-68/-68
f -68/-68/-68 -78/-78/-78 -67/-67/-67
f -71/-71/-71 -66/-66/-66 -72/-72/-72
f -68/-68/-68 -66/-66/-66 -71/-71/-71
f -68/-68/-68 -67/-67/-67 -65/-65/-65
f -68/-68/-68 -65/-65/-65 -66/-66/-66
f -67/-67/-67 -64/-64/-64 -65/-65/-65
f -74/-74/-74 -63/-63/-63 -70/-70/-70
f -74/-74/-74 -76/-76/-76 -63/-63/-63
f -76/-76/-76 -62/-62/-62 -63/-63/-63
f -61/-61/-61 -69/-69/-69 -70/-70/-70
f -70/-70/-70 -63/-63/-63 -61/-61/-61
f -60/-60/-60 -69/-69/-69 -61/-61/-61
f -60/-60/-60 -61/-61/-61 -63/-63/-63
f -60/-60/-60 -63/-63/-63 -62/-62/-62
f -59/-59/-59 -69/-69/-69 -60/-60/-60
f -59/-59/-59 -60/-60/-60 -58/-58/-58
f -60/-60/-60 -62/-62/-62 -58/-58/-58
f -57/-57/-57 -59/-59/-59 -58/-58/-58
f -64/-64/-64 -56/-56/-56 -65/-65/-65
f -64/-64/-64 -55/-55/-55 -56/-56/-56
f -54/-54/-54 -62/-62/-62 -76/-76/-76
f -53/-53/-53 -54/-54/-54 -76/-76/-76
f -52/-52/-52 -54/-54/-54 -53/-53/-53
f -53/-53/-53 -76/-76/-76 -72/-72/-72
f -72/-72/-72 -66/-66/-66 -53/-53/-53
f -65/-65/-65 -51/-51/-51 -66/-66/-66
f -66/-66/-66 -51/-51/-51 -53/-53/-53
f -65/-65/-65 -56/-56/-56 -51/-51/-51
f -52/-52/-52 -53/-53/-53 -51/-51/-51
f -56/-56/-56 -52/-52/-52 -51/-51/-51
f -50/-50/-50 -57/-57/-57 -58/-58/-58
f -49/-49/-49 -57/-57/-57 -50/-50/-50
f -56/-56/-56 -55/-55/-55 -48/-48/-48
f -56/-56/-56 -48/-48/-48 -52/-52/-52
f -48/-48/-48 -55/-55/-55 -47/-47/-47
f -48/-48/-48 -47/-47/-47 -52/-52/-52
f -55/-55/-55 -46/-46/-46 -47/-47/-47
f -46/-46/-46 -45/-45/-45 -47/-47/-47
f -46/-46/-46 -44/-44/-44 -45/-45/-45
f -47/-47/-47 -43/-43/-43 -52/-52/-52
f -45/-45/-45 -43/-43/-43 -47/-47/-47
f -45/-45/-45 -44/-44/-44 -42/-42/-42
f -44/-44/-44 -41/-41/-41 -42/-42/-42
f -40/-40/-40 -52/-52/-52 -43/-43/-43
f -40/-40/-40 -54/-54/-54 -52/-52/-52
f -45/-45/-45 -39/-39/-39 -43/-43/-43
f -42/-42/-42 -39/-39/-39 -45/-45/-45
f -39/-39/-39 -40/-40/-40 -43/-43/-43
f -42/-42/-42 -41/-41/-41 -38/-38/-38
f -42/-42/-42 -37/-37/-37 -39/-39/-39
f -42/-42/-42 -38/-38/-38 -37/-37/-37
f -38/-38/-38 -41/-41/-41 -36/-36/-36
f -36/-36/-36 -37/-37/-37 -38/-38/-38
f -36/-36/-36 -41/-41/-41 -35/-35/-35
f -37/-37/-37 -34/-34/-34 -39/-39/-39
f -34/-34/-34 -40/-40/-40 -39/-39/-39
f -36/-36/-36 -34/-34/-34 -37/-37/-37
f -36/-36/-36 -35/-35/-35 -33/-33/-33
f -36/-36/-36 -33/-33/-33 -34/-34/-34
f -35/-35/-35 -32/-32/-32 -33/-33/-33
f -31/-31/-31 -40/-40/-40 -34/-34/-34
f -33/-33/-33 -31/-31/-31 -34/-34/-34
f -31/-31/-31 -54/-54/-54 -40/-40/-40
f -33/-33/-33 -32/-32/-32 -30/-30/-30
f -30/-30/-30 -31/-31/-31 -33/-33/-33
f -30/-30/-30 -32/-32/-32 -29/-29/-29
f -30/-30/-30 -28/-28/-28 -31/-31/-31
f -30/-30/-30 -29/-29/-29 -27/-27/-27
f -27/-27/-27 -28/-28/-28 -30/-30/-30
f -27/-27/-27 -29/-29/-29 -26/-26/-26
f -27/-27/-27 -26/-26/-26 -28/-28/-28
f -26/-26/-26 -29/-29/-29 -25/-25/-25
f -24/-24/-24 -31/-31/-31 -28/-28/-28
f -24/-24/-24 -54/-54/-54 -31/-31/-31
f -26/-26/-26 -23/-23/-23 -28/-28/-28
f -26/-26/-26 -25/-25/-25 -23/-23/-23
f -23/-23/-23 -24/-24/-24 -28/-28/-28
f -22/-22/-22 -23/-23/-23 -25/-25/-25
f -23/-23/-23 -22/-22/-22 -24/-24/-24
f -21/-21/-21 -22/-22/-22 -25/-25/-25
f -22/-22/-22 -20/-20/-20 -24/-24/-24
f -20/-20/-20 -54/-54/-54 -24/-24/-24
f -22/-22/-22 -21/-21/-21 -19/-19/-19
f -20/-20/-20 -22/-22/-22 -19/-19/-19
f -19/-19/-19 -21/-21/-21 -18/-18/-18
f -17/-17/-17 -54/-54/-54 -20/-20/-20
f -20/-20/-20 -19/-19/-19 -17/-17/-17
f -19/-19/-19 -18/-18/-18 -16/-16/-16
f -17/-17/-17 -19/-19/-19 -16/-16/-16
f -18/-18/-18 -15/-15/-15 -16/-16/-16
f -16/-16/-16 -15/-15/-15 -14/-14/-14
f -16/-16/-16 -14/-14/-14 -17/-17/-17
f -13/-13/-13 -54/-54/-54 -17/-17/-17
f -54/-54/-54 -13/-13/-13 -62/-62/-62
f -14/-14/-14 -15/-15/-15 -12/-12/-12
f -12/-12/-12 -15/-15/-15 -11/-11/-11
f -14/-14/-14 -10/-10/-10 -17/-17/-17
f -14/-14/-14 -12/-12/-12 -10/-10/-10
f -10/-10/-10 -13/-13/-13 -17/-17/-17
f -12/-12/-12 -11/-11/-11 -9/-9/-9
f -12/-12/-12 -9/-9/-9 -10/-10/-10
f -9/-9/-9 -13/-13/-13 -10/-10/-10
f -9/-9/-9 -11/-11/-11 -8/-8/-8
f -9/-9/-9 -7/-7/-7 -13/-13/-13
f -9/-9/-9 -8/-8/-8 -7/-7/-7
f -62/-62/-62 -13/-13/-13 -6/-6/-6
f -7/-7/-7 -6/-6/-6 -13/-13/-13
f -7/-7/-7 -8/-8/-8 -5/-5/-5
f -7/-7/-7 -5/-5/-5 -6/-6/-6
f -8/-8/-8 -4/-4/-4 -5/-5/-5
f -3/-3/-3 -62/-62/-62 -6/-6/-6
f -58/-58/-58 -62/-62/-62 -3/-3/-3
f -50/-50/-50 -58/-58/-58 -3/-3/-3
f -2/-2/-2 -3/-3/-3 -6/-6/-6
f -5/-5/-5 -2/-2/-2 -6/-6/-6
f -50/-50/-50 -3/-3/-3 -2/-2/-2
f -5/-5/-5 -4/-4/-4 -1/-1/-1
f -5/-5/-5 -1/-1/-1 -2/-2/-2
f -50/-50/-50 -2/-2/-2 -1/-1/-1
f -4/-4/-4 -49/-49/-49 -1/-1/-1
f -1/-1/-1 -49/-49/-49 -50/-50/-50

