# Mesh "ENV_PushPullBlock02_MO" exported with Unity Assets Bundle Extractor; 24 vertices, 36 indices, 384 bits per vertex
g ENV_PushPullBlock02_MO
# SubMesh 0
# Vertices
v -2.000000 0.000000 2.025683
vt -3.000000 0.000000
vn -0.000000 0.000000 1.000000
v -2.000000 4.022767 2.025683
vt -3.000000 4.022767
vn -0.000000 0.000000 1.000000
v 2.000000 4.000000 2.025683
vt 1.000000 4.000000
vn -0.000000 0.000000 1.000000
v 2.000000 0.000000 2.025683
vt 1.000000 0.000000
vn -0.000000 0.000000 1.000000
v -2.000000 4.022767 2.025683
vt -3.000001 0.000006
vn 0.002846 0.999992 0.002810
v -2.000000 4.022767 -2.025683
vt -3.000001 4.051372
vn 0.002846 0.999992 0.002810
v 2.000000 4.022767 -2.025683
vt 0.999999 4.051372
vn 0.002846 0.999992 0.002810
v 2.000000 4.000000 2.025683
vt 0.999999 0.000006
vn 0.002846 0.999992 0.002810
v -2.000000 4.022767 -2.025683
vt -3.000000 -3.022767
vn -0.000000 0.000000 -1.000000
v -2.000000 0.000000 -2.025683
vt -3.000000 1.000000
vn -0.000000 0.000000 -1.000000
v 2.000000 0.000000 -2.025683
vt 1.000001 1.000000
vn -0.000000 0.000000 -1.000000
v 2.000000 4.022767 -2.025683
vt 1.000000 -3.022767
vn -0.000000 0.000000 -1.000000
v -2.000000 0.000000 -2.025683
vt -3.000000 -3.051366
vn -0.000000 -1.000000 0.000000
v -2.000000 0.000000 2.025683
vt -3.000000 1.000000
vn -0.000000 -1.000000 0.000000
v 2.000000 0.000000 2.025683
vt 1.000000 1.000000
vn -0.000000 -1.000000 0.000000
v 2.000000 0.000000 -2.025683
vt 1.000000 -3.051366
vn -0.000000 -1.000000 0.000000
v 2.000000 0.000000 2.025683
vt 0.000000 0.000000
vn 1.000000 0.000000 0.000000
v 2.000000 4.000000 2.025683
vt 0.000000 4.000000
vn 1.000000 0.000000 0.000000
v 2.000000 4.022767 -2.025683
vt 4.051366 4.022767
vn 1.000000 0.000000 0.000000
v 2.000000 0.000000 -2.025683
vt 4.051366 0.000000
vn 1.000000 0.000000 0.000000
v -2.000000 0.000000 -2.025683
vt -3.051366 -0.000001
vn -1.000000 0.000000 0.000000
v -2.000000 4.022767 -2.025683
vt -3.051365 4.022765
vn -1.000000 0.000000 0.000000
v -2.000000 4.022767 2.025683
vt 1.000001 4.022765
vn -1.000000 0.000000 0.000000
v -2.000000 0.000000 2.025683
vt 1.000000 -0.000000
vn -1.000000 0.000000 0.000000
# Faces (1 to 24)
g ENV_PushPullBlock02_MO_0
f -22/-22/-22 -23/-23/-23 -24/-24/-24
f -21/-21/-21 -22/-22/-22 -24/-24/-24
f -18/-18/-18 -19/-19/-19 -20/-20/-20
f -17/-17/-17 -18/-18/-18 -20/-20/-20
f -14/-14/-14 -15/-15/-15 -16/-16/-16
f -13/-13/-13 -14/-14/-14 -16/-16/-16
f -10/-10/-10 -11/-11/-11 -12/-12/-12
f -9/-9/-9 -10/-10/-10 -12/-12/-12
f -6/-6/-6 -7/-7/-7 -8/-8/-8
f -5/-5/-5 -6/-6/-6 -8/-8/-8
f -2/-2/-2 -3/-3/-3 -4/-4/-4
f -1/-1/-1 -2/-2/-2 -4/-4/-4

