# Mesh "ENV_RoundCloud_Small02" exported with Unity Assets Bundle Extractor; 98 vertices, 540 indices, 256 bits per vertex
g ENV_RoundCloud_Small02
# SubMesh 0
# Vertices
v 21.609039 -24.046679 -4.295409
vt 0.869192 0.935438
vn 0.288588 -0.892516 0.346599
v 23.025942 -14.528475 5.267282
vt 0.855963 0.923201
vn 0.802287 -0.553073 0.224603
v 32.479839 -18.804522 -8.212806
vt 0.852536 0.958284
vn 0.739272 -0.635988 0.221352
v 16.638584 -20.065928 3.377604
vt 0.866139 0.913736
vn 0.458991 -0.887966 0.029050
v 33.989601 -9.243250 -2.968752
vt 0.842548 0.952076
vn 0.905647 -0.065825 0.418893
v 35.184021 -10.457649 -17.207006
vt 0.819414 0.979923
vn 0.921555 -0.250897 -0.296289
v 23.881845 -20.753355 19.875654
vt 0.849612 0.896989
vn 0.684155 -0.716480 0.136343
v 11.276665 -25.453615 18.239023
vt 0.851550 0.879763
vn 0.102993 -0.983367 0.149605
v 7.632237 -23.894188 11.258281
vt 0.861174 0.881353
vn 0.197880 -0.943904 0.264365
v 0.266724 -21.050632 21.749935
vt 0.831636 0.858854
vn 0.093569 -0.824947 0.557412
v 12.020532 -17.748604 32.791672
vt 0.832613 0.876012
vn 0.057366 -0.641298 0.765144
v -2.945194 -10.120478 29.968309
vt 0.806786 0.864726
vn -0.151167 -0.174559 0.972974
v -13.691692 -20.508699 29.811623
vt 0.787148 0.848421
vn -0.004976 -0.498695 0.866763
v 30.395994 -5.851049 14.794502
vt 0.842573 0.915287
vn 0.998135 -0.014238 -0.059365
v 24.921036 -9.797859 28.490047
vt 0.837213 0.895374
vn 0.759996 -0.184690 0.623134
v 14.661846 -4.954977 35.730049
vt 0.825186 0.884196
vn 0.188986 0.096301 0.977246
v 25.221281 -5.020037 4.981667
vt 0.843480 0.929936
vn 0.943580 0.154166 0.293070
v 25.555754 4.226456 23.705097
vt 0.830163 0.905527
vn 0.761002 0.510365 0.400504
v 22.109756 6.721573 9.065914
vt 0.829744 0.922585
vn 0.898133 0.435513 0.060710
v 31.607140 1.557512 -2.743317
vt 0.833503 0.945833
vn 0.728248 0.497139 0.471708
v 24.421520 5.194702 0.288903
vt 0.830612 0.935709
vn 0.892690 0.366216 0.262660
v 22.211027 11.589003 -9.839136
vt 0.819009 0.944519
vn 0.741417 0.641770 -0.196039
v 33.476734 3.569641 -13.274222
vt 0.824236 0.959095
vn 0.838273 0.534178 -0.109325
v 20.165443 20.768785 5.376144
vt 0.819739 0.923199
vn 0.832394 0.470536 0.292772
v 15.588741 12.246275 15.836041
vt 0.820097 0.909118
vn 0.524330 0.691574 0.496793
v 14.347153 8.164120 29.610785
vt 0.818832 0.894523
vn 0.150445 0.737118 0.658805
v 3.230400 0.502424 32.228378
vt 0.810800 0.879637
vn -0.407097 0.433118 0.804165
v 3.724385 11.364202 20.789351
vt 0.806790 0.893490
vn -0.118169 0.642793 0.756871
v -3.311291 3.923101 22.658340
vt 0.798433 0.881786
vn -0.183906 0.551416 0.813707
v 7.416039 23.336401 14.643805
vt 0.809181 0.906456
vn 0.268458 0.616802 0.739923
v -11.060944 -5.863962 31.733582
vt 0.789500 0.866134
vn 0.133941 0.220860 0.966065
v -21.493568 -8.535280 30.839552
vt 0.768261 0.867023
vn -0.383478 0.131059 0.914204
v -28.301468 -15.206995 25.382465
vt 0.742945 0.874617
vn -0.731437 -0.196332 0.653034
v -14.531116 3.822680 26.867155
vt 0.783704 0.876012
vn -0.121529 0.690742 0.712816
v -4.829121 21.514273 14.563064
vt 0.797019 0.899059
vn -0.376819 0.556999 0.740108
v -28.052387 0.913391 21.998238
vt 0.764053 0.879886
vn -0.691155 0.425640 0.584068
v -12.781944 10.507135 14.438234
vt 0.784921 0.890061
vn -0.482756 0.698869 0.527758
v -23.268394 7.642879 16.226135
vt 0.772165 0.886534
vn -0.569082 0.813620 0.119029
v -34.383144 -7.551908 13.057976
vt 0.749911 0.889730
vn -0.992164 0.111832 0.055707
v -25.514507 -25.876513 20.066227
vt 0.727896 0.895186
vn -0.588175 -0.735077 0.337213
v -13.691692 -20.508699 29.811623
vt 0.706604 0.896983
vn -0.004976 -0.498695 0.866763
v -7.337818 -28.064785 19.875193
vt 0.709957 0.922063
vn 0.192178 -0.879583 0.435202
v 0.266724 -21.050632 21.749935
vt 0.698482 0.932840
vn 0.093569 -0.824947 0.557412
v -6.251812 -28.305922 7.570565
vt 0.720405 0.938853
vn 0.088442 -0.986096 0.140689
v 7.632237 -23.894188 11.258281
vt 0.712049 0.960133
vn 0.197880 -0.943904 0.264365
v -15.055294 -30.549288 12.062218
vt 0.721457 0.920634
vn -0.125186 -0.989932 -0.066049
v 3.358479 -30.919998 1.232341
vt 0.727591 0.958981
vn 0.335312 -0.937730 0.090708
v 16.638584 -20.065928 3.377604
vt 0.730974 0.984925
vn 0.458991 -0.887966 0.029050
v 10.303593 -24.771042 -9.122579
vt 0.747783 0.976426
vn 0.195644 -0.974067 -0.113649
v 21.609039 -24.046679 -4.295409
vt 0.755423 0.993485
vn 0.288588 -0.892516 0.346599
v -4.102383 -29.318953 -8.589447
vt 0.737281 0.954364
vn -0.212006 -0.903979 -0.371317
v -13.395824 -25.174761 -1.245888
vt 0.731729 0.935559
vn -0.287643 -0.887607 -0.359743
v -23.542633 -25.581200 3.053855
vt 0.732678 0.918545
vn -0.511696 -0.743244 -0.430993
v 22.960234 -25.211515 -18.555183
vt 0.775723 0.986880
vn 0.306038 -0.882682 -0.356669
v 32.479839 -18.804522 -8.212806
vt 0.789808 0.998047
vn 0.739272 -0.635988 0.221352
v -16.869278 -18.581495 -6.954063
vt 0.739311 0.933362
vn -0.463502 -0.809754 -0.359812
v -29.520798 -11.075411 -0.813052
vt 0.746481 0.909981
vn -0.924123 -0.367048 -0.106176
v -31.047096 -19.341602 6.599965
vt 0.738871 0.905413
vn -0.881718 -0.447862 -0.148302
v 6.115913 -21.998911 -15.654748
vt 0.753603 0.970637
vn 0.031046 -0.943689 -0.329375
v -3.840904 -22.592192 -15.970240
vt 0.747276 0.956957
vn -0.354044 -0.883293 -0.307321
v -26.964779 1.971636 3.203643
vt 0.761640 0.899445
vn -0.850324 0.490079 0.191760
v -19.366817 7.100258 3.943565
vt 0.773071 0.898358
vn -0.660427 0.692555 0.290177
v -12.609863 23.228636 3.102340
vt 0.787957 0.906518
vn -0.715625 0.674913 0.179928
v 0.611610 30.292253 5.632528
vt 0.801032 0.911681
vn -0.269198 0.901918 0.337753
v 9.562759 30.602962 3.437510
vt 0.807835 0.918108
vn 0.367044 0.894311 0.255901
v 1.822910 30.920000 -8.593645
vt 0.799049 0.923860
vn -0.086501 0.916451 -0.390686
v 15.914841 26.967745 -4.558144
vt 0.811139 0.928633
vn 0.672454 0.701448 -0.236170
v 15.241165 20.811539 -13.141173
vt 0.808755 0.938353
vn 0.488841 0.531731 -0.691590
v -29.085789 10.737438 -5.512653
vt 0.768801 0.908876
vn -0.576374 0.765058 0.287192
v -17.052460 15.365963 -5.922499
vt 0.780030 0.912405
vn -0.566065 0.824360 0.000272
v -7.632637 23.955183 -10.890640
vt 0.789798 0.921938
vn -0.553356 0.674474 -0.488756
v 2.926655 18.754530 -19.763718
vt 0.795623 0.937128
vn -0.019282 0.484331 -0.874672
v 12.292728 7.643824 -20.581890
vt 0.801117 0.950985
vn 0.206027 0.511220 -0.834390
v -10.782928 14.341631 -16.145746
vt 0.784104 0.927430
vn -0.189189 0.747450 -0.636810
v -35.184021 2.022524 -6.867930
vt 0.759554 0.911038
vn -0.959564 0.104895 0.261216
v -23.130207 13.751621 -20.774731
vt 0.775050 0.924358
vn -0.294540 0.842336 -0.451350
v -3.073921 5.064154 -22.618706
vt 0.785700 0.943450
vn 0.067541 0.591333 -0.803594
v 20.283108 7.677488 -23.671494
vt 0.806715 0.956806
vn 0.270224 0.751920 -0.601328
v -32.185764 6.615181 -19.211346
vt 0.765678 0.921364
vn -0.827621 0.461444 -0.319552
v -34.255581 -6.234866 -18.224573
vt 0.755423 0.924085
vn -0.924392 -0.304742 -0.229418
v -11.263504 8.741426 -25.742056
vt 0.779498 0.936922
vn 0.237500 0.665322 -0.707772
v -27.220936 -0.792560 -28.675703
vt 0.764354 0.932674
vn -0.530138 0.003668 -0.847904
v -27.389774 -16.383354 -13.399270
vt 0.746978 0.927692
vn -0.488079 -0.870330 -0.065608
v -17.052612 1.528234 -30.628223
vt 0.771060 0.939169
vn -0.038222 0.318370 -0.947196
v -25.231533 -13.536692 -22.192678
vt 0.753657 0.935276
vn -0.428150 -0.645178 -0.632797
v -13.120937 -16.660309 -21.500706
vt 0.752511 0.947018
vn -0.361160 -0.875419 -0.321254
v -13.242188 -9.852791 -29.458944
vt 0.763339 0.946889
vn -0.372898 -0.391628 -0.841174
v -8.102417 0.618477 -27.821617
vt 0.776985 0.944838
vn -0.078293 0.486554 -0.870135
v -1.813698 -23.120110 -27.878527
vt 0.759233 0.961500
vn -0.199245 -0.864382 -0.461676
v -5.599594 -9.566383 -35.730049
vt 0.770575 0.953528
vn -0.357978 -0.072263 -0.930930
v 3.257694 -1.821928 -34.458527
vt 0.782296 0.956010
vn 0.163953 0.535576 -0.828419
v 11.807919 -18.501253 -25.955051
vt 0.772745 0.972938
vn 0.187806 -0.759265 -0.623094
v 5.414772 -15.255271 -34.757603
vt 0.773399 0.963990
vn 0.292457 -0.352148 -0.889079
v 9.915466 -0.130358 -26.988039
vt 0.791855 0.957599
vn 0.060990 0.625940 -0.777483
v 13.070184 -8.716640 -29.629993
vt 0.785754 0.967029
vn 0.320416 -0.037481 -0.946535
v 25.360575 -13.966588 -27.741730
vt 0.794142 0.977471
vn 0.440472 -0.363480 -0.820894
v 21.528835 -3.237143 -29.725927
vt 0.798277 0.967143
vn 0.222247 0.254117 -0.941292
v 31.627970 -1.503305 -22.615170
vt 0.813496 0.969154
vn 0.696757 0.284494 -0.658478
# Faces (1 to 98)
g ENV_RoundCloud_Small02_0
f -96/-96/-96 -97/-97/-97 -98/-98/-98
f -95/-95/-95 -98/-98/-98 -97/-97/-97
f -97/-97/-97 -96/-96/-96 -94/-94/-94
f -96/-96/-96 -93/-93/-93 -94/-94/-94
f -97/-97/-97 -92/-92/-92 -95/-95/-95
f -92/-92/-92 -91/-91/-91 -95/-95/-95
f -95/-95/-95 -91/-91/-91 -90/-90/-90
f -89/-89/-89 -90/-90/-90 -91/-91/-91
f -91/-91/-91 -88/-88/-88 -89/-89/-89
f -91/-91/-91 -92/-92/-92 -88/-88/-88
f -88/-88/-88 -87/-87/-87 -89/-89/-89
f -87/-87/-87 -86/-86/-86 -89/-89/-89
f -97/-97/-97 -85/-85/-85 -92/-92/-92
f -88/-88/-88 -92/-92/-92 -84/-84/-84
f -84/-84/-84 -92/-92/-92 -85/-85/-85
f -84/-84/-84 -83/-83/-83 -88/-88/-88
f -83/-83/-83 -87/-87/-87 -88/-88/-88
f -94/-94/-94 -82/-82/-82 -97/-97/-97
f -85/-85/-85 -97/-97/-97 -82/-82/-82
f -84/-84/-84 -85/-85/-85 -81/-81/-81
f -81/-81/-81 -83/-83/-83 -84/-84/-84
f -80/-80/-80 -85/-85/-85 -82/-82/-82
f -85/-85/-85 -80/-80/-80 -81/-81/-81
f -82/-82/-82 -94/-94/-94 -79/-79/-79
f -80/-80/-80 -82/-82/-82 -78/-78/-78
f -78/-78/-78 -82/-82/-82 -79/-79/-79
f -77/-77/-77 -78/-78/-78 -79/-79/-79
f -76/-76/-76 -79/-79/-79 -94/-94/-94
f -79/-79/-79 -76/-76/-76 -77/-77/-77
f -76/-76/-76 -94/-94/-94 -93/-93/-93
f -75/-75/-75 -80/-80/-80 -78/-78/-78
f -75/-75/-75 -78/-78/-78 -77/-77/-77
f -80/-80/-80 -74/-74/-74 -81/-81/-81
f -80/-80/-80 -75/-75/-75 -74/-74/-74
f -81/-81/-81 -73/-73/-73 -83/-83/-83
f -74/-74/-74 -73/-73/-73 -81/-81/-81
f -73/-73/-73 -72/-72/-72 -83/-83/-83
f -72/-72/-72 -87/-87/-87 -83/-83/-83
f -71/-71/-71 -73/-73/-73 -74/-74/-74
f -73/-73/-73 -71/-71/-71 -72/-72/-72
f -70/-70/-70 -87/-87/-87 -72/-72/-72
f -71/-71/-71 -70/-70/-70 -72/-72/-72
f -69/-69/-69 -71/-71/-71 -74/-74/-74
f -75/-75/-75 -69/-69/-69 -74/-74/-74
f -70/-70/-70 -68/-68/-68 -87/-87/-87
f -87/-87/-87 -68/-68/-68 -86/-86/-86
f -67/-67/-67 -86/-86/-86 -68/-68/-68
f -86/-86/-86 -67/-67/-67 -66/-66/-66
f -67/-67/-67 -68/-68/-68 -65/-65/-65
f -70/-70/-70 -65/-65/-65 -68/-68/-68
f -70/-70/-70 -71/-71/-71 -64/-64/-64
f -64/-64/-64 -71/-71/-71 -69/-69/-69
f -63/-63/-63 -66/-66/-66 -67/-67/-67
f -63/-63/-63 -67/-67/-67 -65/-65/-65
f -70/-70/-70 -62/-62/-62 -65/-65/-65
f -64/-64/-64 -62/-62/-62 -70/-70/-70
f -61/-61/-61 -63/-63/-63 -65/-65/-65
f -61/-61/-61 -65/-65/-65 -62/-62/-62
f -60/-60/-60 -66/-66/-66 -63/-63/-63
f -61/-61/-61 -60/-60/-60 -63/-63/-63
f -66/-66/-66 -60/-60/-60 -59/-59/-59
f -66/-66/-66 -59/-59/-59 -58/-58/-58
f -58/-58/-58 -59/-59/-59 -57/-57/-57
f -58/-58/-58 -57/-57/-57 -56/-56/-56
f -55/-55/-55 -56/-56/-56 -57/-57/-57
f -56/-56/-56 -55/-55/-55 -54/-54/-54
f -59/-59/-59 -53/-53/-53 -57/-57/-57
f -55/-55/-55 -57/-57/-57 -53/-53/-53
f -55/-55/-55 -52/-52/-52 -54/-54/-54
f -52/-52/-52 -51/-51/-51 -54/-54/-54
f -50/-50/-50 -51/-51/-51 -52/-52/-52
f -49/-49/-49 -51/-51/-51 -50/-50/-50
f -52/-52/-52 -55/-55/-55 -48/-48/-48
f -50/-50/-50 -52/-52/-52 -48/-48/-48
f -55/-55/-55 -53/-53/-53 -47/-47/-47
f -48/-48/-48 -55/-55/-55 -47/-47/-47
f -53/-53/-53 -59/-59/-59 -46/-46/-46
f -47/-47/-47 -53/-53/-53 -46/-46/-46
f -49/-49/-49 -50/-50/-50 -45/-45/-45
f -49/-49/-49 -45/-45/-45 -44/-44/-44
f -45/-45/-45 -93/-93/-93 -44/-44/-44
f -43/-43/-43 -48/-48/-48 -47/-47/-47
f -43/-43/-43 -47/-47/-47 -46/-46/-46
f -43/-43/-43 -46/-46/-46 -42/-42/-42
f -46/-46/-46 -59/-59/-59 -41/-41/-41
f -46/-46/-46 -41/-41/-41 -42/-42/-42
f -41/-41/-41 -59/-59/-59 -60/-60/-60
f -60/-60/-60 -42/-42/-42 -41/-41/-41
f -40/-40/-40 -50/-50/-50 -48/-48/-48
f -45/-45/-45 -50/-50/-50 -40/-40/-40
f -43/-43/-43 -39/-39/-39 -48/-48/-48
f -40/-40/-40 -48/-48/-48 -39/-39/-39
f -38/-38/-38 -42/-42/-42 -60/-60/-60
f -38/-38/-38 -60/-60/-60 -61/-61/-61
f -38/-38/-38 -61/-61/-61 -37/-37/-37
f -61/-61/-61 -62/-62/-62 -37/-37/-37
f -36/-36/-36 -37/-37/-37 -62/-62/-62
f -36/-36/-36 -62/-62/-62 -64/-64/-64
f -36/-36/-36 -64/-64/-64 -35/-35/-35
f -69/-69/-69 -35/-35/-35 -64/-64/-64
f -34/-34/-34 -35/-35/-35 -69/-69/-69
f -75/-75/-75 -34/-34/-34 -69/-69/-69
f -35/-35/-35 -34/-34/-34 -33/-33/-33
f -36/-36/-36 -35/-35/-35 -33/-33/-33
f -75/-75/-75 -32/-32/-32 -34/-34/-34
f -32/-32/-32 -33/-33/-33 -34/-34/-34
f -32/-32/-32 -75/-75/-75 -77/-77/-77
f -31/-31/-31 -33/-33/-33 -32/-32/-32
f -31/-31/-31 -32/-32/-32 -77/-77/-77
f -30/-30/-30 -38/-38/-38 -37/-37/-37
f -36/-36/-36 -29/-29/-29 -37/-37/-37
f -29/-29/-29 -30/-30/-30 -37/-37/-37
f -36/-36/-36 -33/-33/-33 -28/-28/-28
f -28/-28/-28 -29/-29/-29 -36/-36/-36
f -31/-31/-31 -27/-27/-27 -33/-33/-33
f -28/-28/-28 -33/-33/-33 -27/-27/-27
f -31/-31/-31 -77/-77/-77 -26/-26/-26
f -31/-31/-31 -26/-26/-26 -27/-27/-27
f -25/-25/-25 -29/-29/-29 -28/-28/-28
f -28/-28/-28 -27/-27/-27 -25/-25/-25
f -30/-30/-30 -24/-24/-24 -38/-38/-38
f -42/-42/-42 -38/-38/-38 -24/-24/-24
f -29/-29/-29 -23/-23/-23 -30/-30/-30
f -23/-23/-23 -29/-29/-29 -25/-25/-25
f -27/-27/-27 -22/-22/-22 -25/-25/-25
f -27/-27/-27 -26/-26/-26 -22/-22/-22
f -26/-26/-26 -77/-77/-77 -21/-21/-21
f -77/-77/-77 -76/-76/-76 -21/-21/-21
f -20/-20/-20 -24/-24/-24 -30/-30/-30
f -23/-23/-23 -20/-20/-20 -30/-30/-30
f -42/-42/-42 -24/-24/-24 -19/-19/-19
f -20/-20/-20 -19/-19/-19 -24/-24/-24
f -18/-18/-18 -25/-25/-25 -22/-22/-22
f -23/-23/-23 -25/-25/-25 -18/-18/-18
f -23/-23/-23 -17/-17/-17 -20/-20/-20
f -20/-20/-20 -17/-17/-17 -19/-19/-19
f -42/-42/-42 -19/-19/-19 -16/-16/-16
f -43/-43/-43 -42/-42/-42 -16/-16/-16
f -15/-15/-15 -23/-23/-23 -18/-18/-18
f -23/-23/-23 -15/-15/-15 -17/-17/-17
f -17/-17/-17 -14/-14/-14 -19/-19/-19
f -19/-19/-19 -14/-14/-14 -16/-16/-16
f -13/-13/-13 -43/-43/-43 -16/-16/-16
f -16/-16/-16 -14/-14/-14 -13/-13/-13
f -43/-43/-43 -13/-13/-13 -39/-39/-39
f -17/-17/-17 -12/-12/-12 -14/-14/-14
f -12/-12/-12 -17/-17/-17 -15/-15/-15
f -13/-13/-13 -14/-14/-14 -12/-12/-12
f -11/-11/-11 -15/-15/-15 -18/-18/-18
f -18/-18/-18 -22/-22/-22 -11/-11/-11
f -11/-11/-11 -12/-12/-12 -15/-15/-15
f -10/-10/-10 -39/-39/-39 -13/-13/-13
f -10/-10/-10 -13/-13/-13 -12/-12/-12
f -39/-39/-39 -10/-10/-10 -40/-40/-40
f -9/-9/-9 -12/-12/-12 -11/-11/-11
f -9/-9/-9 -10/-10/-10 -12/-12/-12
f -11/-11/-11 -22/-22/-22 -8/-8/-8
f -8/-8/-8 -9/-9/-9 -11/-11/-11
f -7/-7/-7 -40/-40/-40 -10/-10/-10
f -7/-7/-7 -45/-45/-45 -40/-40/-40
f -9/-9/-9 -6/-6/-6 -10/-10/-10
f -8/-8/-8 -6/-6/-6 -9/-9/-9
f -7/-7/-7 -10/-10/-10 -6/-6/-6
f -8/-8/-8 -22/-22/-22 -5/-5/-5
f -22/-22/-22 -26/-26/-26 -5/-5/-5
f -21/-21/-21 -5/-5/-5 -26/-26/-26
f -8/-8/-8 -4/-4/-4 -6/-6/-6
f -4/-4/-4 -7/-7/-7 -6/-6/-6
f -8/-8/-8 -5/-5/-5 -4/-4/-4
f -3/-3/-3 -45/-45/-45 -7/-7/-7
f -3/-3/-3 -7/-7/-7 -4/-4/-4
f -3/-3/-3 -93/-93/-93 -45/-45/-45
f -2/-2/-2 -4/-4/-4 -5/-5/-5
f -21/-21/-21 -2/-2/-2 -5/-5/-5
f -2/-2/-2 -3/-3/-3 -4/-4/-4
f -1/-1/-1 -93/-93/-93 -3/-3/-3
f -3/-3/-3 -2/-2/-2 -1/-1/-1
f -1/-1/-1 -2/-2/-2 -21/-21/-21
f -76/-76/-76 -93/-93/-93 -1/-1/-1
f -21/-21/-21 -76/-76/-76 -1/-1/-1

