# Mesh "ENV_spinPlat_Col" exported with Unity Assets Bundle Extractor; 88 vertices, 192 indices, 384 bits per vertex
g ENV_spinPlat_Col
# SubMesh 0
# Vertices
v 1.283264 0.366592 10.412598
vt 0.170628 0.020365
vn 0.000214 0.999998 0.001738
v -2.798462 0.366592 10.107422
vt 0.087224 0.138608
vn -0.000467 0.999998 0.001687
v -0.000000 0.384903 0.000000
vt 0.436720 0.414533
vn -0.000000 1.000000 0.000000
v -6.451416 0.366592 8.270264
vt 0.014613 0.358358
vn -0.001077 0.999998 0.001380
v -9.124756 0.366592 5.169678
vt 0.031638 0.589168
vn -0.001523 0.999998 0.000863
v -10.412598 0.366592 1.283264
vt 0.132791 0.792930
vn -0.001738 0.999998 0.000214
v 1.283264 0.366592 10.412598
vt 0.990015 0.029180
vn 0.122411 0.000000 0.992479
v 1.283264 -0.366592 10.412598
vt 0.948577 0.029180
vn 0.122411 0.000000 0.992479
v -2.798462 -0.366592 10.107422
vt 0.948577 0.174590
vn -0.266481 0.000000 0.963840
v -2.798462 0.366592 10.107422
vt 0.990015 0.174590
vn -0.266481 0.000000 0.963840
v -6.451416 -0.366592 8.270264
vt 0.948577 0.408849
vn -0.615252 0.000000 0.788331
v -6.451416 0.366592 8.270264
vt 0.990015 0.408849
vn -0.615252 0.000000 0.788331
v -9.124756 -0.366592 5.169678
vt 0.948577 0.643108
vn -0.870206 0.000000 0.492687
v -9.124756 0.366592 5.169678
vt 0.990015 0.643108
vn -0.870206 0.000000 0.492687
v -10.412598 -0.366592 1.283264
vt 0.948577 0.873202
vn -0.992479 0.000000 0.122412
v -10.412598 0.366592 1.283264
vt 0.990015 0.873202
vn -0.992479 0.000000 0.122412
v 1.283264 -0.366592 10.412598
vt 0.625926 0.841611
vn 0.000218 -0.999998 0.001764
v -0.000000 -0.385284 0.000000
vt 0.886289 0.431002
vn -0.000000 -1.000000 0.000000
v -2.798462 -0.366592 10.107422
vt 0.542522 0.723369
vn -0.000474 -0.999998 0.001713
v -6.451416 -0.366592 8.270264
vt 0.469909 0.503619
vn -0.001093 -0.999998 0.001401
v -9.124756 -0.366592 5.169678
vt 0.486933 0.272810
vn -0.001546 -0.999998 0.000875
v -10.412598 -0.366592 1.283264
vt 0.588084 0.069047
vn -0.001764 -0.999998 0.000218
v 10.412598 0.366592 -1.283264
vt 0.170628 0.020365
vn 0.001738 0.999998 -0.000214
v 10.107422 0.366592 2.798462
vt 0.087224 0.138608
vn 0.001687 0.999998 0.000467
v -0.000000 0.384903 0.000000
vt 0.436720 0.414533
vn -0.000000 1.000000 0.000000
v 8.270264 0.366592 6.451416
vt 0.014613 0.358358
vn 0.001380 0.999998 0.001077
v 5.169678 0.366592 9.124756
vt 0.031638 0.589168
vn 0.000863 0.999998 0.001523
v 1.283264 0.366592 10.412598
vt 0.132791 0.792930
vn 0.000214 0.999998 0.001738
v 10.412598 0.366592 -1.283264
vt 0.990015 0.029180
vn 0.992479 0.000000 -0.122412
v 10.412598 -0.366592 -1.283264
vt 0.948577 0.029180
vn 0.992479 0.000000 -0.122412
v 10.107422 -0.366592 2.798462
vt 0.948577 0.174590
vn 0.963840 0.000000 0.266480
v 10.107422 0.366592 2.798462
vt 0.990015 0.174590
vn 0.963840 0.000000 0.266480
v 8.270264 -0.366592 6.451416
vt 0.948577 0.408849
vn 0.788331 0.000000 0.615251
v 8.270264 0.366592 6.451416
vt 0.990015 0.408849
vn 0.788331 0.000000 0.615251
v 5.169678 -0.366592 9.124756
vt 0.948577 0.643108
vn 0.492687 0.000000 0.870206
v 5.169678 0.366592 9.124756
vt 0.990015 0.643108
vn 0.492687 0.000000 0.870206
v 1.283264 -0.366592 10.412598
vt 0.948577 0.873202
vn 0.122411 0.000000 0.992479
v 1.283264 0.366592 10.412598
vt 0.990015 0.873202
vn 0.122411 0.000000 0.992479
v 10.412598 -0.366592 -1.283264
vt 0.625926 0.841611
vn 0.001764 -0.999998 -0.000218
v -0.000000 -0.385284 0.000000
vt 0.886289 0.431002
vn -0.000000 -1.000000 0.000000
v 10.107422 -0.366592 2.798462
vt 0.542522 0.723369
vn 0.001713 -0.999998 0.000474
v 8.270264 -0.366592 6.451416
vt 0.469909 0.503619
vn 0.001401 -0.999998 0.001093
v 5.169678 -0.366592 9.124756
vt 0.486933 0.272810
vn 0.000875 -0.999998 0.001546
v 1.283264 -0.366592 10.412598
vt 0.588084 0.069047
vn 0.000218 -0.999998 0.001764
v -1.283264 0.366592 -10.412598
vt 0.170628 0.020365
vn -0.000214 0.999998 -0.001738
v 2.798462 0.366592 -10.107422
vt 0.087224 0.138608
vn 0.000467 0.999998 -0.001687
v -0.000000 0.384903 0.000000
vt 0.436720 0.414533
vn -0.000000 1.000000 0.000000
v 6.451416 0.366592 -8.270264
vt 0.014613 0.358358
vn 0.001077 0.999998 -0.001380
v 9.124756 0.366592 -5.169678
vt 0.031638 0.589168
vn 0.001523 0.999998 -0.000863
v 10.412598 0.366592 -1.283264
vt 0.132791 0.792930
vn 0.001738 0.999998 -0.000214
v -1.283264 0.366592 -10.412598
vt 0.990015 0.029180
vn -0.122411 0.000000 -0.992479
v -1.283264 -0.366592 -10.412598
vt 0.948577 0.029180
vn -0.122411 0.000000 -0.992479
v 2.798462 -0.366592 -10.107422
vt 0.948577 0.174590
vn 0.266481 0.000000 -0.963840
v 2.798462 0.366592 -10.107422
vt 0.990015 0.174590
vn 0.266481 0.000000 -0.963840
v 6.451416 -0.366592 -8.270264
vt 0.948577 0.408849
vn 0.615252 0.000000 -0.788331
v 6.451416 0.366592 -8.270264
vt 0.990015 0.408849
vn 0.615252 0.000000 -0.788331
v 9.124756 -0.366592 -5.169678
vt 0.948577 0.643108
vn 0.870206 0.000000 -0.492687
v 9.124756 0.366592 -5.169678
vt 0.990015 0.643108
vn 0.870206 0.000000 -0.492687
v 10.412598 -0.366592 -1.283264
vt 0.948577 0.873202
vn 0.992479 0.000000 -0.122412
v 10.412598 0.366592 -1.283264
vt 0.990015 0.873202
vn 0.992479 0.000000 -0.122412
v -1.283264 -0.366592 -10.412598
vt 0.625926 0.841611
vn -0.000218 -0.999998 -0.001764
v -0.000000 -0.385284 0.000000
vt 0.886289 0.431002
vn -0.000000 -1.000000 0.000000
v 2.798462 -0.366592 -10.107422
vt 0.542522 0.723369
vn 0.000474 -0.999998 -0.001713
v 6.451416 -0.366592 -8.270264
vt 0.469909 0.503619
vn 0.001093 -0.999998 -0.001401
v 9.124756 -0.366592 -5.169678
vt 0.486933 0.272810
vn 0.001546 -0.999998 -0.000875
v 10.412598 -0.366592 -1.283264
vt 0.588084 0.069047
vn 0.001764 -0.999998 -0.000218
v -10.412598 0.366592 1.283264
vt 0.170628 0.020365
vn -0.001738 0.999998 0.000214
v -10.107422 0.366592 -2.798462
vt 0.087224 0.138608
vn -0.001687 0.999998 -0.000467
v -0.000000 0.384903 0.000000
vt 0.436720 0.414533
vn -0.000000 1.000000 0.000000
v -8.270264 0.366592 -6.451416
vt 0.014613 0.358358
vn -0.001380 0.999998 -0.001077
v -5.169678 0.366592 -9.124756
vt 0.031638 0.589168
vn -0.000863 0.999998 -0.001523
v -1.283264 0.366592 -10.412598
vt 0.132791 0.792930
vn -0.000214 0.999998 -0.001738
v -10.412598 0.366592 1.283264
vt 0.990015 0.029180
vn -0.992479 0.000000 0.122412
v -10.412598 -0.366592 1.283264
vt 0.948577 0.029180
vn -0.992479 0.000000 0.122412
v -10.107422 -0.366592 -2.798462
vt 0.948577 0.174590
vn -0.963840 0.000000 -0.266480
v -10.107422 0.366592 -2.798462
vt 0.990015 0.174590
vn -0.963840 0.000000 -0.266480
v -8.270264 -0.366592 -6.451416
vt 0.948577 0.408849
vn -0.788331 0.000000 -0.615251
v -8.270264 0.366592 -6.451416
vt 0.990015 0.408849
vn -0.788331 0.000000 -0.615251
v -5.169678 -0.366592 -9.124756
vt 0.948577 0.643108
vn -0.492687 0.000000 -0.870206
v -5.169678 0.366592 -9.124756
vt 0.990015 0.643108
vn -0.492687 0.000000 -0.870206
v -1.283264 -0.366592 -10.412598
vt 0.948577 0.873202
vn -0.122411 0.000000 -0.992479
v -1.283264 0.366592 -10.412598
vt 0.990015 0.873202
vn -0.122411 0.000000 -0.992479
v -10.412598 -0.366592 1.283264
vt 0.625926 0.841611
vn -0.001764 -0.999998 0.000218
v -0.000000 -0.385284 0.000000
vt 0.886289 0.431002
vn -0.000000 -1.000000 0.000000
v -10.107422 -0.366592 -2.798462
vt 0.542522 0.723369
vn -0.001713 -0.999998 -0.000474
v -8.270264 -0.366592 -6.451416
vt 0.469909 0.503619
vn -0.001401 -0.999998 -0.001093
v -5.169678 -0.366592 -9.124756
vt 0.486933 0.272810
vn -0.000875 -0.999998 -0.001546
v -1.283264 -0.366592 -10.412598
vt 0.588084 0.069047
vn -0.000218 -0.999998 -0.001764
# Faces (1 to 88)
g ENV_spinPlat_Col_0
f -86/-86/-86 -87/-87/-87 -88/-88/-88
f -86/-86/-86 -85/-85/-85 -87/-87/-87
f -86/-86/-86 -84/-84/-84 -85/-85/-85
f -86/-86/-86 -83/-83/-83 -84/-84/-84
f -80/-80/-80 -81/-81/-81 -82/-82/-82
f -79/-79/-79 -80/-80/-80 -82/-82/-82
f -78/-78/-78 -80/-80/-80 -79/-79/-79
f -77/-77/-77 -78/-78/-78 -79/-79/-79
f -76/-76/-76 -78/-78/-78 -77/-77/-77
f -75/-75/-75 -76/-76/-76 -77/-77/-77
f -74/-74/-74 -76/-76/-76 -75/-75/-75
f -73/-73/-73 -74/-74/-74 -75/-75/-75
f -70/-70/-70 -71/-71/-71 -72/-72/-72
f -69/-69/-69 -71/-71/-71 -70/-70/-70
f -68/-68/-68 -71/-71/-71 -69/-69/-69
f -67/-67/-67 -71/-71/-71 -68/-68/-68
f -64/-64/-64 -65/-65/-65 -66/-66/-66
f -64/-64/-64 -63/-63/-63 -65/-65/-65
f -64/-64/-64 -62/-62/-62 -63/-63/-63
f -64/-64/-64 -61/-61/-61 -62/-62/-62
f -58/-58/-58 -59/-59/-59 -60/-60/-60
f -57/-57/-57 -58/-58/-58 -60/-60/-60
f -56/-56/-56 -58/-58/-58 -57/-57/-57
f -55/-55/-55 -56/-56/-56 -57/-57/-57
f -54/-54/-54 -56/-56/-56 -55/-55/-55
f -53/-53/-53 -54/-54/-54 -55/-55/-55
f -52/-52/-52 -54/-54/-54 -53/-53/-53
f -51/-51/-51 -52/-52/-52 -53/-53/-53
f -48/-48/-48 -49/-49/-49 -50/-50/-50
f -47/-47/-47 -49/-49/-49 -48/-48/-48
f -46/-46/-46 -49/-49/-49 -47/-47/-47
f -45/-45/-45 -49/-49/-49 -46/-46/-46
f -42/-42/-42 -43/-43/-43 -44/-44/-44
f -42/-42/-42 -41/-41/-41 -43/-43/-43
f -42/-42/-42 -40/-40/-40 -41/-41/-41
f -42/-42/-42 -39/-39/-39 -40/-40/-40
f -36/-36/-36 -37/-37/-37 -38/-38/-38
f -35/-35/-35 -36/-36/-36 -38/-38/-38
f -34/-34/-34 -36/-36/-36 -35/-35/-35
f -33/-33/-33 -34/-34/-34 -35/-35/-35
f -32/-32/-32 -34/-34/-34 -33/-33/-33
f -31/-31/-31 -32/-32/-32 -33/-33/-33
f -30/-30/-30 -32/-32/-32 -31/-31/-31
f -29/-29/-29 -30/-30/-30 -31/-31/-31
f -26/-26/-26 -27/-27/-27 -28/-28/-28
f -25/-25/-25 -27/-27/-27 -26/-26/-26
f -24/-24/-24 -27/-27/-27 -25/-25/-25
f -23/-23/-23 -27/-27/-27 -24/-24/-24
f -20/-20/-20 -21/-21/-21 -22/-22/-22
f -20/-20/-20 -19/-19/-19 -21/-21/-21
f -20/-20/-20 -18/-18/-18 -19/-19/-19
f -20/-20/-20 -17/-17/-17 -18/-18/-18
f -14/-14/-14 -15/-15/-15 -16/-16/-16
f -13/-13/-13 -14/-14/-14 -16/-16/-16
f -12/-12/-12 -14/-14/-14 -13/-13/-13
f -11/-11/-11 -12/-12/-12 -13/-13/-13
f -10/-10/-10 -12/-12/-12 -11/-11/-11
f -9/-9/-9 -10/-10/-10 -11/-11/-11
f -8/-8/-8 -10/-10/-10 -9/-9/-9
f -7/-7/-7 -8/-8/-8 -9/-9/-9
f -4/-4/-4 -5/-5/-5 -6/-6/-6
f -3/-3/-3 -5/-5/-5 -4/-4/-4
f -2/-2/-2 -5/-5/-5 -3/-3/-3
f -1/-1/-1 -5/-5/-5 -2/-2/-2

