# Mesh "FX_WaterEdge_Ring" exported with Unity Assets Bundle Extractor; 111 vertices, 432 indices, 384 bits per vertex
g FX_WaterEdge_Ring
# SubMesh 0
# Vertices
v 0.000000 0.000000 -0.984808
vt 0.000611 0.025350
vn -0.000000 1.000000 0.000000
v -0.128272 0.000000 -0.727470
vt 0.500306 0.000000
vn -0.000000 1.000000 0.000000
v -0.171030 0.000000 -0.969960
vt 0.000611 0.000000
vn -0.000000 1.000000 0.000000
v 0.000000 0.000000 -0.738606
vt 0.500306 0.025350
vn -0.000000 1.000000 0.000000
v -0.085515 0.000000 -0.484980
vt 1.000000 0.000000
vn -0.000000 1.000000 0.000000
v 0.171030 0.000000 -0.969960
vt 0.000611 0.050699
vn -0.000000 1.000000 0.000000
v 0.000000 0.000000 -0.492404
vt 1.000000 0.025350
vn -0.000000 1.000000 0.000000
v 0.128273 0.000000 -0.727470
vt 0.500306 0.051228
vn -0.000000 1.000000 0.000000
v 0.336824 0.000000 -0.925416
vt 0.000611 0.078165
vn -0.000000 1.000000 0.000000
v 0.085515 0.000000 -0.484980
vt 1.000000 0.050699
vn -0.000000 1.000000 0.000000
v 0.252618 0.000000 -0.694062
vt 0.500306 0.078165
vn -0.000000 1.000000 0.000000
v 0.492462 0.000000 -0.852968
vt 0.000611 0.105630
vn -0.000000 1.000000 0.000000
v 0.168412 0.000000 -0.462708
vt 1.000000 0.078165
vn -0.000000 1.000000 0.000000
v 0.369346 0.000000 -0.639726
vt 0.500306 0.105331
vn -0.000000 1.000000 0.000000
v 0.633022 0.000000 -0.754406
vt 0.000611 0.131899
vn -0.000000 1.000000 0.000000
v 0.246231 0.000000 -0.426484
vt 1.000000 0.105630
vn -0.000000 1.000000 0.000000
v 0.474767 0.000000 -0.565805
vt 0.500306 0.131899
vn -0.000000 1.000000 0.000000
v 0.754495 0.000000 -0.633096
vt 0.000611 0.158168
vn -0.000000 1.000000 0.000000
v 0.316511 0.000000 -0.377203
vt 1.000000 0.131899
vn -0.000000 1.000000 0.000000
v 0.565871 0.000000 -0.474822
vt 0.500306 0.160242
vn -0.000000 1.000000 0.000000
v 0.852869 0.000000 -0.492404
vt 0.000611 0.192734
vn -0.000000 1.000000 0.000000
v 0.377248 0.000000 -0.316548
vt 1.000000 0.158168
vn -0.000000 1.000000 0.000000
v 0.639652 0.000000 -0.369303
vt 0.500306 0.192734
vn -0.000000 1.000000 0.000000
v 0.925525 0.000000 -0.336863
vt 0.000611 0.227301
vn -0.000000 1.000000 0.000000
v 0.426434 0.000000 -0.246202
vt 1.000000 0.192734
vn -0.000000 1.000000 0.000000
v 0.694144 0.000000 -0.252647
vt 0.500306 0.225400
vn -0.000000 1.000000 0.000000
v 0.969846 0.000000 -0.171010
vt 0.000611 0.254264
vn -0.000000 1.000000 0.000000
v 0.462763 0.000000 -0.168432
vt 1.000000 0.227301
vn -0.000000 1.000000 0.000000
v 0.727385 0.000000 -0.128257
vt 0.500306 0.254264
vn -0.000000 1.000000 0.000000
v 0.984923 0.000000 0.000000
vt 0.000611 0.281227
vn -0.000000 1.000000 0.000000
v 0.484923 0.000000 -0.085505
vt 1.000000 0.254264
vn -0.000000 1.000000 0.000000
v 0.738692 0.000000 0.000000
vt 0.500306 0.281283
vn -0.000000 1.000000 0.000000
v 0.969846 0.000000 0.171010
vt 0.000611 0.308411
vn -0.000000 1.000000 0.000000
v 0.492462 0.000000 0.000000
vt 1.000000 0.281227
vn -0.000000 1.000000 0.000000
v 0.727385 0.000000 0.128258
vt 0.500306 0.308411
vn -0.000000 1.000000 0.000000
v 0.925525 0.000000 0.336864
vt 0.000611 0.335595
vn -0.000000 1.000000 0.000000
v 0.484923 0.000000 0.085505
vt 1.000000 0.308411
vn -0.000000 1.000000 0.000000
v 0.694144 0.000000 0.252648
vt 0.500306 0.337052
vn -0.000000 1.000000 0.000000
v 0.852868 0.000000 0.492404
vt 0.000611 0.368610
vn -0.000000 1.000000 0.000000
v 0.462763 0.000000 0.168432
vt 1.000000 0.335595
vn -0.000000 1.000000 0.000000
v 0.639651 0.000000 0.369303
vt 0.500306 0.368610
vn -0.000000 1.000000 0.000000
v 0.754495 0.000000 0.633096
vt 0.000611 0.401625
vn -0.000000 1.000000 0.000000
v 0.426434 0.000000 0.246202
vt 1.000000 0.368610
vn -0.000000 1.000000 0.000000
v 0.565871 0.000000 0.474822
vt 0.500306 0.400170
vn -0.000000 1.000000 0.000000
v 0.633022 0.000000 0.754407
vt 0.000611 0.428818
vn -0.000000 1.000000 0.000000
v 0.377247 0.000000 0.316548
vt 1.000000 0.401625
vn -0.000000 1.000000 0.000000
v 0.474767 0.000000 0.565805
vt 0.500306 0.428818
vn -0.000000 1.000000 0.000000
v 0.492462 0.000000 0.852969
vt 0.000611 0.456011
vn -0.000000 1.000000 0.000000
v 0.316511 0.000000 0.377203
vt 1.000000 0.428818
vn -0.000000 1.000000 0.000000
v 0.369346 0.000000 0.639726
vt 0.500267 0.456116
vn -0.000000 1.000000 0.000000
v 0.336824 0.000000 0.925417
vt 0.000306 0.483626
vn -0.000000 1.000000 0.000000
v 0.246231 0.000000 0.426484
vt 1.000000 0.456011
vn -0.000000 1.000000 0.000000
v 0.252618 0.000000 0.694062
vt 0.500153 0.483626
vn -0.000000 1.000000 0.000000
v 0.171030 0.000000 0.969960
vt 0.000000 0.511240
vn -0.000000 1.000000 0.000000
v 0.168412 0.000000 0.462708
vt 1.000000 0.483626
vn -0.000000 1.000000 0.000000
v 0.128273 0.000000 0.727470
vt 0.500000 0.510864
vn -0.000000 1.000000 0.000000
v -0.000000 0.000000 0.984808
vt -0.000306 0.537348
vn -0.000000 1.000000 0.000000
v 0.085515 0.000000 0.484980
vt 1.000000 0.511240
vn -0.000000 1.000000 0.000000
v -0.000000 0.000000 0.738606
vt 0.499847 0.537348
vn -0.000000 1.000000 0.000000
v -0.171030 0.000000 0.969960
vt -0.000611 0.563456
vn -0.000000 1.000000 0.000000
v -0.000000 0.000000 0.492404
vt 1.000000 0.537348
vn -0.000000 1.000000 0.000000
v -0.128273 0.000000 0.727470
vt 0.499733 0.563799
vn -0.000000 1.000000 0.000000
v -0.336824 0.000000 0.925417
vt -0.000611 0.590933
vn -0.000000 1.000000 0.000000
v -0.085515 0.000000 0.484980
vt 1.000000 0.563456
vn -0.000000 1.000000 0.000000
v -0.252618 0.000000 0.694062
vt 0.499694 0.590933
vn -0.000000 1.000000 0.000000
v -0.492462 0.000000 0.852968
vt -0.000611 0.618409
vn -0.000000 1.000000 0.000000
v -0.168412 0.000000 0.462708
vt 1.000000 0.590933
vn -0.000000 1.000000 0.000000
v -0.369346 0.000000 0.639726
vt 0.499694 0.618089
vn -0.000000 1.000000 0.000000
v -0.633022 0.000000 0.754406
vt -0.000611 0.644604
vn -0.000000 1.000000 0.000000
v -0.246231 0.000000 0.426484
vt 1.000000 0.618409
vn -0.000000 1.000000 0.000000
v -0.474767 0.000000 0.565805
vt 0.499694 0.644604
vn -0.000000 1.000000 0.000000
v -0.754495 0.000000 0.633096
vt -0.000611 0.670798
vn -0.000000 1.000000 0.000000
v -0.316511 0.000000 0.377203
vt 1.000000 0.644604
vn -0.000000 1.000000 0.000000
v -0.565871 0.000000 0.474822
vt 0.499694 0.671760
vn -0.000000 1.000000 0.000000
v -0.852869 0.000000 0.492404
vt -0.000611 0.700840
vn -0.000000 1.000000 0.000000
v -0.377248 0.000000 0.316548
vt 1.000000 0.670798
vn -0.000000 1.000000 0.000000
v -0.639651 0.000000 0.369303
vt 0.499694 0.700840
vn -0.000000 1.000000 0.000000
v -0.925525 0.000000 0.336863
vt -0.000611 0.730883
vn -0.000000 1.000000 0.000000
v -0.426434 0.000000 0.246202
vt 1.000000 0.700840
vn -0.000000 1.000000 0.000000
v -0.694144 0.000000 0.252648
vt 0.499694 0.730206
vn -0.000000 1.000000 0.000000
v -0.969846 0.000000 0.171010
vt -0.000611 0.758219
vn -0.000000 1.000000 0.000000
v -0.462763 0.000000 0.168432
vt 1.000000 0.730883
vn -0.000000 1.000000 0.000000
v -0.727385 0.000000 0.128257
vt 0.499694 0.758219
vn -0.000000 1.000000 0.000000
v -0.984923 0.000000 -0.000000
vt -0.000611 0.785556
vn -0.000000 1.000000 0.000000
v -0.484923 0.000000 0.085505
vt 1.000000 0.758219
vn -0.000000 1.000000 0.000000
v -0.738692 0.000000 -0.000000
vt 0.499694 0.785399
vn -0.000000 1.000000 0.000000
v -0.969846 0.000000 -0.171010
vt -0.000611 0.812262
vn -0.000000 1.000000 0.000000
v -0.492462 0.000000 -0.000000
vt 1.000000 0.785556
vn -0.000000 1.000000 0.000000
v -0.727385 0.000000 -0.128258
vt 0.499694 0.812262
vn -0.000000 1.000000 0.000000
v -0.925525 0.000000 -0.336864
vt -0.000611 0.838968
vn -0.000000 1.000000 0.000000
v -0.484923 0.000000 -0.085505
vt 1.000000 0.812262
vn -0.000000 1.000000 0.000000
v -0.694144 0.000000 -0.252648
vt 0.499694 0.838920
vn -0.000000 1.000000 0.000000
v -0.852868 0.000000 -0.492404
vt -0.000611 0.865483
vn -0.000000 1.000000 0.000000
v -0.462762 0.000000 -0.168432
vt 1.000000 0.838968
vn -0.000000 1.000000 0.000000
v -0.639651 0.000000 -0.369303
vt 0.499694 0.865483
vn -0.000000 1.000000 0.000000
v -0.754495 0.000000 -0.633097
vt -0.000611 0.891998
vn -0.000000 1.000000 0.000000
v -0.426434 0.000000 -0.246202
vt 1.000000 0.865483
vn -0.000000 1.000000 0.000000
v -0.565871 0.000000 -0.474822
vt 0.499694 0.892211
vn -0.000000 1.000000 0.000000
v -0.633022 0.000000 -0.754407
vt -0.000611 0.919365
vn -0.000000 1.000000 0.000000
v -0.377247 0.000000 -0.316548
vt 1.000000 0.891998
vn -0.000000 1.000000 0.000000
v -0.474767 0.000000 -0.565805
vt 0.499694 0.919365
vn -0.000000 1.000000 0.000000
v -0.492461 0.000000 -0.852969
vt -0.000611 0.946733
vn -0.000000 1.000000 0.000000
v -0.316511 0.000000 -0.377203
vt 1.000000 0.919365
vn -0.000000 1.000000 0.000000
v -0.369346 0.000000 -0.639726
vt 0.499694 0.946549
vn -0.000000 1.000000 0.000000
v -0.336824 0.000000 -0.925417
vt -0.000611 0.973366
vn -0.000000 1.000000 0.000000
v -0.246231 0.000000 -0.426484
vt 1.000000 0.946733
vn -0.000000 1.000000 0.000000
v -0.252618 0.000000 -0.694063
vt 0.499694 0.973366
vn -0.000000 1.000000 0.000000
v -0.171030 0.000000 -0.969960
vt -0.000611 1.000000
vn -0.000000 1.000000 0.000000
v -0.168412 0.000000 -0.462708
vt 1.000000 0.973366
vn -0.000000 1.000000 0.000000
v -0.128272 0.000000 -0.727470
vt 0.499694 1.000000
vn -0.000000 1.000000 0.000000
v -0.085515 0.000000 -0.484980
vt 1.000000 1.000000
vn -0.000000 1.000000 0.000000
# Faces (1 to 111)
g FX_WaterEdge_Ring_0
f -109/-109/-109 -110/-110/-110 -111/-111/-111
f -110/-110/-110 -108/-108/-108 -111/-111/-111
f -110/-110/-110 -107/-107/-107 -108/-108/-108
f -111/-111/-111 -108/-108/-108 -106/-106/-106
f -107/-107/-107 -105/-105/-105 -108/-108/-108
f -108/-108/-108 -104/-104/-104 -106/-106/-106
f -108/-108/-108 -105/-105/-105 -104/-104/-104
f -106/-106/-106 -104/-104/-104 -103/-103/-103
f -105/-105/-105 -102/-102/-102 -104/-104/-104
f -104/-104/-104 -101/-101/-101 -103/-103/-103
f -104/-104/-104 -102/-102/-102 -101/-101/-101
f -103/-103/-103 -101/-101/-101 -100/-100/-100
f -102/-102/-102 -99/-99/-99 -101/-101/-101
f -101/-101/-101 -98/-98/-98 -100/-100/-100
f -101/-101/-101 -99/-99/-99 -98/-98/-98
f -100/-100/-100 -98/-98/-98 -97/-97/-97
f -99/-99/-99 -96/-96/-96 -98/-98/-98
f -98/-98/-98 -95/-95/-95 -97/-97/-97
f -98/-98/-98 -96/-96/-96 -95/-95/-95
f -97/-97/-97 -95/-95/-95 -94/-94/-94
f -96/-96/-96 -93/-93/-93 -95/-95/-95
f -95/-95/-95 -92/-92/-92 -94/-94/-94
f -95/-95/-95 -93/-93/-93 -92/-92/-92
f -94/-94/-94 -92/-92/-92 -91/-91/-91
f -93/-93/-93 -90/-90/-90 -92/-92/-92
f -92/-92/-92 -89/-89/-89 -91/-91/-91
f -92/-92/-92 -90/-90/-90 -89/-89/-89
f -91/-91/-91 -89/-89/-89 -88/-88/-88
f -90/-90/-90 -87/-87/-87 -89/-89/-89
f -89/-89/-89 -86/-86/-86 -88/-88/-88
f -89/-89/-89 -87/-87/-87 -86/-86/-86
f -88/-88/-88 -86/-86/-86 -85/-85/-85
f -87/-87/-87 -84/-84/-84 -86/-86/-86
f -86/-86/-86 -83/-83/-83 -85/-85/-85
f -86/-86/-86 -84/-84/-84 -83/-83/-83
f -85/-85/-85 -83/-83/-83 -82/-82/-82
f -84/-84/-84 -81/-81/-81 -83/-83/-83
f -83/-83/-83 -80/-80/-80 -82/-82/-82
f -83/-83/-83 -81/-81/-81 -80/-80/-80
f -82/-82/-82 -80/-80/-80 -79/-79/-79
f -81/-81/-81 -78/-78/-78 -80/-80/-80
f -80/-80/-80 -77/-77/-77 -79/-79/-79
f -80/-80/-80 -78/-78/-78 -77/-77/-77
f -79/-79/-79 -77/-77/-77 -76/-76/-76
f -78/-78/-78 -75/-75/-75 -77/-77/-77
f -77/-77/-77 -74/-74/-74 -76/-76/-76
f -77/-77/-77 -75/-75/-75 -74/-74/-74
f -76/-76/-76 -74/-74/-74 -73/-73/-73
f -75/-75/-75 -72/-72/-72 -74/-74/-74
f -74/-74/-74 -71/-71/-71 -73/-73/-73
f -74/-74/-74 -72/-72/-72 -71/-71/-71
f -73/-73/-73 -71/-71/-71 -70/-70/-70
f -72/-72/-72 -69/-69/-69 -71/-71/-71
f -71/-71/-71 -68/-68/-68 -70/-70/-70
f -71/-71/-71 -69/-69/-69 -68/-68/-68
f -70/-70/-70 -68/-68/-68 -67/-67/-67
f -69/-69/-69 -66/-66/-66 -68/-68/-68
f -68/-68/-68 -65/-65/-65 -67/-67/-67
f -68/-68/-68 -66/-66/-66 -65/-65/-65
f -67/-67/-67 -65/-65/-65 -64/-64/-64
f -66/-66/-66 -63/-63/-63 -65/-65/-65
f -65/-65/-65 -62/-62/-62 -64/-64/-64
f -65/-65/-65 -63/-63/-63 -62/-62/-62
f -64/-64/-64 -62/-62/-62 -61/-61/-61
f -63/-63/-63 -60/-60/-60 -62/-62/-62
f -62/-62/-62 -59/-59/-59 -61/-61/-61
f -62/-62/-62 -60/-60/-60 -59/-59/-59
f -61/-61/-61 -59/-59/-59 -58/-58/-58
f -60/-60/-60 -57/-57/-57 -59/-59/-59
f -59/-59/-59 -56/-56/-56 -58/-58/-58
f -59/-59/-59 -57/-57/-57 -56/-56/-56
f -58/-58/-58 -56/-56/-56 -55/-55/-55
f -57/-57/-57 -54/-54/-54 -56/-56/-56
f -56/-56/-56 -53/-53/-53 -55/-55/-55
f -56/-56/-56 -54/-54/-54 -53/-53/-53
f -55/-55/-55 -53/-53/-53 -52/-52/-52
f -54/-54/-54 -51/-51/-51 -53/-53/-53
f -53/-53/-53 -50/-50/-50 -52/-52/-52
f -53/-53/-53 -51/-51/-51 -50/-50/-50
f -52/-52/-52 -50/-50/-50 -49/-49/-49
f -51/-51/-51 -48/-48/-48 -50/-50/-50
f -50/-50/-50 -47/-47/-47 -49/-49/-49
f -50/-50/-50 -48/-48/-48 -47/-47/-47
f -49/-49/-49 -47/-47/-47 -46/-46/-46
f -48/-48/-48 -45/-45/-45 -47/-47/-47
f -47/-47/-47 -44/-44/-44 -46/-46/-46
f -47/-47/-47 -45/-45/-45 -44/-44/-44
f -46/-46/-46 -44/-44/-44 -43/-43/-43
f -45/-45/-45 -42/-42/-42 -44/-44/-44
f -44/-44/-44 -41/-41/-41 -43/-43/-43
f -44/-44/-44 -42/-42/-42 -41/-41/-41
f -43/-43/-43 -41/-41/-41 -40/-40/-40
f -42/-42/-42 -39/-39/-39 -41/-41/-41
f -41/-41/-41 -38/-38/-38 -40/-40/-40
f -41/-41/-41 -39/-39/-39 -38/-38/-38
f -40/-40/-40 -38/-38/-38 -37/-37/-37
f -39/-39/-39 -36/-36/-36 -38/-38/-38
f -38/-38/-38 -35/-35/-35 -37/-37/-37
f -38/-38/-38 -36/-36/-36 -35/-35/-35
f -37/-37/-37 -35/-35/-35 -34/-34/-34
f -36/-36/-36 -33/-33/-33 -35/-35/-35
f -35/-35/-35 -32/-32/-32 -34/-34/-34
f -35/-35/-35 -33/-33/-33 -32/-32/-32
f -34/-34/-34 -32/-32/-32 -31/-31/-31
f -33/-33/-33 -30/-30/-30 -32/-32/-32
f -32/-32/-32 -29/-29/-29 -31/-31/-31
f -32/-32/-32 -30/-30/-30 -29/-29/-29
f -31/-31/-31 -29/-29/-29 -28/-28/-28
f -30/-30/-30 -27/-27/-27 -29/-29/-29
f -29/-29/-29 -26/-26/-26 -28/-28/-28
f -29/-29/-29 -27/-27/-27 -26/-26/-26
f -28/-28/-28 -26/-26/-26 -25/-25/-25
f -27/-27/-27 -24/-24/-24 -26/-26/-26
f -26/-26/-26 -23/-23/-23 -25/-25/-25
f -26/-26/-26 -24/-24/-24 -23/-23/-23
f -25/-25/-25 -23/-23/-23 -22/-22/-22
f -24/-24/-24 -21/-21/-21 -23/-23/-23
f -23/-23/-23 -20/-20/-20 -22/-22/-22
f -23/-23/-23 -21/-21/-21 -20/-20/-20
f -22/-22/-22 -20/-20/-20 -19/-19/-19
f -21/-21/-21 -18/-18/-18 -20/-20/-20
f -20/-20/-20 -17/-17/-17 -19/-19/-19
f -20/-20/-20 -18/-18/-18 -17/-17/-17
f -19/-19/-19 -17/-17/-17 -16/-16/-16
f -18/-18/-18 -15/-15/-15 -17/-17/-17
f -17/-17/-17 -14/-14/-14 -16/-16/-16
f -17/-17/-17 -15/-15/-15 -14/-14/-14
f -16/-16/-16 -14/-14/-14 -13/-13/-13
f -15/-15/-15 -12/-12/-12 -14/-14/-14
f -14/-14/-14 -11/-11/-11 -13/-13/-13
f -14/-14/-14 -12/-12/-12 -11/-11/-11
f -13/-13/-13 -11/-11/-11 -10/-10/-10
f -12/-12/-12 -9/-9/-9 -11/-11/-11
f -11/-11/-11 -8/-8/-8 -10/-10/-10
f -11/-11/-11 -9/-9/-9 -8/-8/-8
f -10/-10/-10 -8/-8/-8 -7/-7/-7
f -9/-9/-9 -6/-6/-6 -8/-8/-8
f -8/-8/-8 -5/-5/-5 -7/-7/-7
f -8/-8/-8 -6/-6/-6 -5/-5/-5
f -7/-7/-7 -5/-5/-5 -4/-4/-4
f -6/-6/-6 -3/-3/-3 -5/-5/-5
f -5/-5/-5 -2/-2/-2 -4/-4/-4
f -5/-5/-5 -3/-3/-3 -2/-2/-2
f -3/-3/-3 -1/-1/-1 -2/-2/-2

