# Mesh "Hexagon_Col_MO" exported with Unity Assets Bundle Extractor; 26 vertices, 72 indices, 384 bits per vertex
g Hexagon_Col_MO
# SubMesh 0
# Vertices
v -2.317270 0.000000 0.000000
vt 0.000000 0.500000
vn -0.000000 -1.000000 -0.000000
v -1.158635 -0.000001 2.006815
vt 0.250000 0.000000
vn -0.000000 -1.000000 0.000000
v -0.000000 0.000000 0.000000
vt 0.500000 0.500000
vn -0.000000 -1.000000 -0.000000
v -1.158635 0.000001 -2.006815
vt 0.250000 1.000000
vn -0.000000 -1.000000 0.000000
v 1.158635 -0.000001 2.006815
vt 0.750000 0.000000
vn -0.000000 -1.000000 0.000000
v 1.158635 0.000001 -2.006815
vt 0.750000 1.000000
vn -0.000000 -1.000000 0.000000
v 2.317270 0.000000 -0.000000
vt 1.000000 0.500000
vn -0.000000 -1.000000 -0.000000
v -1.158635 0.501573 2.006815
vt 0.250000 0.000000
vn -0.000000 1.000000 0.000000
v -2.317270 0.501574 0.000000
vt 0.000000 0.500000
vn -0.000000 1.000000 0.000000
v -0.000000 0.501574 0.000000
vt 0.500000 0.500000
vn -0.000000 1.000000 0.000000
v 1.158635 0.501573 2.006815
vt 0.750000 0.000000
vn -0.000000 1.000000 0.000000
v -1.158635 0.501574 -2.006815
vt 0.250000 1.000000
vn -0.000000 1.000000 0.000000
v 2.317270 0.501574 -0.000000
vt 1.000000 0.500000
vn -0.000000 1.000000 0.000000
v 1.158635 0.501574 -2.006815
vt 0.750000 1.000000
vn -0.000000 1.000000 0.000000
v -1.158635 0.501573 2.006815
vt 0.250000 0.000000
vn -0.499118 0.000000 0.866534
v -2.317270 0.000000 0.000000
vt 0.000000 0.500000
vn -1.000000 0.000000 0.000000
v -2.317270 0.501574 0.000000
vt 0.000000 0.500000
vn -1.000000 0.000000 0.000000
v -1.158635 -0.000001 2.006815
vt 0.250000 0.000000
vn -0.499118 -0.000000 0.866534
v -1.158635 0.000001 -2.006815
vt 0.250000 1.000000
vn -0.499118 0.000000 -0.866534
v 1.158635 0.501573 2.006815
vt 0.750000 0.000000
vn 0.499118 0.000000 0.866534
v -1.158635 0.501574 -2.006815
vt 0.250000 1.000000
vn -0.499118 0.000000 -0.866534
v 1.158635 -0.000001 2.006815
vt 0.750000 0.000000
vn 0.499118 -0.000000 0.866534
v 1.158635 0.000001 -2.006815
vt 0.750000 1.000000
vn 0.499118 0.000000 -0.866534
v 2.317270 0.501574 -0.000000
vt 1.000000 0.500000
vn 1.000000 0.000000 0.000000
v 1.158635 0.501574 -2.006815
vt 0.750000 1.000000
vn 0.499118 0.000000 -0.866534
v 2.317270 0.000000 -0.000000
vt 1.000000 0.500000
vn 1.000000 0.000000 0.000000
# Faces (1 to 26)
g Hexagon_Col_MO_0
f -24/-24/-24 -25/-25/-25 -26/-26/-26
f -24/-24/-24 -26/-26/-26 -23/-23/-23
f -24/-24/-24 -22/-22/-22 -25/-25/-25
f -24/-24/-24 -23/-23/-23 -21/-21/-21
f -24/-24/-24 -20/-20/-20 -22/-22/-22
f -24/-24/-24 -21/-21/-21 -20/-20/-20
f -17/-17/-17 -18/-18/-18 -19/-19/-19
f -17/-17/-17 -19/-19/-19 -16/-16/-16
f -17/-17/-17 -15/-15/-15 -18/-18/-18
f -17/-17/-17 -16/-16/-16 -14/-14/-14
f -17/-17/-17 -13/-13/-13 -15/-15/-15
f -17/-17/-17 -14/-14/-14 -13/-13/-13
f -10/-10/-10 -11/-11/-11 -12/-12/-12
f -9/-9/-9 -12/-12/-12 -11/-11/-11
f -11/-11/-11 -10/-10/-10 -8/-8/-8
f -12/-12/-12 -9/-9/-9 -7/-7/-7
f -6/-6/-6 -8/-8/-8 -10/-10/-10
f -5/-5/-5 -7/-7/-7 -9/-9/-9
f -8/-8/-8 -6/-6/-6 -4/-4/-4
f -7/-7/-7 -5/-5/-5 -3/-3/-3
f -2/-2/-2 -4/-4/-4 -6/-6/-6
f -1/-1/-1 -3/-3/-3 -5/-5/-5
f -4/-4/-4 -2/-2/-2 -1/-1/-1
f -3/-3/-3 -1/-1/-1 -2/-2/-2

