# Mesh "Hexagon_11_MO" exported with Unity Assets Bundle Extractor; 72 vertices, 324 indices, 384 bits per vertex
g Hexagon_11_MO
# SubMesh 0
# Vertices
v -1.117582 0.268755 2.006815
vt 0.338025 0.254982
vn -0.014968 0.055567 0.998343
v -1.117582 -0.003842 2.006815
vt 0.335330 0.244982
vn -0.499679 0.000000 0.866211
v -1.179162 -0.003842 1.971262
vt 0.328070 0.249194
vn -0.858218 0.000000 0.513285
v -1.179162 0.268755 1.971262
vt 0.335408 0.256467
vn -0.856300 0.055577 0.513480
v -2.296744 -0.003842 0.035553
vt 0.279382 0.335162
vn -0.873784 0.000000 0.486314
v -2.296744 0.268755 0.035553
vt 0.289426 0.337812
vn -0.872824 0.055394 0.484881
v -2.296744 -0.003842 -0.035553
vt 0.279382 0.343481
vn -0.873784 0.000000 -0.486314
v -2.296744 0.268755 -0.035553
vt 0.289426 0.340831
vn -0.872824 0.055394 -0.484881
v -1.179162 -0.003841 -1.971262
vt 0.328070 0.429449
vn -0.858218 0.000000 -0.513285
v -2.273581 0.317182 0.035553
vt 0.290449 0.337844
vn -0.677555 0.633806 0.373109
v -1.179162 0.268756 -1.971262
vt 0.335408 0.422176
vn -0.856309 0.055391 -0.513486
v -1.117582 -0.003841 -2.006815
vt 0.335330 0.433661
vn -0.499679 0.000000 -0.866211
v -1.117582 0.268756 -2.006815
vt 0.338025 0.423661
vn -0.014968 0.055381 -0.998353
v -1.167581 0.317182 -1.951203
vt 0.335856 0.421319
vn -0.662262 0.634761 -0.398105
v -2.273581 0.317182 -0.035553
vt 0.290449 0.340799
vn -0.677543 0.633794 -0.373149
v -1.106001 0.317181 1.986756
vt 0.338508 0.255851
vn -0.014227 0.634579 0.772727
v -1.167581 0.317181 1.951203
vt 0.335856 0.257324
vn -0.662262 0.634761 0.398105
v -2.088262 0.477673 0.035553
vt 0.299680 0.338254
vn -0.550748 0.775237 0.309328
v 1.117582 0.268755 2.006815
vt 0.431466 0.254982
vn 0.014968 0.055567 0.998343
v -1.117582 -0.003842 2.006815
vt 0.335330 0.244982
vn -0.000000 0.000000 1.000000
v 1.117582 -0.003842 2.006815
vt 0.434161 0.244982
vn -0.000000 0.000000 1.000000
v -1.074921 0.477674 -1.790712
vt 0.340720 0.413586
vn -0.544094 0.774229 -0.323313
v -1.106001 0.317182 -1.986756
vt 0.338508 0.422792
vn -0.014227 0.634579 -0.772727
v -2.088262 0.477673 -0.035553
vt 0.299680 0.340389
vn -0.550748 0.775237 -0.309328
v -1.013341 0.477673 1.826265
vt 0.342753 0.264044
vn -0.007485 0.775118 0.631772
v -1.074921 0.477673 1.790712
vt 0.340720 0.265057
vn -0.544251 0.774079 0.323406
v -2.027335 0.497732 0.000000
vt 0.301383 0.339321
vn -0.023945 0.999713 0.000000
v -1.013667 0.497733 -1.755724
vt 0.342720 0.412334
vn -0.013473 0.999622 -0.023952
v -1.013667 0.497732 1.755724
vt 0.342720 0.266309
vn -0.013478 0.999622 0.023961
v 1.106001 0.317181 1.986756
vt 0.430984 0.255851
vn 0.014227 0.634579 0.772727
v -1.013341 0.477674 -1.826265
vt 0.342753 0.414599
vn -0.007483 0.775268 -0.631589
v -0.000000 0.497732 0.000000
vt 0.384746 0.339322
vn -0.000000 1.000000 0.000000
v 1.013341 0.477673 1.826265
vt 0.426739 0.264044
vn 0.007485 0.775118 0.631772
v 1.013667 0.497733 -1.755724
vt 0.426771 0.412334
vn 0.013473 0.999622 -0.023952
v 1.013341 0.477674 -1.826265
vt 0.426739 0.414599
vn 0.007483 0.775268 -0.631589
v 1.013667 0.497732 1.755724
vt 0.426771 0.266309
vn 0.013478 0.999622 0.023961
v 1.074921 0.477673 1.790712
vt 0.428771 0.265057
vn 0.544251 0.774079 0.323406
v 1.167581 0.317181 1.951203
vt 0.433635 0.257324
vn 0.662262 0.634761 0.398105
v 2.027335 0.497732 -0.000000
vt 0.468108 0.339321
vn 0.023945 0.999713 0.000000
v 2.088262 0.477673 0.035553
vt 0.469811 0.338254
vn 0.550748 0.775237 0.309328
v 1.074921 0.477674 -1.790712
vt 0.428771 0.413586
vn 0.544094 0.774229 -0.323313
v 1.106001 0.317182 -1.986756
vt 0.430984 0.422792
vn 0.014227 0.634579 -0.772727
v 2.273581 0.317182 0.035553
vt 0.479042 0.337844
vn 0.677549 0.633800 0.373129
v 2.088262 0.477673 -0.035553
vt 0.469811 0.340389
vn 0.550748 0.775237 -0.309328
v 1.167581 0.317182 -1.951203
vt 0.433635 0.421320
vn 0.662262 0.634761 -0.398105
v 2.273581 0.317182 -0.035553
vt 0.479042 0.340799
vn 0.677537 0.633789 -0.373169
v 2.296744 0.268755 0.035553
vt 0.480066 0.337812
vn 0.872814 0.055393 0.484899
v 1.179162 0.268756 -1.971262
vt 0.434084 0.422176
vn 0.856309 0.055391 -0.513486
v 1.117582 0.268756 -2.006815
vt 0.431466 0.423661
vn 0.014968 0.055381 -0.998353
v 1.117582 -0.003841 -2.006815
vt 0.434161 0.433661
vn -0.000000 0.000000 -1.000000
v -1.117582 -0.003841 -2.006815
vt 0.335330 0.433661
vn -0.000000 0.000000 -1.000000
v 1.179162 -0.003841 -1.971262
vt 0.441422 0.429449
vn 0.858218 0.000000 -0.513285
v 1.117582 -0.003841 -2.006815
vt 0.434161 0.433661
vn 0.499679 0.000000 -0.866211
v 2.296744 -0.003842 -0.035553
vt 0.490109 0.343481
vn 0.873774 0.000000 -0.486332
v 2.296744 0.268755 -0.035553
vt 0.480066 0.340831
vn 0.872814 0.055393 -0.484899
v 2.296744 -0.003842 0.035553
vt 0.490109 0.335162
vn 0.873784 0.000000 0.486314
v 1.179162 -0.003842 1.971262
vt 0.441421 0.249194
vn 0.858218 0.000000 0.513285
v 1.179162 0.268755 1.971262
vt 0.434083 0.256467
vn 0.856300 0.055577 0.513480
v 1.117582 -0.003842 2.006815
vt 0.434161 0.244982
vn 0.499679 0.000000 0.866211
v -1.117582 -0.003842 2.006815
vt 0.305736 0.429837
vn -0.000000 -1.000000 0.000000
v 1.117582 -0.003842 2.006815
vt 0.297861 0.410609
vn -0.000000 -1.000000 0.000000
v -0.145261 -0.003841 -0.242348
vt 0.282964 0.429395
vn -0.000000 -1.000000 0.000000
v -1.179162 -0.003842 1.971262
vt 0.305647 0.430500
vn -0.000000 -1.000000 0.000000
v 1.179162 -0.003842 1.971262
vt 0.297329 0.410198
vn -0.000000 -1.000000 0.000000
v -2.296744 -0.003842 0.035553
vt 0.292931 0.446926
vn -0.000000 -1.000000 0.000000
v 2.296744 -0.003842 0.035553
vt 0.276738 0.407414
vn -0.000000 -1.000000 0.000000
v -2.296744 -0.003842 -0.035553
vt 0.292317 0.447178
vn -0.000000 -1.000000 0.000000
v 2.296744 -0.003842 -0.035553
vt 0.276118 0.407667
vn -0.000000 -1.000000 0.000000
v -1.179162 -0.003841 -1.971262
vt 0.271737 0.444384
vn -0.000000 -1.000000 0.000000
v 1.179162 -0.003841 -1.971262
vt 0.263421 0.424108
vn -0.000000 -1.000000 0.000000
v -1.117582 -0.003841 -2.006815
vt 0.271214 0.443980
vn -0.000000 -1.000000 0.000000
v 1.117582 -0.003841 -2.006815
vt 0.263331 0.424766
vn -0.000000 -1.000000 0.000000
# Faces (1 to 72)
g Hexagon_11_MO_0
f -70/-70/-70 -71/-71/-71 -72/-72/-72
f -69/-69/-69 -70/-70/-70 -72/-72/-72
f -68/-68/-68 -70/-70/-70 -69/-69/-69
f -67/-67/-67 -68/-68/-68 -69/-69/-69
f -68/-68/-68 -67/-67/-67 -66/-66/-66
f -67/-67/-67 -65/-65/-65 -66/-66/-66
f -64/-64/-64 -66/-66/-66 -65/-65/-65
f -67/-67/-67 -69/-69/-69 -63/-63/-63
f -65/-65/-65 -67/-67/-67 -63/-63/-63
f -62/-62/-62 -64/-64/-64 -65/-65/-65
f -61/-61/-61 -64/-64/-64 -62/-62/-62
f -60/-60/-60 -61/-61/-61 -62/-62/-62
f -59/-59/-59 -62/-62/-62 -65/-65/-65
f -60/-60/-60 -62/-62/-62 -59/-59/-59
f -58/-58/-58 -65/-65/-65 -63/-63/-63
f -58/-58/-58 -59/-59/-59 -65/-65/-65
f -69/-69/-69 -72/-72/-72 -57/-57/-57
f -69/-69/-69 -56/-56/-56 -63/-63/-63
f -56/-56/-56 -69/-69/-69 -57/-57/-57
f -63/-63/-63 -55/-55/-55 -58/-58/-58
f -63/-63/-63 -56/-56/-56 -55/-55/-55
f -72/-72/-72 -54/-54/-54 -57/-57/-57
f -72/-72/-72 -53/-53/-53 -54/-54/-54
f -53/-53/-53 -52/-52/-52 -54/-54/-54
f -51/-51/-51 -59/-59/-59 -58/-58/-58
f -50/-50/-50 -60/-60/-60 -59/-59/-59
f -59/-59/-59 -51/-51/-51 -50/-50/-50
f -55/-55/-55 -49/-49/-49 -58/-58/-58
f -49/-49/-49 -51/-51/-51 -58/-58/-58
f -57/-57/-57 -48/-48/-48 -56/-56/-56
f -56/-56/-56 -47/-47/-47 -55/-55/-55
f -48/-48/-48 -47/-47/-47 -56/-56/-56
f -55/-55/-55 -46/-46/-46 -49/-49/-49
f -55/-55/-55 -47/-47/-47 -46/-46/-46
f -45/-45/-45 -51/-51/-51 -49/-49/-49
f -46/-46/-46 -45/-45/-45 -49/-49/-49
f -47/-47/-47 -44/-44/-44 -46/-46/-46
f -48/-48/-48 -44/-44/-44 -47/-47/-47
f -57/-57/-57 -43/-43/-43 -48/-48/-48
f -54/-54/-54 -43/-43/-43 -57/-57/-57
f -51/-51/-51 -42/-42/-42 -50/-50/-50
f -51/-51/-51 -45/-45/-45 -42/-42/-42
f -41/-41/-41 -45/-45/-45 -46/-46/-46
f -41/-41/-41 -46/-46/-46 -44/-44/-44
f -48/-48/-48 -40/-40/-40 -44/-44/-44
f -43/-43/-43 -40/-40/-40 -48/-48/-48
f -45/-45/-45 -39/-39/-39 -42/-42/-42
f -41/-41/-41 -39/-39/-39 -45/-45/-45
f -50/-50/-50 -42/-42/-42 -38/-38/-38
f -39/-39/-39 -38/-38/-38 -42/-42/-42
f -41/-41/-41 -44/-44/-44 -37/-37/-37
f -40/-40/-40 -37/-37/-37 -44/-44/-44
f -36/-36/-36 -40/-40/-40 -43/-43/-43
f -36/-36/-36 -37/-37/-37 -40/-40/-40
f -43/-43/-43 -54/-54/-54 -35/-35/-35
f -35/-35/-35 -36/-36/-36 -43/-43/-43
f -41/-41/-41 -34/-34/-34 -39/-39/-39
f -41/-41/-41 -37/-37/-37 -34/-34/-34
f -36/-36/-36 -33/-33/-33 -37/-37/-37
f -33/-33/-33 -34/-34/-34 -37/-37/-37
f -32/-32/-32 -39/-39/-39 -34/-34/-34
f -38/-38/-38 -39/-39/-39 -32/-32/-32
f -31/-31/-31 -50/-50/-50 -38/-38/-38
f -50/-50/-50 -31/-31/-31 -60/-60/-60
f -30/-30/-30 -33/-33/-33 -36/-36/-36
f -35/-35/-35 -30/-30/-30 -36/-36/-36
f -29/-29/-29 -34/-34/-34 -33/-33/-33
f -29/-29/-29 -32/-32/-32 -34/-34/-34
f -29/-29/-29 -33/-33/-33 -30/-30/-30
f -32/-32/-32 -28/-28/-28 -38/-38/-38
f -28/-28/-28 -32/-32/-32 -29/-29/-29
f -28/-28/-28 -31/-31/-31 -38/-38/-38
f -27/-27/-27 -29/-29/-29 -30/-30/-30
f -27/-27/-27 -28/-28/-28 -29/-29/-29
f -26/-26/-26 -30/-30/-30 -35/-35/-35
f -30/-30/-30 -26/-26/-26 -27/-27/-27
f -28/-28/-28 -25/-25/-25 -31/-31/-31
f -25/-25/-25 -28/-28/-28 -27/-27/-27
f -31/-31/-31 -24/-24/-24 -60/-60/-60
f -25/-25/-25 -24/-24/-24 -31/-31/-31
f -24/-24/-24 -23/-23/-23 -60/-60/-60
f -23/-23/-23 -22/-22/-22 -60/-60/-60
f -25/-25/-25 -21/-21/-21 -24/-24/-24
f -21/-21/-21 -20/-20/-20 -24/-24/-24
f -19/-19/-19 -21/-21/-21 -25/-25/-25
f -18/-18/-18 -25/-25/-25 -27/-27/-27
f -18/-18/-18 -19/-19/-19 -25/-25/-25
f -26/-26/-26 -18/-18/-18 -27/-27/-27
f -17/-17/-17 -19/-19/-19 -18/-18/-18
f -26/-26/-26 -17/-17/-17 -18/-18/-18
f -16/-16/-16 -17/-17/-17 -26/-26/-26
f -15/-15/-15 -16/-16/-16 -26/-26/-26
f -15/-15/-15 -26/-26/-26 -35/-35/-35
f -14/-14/-14 -16/-16/-16 -15/-15/-15
f -54/-54/-54 -15/-15/-15 -35/-35/-35
f -54/-54/-54 -14/-14/-14 -15/-15/-15
f -11/-11/-11 -12/-12/-12 -13/-13/-13
f -11/-11/-11 -13/-13/-13 -10/-10/-10
f -11/-11/-11 -9/-9/-9 -12/-12/-12
f -11/-11/-11 -10/-10/-10 -8/-8/-8
f -11/-11/-11 -7/-7/-7 -9/-9/-9
f -6/-6/-6 -11/-11/-11 -8/-8/-8
f -11/-11/-11 -5/-5/-5 -7/-7/-7
f -11/-11/-11 -6/-6/-6 -4/-4/-4
f -11/-11/-11 -3/-3/-3 -5/-5/-5
f -11/-11/-11 -4/-4/-4 -2/-2/-2
f -11/-11/-11 -1/-1/-1 -3/-3/-3
f -11/-11/-11 -2/-2/-2 -1/-1/-1

