# Mesh "Hexagon_10_MO" exported with Unity Assets Bundle Extractor; 72 vertices, 324 indices, 384 bits per vertex
g Hexagon_10_MO
# SubMesh 0
# Vertices
v -1.117582 0.268755 2.006815
vt 0.089031 0.243720
vn -0.014968 0.055567 0.998343
v -1.117582 -0.003842 2.006815
vt 0.086335 0.233719
vn -0.499679 0.000000 0.866211
v -1.179162 -0.003842 1.971262
vt 0.079075 0.237931
vn -0.858218 0.000000 0.513285
v -1.179162 0.268755 1.971262
vt 0.086413 0.245204
vn -0.856300 0.055577 0.513480
v -2.296744 -0.003842 0.035553
vt 0.030387 0.323899
vn -0.873784 0.000000 0.486314
v -2.296744 0.268755 0.035553
vt 0.040431 0.326550
vn -0.872824 0.055394 0.484881
v -2.296744 -0.003842 -0.035553
vt 0.030387 0.332219
vn -0.873784 0.000000 -0.486314
v -2.296744 0.268755 -0.035553
vt 0.040431 0.329568
vn -0.872824 0.055394 -0.484881
v -1.179162 -0.003841 -1.971262
vt 0.079075 0.418186
vn -0.858218 0.000000 -0.513285
v -2.273581 0.317182 0.035553
vt 0.041454 0.326581
vn -0.677555 0.633806 0.373109
v -1.179162 0.268756 -1.971262
vt 0.086413 0.410914
vn -0.856309 0.055391 -0.513486
v -1.117582 -0.003841 -2.006815
vt 0.086335 0.422399
vn -0.499679 0.000000 -0.866211
v -1.117582 0.268756 -2.006815
vt 0.089031 0.412398
vn -0.014968 0.055381 -0.998353
v -1.167581 0.317182 -1.951203
vt 0.086861 0.410057
vn -0.662262 0.634761 -0.398105
v -2.273581 0.317182 -0.035553
vt 0.041454 0.329537
vn -0.677543 0.633794 -0.373149
v -1.106001 0.317181 1.986756
vt 0.089513 0.244588
vn -0.014227 0.634579 0.772727
v -1.167581 0.317181 1.951203
vt 0.086861 0.246061
vn -0.662262 0.634761 0.398105
v -2.088262 0.477673 0.035553
vt 0.050685 0.326991
vn -0.550748 0.775237 0.309328
v 1.117582 0.268755 2.006815
vt 0.182472 0.243720
vn 0.014968 0.055567 0.998343
v -1.117582 -0.003842 2.006815
vt 0.086335 0.233719
vn -0.000000 0.000000 1.000000
v 1.117582 -0.003842 2.006815
vt 0.185167 0.233719
vn -0.000000 0.000000 1.000000
v -1.074921 0.477674 -1.790712
vt 0.091725 0.402324
vn -0.544094 0.774229 -0.323313
v -1.106001 0.317182 -1.986756
vt 0.089513 0.411530
vn -0.014227 0.634579 -0.772727
v -2.088262 0.477673 -0.035553
vt 0.050685 0.329127
vn -0.550748 0.775237 -0.309328
v -1.013341 0.477673 1.826265
vt 0.093758 0.252781
vn -0.007485 0.775118 0.631772
v -1.074921 0.477673 1.790712
vt 0.091725 0.253794
vn -0.544251 0.774079 0.323406
v -2.027335 0.497732 0.000000
vt 0.052388 0.328059
vn -0.023945 0.999713 0.000000
v -1.013667 0.497733 -1.755724
vt 0.093726 0.401071
vn -0.013473 0.999622 -0.023952
v -1.013667 0.497732 1.755724
vt 0.093726 0.255046
vn -0.013478 0.999622 0.023961
v 1.106001 0.317181 1.986756
vt 0.181989 0.244588
vn 0.014227 0.634579 0.772727
v -1.013341 0.477674 -1.826265
vt 0.093758 0.403336
vn -0.007483 0.775268 -0.631589
v -0.000000 0.497732 0.000000
vt 0.135751 0.328059
vn -0.000000 1.000000 0.000000
v 1.013341 0.477673 1.826265
vt 0.177744 0.252781
vn 0.007485 0.775118 0.631772
v 1.013667 0.497733 -1.755724
vt 0.177776 0.401071
vn 0.013473 0.999622 -0.023952
v 1.013341 0.477674 -1.826265
vt 0.177744 0.403336
vn 0.007483 0.775268 -0.631589
v 1.013667 0.497732 1.755724
vt 0.177776 0.255046
vn 0.013478 0.999622 0.023961
v 1.074921 0.477673 1.790712
vt 0.179777 0.253794
vn 0.544251 0.774079 0.323406
v 1.167581 0.317181 1.951203
vt 0.184641 0.246061
vn 0.662262 0.634761 0.398105
v 2.027335 0.497732 -0.000000
vt 0.219114 0.328059
vn 0.023945 0.999713 0.000000
v 2.088262 0.477673 0.035553
vt 0.220817 0.326991
vn 0.550748 0.775237 0.309328
v 1.074921 0.477674 -1.790712
vt 0.179777 0.402324
vn 0.544094 0.774229 -0.323313
v 1.106001 0.317182 -1.986756
vt 0.181989 0.411530
vn 0.014227 0.634579 -0.772727
v 2.273581 0.317182 0.035553
vt 0.230048 0.326581
vn 0.677549 0.633800 0.373129
v 2.088262 0.477673 -0.035553
vt 0.220817 0.329127
vn 0.550748 0.775237 -0.309328
v 1.167581 0.317182 -1.951203
vt 0.184641 0.410057
vn 0.662262 0.634761 -0.398105
v 2.273581 0.317182 -0.035553
vt 0.230048 0.329537
vn 0.677537 0.633789 -0.373169
v 2.296744 0.268755 0.035553
vt 0.231071 0.326550
vn 0.872814 0.055393 0.484899
v 1.179162 0.268756 -1.971262
vt 0.185089 0.410914
vn 0.856309 0.055391 -0.513486
v 1.117582 0.268756 -2.006815
vt 0.182472 0.412398
vn 0.014968 0.055381 -0.998353
v 1.117582 -0.003841 -2.006815
vt 0.185167 0.422399
vn -0.000000 0.000000 -1.000000
v -1.117582 -0.003841 -2.006815
vt 0.086335 0.422399
vn -0.000000 0.000000 -1.000000
v 1.179162 -0.003841 -1.971262
vt 0.192427 0.418186
vn 0.858218 0.000000 -0.513285
v 1.117582 -0.003841 -2.006815
vt 0.185167 0.422399
vn 0.499679 0.000000 -0.866211
v 2.296744 -0.003842 -0.035553
vt 0.241115 0.332219
vn 0.873774 0.000000 -0.486332
v 2.296744 0.268755 -0.035553
vt 0.231071 0.329568
vn 0.872814 0.055393 -0.484899
v 2.296744 -0.003842 0.035553
vt 0.241115 0.323899
vn 0.873784 0.000000 0.486314
v 1.179162 -0.003842 1.971262
vt 0.192427 0.237931
vn 0.858218 0.000000 0.513285
v 1.179162 0.268755 1.971262
vt 0.185089 0.245204
vn 0.856300 0.055577 0.513480
v 1.117582 -0.003842 2.006815
vt 0.185167 0.233719
vn 0.499679 0.000000 0.866211
v -1.117582 -0.003842 2.006815
vt 0.061247 0.417510
vn -0.000000 -1.000000 0.000000
v 1.117582 -0.003842 2.006815
vt 0.051098 0.392732
vn -0.000000 -1.000000 0.000000
v -0.145261 -0.003841 -0.242348
vt 0.031902 0.416941
vn -0.000000 -1.000000 0.000000
v -1.179162 -0.003842 1.971262
vt 0.061132 0.418365
vn -0.000000 -1.000000 0.000000
v 1.179162 -0.003842 1.971262
vt 0.050413 0.392203
vn -0.000000 -1.000000 0.000000
v -2.296744 -0.003842 0.035553
vt 0.044746 0.439532
vn -0.000000 -1.000000 0.000000
v 2.296744 -0.003842 0.035553
vt 0.023879 0.388616
vn -0.000000 -1.000000 0.000000
v -2.296744 -0.003842 -0.035553
vt 0.043955 0.439857
vn -0.000000 -1.000000 0.000000
v 2.296744 -0.003842 -0.035553
vt 0.023080 0.388942
vn -0.000000 -1.000000 0.000000
v -1.179162 -0.003841 -1.971262
vt 0.017435 0.436257
vn -0.000000 -1.000000 0.000000
v 1.179162 -0.003841 -1.971262
vt 0.006718 0.410128
vn -0.000000 -1.000000 0.000000
v -1.117582 -0.003841 -2.006815
vt 0.016761 0.435736
vn -0.000000 -1.000000 0.000000
v 1.117582 -0.003841 -2.006815
vt 0.006603 0.410976
vn -0.000000 -1.000000 0.000000
# Faces (1 to 72)
g Hexagon_10_MO_0
f -70/-70/-70 -71/-71/-71 -72/-72/-72
f -69/-69/-69 -70/-70/-70 -72/-72/-72
f -68/-68/-68 -70/-70/-70 -69/-69/-69
f -67/-67/-67 -68/-68/-68 -69/-69/-69
f -68/-68/-68 -67/-67/-67 -66/-66/-66
f -67/-67/-67 -65/-65/-65 -66/-66/-66
f -64/-64/-64 -66/-66/-66 -65/-65/-65
f -67/-67/-67 -69/-69/-69 -63/-63/-63
f -65/-65/-65 -67/-67/-67 -63/-63/-63
f -62/-62/-62 -64/-64/-64 -65/-65/-65
f -61/-61/-61 -64/-64/-64 -62/-62/-62
f -60/-60/-60 -61/-61/-61 -62/-62/-62
f -59/-59/-59 -62/-62/-62 -65/-65/-65
f -60/-60/-60 -62/-62/-62 -59/-59/-59
f -58/-58/-58 -65/-65/-65 -63/-63/-63
f -58/-58/-58 -59/-59/-59 -65/-65/-65
f -69/-69/-69 -72/-72/-72 -57/-57/-57
f -69/-69/-69 -56/-56/-56 -63/-63/-63
f -56/-56/-56 -69/-69/-69 -57/-57/-57
f -63/-63/-63 -55/-55/-55 -58/-58/-58
f -63/-63/-63 -56/-56/-56 -55/-55/-55
f -72/-72/-72 -54/-54/-54 -57/-57/-57
f -72/-72/-72 -53/-53/-53 -54/-54/-54
f -53/-53/-53 -52/-52/-52 -54/-54/-54
f -51/-51/-51 -59/-59/-59 -58/-58/-58
f -50/-50/-50 -60/-60/-60 -59/-59/-59
f -59/-59/-59 -51/-51/-51 -50/-50/-50
f -55/-55/-55 -49/-49/-49 -58/-58/-58
f -49/-49/-49 -51/-51/-51 -58/-58/-58
f -57/-57/-57 -48/-48/-48 -56/-56/-56
f -56/-56/-56 -47/-47/-47 -55/-55/-55
f -48/-48/-48 -47/-47/-47 -56/-56/-56
f -55/-55/-55 -46/-46/-46 -49/-49/-49
f -55/-55/-55 -47/-47/-47 -46/-46/-46
f -45/-45/-45 -51/-51/-51 -49/-49/-49
f -46/-46/-46 -45/-45/-45 -49/-49/-49
f -47/-47/-47 -44/-44/-44 -46/-46/-46
f -48/-48/-48 -44/-44/-44 -47/-47/-47
f -57/-57/-57 -43/-43/-43 -48/-48/-48
f -54/-54/-54 -43/-43/-43 -57/-57/-57
f -51/-51/-51 -42/-42/-42 -50/-50/-50
f -51/-51/-51 -45/-45/-45 -42/-42/-42
f -41/-41/-41 -45/-45/-45 -46/-46/-46
f -41/-41/-41 -46/-46/-46 -44/-44/-44
f -48/-48/-48 -40/-40/-40 -44/-44/-44
f -43/-43/-43 -40/-40/-40 -48/-48/-48
f -45/-45/-45 -39/-39/-39 -42/-42/-42
f -41/-41/-41 -39/-39/-39 -45/-45/-45
f -50/-50/-50 -42/-42/-42 -38/-38/-38
f -39/-39/-39 -38/-38/-38 -42/-42/-42
f -41/-41/-41 -44/-44/-44 -37/-37/-37
f -40/-40/-40 -37/-37/-37 -44/-44/-44
f -36/-36/-36 -40/-40/-40 -43/-43/-43
f -36/-36/-36 -37/-37/-37 -40/-40/-40
f -43/-43/-43 -54/-54/-54 -35/-35/-35
f -35/-35/-35 -36/-36/-36 -43/-43/-43
f -41/-41/-41 -34/-34/-34 -39/-39/-39
f -41/-41/-41 -37/-37/-37 -34/-34/-34
f -36/-36/-36 -33/-33/-33 -37/-37/-37
f -33/-33/-33 -34/-34/-34 -37/-37/-37
f -32/-32/-32 -39/-39/-39 -34/-34/-34
f -38/-38/-38 -39/-39/-39 -32/-32/-32
f -31/-31/-31 -50/-50/-50 -38/-38/-38
f -50/-50/-50 -31/-31/-31 -60/-60/-60
f -30/-30/-30 -33/-33/-33 -36/-36/-36
f -35/-35/-35 -30/-30/-30 -36/-36/-36
f -29/-29/-29 -34/-34/-34 -33/-33/-33
f -29/-29/-29 -32/-32/-32 -34/-34/-34
f -29/-29/-29 -33/-33/-33 -30/-30/-30
f -32/-32/-32 -28/-28/-28 -38/-38/-38
f -28/-28/-28 -32/-32/-32 -29/-29/-29
f -28/-28/-28 -31/-31/-31 -38/-38/-38
f -27/-27/-27 -29/-29/-29 -30/-30/-30
f -27/-27/-27 -28/-28/-28 -29/-29/-29
f -26/-26/-26 -30/-30/-30 -35/-35/-35
f -30/-30/-30 -26/-26/-26 -27/-27/-27
f -28/-28/-28 -25/-25/-25 -31/-31/-31
f -25/-25/-25 -28/-28/-28 -27/-27/-27
f -31/-31/-31 -24/-24/-24 -60/-60/-60
f -25/-25/-25 -24/-24/-24 -31/-31/-31
f -24/-24/-24 -23/-23/-23 -60/-60/-60
f -23/-23/-23 -22/-22/-22 -60/-60/-60
f -25/-25/-25 -21/-21/-21 -24/-24/-24
f -21/-21/-21 -20/-20/-20 -24/-24/-24
f -19/-19/-19 -21/-21/-21 -25/-25/-25
f -18/-18/-18 -25/-25/-25 -27/-27/-27
f -18/-18/-18 -19/-19/-19 -25/-25/-25
f -26/-26/-26 -18/-18/-18 -27/-27/-27
f -17/-17/-17 -19/-19/-19 -18/-18/-18
f -26/-26/-26 -17/-17/-17 -18/-18/-18
f -16/-16/-16 -17/-17/-17 -26/-26/-26
f -15/-15/-15 -16/-16/-16 -26/-26/-26
f -15/-15/-15 -26/-26/-26 -35/-35/-35
f -14/-14/-14 -16/-16/-16 -15/-15/-15
f -54/-54/-54 -15/-15/-15 -35/-35/-35
f -54/-54/-54 -14/-14/-14 -15/-15/-15
f -11/-11/-11 -12/-12/-12 -13/-13/-13
f -11/-11/-11 -13/-13/-13 -10/-10/-10
f -11/-11/-11 -9/-9/-9 -12/-12/-12
f -11/-11/-11 -10/-10/-10 -8/-8/-8
f -11/-11/-11 -7/-7/-7 -9/-9/-9
f -6/-6/-6 -11/-11/-11 -8/-8/-8
f -11/-11/-11 -5/-5/-5 -7/-7/-7
f -11/-11/-11 -6/-6/-6 -4/-4/-4
f -11/-11/-11 -3/-3/-3 -5/-5/-5
f -11/-11/-11 -4/-4/-4 -2/-2/-2
f -11/-11/-11 -1/-1/-1 -3/-3/-3
f -11/-11/-11 -2/-2/-2 -1/-1/-1

