# Mesh "Main" exported with Unity Assets Bundle Extractor; 180 vertices, 768 indices, 384 bits per vertex
g Main
# SubMesh 0
# Vertices
v 4.180514 29.319023 -8.932405
vt 0.322306 -0.453174
vn 0.721913 0.271935 -0.636312
v 4.232257 29.241608 -8.834580
vt 0.314574 -0.453350
vn 0.912269 0.107619 -0.395201
v 4.244925 29.326300 -8.740413
vt 0.316073 -0.442324
vn 0.923900 0.316062 -0.215671
v 4.194192 29.409130 -8.836864
vt 0.322903 -0.445795
vn 0.741632 0.569132 -0.355064
v 4.249580 29.357294 -8.611777
vt 0.319398 -0.434388
vn 0.860133 0.510070 -0.000530
v 4.047925 29.491253 -8.914121
vt 0.329849 -0.447174
vn 0.193278 0.844478 -0.499500
v 4.035946 29.396017 -9.010206
vt 0.329369 -0.452967
vn 0.143614 0.484925 -0.862683
v 2.949374 29.558134 -9.010206
vt 0.371361 -0.454580
vn 0.038642 0.505376 -0.862034
v 4.204154 29.433800 -8.697396
vt 0.322962 -0.437847
vn 0.591565 0.806256 -0.001376
v 4.249550 29.357298 8.612020
vt 0.323595 0.255984
vn 0.860132 0.510072 0.000532
v 4.054949 29.525713 -8.782945
vt 0.330031 -0.441261
vn 0.187292 0.982302 -0.002067
v 2.958908 29.653728 -8.914121
vt 0.370936 -0.449542
vn 0.066235 0.865666 -0.496221
v -0.000005 29.704845 -9.010101
vt 0.492723 -0.452557
vn -0.000034 0.506527 -0.862224
v 4.204155 29.433773 8.697404
vt 0.327200 0.259387
vn 0.591658 0.806188 0.001377
v 4.244920 29.326330 8.740644
vt 0.320952 0.264235
vn 0.923718 0.316526 0.215767
v 4.054961 29.525703 8.782771
vt 0.334290 0.262699
vn 0.187318 0.982297 0.002070
v -0.000004 29.800957 -8.914041
vt 0.492817 -0.447149
vn -0.000019 0.868076 -0.496432
v -2.949364 29.558018 -9.009997
vt 0.611229 -0.453498
vn -0.038663 0.504895 -0.862314
v 2.962402 29.688721 -8.782945
vt 0.374788 -0.440824
vn 0.076331 0.997081 -0.001969
v 4.194227 29.409058 8.836801
vt 0.327875 0.267154
vn 0.741240 0.569416 0.355429
v 4.232232 29.241718 8.834858
vt 0.320546 0.274844
vn 0.911934 0.108349 0.395774
v 4.180571 29.318892 8.932279
vt 0.327988 0.274214
vn 0.721117 0.272080 0.637151
v 4.035981 29.395878 9.009997
vt 0.334926 0.273687
vn 0.143446 0.484197 0.863120
v 4.047956 29.491207 8.913960
vt 0.334808 0.268219
vn 0.193220 0.844255 0.499900
v -2.958910 29.653698 -8.913960
vt 0.611413 -0.448201
vn -0.066258 0.865527 -0.496460
v -4.035981 29.395878 -9.009997
vt 0.655296 -0.454594
vn -0.143446 0.484197 -0.863120
v 2.962403 29.688721 8.782771
vt 0.378528 0.261908
vn 0.076331 0.997081 0.001970
v 2.958910 29.653698 8.913960
vt 0.378678 0.267173
vn 0.066258 0.865527 0.496460
v 2.949364 29.558018 9.009997
vt 0.378885 0.272449
vn 0.038663 0.504895 0.862314
v -0.000005 29.836134 -8.782858
vt 0.492917 -0.441749
vn -0.000000 0.999998 -0.001971
v 0.000005 29.836134 8.782858
vt 0.496867 0.260648
vn -0.000000 0.999998 0.001971
v 0.000004 29.800957 8.914041
vt 0.496892 0.265915
vn 0.000019 0.868076 0.496432
v 0.000005 29.704845 9.010101
vt 0.496916 0.271191
vn 0.000034 0.506527 0.862224
v -2.962402 29.688721 8.782945
vt 0.615247 0.260625
vn -0.076331 0.997081 0.001969
v -2.958908 29.653728 8.914121
vt 0.615145 0.265895
vn -0.066235 0.865666 0.496221
v -2.949374 29.558134 9.010206
vt 0.614987 0.271177
vn -0.038642 0.505376 0.862034
v -2.962403 29.688721 -8.782771
vt 0.611542 -0.442916
vn -0.076331 0.997081 -0.001970
v -4.047925 29.491253 8.914121
vt 0.659029 0.266480
vn -0.193278 0.844478 0.499500
v -4.035946 29.396017 9.010206
vt 0.658955 0.271963
vn -0.143614 0.484925 0.862683
v -4.180514 29.319023 8.932405
vt 0.665930 0.272427
vn -0.721913 0.271935 0.636312
v -4.047956 29.491207 -8.913960
vt 0.655372 -0.449146
vn -0.193220 0.844255 -0.499900
v -4.054961 29.525703 -8.782771
vt 0.655852 -0.443650
vn -0.187318 0.982297 -0.002070
v -4.054949 29.525713 8.782945
vt 0.659516 0.260940
vn -0.187292 0.982302 0.002067
v -4.194192 29.409130 8.836864
vt 0.665957 0.265340
vn -0.741632 0.569132 0.355064
v -4.194227 29.409058 -8.836801
vt 0.662298 -0.448049
vn -0.741240 0.569416 -0.355429
v -4.180571 29.318892 -8.932279
vt 0.662275 -0.455068
vn -0.721117 0.272080 -0.637151
v -4.232232 29.241718 -8.834858
vt 0.669690 -0.455631
vn -0.911934 0.108349 -0.395774
v -4.244920 29.326330 -8.740644
vt 0.669183 -0.445099
vn -0.923718 0.316526 -0.215767
v -4.204155 29.433773 -8.697404
vt 0.662947 -0.440327
vn -0.591658 0.806188 -0.001377
v -4.249550 29.357298 -8.612020
vt 0.666552 -0.436919
vn -0.860132 0.510072 -0.000532
v -4.204154 29.433800 8.697396
vt 0.666575 0.257538
vn -0.591565 0.806256 0.001376
v -4.249580 29.357294 8.611777
vt 0.670146 0.254084
vn -0.860133 0.510070 0.000530
v -4.244925 29.326300 8.740413
vt 0.672879 0.262332
vn -0.923900 0.316062 0.215671
v -4.232257 29.241608 8.834580
vt 0.673394 0.272982
vn -0.912269 0.107619 0.395201
v 3.778845 26.664017 8.940578
vt 0.331481 -1.341357
vn 0.649441 -0.448433 0.614112
v 3.861003 26.760761 8.838449
vt 0.324081 -1.344113
vn 0.864018 -0.343868 0.367733
v 3.848323 26.676003 8.744328
vt 0.322332 -1.336986
vn 0.845216 -0.500789 0.186602
v 3.763940 26.571545 8.846906
vt 0.330828 -1.335347
vn 0.621853 -0.708616 0.333409
v 3.843678 26.644968 8.615678
vt 0.322134 -1.327468
vn 0.783418 -0.621495 0.000492
v 3.602616 26.519094 8.913960
vt 0.338620 -1.334311
vn -0.044606 -0.865132 0.499557
v 3.616515 26.614126 9.009997
vt 0.338575 -1.339802
vn 0.006319 -0.506076 0.862466
v 2.669693 26.755339 9.009997
vt 0.379370 -1.342429
vn -0.036797 -0.491535 0.870080
v 3.762403 26.542591 8.712615
vt 0.329674 -1.328900
vn 0.464059 -0.885803 0.001362
v 3.843678 26.644968 -8.611777
vt 0.324514 -0.589222
vn 0.783423 -0.621489 -0.000481
v 3.596576 26.484463 8.782771
vt 0.338827 -1.330050
vn -0.089848 -0.995953 0.002078
v 2.660146 26.659660 8.913960
vt 0.379606 -1.336598
vn -0.064967 -0.861156 0.504172
v -0.000001 26.888241 9.011932
vt 0.493354 -1.344202
vn 0.000612 -0.492540 0.870290
v 3.762108 26.542223 -8.713607
vt 0.330136 -0.584881
vn 0.461132 -0.887330 -0.001351
v 3.848317 26.675972 -8.740413
vt 0.322449 -0.580228
vn 0.847750 -0.497612 -0.183583
v 3.596348 26.484493 -8.786676
vt 0.337638 -0.581820
vn -0.090466 -0.995897 -0.002082
v 0.000002 26.792048 8.915920
vt 0.493341 -1.338408
vn 0.000365 -0.863441 0.504449
v -2.669722 26.755436 9.013868
vt 0.607284 -1.342048
vn 0.037654 -0.490904 0.870400
v 2.656650 26.624638 8.782771
vt 0.379779 -1.331163
vn -0.075502 -0.997144 0.002005
v 3.763236 26.570683 -8.848625
vt 0.331069 -0.578063
vn 0.626458 -0.706043 -0.330234
v 3.860987 26.760660 -8.834580
vt 0.322146 -0.570528
vn 0.868990 -0.340782 -0.358781
v 3.777955 26.662989 -8.942472
vt 0.330691 -0.571757
vn 0.657989 -0.446320 -0.606505
v 3.616427 26.614252 -9.013868
vt 0.337522 -0.572159
vn 0.007380 -0.505356 -0.862879
v 3.602216 26.519201 -8.917879
vt 0.337768 -0.576993
vn -0.044384 -0.864877 -0.500018
v -2.660151 26.659698 8.917879
vt 0.607018 -1.336222
vn 0.065478 -0.860898 0.504547
v -3.616427 26.614252 9.013868
vt 0.648011 -1.339243
vn -0.007380 -0.505356 0.862879
v 2.656650 26.624638 -8.786676
vt 0.378109 -0.581695
vn -0.075522 -0.997142 -0.002009
v 2.660151 26.659698 -8.917879
vt 0.377950 -0.575941
vn -0.065478 -0.860898 -0.504547
v 2.669722 26.755436 -9.013868
vt 0.377725 -0.570198
vn -0.037654 -0.490904 -0.870400
v -0.000000 26.756832 8.784723
vt 0.493326 -1.332010
vn 0.000024 -0.999998 0.002007
v -0.000000 26.756832 -8.784723
vt 0.491859 -0.581279
vn -0.000024 -0.999998 -0.002007
v -0.000002 26.792048 -8.915920
vt 0.491882 -0.575379
vn -0.000365 -0.863441 -0.504449
v 0.000001 26.888241 -9.011932
vt 0.491908 -0.569491
vn -0.000612 -0.492540 -0.870290
v -2.656650 26.624638 -8.782771
vt 0.605408 -0.581474
vn 0.075502 -0.997144 -0.002005
v -2.660146 26.659660 -8.913960
vt 0.605530 -0.575712
vn 0.064967 -0.861156 -0.504172
v -2.669693 26.755339 -9.009997
vt 0.605718 -0.569957
vn 0.036797 -0.491535 -0.870080
v -2.656650 26.624638 8.786676
vt 0.606840 -1.330827
vn 0.075522 -0.997142 0.002009
v -3.602616 26.519094 -8.913960
vt 0.645666 -0.576718
vn 0.044606 -0.865132 -0.499557
v -3.616515 26.614126 -9.009997
vt 0.645843 -0.571953
vn -0.006319 -0.506076 -0.862466
v -3.778845 26.664017 -8.940578
vt 0.652652 -0.571489
vn -0.649441 -0.448433 -0.614112
v -3.602216 26.519201 8.917879
vt 0.647936 -1.333762
vn 0.044384 -0.864877 0.500018
v -3.596348 26.484493 8.786676
vt 0.647762 -1.329542
vn 0.090466 -0.995897 0.002082
v -3.596576 26.484463 -8.782771
vt 0.645838 -0.581475
vn 0.089848 -0.995953 -0.002078
v -3.763940 26.571545 -8.846906
vt 0.652356 -0.577708
vn -0.621853 -0.708616 -0.333409
v -3.763236 26.570683 8.848625
vt 0.655738 -1.334720
vn -0.626458 -0.706043 0.330234
v -3.777955 26.662989 8.942472
vt 0.655086 -1.340698
vn -0.657989 -0.446320 0.606505
v -3.860987 26.760660 8.834580
vt 0.662729 -1.343355
vn -0.868990 -0.340782 0.358781
v -3.848317 26.675972 8.740413
vt 0.664463 -1.336226
vn -0.847750 -0.497612 0.183583
v -3.762108 26.542223 8.713607
vt 0.656946 -1.328289
vn -0.461132 -0.887330 0.001351
v -3.843678 26.644968 8.611777
vt 0.664573 -1.326679
vn -0.783423 -0.621489 0.000481
v -3.762403 26.542591 -8.712615
vt 0.653352 -0.584383
vn -0.464059 -0.885803 -0.001362
v -3.843678 26.644968 -8.615678
vt 0.658969 -0.588489
vn -0.783418 -0.621495 -0.000492
v -3.848323 26.676003 -8.744328
vt 0.660726 -0.579527
vn -0.845216 -0.500789 -0.186602
v -3.861003 26.760761 -8.838449
vt 0.660834 -0.570072
vn -0.864018 -0.343868 -0.367733
# Faces (1 to 108)
g Main_0
f -106/-106/-106 -107/-107/-107 -108/-108/-108
f -105/-105/-105 -106/-106/-106 -108/-108/-108
f -104/-104/-104 -106/-106/-106 -105/-105/-105
f -105/-105/-105 -108/-108/-108 -103/-103/-103
f -108/-108/-108 -102/-102/-102 -103/-103/-103
f -102/-102/-102 -101/-101/-101 -103/-103/-103
f -100/-100/-100 -104/-104/-104 -105/-105/-105
f -99/-99/-99 -104/-104/-104 -100/-100/-100
f -103/-103/-103 -98/-98/-98 -105/-105/-105
f -98/-98/-98 -100/-100/-100 -105/-105/-105
f -101/-101/-101 -97/-97/-97 -103/-103/-103
f -103/-103/-103 -97/-97/-97 -98/-98/-98
f -101/-101/-101 -96/-96/-96 -97/-97/-97
f -95/-95/-95 -99/-99/-99 -100/-100/-100
f -94/-94/-94 -99/-99/-99 -95/-95/-95
f -100/-100/-100 -98/-98/-98 -93/-93/-93
f -95/-95/-95 -100/-100/-100 -93/-93/-93
f -96/-96/-96 -92/-92/-92 -97/-97/-97
f -92/-92/-92 -96/-96/-96 -91/-91/-91
f -97/-97/-97 -90/-90/-90 -98/-98/-98
f -98/-98/-98 -90/-90/-90 -93/-93/-93
f -97/-97/-97 -92/-92/-92 -90/-90/-90
f -89/-89/-89 -94/-94/-94 -95/-95/-95
f -88/-88/-88 -94/-94/-94 -89/-89/-89
f -87/-87/-87 -88/-88/-88 -89/-89/-89
f -87/-87/-87 -89/-89/-89 -86/-86/-86
f -89/-89/-89 -95/-95/-95 -85/-85/-85
f -95/-95/-95 -93/-93/-93 -85/-85/-85
f -89/-89/-89 -85/-85/-85 -86/-86/-86
f -84/-84/-84 -92/-92/-92 -91/-91/-91
f -84/-84/-84 -91/-91/-91 -83/-83/-83
f -93/-93/-93 -82/-82/-82 -85/-85/-85
f -90/-90/-90 -82/-82/-82 -93/-93/-93
f -85/-85/-85 -81/-81/-81 -86/-86/-86
f -82/-82/-82 -81/-81/-81 -85/-85/-85
f -81/-81/-81 -80/-80/-80 -86/-86/-86
f -92/-92/-92 -79/-79/-79 -90/-90/-90
f -79/-79/-79 -92/-92/-92 -84/-84/-84
f -78/-78/-78 -82/-82/-82 -90/-90/-90
f -82/-82/-82 -78/-78/-78 -81/-81/-81
f -79/-79/-79 -78/-78/-78 -90/-90/-90
f -81/-81/-81 -77/-77/-77 -80/-80/-80
f -78/-78/-78 -77/-77/-77 -81/-81/-81
f -77/-77/-77 -76/-76/-76 -80/-80/-80
f -78/-78/-78 -79/-79/-79 -75/-75/-75
f -77/-77/-77 -78/-78/-78 -75/-75/-75
f -76/-76/-76 -77/-77/-77 -74/-74/-74
f -74/-74/-74 -77/-77/-77 -75/-75/-75
f -73/-73/-73 -76/-76/-76 -74/-74/-74
f -72/-72/-72 -79/-79/-79 -84/-84/-84
f -79/-79/-79 -72/-72/-72 -75/-75/-75
f -73/-73/-73 -74/-74/-74 -71/-71/-71
f -70/-70/-70 -73/-73/-73 -71/-71/-71
f -69/-69/-69 -70/-70/-70 -71/-71/-71
f -72/-72/-72 -84/-84/-84 -68/-68/-68
f -68/-68/-68 -84/-84/-84 -83/-83/-83
f -75/-75/-75 -72/-72/-72 -67/-67/-67
f -67/-67/-67 -72/-72/-72 -68/-68/-68
f -74/-74/-74 -75/-75/-75 -66/-66/-66
f -71/-71/-71 -74/-74/-74 -66/-66/-66
f -66/-66/-66 -75/-75/-75 -67/-67/-67
f -65/-65/-65 -69/-69/-69 -71/-71/-71
f -71/-71/-71 -66/-66/-66 -65/-65/-65
f -64/-64/-64 -68/-68/-68 -83/-83/-83
f -63/-63/-63 -64/-64/-64 -83/-83/-83
f -63/-63/-63 -62/-62/-62 -64/-64/-64
f -62/-62/-62 -61/-61/-61 -64/-64/-64
f -64/-64/-64 -60/-60/-60 -68/-68/-68
f -64/-64/-64 -61/-61/-61 -60/-60/-60
f -60/-60/-60 -67/-67/-67 -68/-68/-68
f -61/-61/-61 -59/-59/-59 -60/-60/-60
f -58/-58/-58 -66/-66/-66 -67/-67/-67
f -60/-60/-60 -58/-58/-58 -67/-67/-67
f -60/-60/-60 -59/-59/-59 -58/-58/-58
f -66/-66/-66 -58/-58/-58 -65/-65/-65
f -59/-59/-59 -57/-57/-57 -58/-58/-58
f -58/-58/-58 -57/-57/-57 -65/-65/-65
f -57/-57/-57 -56/-56/-56 -65/-65/-65
f -65/-65/-65 -56/-56/-56 -69/-69/-69
f -56/-56/-56 -55/-55/-55 -69/-69/-69
f -52/-52/-52 -53/-53/-53 -54/-54/-54
f -51/-51/-51 -52/-52/-52 -54/-54/-54
f -50/-50/-50 -52/-52/-52 -51/-51/-51
f -51/-51/-51 -54/-54/-54 -49/-49/-49
f -54/-54/-54 -48/-48/-48 -49/-49/-49
f -48/-48/-48 -47/-47/-47 -49/-49/-49
f -46/-46/-46 -50/-50/-50 -51/-51/-51
f -45/-45/-45 -50/-50/-50 -46/-46/-46
f -51/-51/-51 -49/-49/-49 -44/-44/-44
f -46/-46/-46 -51/-51/-51 -44/-44/-44
f -47/-47/-47 -43/-43/-43 -49/-49/-49
f -49/-49/-49 -43/-43/-43 -44/-44/-44
f -47/-47/-47 -42/-42/-42 -43/-43/-43
f -41/-41/-41 -45/-45/-45 -46/-46/-46
f -40/-40/-40 -45/-45/-45 -41/-41/-41
f -44/-44/-44 -39/-39/-39 -46/-46/-46
f -39/-39/-39 -41/-41/-41 -46/-46/-46
f -42/-42/-42 -38/-38/-38 -43/-43/-43
f -38/-38/-38 -42/-42/-42 -37/-37/-37
f -43/-43/-43 -36/-36/-36 -44/-44/-44
f -44/-44/-44 -36/-36/-36 -39/-39/-39
f -43/-43/-43 -38/-38/-38 -36/-36/-36
f -35/-35/-35 -40/-40/-40 -41/-41/-41
f -34/-34/-34 -40/-40/-40 -35/-35/-35
f -33/-33/-33 -34/-34/-34 -35/-35/-35
f -33/-33/-33 -35/-35/-35 -32/-32/-32
f -35/-35/-35 -41/-41/-41 -31/-31/-31
f -41/-41/-41 -39/-39/-39 -31/-31/-31
f -35/-35/-35 -31/-31/-31 -32/-32/-32
f -30/-30/-30 -38/-38/-38 -37/-37/-37
f -30/-30/-30 -37/-37/-37 -29/-29/-29
f -39/-39/-39 -28/-28/-28 -31/-31/-31
f -36/-36/-36 -28/-28/-28 -39/-39/-39
f -31/-31/-31 -27/-27/-27 -32/-32/-32
f -28/-28/-28 -27/-27/-27 -31/-31/-31
f -27/-27/-27 -26/-26/-26 -32/-32/-32
f -38/-38/-38 -25/-25/-25 -36/-36/-36
f -25/-25/-25 -38/-38/-38 -30/-30/-30
f -24/-24/-24 -28/-28/-28 -36/-36/-36
f -28/-28/-28 -24/-24/-24 -27/-27/-27
f -25/-25/-25 -24/-24/-24 -36/-36/-36
f -27/-27/-27 -23/-23/-23 -26/-26/-26
f -24/-24/-24 -23/-23/-23 -27/-27/-27
f -23/-23/-23 -22/-22/-22 -26/-26/-26
f -24/-24/-24 -25/-25/-25 -21/-21/-21
f -23/-23/-23 -24/-24/-24 -21/-21/-21
f -22/-22/-22 -23/-23/-23 -20/-20/-20
f -20/-20/-20 -23/-23/-23 -21/-21/-21
f -19/-19/-19 -22/-22/-22 -20/-20/-20
f -18/-18/-18 -25/-25/-25 -30/-30/-30
f -25/-25/-25 -18/-18/-18 -21/-21/-21
f -19/-19/-19 -20/-20/-20 -17/-17/-17
f -16/-16/-16 -19/-19/-19 -17/-17/-17
f -15/-15/-15 -16/-16/-16 -17/-17/-17
f -18/-18/-18 -30/-30/-30 -14/-14/-14
f -14/-14/-14 -30/-30/-30 -29/-29/-29
f -21/-21/-21 -18/-18/-18 -13/-13/-13
f -13/-13/-13 -18/-18/-18 -14/-14/-14
f -20/-20/-20 -21/-21/-21 -12/-12/-12
f -17/-17/-17 -20/-20/-20 -12/-12/-12
f -12/-12/-12 -21/-21/-21 -13/-13/-13
f -11/-11/-11 -15/-15/-15 -17/-17/-17
f -11/-11/-11 -17/-17/-17 -12/-12/-12
f -10/-10/-10 -14/-14/-14 -29/-29/-29
f -9/-9/-9 -10/-10/-10 -29/-29/-29
f -9/-9/-9 -8/-8/-8 -10/-10/-10
f -8/-8/-8 -7/-7/-7 -10/-10/-10
f -10/-10/-10 -6/-6/-6 -14/-14/-14
f -10/-10/-10 -7/-7/-7 -6/-6/-6
f -6/-6/-6 -13/-13/-13 -14/-14/-14
f -7/-7/-7 -5/-5/-5 -6/-6/-6
f -12/-12/-12 -13/-13/-13 -4/-4/-4
f -13/-13/-13 -6/-6/-6 -4/-4/-4
f -6/-6/-6 -5/-5/-5 -4/-4/-4
f -4/-4/-4 -11/-11/-11 -12/-12/-12
f -5/-5/-5 -3/-3/-3 -4/-4/-4
f -4/-4/-4 -3/-3/-3 -11/-11/-11
f -3/-3/-3 -2/-2/-2 -11/-11/-11
f -11/-11/-11 -2/-2/-2 -15/-15/-15
f -2/-2/-2 -1/-1/-1 -15/-15/-15

# SubMesh 1
# Vertices
v 4.180571 29.318892 8.932279
vt 0.637659 0.472600
vn 0.721117 0.272080 0.637151
v 4.232232 29.241718 8.834858
vt 0.633912 0.472917
vn 0.911934 0.108349 0.395774
v 4.214944 29.126064 8.869463
vt 0.635036 0.477588
vn 0.833067 -0.119003 0.540219
v 4.163880 29.193073 8.963897
vt 0.637423 0.476197
vn 0.571135 -0.074908 0.817431
v 3.878322 26.876507 8.872781
vt 0.639433 0.526008
vn 0.831901 -0.128090 0.539938
v 4.015795 29.266268 9.045150
vt 0.641152 0.475086
vn 0.057923 0.005790 0.998304
v 4.035981 29.395878 9.009997
vt 0.641152 0.472334
vn 0.143446 0.484197 0.863120
v 2.949364 29.558018 9.009997
vt 0.663284 0.471711
vn 0.038663 0.504895 0.862314
v 3.803508 26.794750 8.967663
vt 0.642061 0.527717
vn 0.550874 -0.091689 0.829537
v 3.861003 26.760761 8.838449
vt 0.638956 0.529422
vn 0.864018 -0.343868 0.367733
v 3.778845 26.664017 8.940578
vt 0.642639 0.530765
vn 0.649441 -0.448433 0.614112
v 3.616515 26.614126 9.009997
vt 0.646166 0.531513
vn 0.006319 -0.506076 0.862466
v 3.636607 26.743767 9.045150
vt 0.645931 0.528863
vn 0.049899 -0.020477 0.998544
v 2.936321 29.427322 9.045150
vt 0.663405 0.474378
vn 0.001377 0.014757 0.999890
v 0.000005 29.704845 9.010101
vt 0.722709 0.471078
vn 0.000034 0.506527 0.862224
v 2.682732 26.886032 9.045150
vt 0.666254 0.527182
vn -0.000598 -0.011469 0.999934
v 2.669693 26.755339 9.009997
vt 0.666408 0.530070
vn -0.036797 -0.491535 0.870080
v 0.000002 29.573524 9.045324
vt 0.722722 0.473744
vn 0.000329 0.015166 0.999885
v -2.949374 29.558134 9.010206
vt 0.782154 0.471071
vn -0.038642 0.505376 0.862034
v -0.000001 27.019619 9.047016
vt 0.722974 0.525931
vn 0.000361 -0.011121 0.999938
v -0.000001 26.888241 9.011932
vt 0.722988 0.528801
vn 0.000612 -0.492540 0.870290
v -2.682756 26.886215 9.048882
vt 0.779680 0.526594
vn 0.001075 -0.010611 0.999943
v -2.669722 26.755436 9.013868
vt 0.779553 0.529482
vn 0.037654 -0.490904 0.870400
v -2.936338 29.427500 9.045498
vt 0.782057 0.473741
vn -0.000946 0.015610 0.999878
v -4.035946 29.396017 9.010206
vt 0.804290 0.471466
vn -0.143614 0.484925 0.862683
v -3.636230 26.744001 9.048882
vt 0.799986 0.528091
vn -0.050963 -0.019339 0.998513
v -3.616427 26.614252 9.013868
vt 0.799780 0.530735
vn -0.007380 -0.505356 0.862879
v -3.777955 26.662989 8.942472
vt 0.803288 0.529989
vn -0.657989 -0.446320 0.606505
v -4.015767 29.266455 9.045498
vt 0.804320 0.474227
vn -0.058733 0.006954 0.998249
v -3.802206 26.793314 8.969791
vt 0.803841 0.526953
vn -0.560030 -0.092496 0.823293
v -4.163762 29.193266 8.964130
vt 0.808067 0.475304
vn -0.578546 -0.075559 0.812143
v -4.180514 29.319023 8.932405
vt 0.807802 0.471700
vn -0.721913 0.271935 0.636312
v -4.232257 29.241608 8.834580
vt 0.811560 0.471979
vn -0.912269 0.107619 0.395201
v -4.214934 29.125900 8.869048
vt 0.810485 0.476681
vn -0.838512 -0.120297 0.531438
v -3.878299 26.876352 8.869048
vt 0.806579 0.525202
vn -0.837685 -0.129345 0.530616
v -3.860987 26.760660 8.834580
vt 0.807073 0.528644
vn -0.868990 -0.340782 0.358781
v 3.777955 26.662989 -8.942472
vt 0.825376 0.469988
vn 0.657989 -0.446320 -0.606505
v 3.860987 26.760660 -8.834580
vt 0.821074 0.470607
vn 0.868990 -0.340782 -0.358781
v 3.878299 26.876352 -8.869048
vt 0.821708 0.475046
vn 0.837685 -0.129345 -0.530616
v 3.802206 26.793314 -8.969791
vt 0.824533 0.473275
vn 0.560030 -0.092496 -0.823293
v 4.214934 29.125900 -8.869048
vt 0.818157 0.524518
vn 0.838512 -0.120297 -0.531438
v 3.636230 26.744001 -9.048882
vt 0.828490 0.472228
vn 0.050963 -0.019339 -0.998513
v 3.616427 26.614252 -9.013868
vt 0.828815 0.469786
vn 0.007380 -0.505356 -0.862879
v 2.669722 26.755436 -9.013868
vt 0.849056 0.470773
vn -0.037654 -0.490904 -0.870400
v 4.163762 29.193266 -8.964130
vt 0.820637 0.525882
vn 0.578546 -0.075559 -0.812143
v 4.232257 29.241608 -8.834580
vt 0.817262 0.529603
vn 0.912269 0.107619 -0.395201
v 4.180514 29.319023 -8.932405
vt 0.821155 0.529691
vn 0.721913 0.271935 -0.636312
v 4.035946 29.396017 -9.010206
vt 0.824710 0.529795
vn 0.143614 0.484925 -0.862683
v 4.015767 29.266455 -9.045498
vt 0.824435 0.526888
vn 0.058733 0.006954 -0.998249
v 2.936338 29.427500 -9.045498
vt 0.846071 0.526423
vn 0.000946 0.015610 -0.999878
v 2.949374 29.558134 -9.010206
vt 0.845852 0.528983
vn 0.038642 0.505376 -0.862034
v 2.682756 26.886215 -9.048882
vt 0.848924 0.473658
vn -0.001075 -0.010611 -0.999943
v 0.000001 26.888241 -9.011932
vt 0.906544 0.471129
vn -0.000612 -0.492540 -0.870290
v -0.000002 29.573524 -9.045324
vt 0.906909 0.527272
vn -0.000329 0.015166 -0.999885
v -0.000005 29.704845 -9.010101
vt 0.906954 0.530002
vn -0.000034 0.506527 -0.862224
v 0.000001 27.019619 -9.047016
vt 0.906558 0.474084
vn -0.000361 -0.011121 -0.999938
v -2.669693 26.755339 -9.009997
vt 0.963843 0.470894
vn 0.036797 -0.491535 -0.870080
v -2.682732 26.886032 -9.045150
vt 0.963959 0.473784
vn 0.000598 -0.011469 -0.999934
v -3.616515 26.614126 -9.009997
vt 0.984045 0.469890
vn -0.006319 -0.506076 -0.862466
v -2.936321 29.427322 -9.045150
vt 0.966509 0.526849
vn -0.001377 0.014757 -0.999890
v -2.949364 29.558018 -9.009997
vt 0.966618 0.529528
vn -0.038663 0.504895 -0.862314
v -3.636607 26.743767 -9.045150
vt 0.984345 0.472304
vn -0.049899 -0.020477 -0.998544
v -4.015795 29.266268 -9.045150
vt 0.988829 0.526230
vn -0.057923 0.005790 -0.998304
v -4.035981 29.395878 -9.009997
vt 0.988804 0.528976
vn -0.143446 0.484197 -0.863120
v -4.180571 29.318892 -8.932279
vt 0.992318 0.528737
vn -0.721117 0.272080 -0.637151
v -3.803508 26.794750 -8.967663
vt 0.988270 0.473366
vn -0.550874 -0.091689 -0.829537
v -3.778845 26.664017 -8.940578
vt 0.987473 0.470123
vn -0.649441 -0.448433 -0.614112
v -3.861003 26.760761 -8.838449
vt 0.991593 0.470837
vn -0.864018 -0.343868 -0.367733
v -3.878322 26.876507 -8.872781
vt 0.990943 0.475080
vn -0.831901 -0.128090 -0.539938
v -4.163880 29.193073 -8.963897
vt 0.992583 0.525139
vn -0.571135 -0.074908 -0.817431
v -4.214944 29.126064 -8.869463
vt 0.994992 0.523761
vn -0.833067 -0.119003 -0.540219
v -4.232232 29.241718 -8.834858
vt 0.996051 0.528454
vn -0.911934 0.108349 -0.395774
# Faces (109 to 180)
g Main_1
f -70/-70/-70 -71/-71/-71 -72/-72/-72
f -69/-69/-69 -70/-70/-70 -72/-72/-72
f -68/-68/-68 -70/-70/-70 -69/-69/-69
f -69/-69/-69 -72/-72/-72 -67/-67/-67
f -72/-72/-72 -66/-66/-66 -67/-67/-67
f -66/-66/-66 -65/-65/-65 -67/-67/-67
f -64/-64/-64 -68/-68/-68 -69/-69/-69
f -63/-63/-63 -68/-68/-68 -64/-64/-64
f -62/-62/-62 -63/-63/-63 -64/-64/-64
f -62/-62/-62 -64/-64/-64 -61/-61/-61
f -60/-60/-60 -64/-64/-64 -69/-69/-69
f -67/-67/-67 -60/-60/-60 -69/-69/-69
f -64/-64/-64 -60/-60/-60 -61/-61/-61
f -65/-65/-65 -59/-59/-59 -67/-67/-67
f -60/-60/-60 -67/-67/-67 -59/-59/-59
f -65/-65/-65 -58/-58/-58 -59/-59/-59
f -60/-60/-60 -57/-57/-57 -61/-61/-61
f -57/-57/-57 -60/-60/-60 -59/-59/-59
f -57/-57/-57 -56/-56/-56 -61/-61/-61
f -58/-58/-58 -55/-55/-55 -59/-59/-59
f -57/-57/-57 -59/-59/-59 -55/-55/-55
f -55/-55/-55 -58/-58/-58 -54/-54/-54
f -57/-57/-57 -53/-53/-53 -56/-56/-56
f -53/-53/-53 -57/-57/-57 -55/-55/-55
f -53/-53/-53 -52/-52/-52 -56/-56/-56
f -52/-52/-52 -53/-53/-53 -51/-51/-51
f -51/-51/-51 -53/-53/-53 -55/-55/-55
f -50/-50/-50 -52/-52/-52 -51/-51/-51
f -49/-49/-49 -55/-55/-55 -54/-54/-54
f -49/-49/-49 -51/-51/-51 -55/-55/-55
f -49/-49/-49 -54/-54/-54 -48/-48/-48
f -50/-50/-50 -51/-51/-51 -47/-47/-47
f -47/-47/-47 -51/-51/-51 -49/-49/-49
f -46/-46/-46 -50/-50/-50 -47/-47/-47
f -45/-45/-45 -46/-46/-46 -47/-47/-47
f -44/-44/-44 -49/-49/-49 -48/-48/-48
f -44/-44/-44 -47/-47/-47 -49/-49/-49
f -43/-43/-43 -45/-45/-45 -47/-47/-47
f -43/-43/-43 -47/-47/-47 -44/-44/-44
f -42/-42/-42 -44/-44/-44 -48/-48/-48
f -42/-42/-42 -43/-43/-43 -44/-44/-44
f -41/-41/-41 -42/-42/-42 -48/-48/-48
f -41/-41/-41 -40/-40/-40 -42/-42/-42
f -40/-40/-40 -39/-39/-39 -42/-42/-42
f -42/-42/-42 -39/-39/-39 -43/-43/-43
f -39/-39/-39 -38/-38/-38 -43/-43/-43
f -43/-43/-43 -38/-38/-38 -45/-45/-45
f -38/-38/-38 -37/-37/-37 -45/-45/-45
f -34/-34/-34 -35/-35/-35 -36/-36/-36
f -33/-33/-33 -34/-34/-34 -36/-36/-36
f -32/-32/-32 -34/-34/-34 -33/-33/-33
f -33/-33/-33 -36/-36/-36 -31/-31/-31
f -36/-36/-36 -30/-30/-30 -31/-31/-31
f -30/-30/-30 -29/-29/-29 -31/-31/-31
f -28/-28/-28 -32/-32/-32 -33/-33/-33
f -27/-27/-27 -32/-32/-32 -28/-28/-28
f -26/-26/-26 -27/-27/-27 -28/-28/-28
f -26/-26/-26 -28/-28/-28 -25/-25/-25
f -28/-28/-28 -33/-33/-33 -24/-24/-24
f -28/-28/-28 -24/-24/-24 -25/-25/-25
f -33/-33/-33 -31/-31/-31 -24/-24/-24
f -24/-24/-24 -23/-23/-23 -25/-25/-25
f -24/-24/-24 -31/-31/-31 -23/-23/-23
f -23/-23/-23 -22/-22/-22 -25/-25/-25
f -29/-29/-29 -21/-21/-21 -31/-31/-31
f -31/-31/-31 -21/-21/-21 -23/-23/-23
f -29/-29/-29 -20/-20/-20 -21/-21/-21
f -23/-23/-23 -19/-19/-19 -22/-22/-22
f -23/-23/-23 -21/-21/-21 -19/-19/-19
f -19/-19/-19 -18/-18/-18 -22/-22/-22
f -20/-20/-20 -17/-17/-17 -21/-21/-21
f -21/-21/-21 -17/-17/-17 -19/-19/-19
f -17/-17/-17 -20/-20/-20 -16/-16/-16
f -15/-15/-15 -17/-17/-17 -16/-16/-16
f -17/-17/-17 -15/-15/-15 -19/-19/-19
f -15/-15/-15 -16/-16/-16 -14/-14/-14
f -18/-18/-18 -19/-19/-19 -13/-13/-13
f -15/-15/-15 -13/-13/-13 -19/-19/-19
f -12/-12/-12 -18/-18/-18 -13/-13/-13
f -11/-11/-11 -15/-15/-15 -14/-14/-14
f -15/-15/-15 -11/-11/-11 -13/-13/-13
f -12/-12/-12 -13/-13/-13 -10/-10/-10
f -11/-11/-11 -10/-10/-10 -13/-13/-13
f -9/-9/-9 -12/-12/-12 -10/-10/-10
f -8/-8/-8 -9/-9/-9 -10/-10/-10
f -7/-7/-7 -11/-11/-11 -14/-14/-14
f -6/-6/-6 -7/-7/-7 -14/-14/-14
f -6/-6/-6 -5/-5/-5 -7/-7/-7
f -5/-5/-5 -4/-4/-4 -7/-7/-7
f -10/-10/-10 -11/-11/-11 -3/-3/-3
f -11/-11/-11 -7/-7/-7 -3/-3/-3
f -7/-7/-7 -4/-4/-4 -3/-3/-3
f -3/-3/-3 -8/-8/-8 -10/-10/-10
f -4/-4/-4 -2/-2/-2 -3/-3/-3
f -3/-3/-3 -2/-2/-2 -8/-8/-8
f -2/-2/-2 -1/-1/-1 -8/-8/-8

