# Mesh "VFX_HitEffect" exported with Unity Assets Bundle Extractor; 24 vertices, 36 indices, 416 bits per vertex
g VFX_HitEffect
# SubMesh 0
# Vertices
v 0.236687 -0.112421 0.206654
vt 0.995045 0.496238
vn 0.749140 -0.000013 -0.662412
v 0.236679 0.112374 0.206640
vt 0.995045 0.010644
vn 0.749140 -0.000013 -0.662412
v 0.051280 0.110904 -0.003033
vt 0.511347 0.010644
vn 0.749140 -0.000013 -0.662412
v 0.051288 -0.110857 -0.003020
vt 0.511347 0.496238
vn 0.749140 -0.000013 -0.662412
v 0.215671 0.148780 0.206645
vt 0.496391 0.496238
vn 0.374563 0.648779 -0.662411
v 0.020993 0.261178 0.206648
vt 0.496391 0.013147
vn 0.374563 0.648779 -0.662411
v -0.070373 0.099848 -0.003025
vt 0.008054 0.013147
vn 0.374563 0.648779 -0.662411
v 0.121677 -0.011033 -0.003028
vt 0.008054 0.496238
vn 0.374563 0.648779 -0.662411
v -0.020985 0.261188 0.206655
vt 0.995045 0.008553
vn -0.374562 0.648780 -0.662411
v -0.215657 0.148782 0.206639
vt 0.995045 0.496238
vn -0.374562 0.648780 -0.662411
v -0.121685 -0.011043 -0.003034
vt 0.511347 0.496238
vn -0.374562 0.648780 -0.662411
v 0.070360 0.099847 -0.003019
vt 0.511347 0.008553
vn -0.374562 0.648780 -0.662411
v -0.236681 0.112391 0.206644
vt 0.496391 0.496238
vn -0.749139 0.000000 -0.662412
v -0.236686 -0.112403 0.206649
vt 0.496391 0.011588
vn -0.749139 0.000000 -0.662413
v -0.051286 -0.110875 -0.003024
vt 0.008054 0.011588
vn -0.749139 0.000000 -0.662413
v -0.051282 0.110887 -0.003029
vt 0.008054 0.496238
vn -0.749139 0.000000 -0.662413
v -0.215656 -0.148782 0.206638
vt 0.995045 0.496238
vn -0.374562 -0.648780 -0.662411
v -0.020985 -0.261189 0.206655
vt 0.995045 0.993168
vn -0.374562 -0.648780 -0.662411
v 0.070359 -0.099847 -0.003018
vt 0.511347 0.993168
vn -0.374562 -0.648780 -0.662411
v -0.121686 0.011045 -0.003035
vt 0.511347 0.496238
vn -0.374562 -0.648780 -0.662411
v 0.020990 -0.261183 0.206651
vt 0.496391 0.496238
vn 0.374564 -0.648778 -0.662411
v 0.215665 -0.148781 0.206642
vt 0.496391 0.993168
vn 0.374564 -0.648778 -0.662411
v 0.121680 0.011038 -0.003031
vt 0.008054 0.993168
vn 0.374564 -0.648778 -0.662411
v -0.070368 -0.099848 -0.003022
vt 0.008054 0.496238
vn 0.374564 -0.648778 -0.662411
# Faces (1 to 24)
g VFX_HitEffect_0
f -22/-22/-22 -23/-23/-23 -24/-24/-24
f -21/-21/-21 -22/-22/-22 -24/-24/-24
f -18/-18/-18 -19/-19/-19 -20/-20/-20
f -17/-17/-17 -18/-18/-18 -20/-20/-20
f -14/-14/-14 -15/-15/-15 -16/-16/-16
f -13/-13/-13 -14/-14/-14 -16/-16/-16
f -10/-10/-10 -11/-11/-11 -12/-12/-12
f -9/-9/-9 -10/-10/-10 -12/-12/-12
f -6/-6/-6 -7/-7/-7 -8/-8/-8
f -5/-5/-5 -6/-6/-6 -8/-8/-8
f -2/-2/-2 -3/-3/-3 -4/-4/-4
f -1/-1/-1 -2/-2/-2 -4/-4/-4

