# Mesh "VFX_Quad3Stack" exported with Unity Assets Bundle Extractor; 12 vertices, 18 indices, 416 bits per vertex
g VFX_Quad3Stack
# SubMesh 0
# Vertices
v -0.500000 0.500000 -0.500000
vt 2.000000 0.000000
vn -0.000000 0.000000 1.000000
v 0.500000 0.500000 -0.500000
vt 2.000000 1.000000
vn -0.000000 0.000000 1.000000
v 0.500000 -0.500000 -0.500000
vt 3.000000 1.000000
vn -0.000000 0.000000 1.000000
v -0.500000 -0.500000 -0.500000
vt 3.000000 0.000000
vn -0.000000 0.000000 1.000000
v -0.500000 0.500000 0.000000
vt 1.000000 0.000000
vn -0.000000 0.000000 1.000000
v 0.500000 0.500000 0.000000
vt 1.000000 1.000000
vn -0.000000 0.000000 1.000000
v 0.500000 -0.500000 -0.000000
vt 2.000000 1.000000
vn -0.000000 0.000000 1.000000
v -0.500000 -0.500000 -0.000000
vt 2.000000 0.000000
vn -0.000000 0.000000 1.000000
v -0.500000 0.500000 0.500000
vt 0.000000 0.000000
vn -0.000000 0.000000 1.000000
v 0.500000 0.500000 0.500000
vt 0.000000 1.000000
vn -0.000000 0.000000 1.000000
v 0.500000 -0.500000 0.500000
vt 1.000000 1.000000
vn -0.000000 0.000000 1.000000
v -0.500000 -0.500000 0.500000
vt 1.000000 0.000000
vn -0.000000 0.000000 1.000000
# Faces (1 to 12)
g VFX_Quad3Stack_0
f -10/-10/-10 -11/-11/-11 -12/-12/-12
f -9/-9/-9 -10/-10/-10 -12/-12/-12
f -6/-6/-6 -7/-7/-7 -8/-8/-8
f -5/-5/-5 -6/-6/-6 -8/-8/-8
f -2/-2/-2 -3/-3/-3 -4/-4/-4
f -1/-1/-1 -2/-2/-2 -4/-4/-4

