# Mesh "VFX_Matchfall_Edging_V01" exported with Unity Assets Bundle Extractor; 124 vertices, 366 indices, 384 bits per vertex
g VFX_Matchfall_Edging_V01
# SubMesh 0
# Vertices
v 0.328077 0.000000 -0.419939
vt 0.095276 0.000002
vn -0.000000 1.000000 0.000000
v 0.000000 0.000000 -0.419939
vt 0.000000 0.000002
vn -0.000000 1.000000 0.000000
v 0.000000 0.000000 -0.524924
vt 0.000000 0.999998
vn -0.000000 1.000000 0.000000
v 0.334820 0.000000 -0.523296
vt 0.095276 0.999998
vn -0.000000 1.000000 0.000000
v 0.341200 0.000000 -0.419939
vt 0.099522 0.000002
vn -0.000000 1.000000 0.000000
v 0.354686 0.000000 -0.521669
vt 0.099522 0.999998
vn -0.000000 1.000000 0.000000
v 0.354323 0.000000 -0.419939
vt 0.103769 0.000002
vn -0.000000 1.000000 0.000000
v 0.374551 0.000000 -0.520042
vt 0.103769 0.999998
vn -0.000000 1.000000 0.000000
v 0.366844 0.000000 -0.419294
vt 0.108015 0.000002
vn -0.000000 1.000000 0.000000
v 0.395808 0.000000 -0.517430
vt 0.108015 0.999998
vn -0.000000 1.000000 0.000000
v 0.378158 0.000000 -0.417359
vt 0.112261 0.000002
vn -0.000000 1.000000 0.000000
v 0.419847 0.000000 -0.512845
vt 0.112261 0.999998
vn -0.000000 1.000000 0.000000
v 0.388382 0.000000 -0.414231
vt 0.116507 0.000002
vn -0.000000 1.000000 0.000000
v 0.443483 0.000000 -0.506244
vt 0.116507 0.999996
vn -0.000000 1.000000 0.000000
v 0.397630 0.000000 -0.410005
vt 0.120754 0.000000
vn -0.000000 1.000000 0.000000
v 0.463534 0.000000 -0.497580
vt 0.120754 0.999996
vn -0.000000 1.000000 0.000000
v 0.405291 0.000000 -0.404336
vt 0.125000 0.000000
vn -0.000000 1.000000 -0.000000
v 0.480496 0.000000 -0.486153
vt 0.125000 0.999996
vn -0.000000 1.000000 -0.000000
v 0.494868 0.000000 -0.471266
vt 0.129246 0.999996
vn -0.000000 1.000000 0.000000
v 0.410753 0.000000 -0.396881
vt 0.129246 0.000000
vn -0.000000 1.000000 0.000000
v 0.506152 0.000000 -0.453616
vt 0.133493 0.999996
vn -0.000000 1.000000 0.000000
v 0.414628 0.000000 -0.387985
vt 0.133493 0.000000
vn -0.000000 1.000000 0.000000
v 0.513850 0.000000 -0.433903
vt 0.137739 0.999996
vn -0.000000 1.000000 0.000000
v 0.417527 0.000000 -0.377990
vt 0.137739 0.000000
vn -0.000000 1.000000 0.000000
v 0.518601 0.000000 -0.412207
vt 0.141985 0.999996
vn -0.000000 1.000000 0.000000
v 0.419336 0.000000 -0.366802
vt 0.141985 0.000000
vn -0.000000 1.000000 0.000000
v 0.521047 0.000000 -0.388607
vt 0.146231 0.999996
vn -0.000000 1.000000 0.000000
v 0.419939 0.000000 -0.354323
vt 0.146231 0.000000
vn -0.000000 1.000000 0.000000
v 0.522339 0.000000 -0.364056
vt 0.150478 0.999996
vn -0.000000 1.000000 0.000000
v 0.419939 0.000000 -0.341200
vt 0.150478 0.000000
vn -0.000000 1.000000 0.000000
v 0.523631 0.000000 -0.339505
vt 0.154724 0.999996
vn -0.000000 1.000000 0.000000
v 0.419939 0.000000 -0.328077
vt 0.154724 0.000000
vn -0.000000 1.000000 0.000000
v 0.523296 0.000000 0.334820
vt 0.339522 0.999998
vn -0.000000 1.000000 0.000000
v 0.419939 0.000000 0.328077
vt 0.339522 0.000002
vn -0.000000 1.000000 0.000000
v 0.419939 0.000000 0.341200
vt 0.344590 0.000002
vn -0.000000 1.000000 0.000000
v 0.521669 0.000000 0.354686
vt 0.344590 0.999998
vn -0.000000 1.000000 0.000000
v 0.419939 0.000000 0.354323
vt 0.349658 0.000002
vn -0.000000 1.000000 -0.000000
v 0.520042 0.000000 0.374551
vt 0.349658 0.999998
vn -0.000000 1.000000 -0.000000
v 0.419294 0.000000 0.366942
vt 0.354727 0.000002
vn -0.000000 1.000000 -0.000000
v 0.517430 0.000000 0.395808
vt 0.354727 0.999998
vn -0.000000 1.000000 0.000000
v 0.417358 0.000000 0.378553
vt 0.359795 0.000002
vn -0.000000 1.000000 0.000000
v 0.512845 0.000000 0.419847
vt 0.359795 0.999998
vn -0.000000 1.000000 0.000000
v 0.414228 0.000000 0.388974
vt 0.364863 0.000002
vn -0.000000 1.000000 0.000000
v 0.505976 0.000000 0.444046
vt 0.364863 0.999998
vn -0.000000 1.000000 0.000000
v 0.410003 0.000000 0.398024
vt 0.369932 0.000002
vn -0.000000 1.000000 0.000000
v 0.496505 0.000000 0.465783
vt 0.369932 0.999998
vn -0.000000 1.000000 0.000000
v 0.404335 0.000000 0.405488
vt 0.375000 0.000002
vn -0.000000 1.000000 0.000000
v 0.484542 0.000000 0.483870
vt 0.375000 0.999998
vn -0.000000 1.000000 0.000000
v 0.470191 0.000000 0.497117
vt 0.380068 0.999998
vn -0.000000 1.000000 -0.000000
v 0.396880 0.000000 0.411148
vt 0.380068 0.000002
vn -0.000000 1.000000 -0.000000
v 0.453347 0.000000 0.506714
vt 0.385137 0.999998
vn -0.000000 1.000000 0.000000
v 0.387982 0.000000 0.415220
vt 0.385137 0.000002
vn -0.000000 1.000000 0.000000
v 0.433903 0.000000 0.513850
vt 0.390205 0.999998
vn -0.000000 1.000000 0.000000
v 0.377988 0.000000 0.417922
vt 0.390205 0.000002
vn -0.000000 1.000000 0.000000
v 0.412207 0.000000 0.518601
vt 0.395273 0.999998
vn -0.000000 1.000000 0.000000
v 0.366801 0.000000 0.419435
vt 0.395273 0.000002
vn -0.000000 1.000000 0.000000
v 0.388607 0.000000 0.521047
vt 0.400342 0.999998
vn -0.000000 1.000000 0.000000
v 0.354323 0.000000 0.419939
vt 0.400342 0.000002
vn -0.000000 1.000000 0.000000
v 0.364056 0.000000 0.522339
vt 0.405410 0.999998
vn -0.000000 1.000000 0.000000
v 0.341200 0.000000 0.419939
vt 0.405410 0.000002
vn -0.000000 1.000000 0.000000
v 0.339505 0.000000 0.523631
vt 0.410478 0.999998
vn -0.000000 1.000000 0.000000
v 0.328077 0.000000 0.419939
vt 0.410478 0.000002
vn -0.000000 1.000000 0.000000
v -0.334820 0.000000 0.523296
vt 0.592490 0.999998
vn -0.000000 1.000000 0.000000
v -0.328077 0.000000 0.419939
vt 0.592490 0.000002
vn -0.000000 1.000000 0.000000
v -0.341200 0.000000 0.419939
vt 0.597145 0.000002
vn -0.000000 1.000000 0.000000
v -0.354686 0.000000 0.521669
vt 0.597145 0.999998
vn -0.000000 1.000000 0.000000
v -0.354323 0.000000 0.419939
vt 0.601799 0.000002
vn -0.000000 1.000000 0.000000
v -0.374551 0.000000 0.520042
vt 0.601799 0.999998
vn -0.000000 1.000000 0.000000
v -0.366942 0.000000 0.419157
vt 0.606454 0.000002
vn -0.000000 1.000000 0.000000
v -0.395808 0.000000 0.517430
vt 0.606454 0.999998
vn -0.000000 1.000000 0.000000
v -0.378553 0.000000 0.416810
vt 0.611108 0.000002
vn -0.000000 1.000000 0.000000
v -0.419847 0.000000 0.512845
vt 0.611108 0.999998
vn -0.000000 1.000000 0.000000
v -0.388974 0.000000 0.413406
vt 0.615763 0.000002
vn -0.000000 1.000000 0.000000
v -0.444046 0.000000 0.505804
vt 0.615763 0.999998
vn -0.000000 1.000000 0.000000
v -0.398024 0.000000 0.409455
vt 0.620417 0.000002
vn -0.000000 1.000000 0.000000
v -0.465783 0.000000 0.495820
vt 0.620417 0.999998
vn -0.000000 1.000000 0.000000
v -0.405488 0.000000 0.404061
vt 0.625072 0.000000
vn -0.000000 1.000000 0.000000
v -0.483870 0.000000 0.483514
vt 0.625072 1.000000
vn -0.000000 1.000000 0.000000
v -0.497117 0.000000 0.469506
vt 0.629726 1.000000
vn -0.000000 1.000000 0.000000
v -0.411148 0.000000 0.396332
vt 0.629726 0.000000
vn -0.000000 1.000000 0.000000
v -0.506714 0.000000 0.453176
vt 0.634381 1.000000
vn -0.000000 1.000000 0.000000
v -0.415220 0.000000 0.387160
vt 0.634381 0.000000
vn -0.000000 1.000000 0.000000
v -0.513850 0.000000 0.433903
vt 0.639035 1.000000
vn -0.000000 1.000000 -0.000000
v -0.417922 0.000000 0.377440
vt 0.639035 0.000000
vn -0.000000 1.000000 -0.000000
v -0.518738 0.000000 0.412207
vt 0.643690 1.000000
vn -0.000000 1.000000 -0.000000
v -0.419435 0.000000 0.366664
vt 0.643690 0.000000
vn -0.000000 1.000000 -0.000000
v -0.521595 0.000000 0.388607
vt 0.648344 1.000000
vn -0.000000 1.000000 0.000000
v -0.419939 0.000000 0.354323
vt 0.648344 0.000000
vn -0.000000 1.000000 0.000000
v -0.523161 0.000000 0.364056
vt 0.652999 1.000000
vn -0.000000 1.000000 0.000000
v -0.419939 0.000000 0.341200
vt 0.652999 0.000000
vn -0.000000 1.000000 0.000000
v -0.524179 0.000000 0.339505
vt 0.660697 1.000000
vn -0.000000 1.000000 0.000000
v -0.419939 0.000000 0.328077
vt 0.660697 0.000000
vn -0.000000 1.000000 0.000000
v -0.523296 0.000000 -0.334820
vt 0.844997 1.000000
vn -0.000000 1.000000 0.000000
v -0.419939 0.000000 -0.328077
vt 0.844997 0.000004
vn -0.000000 1.000000 0.000000
v -0.419939 0.000000 -0.341200
vt 0.849283 0.000004
vn -0.000000 1.000000 0.000000
v -0.521669 0.000000 -0.354686
vt 0.849283 1.000000
vn -0.000000 1.000000 0.000000
v -0.419939 0.000000 -0.354323
vt 0.853569 0.000004
vn -0.000000 1.000000 0.000000
v -0.520042 0.000000 -0.374551
vt 0.853569 1.000000
vn -0.000000 1.000000 0.000000
v -0.419507 0.000000 -0.366996
vt 0.857855 0.000004
vn -0.000000 1.000000 -0.000000
v -0.517430 0.000000 -0.395808
vt 0.857855 1.000000
vn -0.000000 1.000000 -0.000000
v -0.418213 0.000000 -0.378768
vt 0.862142 0.000004
vn -0.000000 1.000000 -0.000000
v -0.512845 0.000000 -0.419847
vt 0.862142 1.000000
vn -0.000000 1.000000 -0.000000
v -0.415512 0.000000 -0.389297
vt 0.866428 0.000004
vn -0.000000 1.000000 0.000000
v -0.505834 0.000000 -0.444042
vt 0.866428 1.000000
vn -0.000000 1.000000 0.000000
v -0.410858 0.000000 -0.398240
vt 0.870714 0.000004
vn -0.000000 1.000000 0.000000
v -0.495941 0.000000 -0.465766
vt 0.870714 1.000000
vn -0.000000 1.000000 0.000000
v -0.404763 0.000000 -0.405596
vt 0.875000 0.000004
vn 0.000000 1.000000 0.000000
v -0.483695 0.000000 -0.483845
vt 0.875000 1.000000
vn 0.000000 1.000000 0.000000
v -0.469627 0.000000 -0.497100
vt 0.879286 1.000000
vn 0.000000 1.000000 0.000000
v -0.397735 0.000000 -0.411363
vt 0.879286 0.000004
vn 0.000000 1.000000 0.000000
v -0.453206 0.000000 -0.506710
vt 0.883572 1.000000
vn 0.000000 1.000000 -0.000000
v -0.389265 0.000000 -0.415543
vt 0.883572 0.000004
vn 0.000000 1.000000 -0.000000
v -0.433903 0.000000 -0.513850
vt 0.887858 1.000000
vn -0.000000 1.000000 -0.000000
v -0.378844 0.000000 -0.418137
vt 0.887858 0.000000
vn -0.000000 1.000000 0.000000
v -0.412207 0.000000 -0.518601
vt 0.892145 1.000000
vn -0.000000 1.000000 0.000000
v -0.367015 0.000000 -0.419489
vt 0.892145 0.000000
vn -0.000000 1.000000 0.000000
v -0.388607 0.000000 -0.521047
vt 0.896431 1.000000
vn -0.000000 1.000000 0.000000
v -0.354323 0.000000 -0.419939
vt 0.896431 0.000000
vn -0.000000 1.000000 0.000000
v -0.364056 0.000000 -0.522339
vt 0.900717 1.000000
vn -0.000000 1.000000 0.000000
v -0.341200 0.000000 -0.419939
vt 0.900717 0.000000
vn -0.000000 1.000000 0.000000
v -0.339505 0.000000 -0.523631
vt 0.905003 1.000000
vn -0.000000 1.000000 0.000000
v -0.328077 0.000000 -0.419939
vt 0.905003 0.000000
vn -0.000000 1.000000 0.000000
v 0.000000 0.000000 -0.524924
vt 1.000000 1.000000
vn -0.000000 1.000000 0.000000
v 0.000000 0.000000 -0.419939
vt 1.000000 0.000000
vn -0.000000 1.000000 0.000000
# Faces (1 to 124)
g VFX_Matchfall_Edging_V01_0
f -122/-122/-122 -123/-123/-123 -124/-124/-124
f -122/-122/-122 -124/-124/-124 -121/-121/-121
f -120/-120/-120 -121/-121/-121 -124/-124/-124
f -120/-120/-120 -119/-119/-119 -121/-121/-121
f -119/-119/-119 -120/-120/-120 -118/-118/-118
f -119/-119/-119 -118/-118/-118 -117/-117/-117
f -116/-116/-116 -117/-117/-117 -118/-118/-118
f -116/-116/-116 -115/-115/-115 -117/-117/-117
f -115/-115/-115 -116/-116/-116 -114/-114/-114
f -115/-115/-115 -114/-114/-114 -113/-113/-113
f -112/-112/-112 -113/-113/-113 -114/-114/-114
f -112/-112/-112 -111/-111/-111 -113/-113/-113
f -111/-111/-111 -112/-112/-112 -110/-110/-110
f -111/-111/-111 -110/-110/-110 -109/-109/-109
f -108/-108/-108 -109/-109/-109 -110/-110/-110
f -108/-108/-108 -107/-107/-107 -109/-109/-109
f -108/-108/-108 -106/-106/-106 -107/-107/-107
f -108/-108/-108 -105/-105/-105 -106/-106/-106
f -105/-105/-105 -104/-104/-104 -106/-106/-106
f -105/-105/-105 -103/-103/-103 -104/-104/-104
f -103/-103/-103 -102/-102/-102 -104/-104/-104
f -103/-103/-103 -101/-101/-101 -102/-102/-102
f -100/-100/-100 -102/-102/-102 -101/-101/-101
f -100/-100/-100 -101/-101/-101 -99/-99/-99
f -99/-99/-99 -98/-98/-98 -100/-100/-100
f -99/-99/-99 -97/-97/-97 -98/-98/-98
f -97/-97/-97 -96/-96/-96 -98/-98/-98
f -97/-97/-97 -95/-95/-95 -96/-96/-96
f -95/-95/-95 -94/-94/-94 -96/-96/-96
f -95/-95/-95 -93/-93/-93 -94/-94/-94
f -93/-93/-93 -92/-92/-92 -94/-94/-94
f -93/-93/-93 -91/-91/-91 -92/-92/-92
f -90/-90/-90 -92/-92/-92 -91/-91/-91
f -90/-90/-90 -89/-89/-89 -92/-92/-92
f -89/-89/-89 -90/-90/-90 -88/-88/-88
f -89/-89/-89 -88/-88/-88 -87/-87/-87
f -86/-86/-86 -87/-87/-87 -88/-88/-88
f -86/-86/-86 -85/-85/-85 -87/-87/-87
f -85/-85/-85 -86/-86/-86 -84/-84/-84
f -85/-85/-85 -84/-84/-84 -83/-83/-83
f -82/-82/-82 -83/-83/-83 -84/-84/-84
f -82/-82/-82 -81/-81/-81 -83/-83/-83
f -81/-81/-81 -82/-82/-82 -80/-80/-80
f -81/-81/-81 -80/-80/-80 -79/-79/-79
f -78/-78/-78 -79/-79/-79 -80/-80/-80
f -78/-78/-78 -77/-77/-77 -79/-79/-79
f -78/-78/-78 -76/-76/-76 -77/-77/-77
f -78/-78/-78 -75/-75/-75 -76/-76/-76
f -75/-75/-75 -74/-74/-74 -76/-76/-76
f -75/-75/-75 -73/-73/-73 -74/-74/-74
f -73/-73/-73 -72/-72/-72 -74/-74/-74
f -73/-73/-73 -71/-71/-71 -72/-72/-72
f -70/-70/-70 -72/-72/-72 -71/-71/-71
f -70/-70/-70 -71/-71/-71 -69/-69/-69
f -69/-69/-69 -68/-68/-68 -70/-70/-70
f -69/-69/-69 -67/-67/-67 -68/-68/-68
f -67/-67/-67 -66/-66/-66 -68/-68/-68
f -67/-67/-67 -65/-65/-65 -66/-66/-66
f -65/-65/-65 -64/-64/-64 -66/-66/-66
f -65/-65/-65 -63/-63/-63 -64/-64/-64
f -63/-63/-63 -62/-62/-62 -64/-64/-64
f -63/-63/-63 -61/-61/-61 -62/-62/-62
f -60/-60/-60 -62/-62/-62 -61/-61/-61
f -60/-60/-60 -59/-59/-59 -62/-62/-62
f -59/-59/-59 -60/-60/-60 -58/-58/-58
f -59/-59/-59 -58/-58/-58 -57/-57/-57
f -56/-56/-56 -57/-57/-57 -58/-58/-58
f -56/-56/-56 -55/-55/-55 -57/-57/-57
f -55/-55/-55 -56/-56/-56 -54/-54/-54
f -55/-55/-55 -54/-54/-54 -53/-53/-53
f -52/-52/-52 -53/-53/-53 -54/-54/-54
f -52/-52/-52 -51/-51/-51 -53/-53/-53
f -51/-51/-51 -52/-52/-52 -50/-50/-50
f -51/-51/-51 -50/-50/-50 -49/-49/-49
f -48/-48/-48 -49/-49/-49 -50/-50/-50
f -48/-48/-48 -47/-47/-47 -49/-49/-49
f -48/-48/-48 -46/-46/-46 -47/-47/-47
f -48/-48/-48 -45/-45/-45 -46/-46/-46
f -45/-45/-45 -44/-44/-44 -46/-46/-46
f -45/-45/-45 -43/-43/-43 -44/-44/-44
f -43/-43/-43 -42/-42/-42 -44/-44/-44
f -43/-43/-43 -41/-41/-41 -42/-42/-42
f -40/-40/-40 -42/-42/-42 -41/-41/-41
f -40/-40/-40 -41/-41/-41 -39/-39/-39
f -39/-39/-39 -38/-38/-38 -40/-40/-40
f -39/-39/-39 -37/-37/-37 -38/-38/-38
f -37/-37/-37 -36/-36/-36 -38/-38/-38
f -37/-37/-37 -35/-35/-35 -36/-36/-36
f -35/-35/-35 -34/-34/-34 -36/-36/-36
f -35/-35/-35 -33/-33/-33 -34/-34/-34
f -33/-33/-33 -32/-32/-32 -34/-34/-34
f -33/-33/-33 -31/-31/-31 -32/-32/-32
f -30/-30/-30 -32/-32/-32 -31/-31/-31
f -30/-30/-30 -29/-29/-29 -32/-32/-32
f -29/-29/-29 -30/-30/-30 -28/-28/-28
f -29/-29/-29 -28/-28/-28 -27/-27/-27
f -26/-26/-26 -27/-27/-27 -28/-28/-28
f -26/-26/-26 -25/-25/-25 -27/-27/-27
f -25/-25/-25 -26/-26/-26 -24/-24/-24
f -25/-25/-25 -24/-24/-24 -23/-23/-23
f -22/-22/-22 -23/-23/-23 -24/-24/-24
f -22/-22/-22 -21/-21/-21 -23/-23/-23
f -21/-21/-21 -22/-22/-22 -20/-20/-20
f -21/-21/-21 -20/-20/-20 -19/-19/-19
f -18/-18/-18 -19/-19/-19 -20/-20/-20
f -18/-18/-18 -17/-17/-17 -19/-19/-19
f -18/-18/-18 -16/-16/-16 -17/-17/-17
f -18/-18/-18 -15/-15/-15 -16/-16/-16
f -15/-15/-15 -14/-14/-14 -16/-16/-16
f -15/-15/-15 -13/-13/-13 -14/-14/-14
f -13/-13/-13 -12/-12/-12 -14/-14/-14
f -13/-13/-13 -11/-11/-11 -12/-12/-12
f -10/-10/-10 -12/-12/-12 -11/-11/-11
f -10/-10/-10 -11/-11/-11 -9/-9/-9
f -9/-9/-9 -8/-8/-8 -10/-10/-10
f -9/-9/-9 -7/-7/-7 -8/-8/-8
f -7/-7/-7 -6/-6/-6 -8/-8/-8
f -7/-7/-7 -5/-5/-5 -6/-6/-6
f -5/-5/-5 -4/-4/-4 -6/-6/-6
f -5/-5/-5 -3/-3/-3 -4/-4/-4
f -2/-2/-2 -4/-4/-4 -3/-3/-3
f -2/-2/-2 -3/-3/-3 -1/-1/-1

