# Mesh "VFX_Quad" exported with Unity Assets Bundle Extractor; 4 vertices, 6 indices, 384 bits per vertex
g VFX_Quad
# SubMesh 0
# Vertices
v -2.000000 2.000000 0.000000
vt 0.000000 0.000000
vn -0.000000 0.000000 1.000000
v 2.000000 2.000000 0.000000
vt 0.000000 1.000000
vn -0.000000 0.000000 1.000000
v 2.000000 -2.000000 -0.000000
vt 1.000000 1.000000
vn -0.000000 0.000000 1.000000
v -2.000000 -2.000000 -0.000000
vt 1.000000 0.000000
vn -0.000000 0.000000 1.000000
# Faces (1 to 4)
g VFX_Quad_0
f -2/-2/-2 -3/-3/-3 -4/-4/-4
f -1/-1/-1 -2/-2/-2 -4/-4/-4

