# Mesh "VinylEnd6" exported with Unity Assets Bundle Extractor; 132 vertices, 522 indices, 384 bits per vertex
g VinylEnd6
# SubMesh 0
# Vertices
v -8.507801 28.321779 -8.914304
vt 0.365083 0.519222
vn -0.831930 -0.239167 -0.500691
v -8.520872 28.434399 -8.896317
vt 0.365355 0.520975
vn -0.890651 0.177050 -0.418801
v -8.545025 28.446522 -8.782880
vt 0.367138 0.521186
vn -0.971110 0.238630 -0.001411
v -8.541932 28.313305 -8.783109
vt 0.367135 0.519242
vn -0.961098 -0.276199 -0.001941
v -7.768700 25.872225 -8.920814
vt 0.364984 0.480512
vn -0.823451 -0.257352 -0.505666
v -8.540031 28.306910 8.776085
vt 0.632713 0.519140
vn -0.961132 -0.276082 0.001958
v -8.544085 28.443317 8.778087
vt 0.632744 0.521204
vn -0.970419 0.241422 0.001587
v -7.802315 25.861706 -8.792720
vt 0.366992 0.480513
vn -0.953594 -0.301089 -0.001971
v -8.506414 28.317352 8.910629
vt 0.634819 0.519151
vn -0.835446 -0.240980 0.493922
v -8.520078 28.431862 8.893478
vt 0.634587 0.520961
vn -0.896582 0.165743 0.410695
v -7.804108 25.867649 8.782770
vt 0.632818 0.480607
vn -0.953568 -0.301171 0.001981
v -7.769969 25.876280 8.913960
vt 0.634873 0.480576
vn -0.827309 -0.259018 0.498467
v -7.732224 25.749506 8.782898
vt 0.632820 0.478515
vn -0.692918 -0.721015 0.001558
v -7.718161 25.771620 8.896203
vt 0.634632 0.478742
vn -0.665047 -0.622582 0.412438
v -7.731326 25.746546 -8.790992
vt 0.367018 0.478467
vn -0.694583 -0.719411 -0.001408
v -7.717409 25.769329 -8.902481
vt 0.365249 0.478715
vn -0.654770 -0.627738 -0.420976
# Faces (1 to 16)
g VinylEnd6_0
f -14/-14/-14 -15/-15/-15 -16/-16/-16
f -13/-13/-13 -14/-14/-14 -16/-16/-16
f -16/-16/-16 -12/-12/-12 -13/-13/-13
f -13/-13/-13 -11/-11/-11 -14/-14/-14
f -11/-11/-11 -10/-10/-10 -14/-14/-14
f -12/-12/-12 -9/-9/-9 -13/-13/-13
f -13/-13/-13 -9/-9/-9 -11/-11/-11
f -11/-11/-11 -8/-8/-8 -10/-10/-10
f -8/-8/-8 -7/-7/-7 -10/-10/-10
f -11/-11/-11 -6/-6/-6 -8/-8/-8
f -9/-9/-9 -6/-6/-6 -11/-11/-11
f -6/-6/-6 -5/-5/-5 -8/-8/-8
f -6/-6/-6 -4/-4/-4 -5/-5/-5
f -6/-6/-6 -9/-9/-9 -4/-4/-4
f -4/-4/-4 -3/-3/-3 -5/-5/-5
f -9/-9/-9 -2/-2/-2 -4/-4/-4
f -9/-9/-9 -12/-12/-12 -2/-2/-2
f -12/-12/-12 -1/-1/-1 -2/-2/-2

# SubMesh 1
# Vertices
v -8.429761 28.457661 -8.990468
vt 0.270230 0.975887
vn -0.506233 0.288179 -0.812823
v -8.520872 28.434399 -8.896317
vt 0.284785 0.977416
vn -0.890651 0.177050 -0.418801
v -8.507801 28.321779 -8.914304
vt 0.283103 0.965122
vn -0.831930 -0.239167 -0.500691
v -8.414536 28.344938 -9.010344
vt 0.271076 0.964684
vn -0.482960 -0.133724 -0.865371
v -8.325170 28.502247 -9.010206
vt 0.259058 0.976217
vn -0.143021 0.484989 -0.862746
v -7.676040 25.897812 -9.014577
vt 0.272497 0.738932
vn -0.468718 -0.150108 -0.870500
v -7.768700 25.872225 -8.920814
vt 0.284387 0.739057
vn -0.823451 -0.257352 -0.505666
v -7.717409 25.769329 -8.902481
vt 0.283290 0.726996
vn -0.654770 -0.627738 -0.420976
v -8.287144 28.376581 -9.045498
vt 0.259080 0.964039
vn -0.032920 0.006164 -0.999439
v -7.236510 28.773193 -9.010206
vt 0.159719 0.970368
vn -0.075342 0.498103 -0.863838
v -7.626410 25.794033 -8.994806
vt 0.271069 0.728727
vn -0.280974 -0.514775 -0.809976
v -7.599902 25.703981 -8.901241
vt 0.273545 0.716566
vn -0.182709 -0.890589 -0.416495
v -7.483614 25.713617 -8.917879
vt 0.261495 0.714485
vn 0.186805 -0.844192 -0.502438
v -7.549159 25.931604 -9.048881
vt 0.260598 0.738563
vn -0.024276 -0.017905 -0.999545
v -7.511296 25.805775 -9.013868
vt 0.260886 0.726670
vn 0.097244 -0.485014 -0.869083
v -6.590339 26.170235 -9.048881
vt 0.173779 0.733809
vn 0.037495 -0.002474 -0.999294
v -6.559191 26.042730 -9.013868
vt 0.174130 0.722144
vn 0.174367 -0.471185 -0.864627
v -6.535916 25.949482 -8.917879
vt 0.173972 0.710059
vn 0.263768 -0.824332 -0.500902
v -6.438840 26.025480 -8.872396
vt 0.159464 0.713114
vn 0.854320 -0.398079 -0.334172
v -7.206021 28.645649 -9.045498
vt 0.160781 0.958360
vn 0.033403 0.024274 -0.999147
v -6.460914 26.117178 -8.967001
vt 0.163046 0.725156
vn 0.788148 -0.167675 -0.592206
v -7.084802 28.642334 -8.992975
vt 0.149677 0.954884
vn 0.567149 0.154210 -0.809050
v -7.116531 28.766027 -8.959025
vt 0.147642 0.966611
vn 0.569472 0.529462 -0.628786
v -6.997935 28.705713 -8.834858
vt 0.133163 0.958227
vn 0.740191 0.478987 -0.471898
v -6.969694 28.592249 -8.869461
vt 0.136017 0.947416
vn 0.755542 0.195047 -0.625390
v -6.489262 26.245768 -8.997432
vt 0.162425 0.737316
vn 0.555673 0.127099 -0.821629
v -6.420359 26.384977 -8.872780
vt 0.147546 0.746756
vn 0.758537 0.184740 -0.624895
v -6.392095 26.271406 -8.838449
vt 0.145961 0.734842
vn 0.898357 -0.034438 -0.437915
v -6.371400 26.188242 -8.744326
vt 0.139983 0.723444
vn 0.949801 -0.218712 -0.223704
v -7.599902 25.703981 -8.901241
vt 0.709052 0.665574
vn -0.182709 -0.890589 -0.416495
v -7.717409 25.769329 -8.902481
vt 0.701133 0.665274
vn -0.654770 -0.627738 -0.420976
v -7.731326 25.746546 -8.790992
vt 0.700874 0.672035
vn -0.694583 -0.719411 -0.001408
v -7.611681 25.680386 -8.788792
vt 0.708540 0.672161
vn -0.257772 -0.966205 -0.001429
v -7.483614 25.713617 -8.917879
vt 0.716092 0.664617
vn 0.186805 -0.844192 -0.502438
v -7.612000 25.681160 8.782899
vt 0.708735 1.657244
vn -0.255472 -0.966815 0.001526
v -7.732224 25.749506 8.782898
vt 0.700982 1.657251
vn -0.692918 -0.721015 0.001558
v -7.718161 25.771620 8.896203
vt 0.701258 1.664095
vn -0.665047 -0.622582 0.412438
v -7.600201 25.704556 8.896212
vt 0.709247 1.663859
vn -0.194796 -0.889897 0.412479
v -7.483746 25.713581 8.913960
vt 0.716292 1.664860
vn 0.185857 -0.844623 0.502065
v -7.473541 25.679861 -8.786676
vt 0.716282 0.672279
vn 0.211202 -0.977440 -0.001932
v -6.535916 25.949482 -8.917879
vt 0.771088 0.664631
vn 0.263768 -0.824332 -0.500902
v -7.473711 25.679819 8.782771
vt 0.716484 1.657234
vn 0.211435 -0.977390 0.001940
v -6.527740 25.915249 -8.786676
vt 0.770926 0.672277
vn 0.279656 -0.960098 -0.002058
v -6.527738 25.915253 8.782770
vt 0.770902 1.657237
vn 0.279656 -0.960098 0.002057
v -6.535912 25.949446 8.913960
vt 0.771067 1.664854
vn 0.263798 -0.824558 0.500513
v -6.438836 26.025448 8.868480
vt 0.778788 1.662440
vn 0.854348 -0.398231 0.333919
v -6.429223 25.995668 -8.739295
vt 0.778052 0.674930
vn 0.776152 -0.630543 -0.001675
v -6.438840 26.025480 -8.872396
vt 0.778818 0.667059
vn 0.854320 -0.398079 -0.334172
v -6.371400 26.188242 -8.744326
vt 0.789392 0.674287
vn 0.949801 -0.218712 -0.223704
v -6.363821 26.157791 -8.615678
vt 0.787856 0.681857
vn 0.927533 -0.373741 -0.000589
v -6.429221 25.995670 8.735388
vt 0.778028 1.654583
vn 0.776152 -0.630543 0.001674
v -6.363821 26.157791 8.611775
vt 0.787833 1.647657
vn 0.927533 -0.373742 0.000588
v -6.371393 26.188211 8.740412
vt 0.789379 1.655222
vn 0.949809 -0.218859 0.223527
v -7.116521 28.765919 8.958800
vt 0.420031 1.146457
vn 0.569651 0.528962 0.629044
v -6.997928 28.705616 8.834579
vt 0.434190 1.138199
vn 0.740311 0.478565 0.472140
v -6.969640 28.592136 8.869047
vt 0.431372 1.127584
vn 0.755818 0.194208 0.625318
v -7.084781 28.642174 8.992610
vt 0.418041 1.134953
vn 0.567470 0.153169 0.809022
v -6.420321 26.384827 8.869048
vt 0.419348 0.931385
vn 0.758824 0.183902 0.624793
v -7.205970 28.645514 9.045149
vt 0.407195 1.138391
vn 0.033711 0.022997 0.999167
v -7.236491 28.773079 9.009997
vt 0.408255 1.150136
vn -0.075156 0.497372 0.864276
v -8.324987 28.502176 9.009997
vt 0.310879 1.156061
vn -0.143795 0.484027 0.863157
v -6.489233 26.245579 8.993722
vt 0.404752 0.922216
vn 0.556202 0.126095 0.821425
v -6.392069 26.271309 8.834579
vt 0.420830 0.919738
vn 0.898518 -0.034811 0.437554
v -6.590298 26.170063 9.045150
vt 0.393635 0.918831
vn 0.037831 -0.003746 0.999277
v -8.286951 28.376453 9.045149
vt 0.310889 1.144226
vn -0.033086 0.004771 0.999441
v -6.460891 26.117064 8.963137
vt 0.404089 0.910330
vn 0.788353 -0.168126 0.591805
v -6.371393 26.188211 8.740412
vt 0.426645 0.908560
vn 0.949809 -0.218859 0.223527
v -6.438836 26.025448 8.868480
vt 0.407537 0.898536
vn 0.854348 -0.398231 0.333919
v -6.535912 25.949446 8.913960
vt 0.393347 0.895602
vn 0.263798 -0.824558 0.500513
v -6.559162 26.042620 9.009996
vt 0.393243 0.907432
vn 0.174556 -0.471950 0.864172
v -7.549281 25.931395 9.045150
vt 0.308719 0.923787
vn -0.024399 -0.019332 0.999515
v -7.511438 25.805624 9.009997
vt 0.308392 0.912163
vn 0.096436 -0.486097 0.868568
v -7.483746 25.713581 8.913960
vt 0.307741 0.900244
vn 0.185857 -0.844623 0.502065
v -7.600201 25.704556 8.896212
vt 0.295867 0.902349
vn -0.194796 -0.889897 0.412479
v -8.413780 28.342804 9.009114
vt 0.299174 1.144739
vn -0.489242 -0.136798 0.861353
v -8.429290 28.456448 8.989589
vt 0.300145 1.154945
vn -0.516966 0.280125 0.808874
v -8.520078 28.431862 8.893478
vt 0.287942 1.155722
vn -0.896582 0.165743 0.410695
v -8.506414 28.317352 8.910629
vt 0.287284 1.145117
vn -0.835446 -0.240980 0.493922
v -7.769969 25.876280 8.913960
vt 0.285302 0.924715
vn -0.827309 -0.259018 0.498467
v -7.676715 25.899595 9.009997
vt 0.297069 0.924358
vn -0.475189 -0.153139 0.866455
v -7.626865 25.794954 8.990292
vt 0.298421 0.914291
vn -0.293000 -0.515361 0.805329
v -7.718161 25.771620 8.896203
vt 0.286340 0.912772
vn -0.665047 -0.622582 0.412438
v -7.116531 28.766027 -8.959025
vt 0.610819 0.681946
vn 0.569472 0.529462 -0.628786
v -6.997935 28.705713 -8.834858
vt 0.600667 0.688132
vn 0.740191 0.478987 -0.471898
v -7.018601 28.788746 -8.740642
vt 0.603817 0.695827
vn 0.656441 0.710169 -0.254452
v -7.138858 28.856129 -8.863363
vt 0.613035 0.689669
vn 0.480600 0.795801 -0.368409
v -7.026165 28.819138 -8.612019
vt 0.605372 0.704082
vn 0.501534 0.865138 -0.000612
v -7.260995 28.865980 -8.914121
vt 0.619839 0.687238
vn -0.164922 0.848714 -0.502478
v -7.236510 28.773193 -9.010206
vt 0.619427 0.679643
vn -0.075342 0.498103 -0.863838
v -8.325170 28.502247 -9.010206
vt 0.682472 0.679509
vn -0.143021 0.484989 -0.862746
v -7.145805 28.888397 -8.731672
vt 0.613054 0.697449
vn 0.225773 0.974178 -0.001882
v -7.026199 28.819115 8.611776
vt 0.605301 1.659916
vn 0.501535 0.865137 0.000615
v -7.272743 28.899244 -8.782944
vt 0.620123 0.694618
vn -0.216448 0.976292 -0.002081
v -8.353029 28.594200 -8.914121
vt 0.682515 0.687162
vn -0.230766 0.836765 -0.496559
v -7.145830 28.888401 8.731483
vt 0.612982 1.666554
vn 0.225748 0.974184 0.001884
v -7.018609 28.788719 8.740412
vt 0.603743 1.668174
vn 0.656590 0.709993 0.254557
v -7.272768 28.899250 8.782770
vt 0.620051 1.669387
vn -0.216450 0.976291 0.002083
v -7.138869 28.856098 8.863188
vt 0.612961 1.674336
vn 0.480759 0.795593 0.368651
v -6.997928 28.705616 8.834579
vt 0.600587 1.675869
vn 0.740311 0.478565 0.472140
v -7.116521 28.765919 8.958800
vt 0.610742 1.682061
vn 0.569651 0.528962 0.629044
v -7.236491 28.773079 9.009997
vt 0.619352 1.684365
vn -0.075156 0.497372 0.864276
v -7.261003 28.865946 8.913960
vt 0.619765 1.676768
vn -0.164850 0.848481 0.502895
v -8.363276 28.627840 -8.782944
vt 0.682475 0.694619
vn -0.269218 0.963077 -0.001919
v -8.456431 28.547827 -8.896238
vt 0.688846 0.688223
vn -0.607771 0.674683 -0.418828
v -8.429761 28.457661 -8.990468
vt 0.690117 0.680428
vn -0.506233 0.288179 -0.812823
v -8.520872 28.434399 -8.896317
vt 0.696456 0.686872
vn -0.890651 0.177050 -0.418801
v -8.479197 28.562395 -8.782820
vt 0.689857 0.694618
vn -0.710097 0.704102 -0.001445
v -8.545025 28.446522 -8.782880
vt 0.697253 0.694599
vn -0.971110 0.238630 -0.001411
v -8.544085 28.443317 8.778087
vt 0.697284 1.669161
vn -0.970419 0.241422 0.001587
v -8.352872 28.594206 8.913960
vt 0.682433 1.676849
vn -0.231671 0.836248 0.497008
v -8.324987 28.502176 9.009997
vt 0.682396 1.684502
vn -0.143795 0.484027 0.863157
v -8.429290 28.456448 8.989589
vt 0.690088 1.683569
vn -0.516966 0.280125 0.808874
v -8.363134 28.627874 8.782771
vt 0.682392 1.669394
vn -0.268978 0.963144 0.001930
v -8.478922 28.561510 8.780548
vt 0.689790 1.669281
vn -0.708041 0.706169 0.001566
v -8.456131 28.547150 8.894902
vt 0.688770 1.675731
vn -0.618620 0.666827 0.415514
v -8.520078 28.431862 8.893478
vt 0.696481 1.677020
vn -0.896582 0.165743 0.410695
# Faces (17 to 132)
g VinylEnd6_1
f -114/-114/-114 -115/-115/-115 -116/-116/-116
f -113/-113/-113 -114/-114/-114 -116/-116/-116
f -113/-113/-113 -116/-116/-116 -112/-112/-112
f -113/-113/-113 -111/-111/-111 -114/-114/-114
f -111/-111/-111 -110/-110/-110 -114/-114/-114
f -110/-110/-110 -111/-111/-111 -109/-109/-109
f -108/-108/-108 -113/-113/-113 -112/-112/-112
f -108/-108/-108 -112/-112/-112 -107/-107/-107
f -111/-111/-111 -106/-106/-106 -109/-109/-109
f -105/-105/-105 -109/-109/-109 -106/-106/-106
f -104/-104/-104 -105/-105/-105 -106/-106/-106
f -103/-103/-103 -111/-111/-111 -113/-113/-113
f -108/-108/-108 -103/-103/-103 -113/-113/-113
f -102/-102/-102 -106/-106/-106 -111/-111/-111
f -102/-102/-102 -104/-104/-104 -106/-106/-106
f -103/-103/-103 -102/-102/-102 -111/-111/-111
f -101/-101/-101 -103/-103/-103 -108/-108/-108
f -103/-103/-103 -101/-101/-101 -102/-102/-102
f -102/-102/-102 -100/-100/-100 -104/-104/-104
f -101/-101/-101 -100/-100/-100 -102/-102/-102
f -100/-100/-100 -99/-99/-99 -104/-104/-104
f -98/-98/-98 -99/-99/-99 -100/-100/-100
f -97/-97/-97 -108/-108/-108 -107/-107/-107
f -97/-97/-97 -101/-101/-101 -108/-108/-108
f -96/-96/-96 -100/-100/-100 -101/-101/-101
f -96/-96/-96 -98/-98/-98 -100/-100/-100
f -95/-95/-95 -97/-97/-97 -107/-107/-107
f -94/-94/-94 -95/-95/-95 -107/-107/-107
f -94/-94/-94 -93/-93/-93 -95/-95/-95
f -93/-93/-93 -92/-92/-92 -95/-95/-95
f -91/-91/-91 -101/-101/-101 -97/-97/-97
f -95/-95/-95 -91/-91/-91 -97/-97/-97
f -95/-95/-95 -92/-92/-92 -91/-91/-91
f -91/-91/-91 -96/-96/-96 -101/-101/-101
f -92/-92/-92 -90/-90/-90 -91/-91/-91
f -91/-91/-91 -90/-90/-90 -96/-96/-96
f -90/-90/-90 -89/-89/-89 -96/-96/-96
f -96/-96/-96 -89/-89/-89 -98/-98/-98
f -89/-89/-89 -88/-88/-88 -98/-98/-98
f -85/-85/-85 -86/-86/-86 -87/-87/-87
f -84/-84/-84 -85/-85/-85 -87/-87/-87
f -84/-84/-84 -87/-87/-87 -83/-83/-83
f -85/-85/-85 -84/-84/-84 -82/-82/-82
f -81/-81/-81 -85/-85/-85 -82/-82/-82
f -81/-81/-81 -82/-82/-82 -80/-80/-80
f -82/-82/-82 -79/-79/-79 -80/-80/-80
f -78/-78/-78 -79/-79/-79 -82/-82/-82
f -77/-77/-77 -84/-84/-84 -83/-83/-83
f -83/-83/-83 -76/-76/-76 -77/-77/-77
f -82/-82/-82 -84/-84/-84 -75/-75/-75
f -75/-75/-75 -78/-78/-78 -82/-82/-82
f -84/-84/-84 -77/-77/-77 -75/-75/-75
f -76/-76/-76 -74/-74/-74 -77/-77/-77
f -75/-75/-75 -77/-77/-77 -74/-74/-74
f -75/-75/-75 -73/-73/-73 -78/-78/-78
f -73/-73/-73 -75/-75/-75 -74/-74/-74
f -73/-73/-73 -72/-72/-72 -78/-78/-78
f -71/-71/-71 -72/-72/-72 -73/-73/-73
f -70/-70/-70 -74/-74/-74 -76/-76/-76
f -69/-69/-69 -70/-70/-70 -76/-76/-76
f -69/-69/-69 -68/-68/-68 -70/-70/-70
f -68/-68/-68 -67/-67/-67 -70/-70/-70
f -73/-73/-73 -74/-74/-74 -66/-66/-66
f -74/-74/-74 -70/-70/-70 -66/-66/-66
f -70/-70/-70 -67/-67/-67 -66/-66/-66
f -66/-66/-66 -71/-71/-71 -73/-73/-73
f -67/-67/-67 -65/-65/-65 -66/-66/-66
f -66/-66/-66 -65/-65/-65 -71/-71/-71
f -65/-65/-65 -64/-64/-64 -71/-71/-71
f -61/-61/-61 -62/-62/-62 -63/-63/-63
f -60/-60/-60 -61/-61/-61 -63/-63/-63
f -59/-59/-59 -61/-61/-61 -60/-60/-60
f -60/-60/-60 -63/-63/-63 -58/-58/-58
f -63/-63/-63 -57/-57/-57 -58/-58/-58
f -58/-58/-58 -57/-57/-57 -56/-56/-56
f -55/-55/-55 -59/-59/-59 -60/-60/-60
f -54/-54/-54 -59/-59/-59 -55/-55/-55
f -58/-58/-58 -53/-53/-53 -60/-60/-60
f -53/-53/-53 -55/-55/-55 -60/-60/-60
f -52/-52/-52 -58/-58/-58 -56/-56/-56
f -53/-53/-53 -58/-58/-58 -52/-52/-52
f -51/-51/-51 -54/-54/-54 -55/-55/-55
f -50/-50/-50 -54/-54/-54 -51/-51/-51
f -49/-49/-49 -50/-50/-50 -51/-51/-51
f -49/-49/-49 -51/-51/-51 -48/-48/-48
f -51/-51/-51 -55/-55/-55 -47/-47/-47
f -55/-55/-55 -53/-53/-53 -47/-47/-47
f -51/-51/-51 -47/-47/-47 -48/-48/-48
f -47/-47/-47 -53/-53/-53 -46/-46/-46
f -46/-46/-46 -53/-53/-53 -52/-52/-52
f -48/-48/-48 -47/-47/-47 -45/-45/-45
f -45/-45/-45 -47/-47/-47 -46/-46/-46
f -44/-44/-44 -48/-48/-48 -45/-45/-45
f -44/-44/-44 -45/-45/-45 -43/-43/-43
f -52/-52/-52 -56/-56/-56 -42/-42/-42
f -56/-56/-56 -41/-41/-41 -42/-42/-42
f -42/-42/-42 -41/-41/-41 -40/-40/-40
f -39/-39/-39 -42/-42/-42 -40/-40/-40
f -39/-39/-39 -38/-38/-38 -42/-42/-42
f -37/-37/-37 -46/-46/-46 -52/-52/-52
f -42/-42/-42 -37/-37/-37 -52/-52/-52
f -46/-46/-46 -37/-37/-37 -45/-45/-45
f -38/-38/-38 -37/-37/-37 -42/-42/-42
f -45/-45/-45 -36/-36/-36 -43/-43/-43
f -37/-37/-37 -36/-36/-36 -45/-45/-45
f -37/-37/-37 -38/-38/-38 -36/-36/-36
f -36/-36/-36 -35/-35/-35 -43/-43/-43
f -38/-38/-38 -35/-35/-35 -36/-36/-36
f -32/-32/-32 -33/-33/-33 -34/-34/-34
f -31/-31/-31 -32/-32/-32 -34/-34/-34
f -30/-30/-30 -32/-32/-32 -31/-31/-31
f -31/-31/-31 -34/-34/-34 -29/-29/-29
f -34/-34/-34 -28/-28/-28 -29/-29/-29
f -28/-28/-28 -27/-27/-27 -29/-29/-29
f -26/-26/-26 -30/-30/-30 -31/-31/-31
f -25/-25/-25 -30/-30/-30 -26/-26/-26
f -29/-29/-29 -24/-24/-24 -31/-31/-31
f -24/-24/-24 -26/-26/-26 -31/-31/-31
f -27/-27/-27 -23/-23/-23 -29/-29/-29
f -29/-29/-29 -23/-23/-23 -24/-24/-24
f -22/-22/-22 -25/-25/-25 -26/-26/-26
f -21/-21/-21 -25/-25/-25 -22/-22/-22
f -26/-26/-26 -24/-24/-24 -20/-20/-20
f -22/-22/-22 -26/-26/-26 -20/-20/-20
f -19/-19/-19 -21/-21/-21 -22/-22/-22
f -18/-18/-18 -21/-21/-21 -19/-19/-19
f -17/-17/-17 -18/-18/-18 -19/-19/-19
f -17/-17/-17 -19/-19/-19 -16/-16/-16
f -19/-19/-19 -22/-22/-22 -15/-15/-15
f -19/-19/-19 -15/-15/-15 -16/-16/-16
f -22/-22/-22 -20/-20/-20 -15/-15/-15
f -24/-24/-24 -14/-14/-14 -20/-20/-20
f -23/-23/-23 -14/-14/-14 -24/-24/-24
f -23/-23/-23 -27/-27/-27 -13/-13/-13
f -27/-27/-27 -12/-12/-12 -13/-13/-13
f -12/-12/-12 -11/-11/-11 -13/-13/-13
f -23/-23/-23 -13/-13/-13 -10/-10/-10
f -10/-10/-10 -13/-13/-13 -11/-11/-11
f -14/-14/-14 -23/-23/-23 -10/-10/-10
f -9/-9/-9 -10/-10/-10 -11/-11/-11
f -9/-9/-9 -8/-8/-8 -10/-10/-10
f -16/-16/-16 -15/-15/-15 -7/-7/-7
f -6/-6/-6 -16/-16/-16 -7/-7/-7
f -6/-6/-6 -7/-7/-7 -5/-5/-5
f -15/-15/-15 -20/-20/-20 -4/-4/-4
f -14/-14/-14 -4/-4/-4 -20/-20/-20
f -7/-7/-7 -15/-15/-15 -4/-4/-4
f -10/-10/-10 -3/-3/-3 -14/-14/-14
f -3/-3/-3 -4/-4/-4 -14/-14/-14
f -8/-8/-8 -3/-3/-3 -10/-10/-10
f -4/-4/-4 -3/-3/-3 -7/-7/-7
f -7/-7/-7 -2/-2/-2 -5/-5/-5
f -3/-3/-3 -2/-2/-2 -7/-7/-7
f -3/-3/-3 -8/-8/-8 -2/-2/-2
f -2/-2/-2 -1/-1/-1 -5/-5/-5
f -8/-8/-8 -1/-1/-1 -2/-2/-2

