# Mesh "VinylEnd3" exported with Unity Assets Bundle Extractor; 132 vertices, 522 indices, 384 bits per vertex
g VinylEnd3
# SubMesh 0
# Vertices
v -5.771818 29.003309 -8.914304
vt 0.365083 0.519222
vn -0.850927 -0.158849 -0.500690
v -5.774105 29.116661 -8.896317
vt 0.365355 0.520975
vn -0.869737 0.261074 -0.418806
v -5.796993 29.131029 -8.782880
vt 0.367138 0.521186
vn -0.943967 0.330038 -0.001411
v -5.806601 28.998125 -8.783109
vt 0.367135 0.519242
vn -0.983034 -0.183410 -0.001941
v -5.269368 26.494499 -8.920814
vt 0.364984 0.480512
vn -0.844217 -0.177759 -0.505667
v -5.805319 28.991577 8.776085
vt 0.632713 0.519140
vn -0.983057 -0.183291 0.001957
v -5.796362 29.127750 8.778087
vt 0.632744 0.521204
vn -0.943013 0.332752 0.001587
v -5.303831 26.487230 -8.792720
vt 0.366992 0.480513
vn -0.977934 -0.208903 -0.001971
v -5.770860 28.998772 8.910629
vt 0.634819 0.519151
vn -0.854601 -0.160312 0.493921
v -5.773555 29.114061 8.893478
vt 0.634587 0.520961
vn -0.876707 0.250403 0.410711
v -5.305051 26.493315 8.782770
vt 0.632818 0.480607
vn -0.977917 -0.208987 0.001981
v -5.270264 26.498638 8.913960
vt 0.634873 0.480576
vn -0.848218 -0.179050 0.498465
v -5.244745 26.368864 8.782898
vt 0.632820 0.478515
vn -0.758434 -0.651748 0.001558
v -5.228640 26.389538 8.896203
vt 0.634632 0.478742
vn -0.721285 -0.556469 0.412420
v -5.244133 26.365831 -8.790992
vt 0.367018 0.478467
vn -0.759939 -0.649992 -0.001408
v -5.228110 26.387186 -8.902481
vt 0.365249 0.478715
vn -0.711571 -0.562513 -0.421006
# Faces (1 to 16)
g VinylEnd3_0
f -14/-14/-14 -15/-15/-15 -16/-16/-16
f -13/-13/-13 -14/-14/-14 -16/-16/-16
f -16/-16/-16 -12/-12/-12 -13/-13/-13
f -13/-13/-13 -11/-11/-11 -14/-14/-14
f -11/-11/-11 -10/-10/-10 -14/-14/-14
f -12/-12/-12 -9/-9/-9 -13/-13/-13
f -13/-13/-13 -9/-9/-9 -11/-11/-11
f -11/-11/-11 -8/-8/-8 -10/-10/-10
f -8/-8/-8 -7/-7/-7 -10/-10/-10
f -11/-11/-11 -6/-6/-6 -8/-8/-8
f -9/-9/-9 -6/-6/-6 -11/-11/-11
f -6/-6/-6 -5/-5/-5 -8/-8/-8
f -6/-6/-6 -4/-4/-4 -5/-5/-5
f -6/-6/-6 -9/-9/-9 -4/-4/-4
f -4/-4/-4 -3/-3/-3 -5/-5/-5
f -9/-9/-9 -2/-2/-2 -4/-4/-4
f -9/-9/-9 -12/-12/-12 -2/-2/-2
f -12/-12/-12 -1/-1/-1 -2/-2/-2

# SubMesh 1
# Vertices
v -5.681192 29.131140 -8.990468
vt 0.270230 0.975887
vn -0.476491 0.335080 -0.812821
v -5.774105 29.116661 -8.896317
vt 0.284785 0.977416
vn -0.869737 0.261074 -0.418806
v -5.771818 29.003309 -8.914304
vt 0.283103 0.965122
vn -0.850927 -0.158849 -0.500690
v -5.676771 29.017481 -9.010344
vt 0.271076 0.964684
vn -0.493506 -0.087120 -0.865368
v -5.572830 29.165564 -9.010206
vt 0.259058 0.976217
vn -0.096183 0.496407 -0.862745
v -5.174691 26.511145 -9.014577
vt 0.272497 0.738932
vn -0.480888 -0.104787 -0.870498
v -5.269368 26.494499 -8.920814
vt 0.284387 0.739057
vn -0.844217 -0.177759 -0.505667
v -5.228110 26.387186 -8.902481
vt 0.283290 0.726996
vn -0.711571 -0.562513 -0.421006
v -5.546945 29.036846 -9.045498
vt 0.259080 0.964039
vn -0.032184 0.009271 -0.999439
v -4.463314 29.331596 -9.010206
vt 0.159719 0.970368
vn -0.027562 0.503016 -0.863838
v -5.135154 26.403093 -8.994806
vt 0.271069 0.728727
vn -0.328706 -0.485674 -0.809984
v -5.117359 26.310946 -8.901241
vt 0.273545 0.716566
vn -0.266702 -0.869157 -0.416457
v -5.000683 26.309462 -8.917879
vt 0.261495 0.714485
vn 0.105564 -0.858171 -0.502393
v -5.045170 26.532700 -9.048881
vt 0.260598 0.738563
vn -0.025872 -0.015511 -0.999545
v -5.019444 26.403818 -9.013868
vt 0.260886 0.726670
vn 0.050618 -0.492069 -0.869083
v -4.067981 26.678930 -9.048881
vt 0.173779 0.733809
vn 0.037089 -0.006034 -0.999294
v -4.049118 26.549040 -9.013868
vt 0.174130 0.722144
vn 0.128704 -0.485643 -0.864630
v -4.034830 26.453997 -8.917879
vt 0.173972 0.710059
vn 0.184069 -0.845724 -0.500868
v -3.930957 26.520405 -8.872396
vt 0.159464 0.713114
vn 0.812525 -0.477633 -0.334171
v -4.445111 29.201729 -9.045498
vt 0.160781 0.958360
vn 0.035563 0.020983 -0.999147
v -3.944197 26.613787 -8.967001
vt 0.163046 0.725156
vn 0.768597 -0.241975 -0.592204
v -4.324758 29.186882 -8.992975
vt 0.149677 0.954884
vn 0.579259 0.099495 -0.809049
v -4.344563 29.313036 -8.959025
vt 0.147642 0.966611
vn 0.617303 0.472815 -0.628794
v -4.232250 29.241701 -8.834858
vt 0.133163 0.958227
vn 0.782439 0.406316 -0.471908
v -4.214943 29.126064 -8.869461
vt 0.136017 0.947416
vn 0.770684 0.122203 -0.625389
v -3.960169 26.744492 -8.997432
vt 0.162425 0.737316
vn 0.565253 0.073600 -0.821627
v -3.878322 26.876507 -8.872780
vt 0.147546 0.746756
vn 0.772683 0.111658 -0.624894
v -3.861003 26.760761 -8.838449
vt 0.145961 0.734842
vn 0.890995 -0.119837 -0.437911
v -3.848323 26.676004 -8.744326
vt 0.139983 0.723444
vn 0.924655 -0.308173 -0.223699
v -5.117359 26.310946 -8.901241
vt 0.709052 0.665574
vn -0.266702 -0.869157 -0.416457
v -5.228110 26.387186 -8.902481
vt 0.701133 0.665274
vn -0.711571 -0.562513 -0.421006
v -5.244133 26.365831 -8.790992
vt 0.700874 0.672035
vn -0.759939 -0.649992 -0.001408
v -5.131333 26.288576 -8.788792
vt 0.708540 0.672161
vn -0.348616 -0.937265 -0.001429
v -5.000683 26.309462 -8.917879
vt 0.716092 0.664617
vn 0.105564 -0.858171 -0.502393
v -5.131576 26.289379 8.782899
vt 0.708735 1.657244
vn -0.346385 -0.938091 0.001525
v -5.244745 26.368864 8.782898
vt 0.700982 1.657251
vn -0.758434 -0.651748 0.001558
v -5.228640 26.389538 8.896203
vt 0.701258 1.664095
vn -0.721285 -0.556469 0.412420
v -5.117603 26.311544 8.896212
vt 0.709247 1.663859
vn -0.278773 -0.867282 0.412441
v -5.000855 26.309399 8.913960
vt 0.716292 1.664860
vn 0.104566 -0.858486 0.502063
v -4.993871 26.274900 -8.786676
vt 0.716282 0.672279
vn 0.117153 -0.993112 -0.001932
v -4.034830 26.453997 -8.917879
vt 0.771088 0.664631
vn 0.184069 -0.845724 -0.500868
v -4.994043 26.274874 8.782771
vt 0.716484 1.657234
vn 0.117389 -0.993084 0.001939
v -4.029951 26.419142 -8.786676
vt 0.770926 0.672277
vn 0.186947 -0.982368 -0.002058
v -4.029949 26.419144 8.782770
vt 0.770902 1.657237
vn 0.186947 -0.982368 0.002056
v -4.034829 26.453960 8.913960
vt 0.771067 1.664854
vn 0.184081 -0.845929 0.500518
v -3.930955 26.520372 8.868480
vt 0.778788 1.662440
vn 0.812535 -0.477788 0.333924
v -3.924223 26.489813 -8.739295
vt 0.778052 0.674930
vn 0.712574 -0.701595 -0.001675
v -3.930957 26.520405 -8.872396
vt 0.778818 0.667059
vn 0.812525 -0.477633 -0.334171
v -3.848323 26.676004 -8.744326
vt 0.789392 0.674287
vn 0.924655 -0.308173 -0.223699
v -3.843678 26.644970 -8.615678
vt 0.787856 0.681857
vn 0.887722 -0.460380 -0.000589
v -3.924221 26.489815 8.735388
vt 0.778028 1.654583
vn 0.712573 -0.701596 0.001674
v -3.843678 26.644968 8.611775
vt 0.787833 1.647657
vn 0.887722 -0.460380 0.000588
v -3.848318 26.675972 8.740412
vt 0.789379 1.655222
vn 0.924645 -0.308326 0.223535
v -4.344563 29.312929 8.958800
vt 0.420031 1.146457
vn 0.617418 0.472278 0.629085
v -4.232253 29.241604 8.834579
vt 0.434190 1.138199
vn 0.782527 0.405884 0.472134
v -4.214901 29.125946 8.869047
vt 0.431372 1.127584
vn 0.770878 0.121343 0.625318
v -4.324753 29.186722 8.992610
vt 0.418041 1.134953
vn 0.579446 0.098426 0.809046
v -3.878299 26.876354 8.869048
vt 0.419348 0.931385
vn 0.772890 0.110798 0.624792
v -4.445110 29.201551 9.045149
vt 0.407195 1.138391
vn 0.035753 0.019683 0.999167
v -4.463306 29.331480 9.009997
vt 0.408255 1.150136
vn -0.027437 0.502265 0.864278
v -5.572655 29.165476 9.009997
vt 0.310879 1.156061
vn -0.097047 0.495503 0.863168
v -3.960159 26.744303 8.993722
vt 0.404752 0.922216
vn 0.565636 0.072546 0.821458
v -3.860986 26.760662 8.834579
vt 0.420830 0.919738
vn 0.891117 -0.120225 0.437557
v -4.067956 26.678755 9.045150
vt 0.393635 0.918831
vn 0.037303 -0.007331 0.999277
v -5.546765 29.036703 9.045149
vt 0.310889 1.144226
vn -0.032482 0.007901 0.999441
v -3.944185 26.613672 8.963137
vt 0.404089 0.910330
vn 0.768755 -0.242442 0.591809
v -3.848318 26.675972 8.740412
vt 0.426645 0.908560
vn 0.924645 -0.308326 0.223535
v -3.930955 26.520372 8.868480
vt 0.407537 0.898536
vn 0.812535 -0.477788 0.333924
v -4.034829 26.453960 8.913960
vt 0.393347 0.895602
vn 0.184081 -0.845929 0.500518
v -4.049099 26.548925 9.009996
vt 0.393243 0.907432
vn 0.128814 -0.486404 0.864187
v -5.045311 26.532503 9.045150
vt 0.308719 0.923787
vn -0.026129 -0.016921 0.999515
v -5.019619 26.403700 9.009997
vt 0.308392 0.912163
vn 0.049705 -0.493060 0.868575
v -5.000855 26.309399 8.913960
vt 0.307741 0.900244
vn 0.104566 -0.858486 0.502063
v -5.117603 26.311544 8.896212
vt 0.295867 0.902349
vn -0.278773 -0.867282 0.412441
v -5.676223 29.015284 9.009114
vt 0.299174 1.144739
vn -0.500029 -0.089572 0.861364
v -5.680839 29.129890 8.989554
vt 0.300145 1.154945
vn -0.487970 0.328108 0.808845
v -5.773555 29.114061 8.893478
vt 0.287942 1.155722
vn -0.876707 0.250403 0.410711
v -5.770860 28.998772 8.910629
vt 0.287284 1.145117
vn -0.854601 -0.160312 0.493921
v -5.270264 26.498638 8.913960
vt 0.285302 0.924715
vn -0.848218 -0.179050 0.498465
v -5.175195 26.512983 9.009997
vt 0.297069 0.924358
vn -0.487603 -0.107184 0.866461
v -5.135537 26.404072 8.990292
vt 0.298421 0.914291
vn -0.340768 -0.485089 0.805336
v -5.228640 26.389538 8.896203
vt 0.286340 0.912772
vn -0.721285 -0.556469 0.412420
v -4.344563 29.313036 -8.959025
vt 0.610819 0.681946
vn 0.617303 0.472815 -0.628794
v -4.232250 29.241701 -8.834858
vt 0.600667 0.688132
vn 0.782439 0.406316 -0.471908
v -4.244897 29.326307 -8.740642
vt 0.603817 0.695827
vn 0.721114 0.644436 -0.254357
v -4.358207 29.404856 -8.863363
vt 0.613035 0.689669
vn 0.554213 0.746420 -0.368383
v -4.249587 29.357262 -8.612019
vt 0.605372 0.704082
vn 0.581798 0.813333 -0.000613
v -4.478851 29.426294 -8.914121
vt 0.619839 0.687238
vn -0.083352 0.860590 -0.502432
v -4.463314 29.331596 -9.010206
vt 0.619427 0.679643
vn -0.027562 0.503016 -0.863838
v -5.572830 29.165564 -9.010206
vt 0.682472 0.679509
vn -0.096183 0.496407 -0.862745
v -4.362050 29.437637 -8.731672
vt 0.613054 0.697449
vn 0.317573 0.948232 -0.001881
v -4.249586 29.357281 8.611776
vt 0.605301 1.659916
vn 0.581798 0.813333 0.000613
v -4.487378 29.460526 -8.782944
vt 0.620123 0.694618
vn -0.122498 0.992467 -0.002081
v -5.591805 29.259752 -8.914121
vt 0.682515 0.687162
vn -0.150029 0.854979 -0.496491
v -4.362075 29.437645 8.731483
vt 0.612982 1.666554
vn 0.317551 0.948239 0.001883
v -4.244925 29.326300 8.740412
vt 0.603743 1.668174
vn 0.721224 0.644233 0.254558
v -4.487402 29.460533 8.782770
vt 0.620051 1.669387
vn -0.122500 0.992466 0.002082
v -4.358222 29.404825 8.863188
vt 0.612961 1.674336
vn 0.554347 0.746191 0.368644
v -4.232253 29.241604 8.834579
vt 0.600587 1.675869
vn 0.782527 0.405884 0.472134
v -4.344563 29.312929 8.958800
vt 0.610742 1.682061
vn 0.617418 0.472278 0.629085
v -4.463306 29.331480 9.009997
vt 0.619352 1.684365
vn -0.027437 0.502265 0.864278
v -4.478862 29.426260 8.913960
vt 0.619765 1.676768
vn -0.083295 0.860332 0.502882
v -5.598840 29.294176 -8.782944
vt 0.682475 0.694619
vn -0.176273 0.984339 -0.001919
v -5.699153 29.223436 -8.896238
vt 0.688846 0.688223
vn -0.540751 0.729508 -0.418816
v -5.681192 29.131140 -8.990468
vt 0.690117 0.680428
vn -0.476491 0.335080 -0.812821
v -5.774105 29.116661 -8.896317
vt 0.696456 0.686872
vn -0.869737 0.261074 -0.418806
v -5.720428 29.240108 -8.782820
vt 0.689857 0.694618
vn -0.639804 0.768536 -0.001445
v -5.796993 29.131029 -8.782880
vt 0.697253 0.694599
vn -0.943967 0.330038 -0.001411
v -5.796362 29.127750 8.778087
vt 0.697284 1.669161
vn -0.943013 0.332752 0.001587
v -5.591648 29.259743 8.913960
vt 0.682433 1.676849
vn -0.150982 0.854517 0.496996
v -5.572655 29.165476 9.009997
vt 0.682396 1.684502
vn -0.097047 0.495503 0.863168
v -5.680839 29.129890 8.989554
vt 0.690088 1.683569
vn -0.487970 0.328108 0.808845
v -5.598658 29.294235 8.782771
vt 0.682392 1.669394
vn -0.176028 0.984383 0.001929
v -5.720239 29.239199 8.780548
vt 0.689790 1.669281
vn -0.637561 0.770398 0.001566
v -5.698919 29.222734 8.894902
vt 0.688770 1.675731
vn -0.552315 0.722693 0.415528
v -5.773555 29.114061 8.893478
vt 0.696481 1.677020
vn -0.876707 0.250403 0.410711
# Faces (17 to 132)
g VinylEnd3_1
f -114/-114/-114 -115/-115/-115 -116/-116/-116
f -113/-113/-113 -114/-114/-114 -116/-116/-116
f -113/-113/-113 -116/-116/-116 -112/-112/-112
f -113/-113/-113 -111/-111/-111 -114/-114/-114
f -111/-111/-111 -110/-110/-110 -114/-114/-114
f -110/-110/-110 -111/-111/-111 -109/-109/-109
f -108/-108/-108 -113/-113/-113 -112/-112/-112
f -108/-108/-108 -112/-112/-112 -107/-107/-107
f -111/-111/-111 -106/-106/-106 -109/-109/-109
f -105/-105/-105 -109/-109/-109 -106/-106/-106
f -104/-104/-104 -105/-105/-105 -106/-106/-106
f -103/-103/-103 -111/-111/-111 -113/-113/-113
f -108/-108/-108 -103/-103/-103 -113/-113/-113
f -102/-102/-102 -106/-106/-106 -111/-111/-111
f -102/-102/-102 -104/-104/-104 -106/-106/-106
f -103/-103/-103 -102/-102/-102 -111/-111/-111
f -101/-101/-101 -103/-103/-103 -108/-108/-108
f -103/-103/-103 -101/-101/-101 -102/-102/-102
f -102/-102/-102 -100/-100/-100 -104/-104/-104
f -101/-101/-101 -100/-100/-100 -102/-102/-102
f -100/-100/-100 -99/-99/-99 -104/-104/-104
f -98/-98/-98 -99/-99/-99 -100/-100/-100
f -97/-97/-97 -108/-108/-108 -107/-107/-107
f -97/-97/-97 -101/-101/-101 -108/-108/-108
f -96/-96/-96 -100/-100/-100 -101/-101/-101
f -96/-96/-96 -98/-98/-98 -100/-100/-100
f -95/-95/-95 -97/-97/-97 -107/-107/-107
f -94/-94/-94 -95/-95/-95 -107/-107/-107
f -94/-94/-94 -93/-93/-93 -95/-95/-95
f -93/-93/-93 -92/-92/-92 -95/-95/-95
f -91/-91/-91 -101/-101/-101 -97/-97/-97
f -95/-95/-95 -91/-91/-91 -97/-97/-97
f -95/-95/-95 -92/-92/-92 -91/-91/-91
f -91/-91/-91 -96/-96/-96 -101/-101/-101
f -92/-92/-92 -90/-90/-90 -91/-91/-91
f -91/-91/-91 -90/-90/-90 -96/-96/-96
f -90/-90/-90 -89/-89/-89 -96/-96/-96
f -96/-96/-96 -89/-89/-89 -98/-98/-98
f -89/-89/-89 -88/-88/-88 -98/-98/-98
f -85/-85/-85 -86/-86/-86 -87/-87/-87
f -84/-84/-84 -85/-85/-85 -87/-87/-87
f -84/-84/-84 -87/-87/-87 -83/-83/-83
f -85/-85/-85 -84/-84/-84 -82/-82/-82
f -81/-81/-81 -85/-85/-85 -82/-82/-82
f -81/-81/-81 -82/-82/-82 -80/-80/-80
f -82/-82/-82 -79/-79/-79 -80/-80/-80
f -78/-78/-78 -79/-79/-79 -82/-82/-82
f -77/-77/-77 -84/-84/-84 -83/-83/-83
f -83/-83/-83 -76/-76/-76 -77/-77/-77
f -82/-82/-82 -84/-84/-84 -75/-75/-75
f -75/-75/-75 -78/-78/-78 -82/-82/-82
f -84/-84/-84 -77/-77/-77 -75/-75/-75
f -76/-76/-76 -74/-74/-74 -77/-77/-77
f -75/-75/-75 -77/-77/-77 -74/-74/-74
f -75/-75/-75 -73/-73/-73 -78/-78/-78
f -73/-73/-73 -75/-75/-75 -74/-74/-74
f -73/-73/-73 -72/-72/-72 -78/-78/-78
f -71/-71/-71 -72/-72/-72 -73/-73/-73
f -70/-70/-70 -74/-74/-74 -76/-76/-76
f -69/-69/-69 -70/-70/-70 -76/-76/-76
f -69/-69/-69 -68/-68/-68 -70/-70/-70
f -68/-68/-68 -67/-67/-67 -70/-70/-70
f -73/-73/-73 -74/-74/-74 -66/-66/-66
f -74/-74/-74 -70/-70/-70 -66/-66/-66
f -70/-70/-70 -67/-67/-67 -66/-66/-66
f -66/-66/-66 -71/-71/-71 -73/-73/-73
f -67/-67/-67 -65/-65/-65 -66/-66/-66
f -66/-66/-66 -65/-65/-65 -71/-71/-71
f -65/-65/-65 -64/-64/-64 -71/-71/-71
f -61/-61/-61 -62/-62/-62 -63/-63/-63
f -60/-60/-60 -61/-61/-61 -63/-63/-63
f -59/-59/-59 -61/-61/-61 -60/-60/-60
f -60/-60/-60 -63/-63/-63 -58/-58/-58
f -63/-63/-63 -57/-57/-57 -58/-58/-58
f -58/-58/-58 -57/-57/-57 -56/-56/-56
f -55/-55/-55 -59/-59/-59 -60/-60/-60
f -54/-54/-54 -59/-59/-59 -55/-55/-55
f -58/-58/-58 -53/-53/-53 -60/-60/-60
f -53/-53/-53 -55/-55/-55 -60/-60/-60
f -52/-52/-52 -58/-58/-58 -56/-56/-56
f -53/-53/-53 -58/-58/-58 -52/-52/-52
f -51/-51/-51 -54/-54/-54 -55/-55/-55
f -50/-50/-50 -54/-54/-54 -51/-51/-51
f -49/-49/-49 -50/-50/-50 -51/-51/-51
f -49/-49/-49 -51/-51/-51 -48/-48/-48
f -51/-51/-51 -55/-55/-55 -47/-47/-47
f -55/-55/-55 -53/-53/-53 -47/-47/-47
f -51/-51/-51 -47/-47/-47 -48/-48/-48
f -47/-47/-47 -53/-53/-53 -46/-46/-46
f -46/-46/-46 -53/-53/-53 -52/-52/-52
f -48/-48/-48 -47/-47/-47 -45/-45/-45
f -45/-45/-45 -47/-47/-47 -46/-46/-46
f -44/-44/-44 -48/-48/-48 -45/-45/-45
f -44/-44/-44 -45/-45/-45 -43/-43/-43
f -52/-52/-52 -56/-56/-56 -42/-42/-42
f -56/-56/-56 -41/-41/-41 -42/-42/-42
f -42/-42/-42 -41/-41/-41 -40/-40/-40
f -39/-39/-39 -42/-42/-42 -40/-40/-40
f -39/-39/-39 -38/-38/-38 -42/-42/-42
f -37/-37/-37 -46/-46/-46 -52/-52/-52
f -42/-42/-42 -37/-37/-37 -52/-52/-52
f -46/-46/-46 -37/-37/-37 -45/-45/-45
f -38/-38/-38 -37/-37/-37 -42/-42/-42
f -45/-45/-45 -36/-36/-36 -43/-43/-43
f -37/-37/-37 -36/-36/-36 -45/-45/-45
f -37/-37/-37 -38/-38/-38 -36/-36/-36
f -36/-36/-36 -35/-35/-35 -43/-43/-43
f -38/-38/-38 -35/-35/-35 -36/-36/-36
f -32/-32/-32 -33/-33/-33 -34/-34/-34
f -31/-31/-31 -32/-32/-32 -34/-34/-34
f -30/-30/-30 -32/-32/-32 -31/-31/-31
f -31/-31/-31 -34/-34/-34 -29/-29/-29
f -34/-34/-34 -28/-28/-28 -29/-29/-29
f -28/-28/-28 -27/-27/-27 -29/-29/-29
f -26/-26/-26 -30/-30/-30 -31/-31/-31
f -25/-25/-25 -30/-30/-30 -26/-26/-26
f -29/-29/-29 -24/-24/-24 -31/-31/-31
f -24/-24/-24 -26/-26/-26 -31/-31/-31
f -27/-27/-27 -23/-23/-23 -29/-29/-29
f -29/-29/-29 -23/-23/-23 -24/-24/-24
f -22/-22/-22 -25/-25/-25 -26/-26/-26
f -21/-21/-21 -25/-25/-25 -22/-22/-22
f -26/-26/-26 -24/-24/-24 -20/-20/-20
f -22/-22/-22 -26/-26/-26 -20/-20/-20
f -19/-19/-19 -21/-21/-21 -22/-22/-22
f -18/-18/-18 -21/-21/-21 -19/-19/-19
f -17/-17/-17 -18/-18/-18 -19/-19/-19
f -17/-17/-17 -19/-19/-19 -16/-16/-16
f -19/-19/-19 -22/-22/-22 -15/-15/-15
f -19/-19/-19 -15/-15/-15 -16/-16/-16
f -22/-22/-22 -20/-20/-20 -15/-15/-15
f -24/-24/-24 -14/-14/-14 -20/-20/-20
f -23/-23/-23 -14/-14/-14 -24/-24/-24
f -23/-23/-23 -27/-27/-27 -13/-13/-13
f -27/-27/-27 -12/-12/-12 -13/-13/-13
f -12/-12/-12 -11/-11/-11 -13/-13/-13
f -23/-23/-23 -13/-13/-13 -10/-10/-10
f -10/-10/-10 -13/-13/-13 -11/-11/-11
f -14/-14/-14 -23/-23/-23 -10/-10/-10
f -9/-9/-9 -10/-10/-10 -11/-11/-11
f -9/-9/-9 -8/-8/-8 -10/-10/-10
f -16/-16/-16 -15/-15/-15 -7/-7/-7
f -6/-6/-6 -16/-16/-16 -7/-7/-7
f -6/-6/-6 -7/-7/-7 -5/-5/-5
f -15/-15/-15 -20/-20/-20 -4/-4/-4
f -14/-14/-14 -4/-4/-4 -20/-20/-20
f -7/-7/-7 -15/-15/-15 -4/-4/-4
f -10/-10/-10 -3/-3/-3 -14/-14/-14
f -3/-3/-3 -4/-4/-4 -14/-14/-14
f -8/-8/-8 -3/-3/-3 -10/-10/-10
f -4/-4/-4 -3/-3/-3 -7/-7/-7
f -7/-7/-7 -2/-2/-2 -5/-5/-5
f -3/-3/-3 -2/-2/-2 -7/-7/-7
f -3/-3/-3 -8/-8/-8 -2/-2/-2
f -2/-2/-2 -1/-1/-1 -5/-5/-5
f -8/-8/-8 -1/-1/-1 -2/-2/-2

