# Mesh "VinylEnd1" exported with Unity Assets Bundle Extractor; 132 vertices, 522 indices, 384 bits per vertex
g VinylEnd1
# SubMesh 0
# Vertices
v -16.363449 24.632162 -8.914304
vt 0.365083 0.519222
vn -0.726673 -0.470384 -0.500684
v -16.408651 24.736135 -8.896317
vt 0.365355 0.520975
vn -0.903681 -0.089166 -0.418819
v -16.435284 24.740725 -8.782880
vt 0.367138 0.521186
vn -0.998561 -0.053605 -0.001411
v -16.393650 24.614145 -8.783109
vt 0.367135 0.519242
vn -0.839524 -0.543319 -0.001941
v -14.945053 22.502670 -8.920814
vt 0.364984 0.480512
vn -0.713280 -0.485324 -0.505660
v -16.389977 24.608576 8.776085
vt 0.632713 0.519140
vn -0.839590 -0.543217 0.001957
v -16.433455 24.737932 8.778087
vt 0.632744 0.521204
vn -0.998711 -0.050732 0.001587
v -14.974166 22.482845 -8.792720
vt 0.366992 0.480513
vn -0.825117 -0.564959 -0.001971
v -16.360838 24.628328 8.910629
vt 0.634819 0.519151
vn -0.729510 -0.473135 0.493921
v -16.407154 24.733940 8.893478
vt 0.634587 0.520961
vn -0.906082 -0.101645 0.410711
v -14.977607 22.488010 8.782770
vt 0.632818 0.480607
vn -0.825068 -0.565030 0.001980
v -14.947455 22.506157 8.913960
vt 0.634873 0.480576
vn -0.716481 -0.488042 0.498468
v -14.874521 22.395824 8.782898
vt 0.632820 0.478515
vn -0.453753 -0.891126 0.001558
v -14.867483 22.421068 8.896203
vt 0.634632 0.478742
vn -0.455549 -0.788888 0.412469
v -14.872803 22.393253 -8.790992
vt 0.367018 0.478467
vn -0.455813 -0.890074 -0.001408
v -14.866099 22.419096 -8.902481
vt 0.365249 0.478715
vn -0.444334 -0.790785 -0.420984
# Faces (1 to 16)
g VinylEnd1_0
f -14/-14/-14 -15/-15/-15 -16/-16/-16
f -13/-13/-13 -14/-14/-14 -16/-16/-16
f -16/-16/-16 -12/-12/-12 -13/-13/-13
f -13/-13/-13 -11/-11/-11 -14/-14/-14
f -11/-11/-11 -10/-10/-10 -14/-14/-14
f -12/-12/-12 -9/-9/-9 -13/-13/-13
f -13/-13/-13 -9/-9/-9 -11/-11/-11
f -11/-11/-11 -8/-8/-8 -10/-10/-10
f -8/-8/-8 -7/-7/-7 -10/-10/-10
f -11/-11/-11 -6/-6/-6 -8/-8/-8
f -9/-9/-9 -6/-6/-6 -11/-11/-11
f -6/-6/-6 -5/-5/-5 -8/-8/-8
f -6/-6/-6 -4/-4/-4 -5/-5/-5
f -6/-6/-6 -9/-9/-9 -4/-4/-4
f -4/-4/-4 -3/-3/-3 -5/-5/-5
f -9/-9/-9 -2/-2/-2 -4/-4/-4
f -9/-9/-9 -12/-12/-12 -2/-2/-2
f -12/-12/-12 -1/-1/-1 -2/-2/-2

# SubMesh 1
# Vertices
v -16.328218 24.784845 -8.990468
vt 0.270230 0.975887
vn -0.568094 0.128797 -0.812823
v -16.408651 24.736135 -8.896317
vt 0.284785 0.977416
vn -0.903681 -0.089166 -0.418819
v -16.363449 24.632162 -8.914304
vt 0.283103 0.965122
vn -0.726673 -0.470384 -0.500684
v -16.280924 24.681398 -9.010344
vt 0.271076 0.964684
vn -0.423344 -0.268174 -0.865369
v -16.241076 24.857878 -9.010206
vt 0.259058 0.976217
vn -0.277659 0.422581 -0.862746
v -14.863811 22.554054 -9.014577
vt 0.272497 0.738932
vn -0.404957 -0.279717 -0.870499
v -14.945053 22.502670 -8.920814
vt 0.284387 0.739057
vn -0.713280 -0.485324 -0.505660
v -14.866099 22.419096 -8.902481
vt 0.283290 0.726996
vn -0.444334 -0.790785 -0.420984
v -16.168203 24.748661 -9.045498
vt 0.259080 0.964039
vn -0.033291 -0.003658 -0.999439
v -15.277958 25.433201 -9.010206
vt 0.159719 0.970368
vn -0.216701 0.454778 -0.863839
v -14.786192 22.469152 -8.994806
vt 0.271069 0.728727
vn -0.119431 -0.574172 -0.809977
v -14.734681 22.390675 -8.901241
vt 0.273545 0.716566
vn 0.083704 -0.905276 -0.416497
v -14.626199 22.433655 -8.917879
vt 0.261495 0.714485
vn 0.423839 -0.753606 -0.502433
v -14.752205 22.623226 -9.048881
vt 0.260598 0.738563
vn -0.018032 -0.024181 -0.999545
v -14.679443 22.513807 -9.013868
vt 0.260886 0.726670
vn 0.233860 -0.435894 -0.869083
v -13.903955 23.129934 -9.048881
vt 0.173779 0.733809
vn 0.036599 0.008518 -0.999294
v -13.837133 23.016964 -9.013868
vt 0.174130 0.722144
vn 0.303646 -0.400269 -0.864629
v -13.787790 22.934486 -8.917879
vt 0.173972 0.710059
vn 0.491720 -0.712258 -0.500898
v -13.716956 23.035393 -8.872396
vt 0.159464 0.713114
vn 0.933092 -0.132919 -0.334174
v -15.211755 25.320002 -9.045498
vt 0.160781 0.958360
vn 0.024918 0.032926 -0.999147
v -13.764701 23.116734 -8.967001
vt 0.163046 0.725156
vn 0.802883 0.068352 -0.592206
v -15.094794 25.352018 -8.992975
vt 0.149677 0.954884
vn 0.497954 0.312217 -0.809051
v -15.161065 25.461174 -8.959025
vt 0.147642 0.966611
vn 0.391241 0.671981 -0.628786
v -15.030068 25.437887 -8.834858
vt 0.133163 0.958227
vn 0.569259 0.673244 -0.471897
v -14.970103 25.337509 -8.869461
vt 0.136017 0.947416
vn 0.666376 0.405987 -0.625394
v -13.829159 23.231556 -8.997432
vt 0.162425 0.737316
vn 0.494842 0.282942 -0.821629
v -13.803637 23.384773 -8.872780
vt 0.147546 0.746756
vn 0.672233 0.396994 -0.624899
v -13.743620 23.284300 -8.838449
vt 0.145961 0.734842
vn 0.869664 0.227848 -0.437915
v -13.699673 23.210724 -8.744326
vt 0.139983 0.723444
vn 0.972391 0.066442 -0.223699
v -14.734681 22.390675 -8.901241
vt 0.709052 0.665574
vn 0.083704 -0.905276 -0.416497
v -14.866099 22.419096 -8.902481
vt 0.701133 0.665274
vn -0.444334 -0.790785 -0.420984
v -14.872803 22.393253 -8.790992
vt 0.700874 0.672035
vn -0.455813 -0.890074 -0.001408
v -14.739103 22.364676 -8.788792
vt 0.708540 0.672161
vn 0.033829 -0.999427 -0.001429
v -14.626199 22.433655 -8.917879
vt 0.716092 0.664617
vn 0.423839 -0.753606 -0.502433
v -14.739633 22.365326 8.782899
vt 0.708735 1.657244
vn 0.036206 -0.999343 0.001525
v -14.874521 22.395824 8.782898
vt 0.700982 1.657251
vn -0.453753 -0.891126 0.001558
v -14.867483 22.421068 8.896203
vt 0.701258 1.664095
vn -0.455549 -0.788888 0.412469
v -14.735134 22.391138 8.896212
vt 0.709247 1.663859
vn 0.071769 -0.908136 0.412478
v -14.626335 22.433533 8.913960
vt 0.716292 1.664860
vn 0.423042 -0.754300 0.502063
v -14.606761 22.404278 -8.786676
vt 0.716282 0.672279
vn 0.485866 -0.874031 -0.001932
v -13.787790 22.934486 -8.917879
vt 0.771088 0.664631
vn 0.491720 -0.712258 -0.500898
v -14.606910 22.404188 8.782771
vt 0.716484 1.657234
vn 0.486074 -0.873916 0.001939
v -13.770028 22.904102 -8.786676
vt 0.770926 0.672277
vn 0.546337 -0.837563 -0.002058
v -13.770026 22.904106 8.782770
vt 0.770902 1.657237
vn 0.546336 -0.837563 0.002056
v -13.787775 22.934452 8.913960
vt 0.771067 1.664854
vn 0.491822 -0.712460 0.500512
v -13.716943 23.035364 8.868480
vt 0.778788 1.662440
vn 0.933163 -0.133057 0.333920
v -13.699100 23.009657 -8.739295
vt 0.778052 0.674930
vn 0.925776 -0.378069 -0.001675
v -13.716956 23.035393 -8.872396
vt 0.778818 0.667059
vn 0.933092 -0.132919 -0.334174
v -13.699673 23.210724 -8.744326
vt 0.789392 0.674287
vn 0.972391 0.066442 -0.223699
v -13.683578 23.183786 -8.615678
vt 0.787856 0.681857
vn 0.996087 -0.088377 -0.000589
v -13.699099 23.009661 8.735388
vt 0.778028 1.654583
vn 0.925776 -0.378069 0.001674
v -13.683578 23.183784 8.611775
vt 0.787833 1.647657
vn 0.996087 -0.088377 0.000588
v -13.699656 23.210697 8.740412
vt 0.789379 1.655222
vn 0.972439 0.066305 0.223530
v -15.161024 25.461075 8.958800
vt 0.420031 1.146457
vn 0.391585 0.671497 0.629089
v -15.030033 25.437798 8.834579
vt 0.434190 1.138199
vn 0.569568 0.672824 0.472122
v -14.970038 25.337366 8.869047
vt 0.431372 1.127584
vn 0.666937 0.405297 0.625243
v -15.094728 25.351871 8.992610
vt 0.418041 1.134953
vn 0.498547 0.311305 0.809036
v -13.803557 23.384642 8.869048
vt 0.419348 0.931385
vn 0.672802 0.396312 0.624719
v -15.211689 25.319838 9.045149
vt 0.407195 1.138391
vn 0.025587 0.031797 0.999167
v -15.277908 25.433098 9.009997
vt 0.408255 1.150136
vn -0.216303 0.454135 0.864277
v -16.240879 24.857862 9.009997
vt 0.310879 1.156061
vn -0.278117 0.421419 0.863167
v -13.829077 23.231384 8.993722
vt 0.404752 0.922216
vn 0.495619 0.282126 0.821442
v -13.743567 23.284214 8.834579
vt 0.420830 0.919738
vn 0.869927 0.227534 0.437557
v -13.903865 23.129782 9.045150
vt 0.393635 0.918831
vn 0.037289 0.007399 0.999277
v -16.167984 24.748596 9.045149
vt 0.310889 1.144226
vn -0.033048 -0.005040 0.999441
v -13.764646 23.116631 8.963137
vt 0.404089 0.910330
vn 0.803208 0.067978 0.591807
v -13.699656 23.210697 8.740412
vt 0.426645 0.908560
vn 0.972439 0.066305 0.223530
v -13.716943 23.035364 8.868480
vt 0.407537 0.898536
vn 0.933163 -0.133057 0.333920
v -13.787775 22.934452 8.913960
vt 0.393347 0.895602
vn 0.491822 -0.712460 0.500512
v -13.837072 23.016865 9.009996
vt 0.393243 0.907432
vn 0.304038 -0.400928 0.864186
v -14.752261 22.622990 9.045150
vt 0.308719 0.923787
vn -0.017737 -0.025583 0.999515
v -14.679536 22.513620 9.009997
vt 0.308392 0.912163
vn 0.233395 -0.437162 0.868571
v -14.626335 22.433533 8.913960
vt 0.307741 0.900244
vn 0.423042 -0.754300 0.502063
v -14.735134 22.391138 8.896212
vt 0.295867 0.902349
vn 0.071769 -0.908136 0.412478
v -16.279581 24.679575 9.009114
vt 0.299174 1.144739
vn -0.428446 -0.272923 0.861363
v -16.327415 24.783821 8.989554
vt 0.300145 1.154945
vn -0.576056 0.117987 0.808850
v -16.407154 24.733940 8.893478
vt 0.287942 1.155722
vn -0.906082 -0.101645 0.410711
v -16.360838 24.628328 8.910629
vt 0.287284 1.145117
vn -0.729510 -0.473135 0.493921
v -14.947455 22.506157 8.913960
vt 0.285302 0.924715
vn -0.716481 -0.488042 0.498468
v -14.864976 22.555563 9.009997
vt 0.297069 0.924358
vn -0.410259 -0.284493 0.866459
v -14.786874 22.469950 8.990292
vt 0.298421 0.914291
vn -0.130778 -0.578196 0.805348
v -14.867483 22.421068 8.896203
vt 0.286340 0.912772
vn -0.455549 -0.788888 0.412469
v -15.161065 25.461174 -8.959025
vt 0.610819 0.681946
vn 0.391241 0.671981 -0.628786
v -15.030068 25.437887 -8.834858
vt 0.600667 0.688132
vn 0.569259 0.673244 -0.471897
v -15.073950 25.511345 -8.740642
vt 0.603817 0.695827
vn 0.422002 0.870151 -0.254463
v -15.208589 25.540915 -8.863363
vt 0.613035 0.689669
vn 0.228872 0.901045 -0.368423
v -15.090010 25.538231 -8.612019
vt 0.605372 0.704082
vn 0.228689 0.973499 -0.000613
v -15.328325 25.514883 -8.914121
vt 0.619839 0.687238
vn -0.404207 0.764284 -0.502480
v -15.277958 25.433201 -9.010206
vt 0.619427 0.679643
vn -0.216701 0.454778 -0.863839
v -16.241076 24.857878 -9.010206
vt 0.682472 0.679509
vn -0.277659 0.422581 -0.862746
v -15.224606 25.569777 -8.731672
vt 0.613054 0.697449
vn -0.066795 0.997765 -0.001882
v -15.090027 25.538225 8.611776
vt 0.605301 1.659916
vn 0.228690 0.973499 0.000615
v -15.349224 25.543304 -8.782944
vt 0.620123 0.694618
vn -0.490553 0.871409 -0.002082
v -16.294430 24.937782 -8.914121
vt 0.682515 0.687162
vn -0.463753 0.733735 -0.496554
v -15.224629 25.569773 8.731483
vt 0.612982 1.666554
vn -0.066820 0.997763 0.001884
v -15.073949 25.511316 8.740412
vt 0.603743 1.668174
vn 0.422184 0.870019 0.254612
v -15.349250 25.543303 8.782770
vt 0.620051 1.669387
vn -0.490554 0.871408 0.002083
v -15.208591 25.540880 8.863188
vt 0.612961 1.674336
vn 0.229084 0.900893 0.368662
v -15.030033 25.437798 8.834579
vt 0.600587 1.675869
vn 0.569568 0.672824 0.472122
v -15.161024 25.461075 8.958800
vt 0.610742 1.682061
vn 0.391585 0.671497 0.629089
v -15.277908 25.433098 9.009997
vt 0.619352 1.684365
vn -0.216303 0.454135 0.864277
v -15.328322 25.514849 8.913960
vt 0.619765 1.676768
vn -0.404077 0.764089 0.502881
v -16.314001 24.966997 -8.782944
vt 0.682475 0.694619
vn -0.537223 0.843438 -0.001920
v -16.379915 24.863386 -8.896238
vt 0.688846 0.688223
vn -0.777452 0.469219 -0.418809
v -16.328218 24.784845 -8.990468
vt 0.690117 0.680428
vn -0.568094 0.128797 -0.812823
v -16.408651 24.736135 -8.896317
vt 0.696456 0.686872
vn -0.903681 -0.089166 -0.418819
v -16.405951 24.870670 -8.782820
vt 0.689857 0.694618
vn -0.883925 0.467626 -0.001445
v -16.435284 24.740725 -8.782880
vt 0.697253 0.694599
vn -0.998561 -0.053605 -0.001411
v -16.433455 24.737932 8.778087
vt 0.697284 1.669161
vn -0.998711 -0.050732 0.001587
v -16.294281 24.937834 8.913960
vt 0.682433 1.676849
vn -0.464472 0.732980 0.496997
v -16.240879 24.857862 9.009997
vt 0.682396 1.684502
vn -0.278117 0.421419 0.863167
v -16.327415 24.783821 8.989554
vt 0.690088 1.683569
vn -0.576056 0.117987 0.808850
v -16.313875 24.967072 8.782771
vt 0.682392 1.669394
vn -0.537013 0.843572 0.001929
v -16.405409 24.869951 8.780548
vt 0.689790 1.669281
vn -0.882557 0.470202 0.001566
v -16.379431 24.862825 8.894902
vt 0.688770 1.675731
vn -0.785568 0.458491 0.415533
v -16.407154 24.733940 8.893478
vt 0.696481 1.677020
vn -0.906082 -0.101645 0.410711
# Faces (17 to 132)
g VinylEnd1_1
f -114/-114/-114 -115/-115/-115 -116/-116/-116
f -113/-113/-113 -114/-114/-114 -116/-116/-116
f -113/-113/-113 -116/-116/-116 -112/-112/-112
f -113/-113/-113 -111/-111/-111 -114/-114/-114
f -111/-111/-111 -110/-110/-110 -114/-114/-114
f -110/-110/-110 -111/-111/-111 -109/-109/-109
f -108/-108/-108 -113/-113/-113 -112/-112/-112
f -108/-108/-108 -112/-112/-112 -107/-107/-107
f -111/-111/-111 -106/-106/-106 -109/-109/-109
f -105/-105/-105 -109/-109/-109 -106/-106/-106
f -104/-104/-104 -105/-105/-105 -106/-106/-106
f -103/-103/-103 -111/-111/-111 -113/-113/-113
f -108/-108/-108 -103/-103/-103 -113/-113/-113
f -102/-102/-102 -106/-106/-106 -111/-111/-111
f -102/-102/-102 -104/-104/-104 -106/-106/-106
f -103/-103/-103 -102/-102/-102 -111/-111/-111
f -101/-101/-101 -103/-103/-103 -108/-108/-108
f -103/-103/-103 -101/-101/-101 -102/-102/-102
f -102/-102/-102 -100/-100/-100 -104/-104/-104
f -101/-101/-101 -100/-100/-100 -102/-102/-102
f -100/-100/-100 -99/-99/-99 -104/-104/-104
f -98/-98/-98 -99/-99/-99 -100/-100/-100
f -97/-97/-97 -108/-108/-108 -107/-107/-107
f -97/-97/-97 -101/-101/-101 -108/-108/-108
f -96/-96/-96 -100/-100/-100 -101/-101/-101
f -96/-96/-96 -98/-98/-98 -100/-100/-100
f -95/-95/-95 -97/-97/-97 -107/-107/-107
f -94/-94/-94 -95/-95/-95 -107/-107/-107
f -94/-94/-94 -93/-93/-93 -95/-95/-95
f -93/-93/-93 -92/-92/-92 -95/-95/-95
f -91/-91/-91 -101/-101/-101 -97/-97/-97
f -95/-95/-95 -91/-91/-91 -97/-97/-97
f -95/-95/-95 -92/-92/-92 -91/-91/-91
f -91/-91/-91 -96/-96/-96 -101/-101/-101
f -92/-92/-92 -90/-90/-90 -91/-91/-91
f -91/-91/-91 -90/-90/-90 -96/-96/-96
f -90/-90/-90 -89/-89/-89 -96/-96/-96
f -96/-96/-96 -89/-89/-89 -98/-98/-98
f -89/-89/-89 -88/-88/-88 -98/-98/-98
f -85/-85/-85 -86/-86/-86 -87/-87/-87
f -84/-84/-84 -85/-85/-85 -87/-87/-87
f -84/-84/-84 -87/-87/-87 -83/-83/-83
f -85/-85/-85 -84/-84/-84 -82/-82/-82
f -81/-81/-81 -85/-85/-85 -82/-82/-82
f -81/-81/-81 -82/-82/-82 -80/-80/-80
f -82/-82/-82 -79/-79/-79 -80/-80/-80
f -78/-78/-78 -79/-79/-79 -82/-82/-82
f -77/-77/-77 -84/-84/-84 -83/-83/-83
f -83/-83/-83 -76/-76/-76 -77/-77/-77
f -82/-82/-82 -84/-84/-84 -75/-75/-75
f -75/-75/-75 -78/-78/-78 -82/-82/-82
f -84/-84/-84 -77/-77/-77 -75/-75/-75
f -76/-76/-76 -74/-74/-74 -77/-77/-77
f -75/-75/-75 -77/-77/-77 -74/-74/-74
f -75/-75/-75 -73/-73/-73 -78/-78/-78
f -73/-73/-73 -75/-75/-75 -74/-74/-74
f -73/-73/-73 -72/-72/-72 -78/-78/-78
f -71/-71/-71 -72/-72/-72 -73/-73/-73
f -70/-70/-70 -74/-74/-74 -76/-76/-76
f -69/-69/-69 -70/-70/-70 -76/-76/-76
f -69/-69/-69 -68/-68/-68 -70/-70/-70
f -68/-68/-68 -67/-67/-67 -70/-70/-70
f -73/-73/-73 -74/-74/-74 -66/-66/-66
f -74/-74/-74 -70/-70/-70 -66/-66/-66
f -70/-70/-70 -67/-67/-67 -66/-66/-66
f -66/-66/-66 -71/-71/-71 -73/-73/-73
f -67/-67/-67 -65/-65/-65 -66/-66/-66
f -66/-66/-66 -65/-65/-65 -71/-71/-71
f -65/-65/-65 -64/-64/-64 -71/-71/-71
f -61/-61/-61 -62/-62/-62 -63/-63/-63
f -60/-60/-60 -61/-61/-61 -63/-63/-63
f -59/-59/-59 -61/-61/-61 -60/-60/-60
f -60/-60/-60 -63/-63/-63 -58/-58/-58
f -63/-63/-63 -57/-57/-57 -58/-58/-58
f -58/-58/-58 -57/-57/-57 -56/-56/-56
f -55/-55/-55 -59/-59/-59 -60/-60/-60
f -54/-54/-54 -59/-59/-59 -55/-55/-55
f -58/-58/-58 -53/-53/-53 -60/-60/-60
f -53/-53/-53 -55/-55/-55 -60/-60/-60
f -52/-52/-52 -58/-58/-58 -56/-56/-56
f -53/-53/-53 -58/-58/-58 -52/-52/-52
f -51/-51/-51 -54/-54/-54 -55/-55/-55
f -50/-50/-50 -54/-54/-54 -51/-51/-51
f -49/-49/-49 -50/-50/-50 -51/-51/-51
f -49/-49/-49 -51/-51/-51 -48/-48/-48
f -51/-51/-51 -55/-55/-55 -47/-47/-47
f -55/-55/-55 -53/-53/-53 -47/-47/-47
f -51/-51/-51 -47/-47/-47 -48/-48/-48
f -47/-47/-47 -53/-53/-53 -46/-46/-46
f -46/-46/-46 -53/-53/-53 -52/-52/-52
f -48/-48/-48 -47/-47/-47 -45/-45/-45
f -45/-45/-45 -47/-47/-47 -46/-46/-46
f -44/-44/-44 -48/-48/-48 -45/-45/-45
f -44/-44/-44 -45/-45/-45 -43/-43/-43
f -52/-52/-52 -56/-56/-56 -42/-42/-42
f -56/-56/-56 -41/-41/-41 -42/-42/-42
f -42/-42/-42 -41/-41/-41 -40/-40/-40
f -39/-39/-39 -42/-42/-42 -40/-40/-40
f -39/-39/-39 -38/-38/-38 -42/-42/-42
f -37/-37/-37 -46/-46/-46 -52/-52/-52
f -42/-42/-42 -37/-37/-37 -52/-52/-52
f -46/-46/-46 -37/-37/-37 -45/-45/-45
f -38/-38/-38 -37/-37/-37 -42/-42/-42
f -45/-45/-45 -36/-36/-36 -43/-43/-43
f -37/-37/-37 -36/-36/-36 -45/-45/-45
f -37/-37/-37 -38/-38/-38 -36/-36/-36
f -36/-36/-36 -35/-35/-35 -43/-43/-43
f -38/-38/-38 -35/-35/-35 -36/-36/-36
f -32/-32/-32 -33/-33/-33 -34/-34/-34
f -31/-31/-31 -32/-32/-32 -34/-34/-34
f -30/-30/-30 -32/-32/-32 -31/-31/-31
f -31/-31/-31 -34/-34/-34 -29/-29/-29
f -34/-34/-34 -28/-28/-28 -29/-29/-29
f -28/-28/-28 -27/-27/-27 -29/-29/-29
f -26/-26/-26 -30/-30/-30 -31/-31/-31
f -25/-25/-25 -30/-30/-30 -26/-26/-26
f -29/-29/-29 -24/-24/-24 -31/-31/-31
f -24/-24/-24 -26/-26/-26 -31/-31/-31
f -27/-27/-27 -23/-23/-23 -29/-29/-29
f -29/-29/-29 -23/-23/-23 -24/-24/-24
f -22/-22/-22 -25/-25/-25 -26/-26/-26
f -21/-21/-21 -25/-25/-25 -22/-22/-22
f -26/-26/-26 -24/-24/-24 -20/-20/-20
f -22/-22/-22 -26/-26/-26 -20/-20/-20
f -19/-19/-19 -21/-21/-21 -22/-22/-22
f -18/-18/-18 -21/-21/-21 -19/-19/-19
f -17/-17/-17 -18/-18/-18 -19/-19/-19
f -17/-17/-17 -19/-19/-19 -16/-16/-16
f -19/-19/-19 -22/-22/-22 -15/-15/-15
f -19/-19/-19 -15/-15/-15 -16/-16/-16
f -22/-22/-22 -20/-20/-20 -15/-15/-15
f -24/-24/-24 -14/-14/-14 -20/-20/-20
f -23/-23/-23 -14/-14/-14 -24/-24/-24
f -23/-23/-23 -27/-27/-27 -13/-13/-13
f -27/-27/-27 -12/-12/-12 -13/-13/-13
f -12/-12/-12 -11/-11/-11 -13/-13/-13
f -23/-23/-23 -13/-13/-13 -10/-10/-10
f -10/-10/-10 -13/-13/-13 -11/-11/-11
f -14/-14/-14 -23/-23/-23 -10/-10/-10
f -9/-9/-9 -10/-10/-10 -11/-11/-11
f -9/-9/-9 -8/-8/-8 -10/-10/-10
f -16/-16/-16 -15/-15/-15 -7/-7/-7
f -6/-6/-6 -16/-16/-16 -7/-7/-7
f -6/-6/-6 -7/-7/-7 -5/-5/-5
f -15/-15/-15 -20/-20/-20 -4/-4/-4
f -14/-14/-14 -4/-4/-4 -20/-20/-20
f -7/-7/-7 -15/-15/-15 -4/-4/-4
f -10/-10/-10 -3/-3/-3 -14/-14/-14
f -3/-3/-3 -4/-4/-4 -14/-14/-14
f -8/-8/-8 -3/-3/-3 -10/-10/-10
f -4/-4/-4 -3/-3/-3 -7/-7/-7
f -7/-7/-7 -2/-2/-2 -5/-5/-5
f -3/-3/-3 -2/-2/-2 -7/-7/-7
f -3/-3/-3 -8/-8/-8 -2/-2/-2
f -2/-2/-2 -1/-1/-1 -5/-5/-5
f -8/-8/-8 -1/-1/-1 -2/-2/-2

