# Mesh "VinylEnd" exported with Unity Assets Bundle Extractor; 132 vertices, 522 indices, 384 bits per vertex
g VinylEnd
# SubMesh 0
# Vertices
v 24.568720 16.458551 8.914303
vt 0.365083 0.519222
vn 0.490286 -0.713393 0.500689
v 24.650387 16.537191 8.896317
vt 0.365355 0.520975
vn 0.800133 -0.429396 0.418815
v 24.676739 16.531200 8.782880
vt 0.367138 0.521186
vn 0.901391 -0.433004 0.001411
v 24.589684 16.430317 8.783110
vt 0.367135 0.519242
vn 0.566473 -0.824078 0.001941
v 22.441252 15.037121 8.920814
vt 0.364984 0.480512
vn 0.472182 -0.722044 0.505665
v 24.584152 16.426588 -8.776086
vt 0.632713 0.519140
vn 0.566573 -0.824009 -0.001957
v 24.673977 16.529324 -8.778087
vt 0.632744 0.521204
vn 0.902633 -0.430409 -0.001587
v 22.460518 15.007635 8.792720
vt 0.366992 0.480513
vn 0.544859 -0.838525 0.001971
v 24.564835 16.456015 -8.910629
vt 0.634819 0.519151
vn 0.491852 -0.717026 -0.493919
v 24.648161 16.535738 -8.893478
vt 0.634587 0.520961
vn 0.797553 -0.441846 -0.410708
v 22.465677 15.011083 -8.782770
vt 0.632818 0.480607
vn 0.544787 -0.838572 -0.001981
v 22.444807 15.039419 -8.913960
vt 0.634873 0.480576
vn 0.474097 -0.725787 -0.498463
v 22.335093 14.965559 -8.782898
vt 0.632820 0.478515
vn 0.076707 -0.997053 -0.001558
v 22.338289 14.991570 -8.896202
vt 0.634632 0.478742
vn 0.117630 -0.903341 -0.412479
v 22.332520 14.963844 8.790991
vt 0.367018 0.478467
vn 0.079011 -0.996873 0.001408
v 22.336254 14.990279 8.902480
vt 0.365249 0.478715
vn 0.106542 -0.900791 0.420981
# Faces (1 to 16)
g VinylEnd_0
f -14/-14/-14 -15/-15/-15 -16/-16/-16
f -13/-13/-13 -14/-14/-14 -16/-16/-16
f -16/-16/-16 -12/-12/-12 -13/-13/-13
f -13/-13/-13 -11/-11/-11 -14/-14/-14
f -11/-11/-11 -10/-10/-10 -14/-14/-14
f -12/-12/-12 -9/-9/-9 -13/-13/-13
f -13/-13/-13 -9/-9/-9 -11/-11/-11
f -11/-11/-11 -8/-8/-8 -10/-10/-10
f -8/-8/-8 -7/-7/-7 -10/-10/-10
f -11/-11/-11 -6/-6/-6 -8/-8/-8
f -9/-9/-9 -6/-6/-6 -11/-11/-11
f -6/-6/-6 -5/-5/-5 -8/-8/-8
f -6/-6/-6 -4/-4/-4 -5/-5/-5
f -6/-6/-6 -9/-9/-9 -4/-4/-4
f -4/-4/-4 -3/-3/-3 -5/-5/-5
f -9/-9/-9 -2/-2/-2 -4/-4/-4
f -9/-9/-9 -12/-12/-12 -2/-2/-2
f -12/-12/-12 -1/-1/-1 -2/-2/-2

# SubMesh 1
# Vertices
v 24.594828 16.613058 8.990468
vt 0.270230 0.975887
vn 0.573992 -0.099259 0.812823
v 24.650387 16.537191 8.896317
vt 0.284785 0.977416
vn 0.800133 -0.429396 0.418815
v 24.568720 16.458551 8.914303
vt 0.283103 0.965122
vn 0.490286 -0.713393 0.500689
v 24.511433 16.535707 9.010345
vt 0.271076 0.964684
vn 0.287879 -0.410195 0.865371
v 24.542418 16.713955 9.010206
vt 0.259058 0.976217
vn 0.418661 0.283535 0.862746
v 22.385975 15.115767 9.014577
vt 0.272497 0.738932
vn 0.266469 -0.413790 0.870501
v 22.441252 15.037121 8.920814
vt 0.284387 0.739057
vn 0.472182 -0.722044 0.505665
v 22.336254 14.990279 8.902480
vt 0.283290 0.726996
vn 0.106542 -0.900791 0.420981
v 24.433189 16.641102 9.045497
vt 0.259080 0.964039
vn 0.029333 -0.016163 0.999439
v 23.874123 17.615051 9.010206
vt 0.159719 0.970368
vn 0.374745 0.336675 0.863838
v 22.281700 15.067188 8.994806
vt 0.271069 0.728727
vn -0.110243 -0.576006 0.809977
v 22.204000 15.014512 8.901241
vt 0.273545 0.716566
vn -0.424964 -0.803701 0.416498
v 22.120344 15.095860 8.917879
vt 0.261495 0.714485
vn -0.680762 -0.533033 0.502433
v 22.309492 15.222497 9.048882
vt 0.260598 0.738563
vn 0.007362 -0.029252 0.999545
v 22.200289 15.149416 9.013868
vt 0.260886 0.726670
vn -0.383337 -0.312653 0.869080
v 21.720901 16.016123 9.048882
vt 0.173779 0.733809
vn -0.030520 0.021920 0.999294
v 21.615818 15.937479 9.013868
vt 0.174130 0.722144
vn -0.434092 -0.252958 0.864625
v 21.538584 15.880280 8.917879
vt 0.173972 0.710059
vn -0.727560 -0.468783 0.500898
v 21.511936 16.000652 8.872396
vt 0.159464 0.713114
vn -0.912579 0.235639 0.334176
v 23.769522 17.535959 9.045498
vt 0.160781 0.958360
vn -0.010361 0.039971 0.999147
v 21.587259 16.057417 8.967001
vt 0.163046 0.725156
vn -0.715058 0.371463 0.592206
v 23.673826 17.610441 8.992974
vt 0.149677 0.954884
vn -0.339856 0.479517 0.809050
v 23.776937 17.685772 8.959024
vt 0.147642 0.966611
vn -0.103155 0.770707 0.628785
v 23.647043 17.714582 8.834858
vt 0.133163 0.958227
vn -0.267035 0.840238 0.471903
v 23.553125 17.644932 8.869462
vt 0.136017 0.947416
vn -0.459350 0.630780 0.625391
v 21.690870 16.138678 8.997433
vt 0.162425 0.737316
vn -0.348227 0.451293 0.821628
v 21.726151 16.289948 8.872779
vt 0.147546 0.746756
vn -0.468212 0.624725 0.624897
v 21.632149 16.220228 8.838449
vt 0.145961 0.734842
vn -0.715463 0.544373 0.437917
v 21.563316 16.169174 8.744327
vt 0.139983 0.723444
vn -0.872299 0.434799 0.223704
v 22.204000 15.014512 8.901241
vt 0.709052 0.665574
vn -0.424964 -0.803701 0.416498
v 22.336254 14.990279 8.902480
vt 0.701133 0.665274
vn 0.106542 -0.900791 0.420981
v 22.332520 14.963844 8.790991
vt 0.700874 0.672035
vn 0.079011 -0.996873 0.001408
v 22.198099 14.988808 8.788793
vt 0.708540 0.672161
vn -0.415075 -0.909786 0.001429
v 22.120344 15.095860 8.917879
vt 0.716092 0.664617
vn -0.680762 -0.533033 0.502433
v 22.198837 14.989203 -8.782898
vt 0.708735 1.657244
vn -0.417237 -0.908796 -0.001525
v 22.335093 14.965559 -8.782898
vt 0.700982 1.657251
vn 0.076707 -0.997053 -0.001558
v 22.338289 14.991570 -8.896202
vt 0.701258 1.664095
vn 0.117630 -0.903341 -0.412479
v 22.204596 15.014765 -8.896211
vt 0.709247 1.663859
vn -0.415042 -0.810923 -0.412486
v 22.120420 15.095694 -8.913960
vt 0.716292 1.664860
vn -0.680293 -0.533976 -0.502067
v 22.091114 15.076200 8.786676
vt 0.716282 0.672279
vn -0.784284 -0.620399 0.001932
v 21.538584 15.880280 8.917879
vt 0.771088 0.664631
vn -0.727560 -0.468783 0.500898
v 22.091217 15.076058 -8.782770
vt 0.716484 1.657234
vn -0.784432 -0.620212 -0.001939
v 21.510513 15.859047 8.786675
vt 0.770926 0.672277
vn -0.826111 -0.563503 0.002058
v 21.510513 15.859050 -8.782771
vt 0.770902 1.657237
vn -0.826111 -0.563504 -0.002056
v 21.538555 15.880254 -8.913960
vt 0.771067 1.664854
vn -0.727728 -0.468929 -0.500517
v 21.511911 16.000629 -8.868480
vt 0.778788 1.662440
vn -0.912701 0.235533 -0.333917
v 21.485565 15.983748 8.739295
vt 0.778052 0.674930
vn -0.999978 0.006479 0.001675
v 21.511936 16.000652 8.872396
vt 0.778818 0.667059
vn -0.912579 0.235639 0.334176
v 21.563316 16.169174 8.744327
vt 0.789392 0.674287
vn -0.872299 0.434799 0.223704
v 21.538111 16.150482 8.615677
vt 0.787856 0.681857
vn -0.953640 0.300950 0.000589
v 21.485565 15.983751 -8.735389
vt 0.778028 1.654583
vn -0.999978 0.006479 -0.001674
v 21.538111 16.150482 -8.611776
vt 0.787833 1.647657
vn -0.953640 0.300950 -0.000588
v 21.563290 16.169155 -8.740412
vt 0.789379 1.655222
vn -0.872395 0.434702 -0.223522
v 23.776861 17.685696 -8.958801
vt 0.420031 1.146457
vn -0.103661 0.770394 -0.629085
v 23.646975 17.714512 -8.834579
vt 0.434190 1.138199
vn -0.267485 0.839971 -0.472124
v 23.553011 17.644825 -8.869047
vt 0.431372 1.127584
vn -0.460138 0.630363 -0.625233
v 23.673708 17.610331 -8.992610
vt 0.418041 1.134953
vn -0.340754 0.478901 -0.809037
v 21.726027 16.289854 -8.869048
vt 0.419348 0.931385
vn -0.469004 0.624319 -0.624708
v 23.769396 17.535833 -9.045149
vt 0.407195 1.138391
vn -0.011413 0.039185 -0.999167
v 23.874035 17.614975 -9.009997
vt 0.408255 1.150136
vn 0.374127 0.336234 -0.864278
v 24.542233 16.714018 -9.009997
vt 0.310879 1.156061
vn 0.418637 0.282287 -0.863167
v 21.690731 16.138554 -8.993721
vt 0.404752 0.922216
vn -0.349255 0.450836 -0.821443
v 21.632067 16.220169 -8.834579
vt 0.420830 0.919738
vn -0.715823 0.544189 -0.437556
v 21.720760 16.016018 -9.045149
vt 0.393635 0.918831
vn -0.031588 0.021153 -0.999277
v 24.432961 16.641129 -9.045150
vt 0.310889 1.144226
vn 0.028578 -0.017345 -0.999441
v 21.587168 16.057344 -8.963136
vt 0.404089 0.910330
vn -0.715500 0.371244 -0.591808
v 21.563290 16.169155 -8.740412
vt 0.426645 0.908560
vn -0.872395 0.434702 -0.223522
v 21.511911 16.000629 -8.868480
vt 0.407537 0.898536
vn -0.912701 0.235533 -0.333917
v 21.538555 15.880254 -8.913960
vt 0.393347 0.895602
vn -0.727728 -0.468929 -0.500517
v 21.615725 15.937414 -9.009996
vt 0.393243 0.907432
vn -0.434697 -0.253408 -0.864189
v 22.309454 15.222259 -9.045149
vt 0.308719 0.923787
vn 0.006551 -0.030433 -0.999515
v 22.200302 15.149208 -9.009997
vt 0.308392 0.912163
vn -0.383388 -0.313994 -0.868575
v 22.120420 15.095694 -8.913960
vt 0.307741 0.900244
vn -0.680293 -0.533976 -0.502067
v 22.204596 15.014765 -8.896211
vt 0.295867 0.902349
vn -0.415042 -0.810923 -0.412486
v 24.509493 16.534540 -9.009114
vt 0.299174 1.144739
vn 0.290772 -0.416541 -0.861362
v 24.593695 16.612421 -8.989553
vt 0.300145 1.154945
vn 0.577195 -0.112301 -0.808848
v 24.648161 16.535738 -8.893478
vt 0.287942 1.155722
vn 0.797553 -0.441846 -0.410708
v 24.564835 16.456015 -8.910629
vt 0.287284 1.145117
vn 0.491852 -0.717026 -0.493919
v 22.444807 15.039419 -8.913960
vt 0.285302 0.924715
vn 0.474097 -0.725787 -0.498463
v 22.387630 15.116714 -9.009997
vt 0.297069 0.924358
vn 0.269535 -0.420240 -0.866458
v 22.282637 15.067663 -8.990292
vt 0.298421 0.914291
vn -0.101309 -0.584075 -0.805353
v 22.338289 14.991570 -8.896202
vt 0.286340 0.912772
vn 0.117630 -0.903341 -0.412479
v 23.776937 17.685772 8.959024
vt 0.610819 0.681946
vn -0.103155 0.770707 0.628785
v 23.647043 17.714582 8.834858
vt 0.600667 0.688132
vn -0.267035 0.840238 0.471903
v 23.715771 17.765553 8.740643
vt 0.603817 0.695827
vn -0.055449 0.965491 0.254466
v 23.851442 17.741146 8.863362
vt 0.613035 0.689669
vn 0.134733 0.919848 0.368412
v 23.740925 17.784210 8.612019
vt 0.605372 0.704082
vn 0.162743 0.986668 0.000613
v 23.951998 17.671125 8.914121
vt 0.619839 0.687238
vn 0.666740 0.550429 0.502480
v 23.874123 17.615051 9.010206
vt 0.619427 0.679643
vn 0.374745 0.336675 0.863838
v 24.542418 16.713955 9.010206
vt 0.682472 0.679509
vn 0.418661 0.283535 0.862746
v 23.877314 17.761642 8.731671
vt 0.613054 0.697449
vn 0.444865 0.895596 0.001882
v 23.740938 17.784197 -8.611776
vt 0.605301 1.659916
vn 0.162743 0.986668 -0.000615
v 23.982210 17.689341 8.782945
vt 0.620123 0.694618
vn 0.787603 0.616179 0.002081
v 24.622368 16.767241 8.914121
vt 0.682515 0.687162
vn 0.709985 0.499352 0.496557
v 23.877335 17.761629 -8.731483
vt 0.612982 1.666554
vn 0.444887 0.895584 -0.001884
v 23.715759 17.765528 -8.740411
vt 0.603743 1.668174
vn -0.055668 0.965440 -0.254610
v 23.982231 17.689329 -8.782771
vt 0.620051 1.669387
vn 0.787604 0.616178 -0.002083
v 23.851429 17.741114 -8.863188
vt 0.612961 1.674336
vn 0.134477 0.919786 -0.368659
v 23.646975 17.714512 -8.834579
vt 0.600587 1.675869
vn -0.267485 0.839971 -0.472124
v 23.776861 17.685696 -8.958801
vt 0.610742 1.682061
vn -0.103661 0.770394 -0.629085
v 23.874035 17.614975 -9.009997
vt 0.619352 1.684365
vn 0.374127 0.336234 -0.864278
v 23.951981 17.671093 -8.913960
vt 0.619765 1.676768
vn 0.666545 0.550301 -0.502878
v 24.651659 16.786699 8.782944
vt 0.682475 0.694619
vn 0.819952 0.572429 0.001919
v 24.672726 16.665720 8.896238
vt 0.688846 0.688223
vn 0.898037 0.134649 0.418807
v 24.594828 16.613058 8.990468
vt 0.690117 0.680428
vn 0.573992 -0.099259 0.812823
v 24.650387 16.537191 8.896317
vt 0.696456 0.686872
vn 0.800133 -0.429396 0.418815
v 24.699560 16.662447 8.782820
vt 0.689857 0.694618
vn 0.995732 0.092286 0.001445
v 24.676739 16.531200 8.782880
vt 0.697253 0.694599
vn 0.901391 -0.433004 0.001411
v 24.673977 16.529324 -8.778087
vt 0.697284 1.669161
vn 0.902633 -0.430409 -0.001587
v 24.622250 16.767345 -8.913960
vt 0.682433 1.676849
vn 0.710360 0.498383 -0.496994
v 24.542233 16.714018 -9.009997
vt 0.682396 1.684502
vn 0.418637 0.282287 -0.863167
v 24.593695 16.612421 -8.989553
vt 0.690088 1.683569
vn 0.577195 -0.112301 -0.808848
v 24.651571 16.786816 -8.782770
vt 0.682392 1.669394
vn 0.819810 0.572633 -0.001930
v 24.698786 16.661989 -8.780549
vt 0.689790 1.669281
vn 0.995458 0.095190 -0.001566
v 24.672064 16.665388 -8.894902
vt 0.688770 1.675731
vn 0.901413 0.121627 -0.415527
v 24.648161 16.535738 -8.893478
vt 0.696481 1.677020
vn 0.797553 -0.441846 -0.410708
# Faces (17 to 132)
g VinylEnd_1
f -114/-114/-114 -115/-115/-115 -116/-116/-116
f -113/-113/-113 -114/-114/-114 -116/-116/-116
f -113/-113/-113 -116/-116/-116 -112/-112/-112
f -113/-113/-113 -111/-111/-111 -114/-114/-114
f -111/-111/-111 -110/-110/-110 -114/-114/-114
f -110/-110/-110 -111/-111/-111 -109/-109/-109
f -108/-108/-108 -113/-113/-113 -112/-112/-112
f -108/-108/-108 -112/-112/-112 -107/-107/-107
f -111/-111/-111 -106/-106/-106 -109/-109/-109
f -105/-105/-105 -109/-109/-109 -106/-106/-106
f -104/-104/-104 -105/-105/-105 -106/-106/-106
f -103/-103/-103 -111/-111/-111 -113/-113/-113
f -108/-108/-108 -103/-103/-103 -113/-113/-113
f -102/-102/-102 -106/-106/-106 -111/-111/-111
f -102/-102/-102 -104/-104/-104 -106/-106/-106
f -103/-103/-103 -102/-102/-102 -111/-111/-111
f -101/-101/-101 -103/-103/-103 -108/-108/-108
f -103/-103/-103 -101/-101/-101 -102/-102/-102
f -102/-102/-102 -100/-100/-100 -104/-104/-104
f -101/-101/-101 -100/-100/-100 -102/-102/-102
f -100/-100/-100 -99/-99/-99 -104/-104/-104
f -98/-98/-98 -99/-99/-99 -100/-100/-100
f -97/-97/-97 -108/-108/-108 -107/-107/-107
f -97/-97/-97 -101/-101/-101 -108/-108/-108
f -96/-96/-96 -100/-100/-100 -101/-101/-101
f -96/-96/-96 -98/-98/-98 -100/-100/-100
f -95/-95/-95 -97/-97/-97 -107/-107/-107
f -94/-94/-94 -95/-95/-95 -107/-107/-107
f -94/-94/-94 -93/-93/-93 -95/-95/-95
f -93/-93/-93 -92/-92/-92 -95/-95/-95
f -91/-91/-91 -101/-101/-101 -97/-97/-97
f -95/-95/-95 -91/-91/-91 -97/-97/-97
f -95/-95/-95 -92/-92/-92 -91/-91/-91
f -91/-91/-91 -96/-96/-96 -101/-101/-101
f -92/-92/-92 -90/-90/-90 -91/-91/-91
f -91/-91/-91 -90/-90/-90 -96/-96/-96
f -90/-90/-90 -89/-89/-89 -96/-96/-96
f -96/-96/-96 -89/-89/-89 -98/-98/-98
f -89/-89/-89 -88/-88/-88 -98/-98/-98
f -85/-85/-85 -86/-86/-86 -87/-87/-87
f -84/-84/-84 -85/-85/-85 -87/-87/-87
f -84/-84/-84 -87/-87/-87 -83/-83/-83
f -85/-85/-85 -84/-84/-84 -82/-82/-82
f -81/-81/-81 -85/-85/-85 -82/-82/-82
f -81/-81/-81 -82/-82/-82 -80/-80/-80
f -82/-82/-82 -79/-79/-79 -80/-80/-80
f -78/-78/-78 -79/-79/-79 -82/-82/-82
f -77/-77/-77 -84/-84/-84 -83/-83/-83
f -83/-83/-83 -76/-76/-76 -77/-77/-77
f -82/-82/-82 -84/-84/-84 -75/-75/-75
f -75/-75/-75 -78/-78/-78 -82/-82/-82
f -84/-84/-84 -77/-77/-77 -75/-75/-75
f -76/-76/-76 -74/-74/-74 -77/-77/-77
f -75/-75/-75 -77/-77/-77 -74/-74/-74
f -75/-75/-75 -73/-73/-73 -78/-78/-78
f -73/-73/-73 -75/-75/-75 -74/-74/-74
f -73/-73/-73 -72/-72/-72 -78/-78/-78
f -71/-71/-71 -72/-72/-72 -73/-73/-73
f -70/-70/-70 -74/-74/-74 -76/-76/-76
f -69/-69/-69 -70/-70/-70 -76/-76/-76
f -69/-69/-69 -68/-68/-68 -70/-70/-70
f -68/-68/-68 -67/-67/-67 -70/-70/-70
f -73/-73/-73 -74/-74/-74 -66/-66/-66
f -74/-74/-74 -70/-70/-70 -66/-66/-66
f -70/-70/-70 -67/-67/-67 -66/-66/-66
f -66/-66/-66 -71/-71/-71 -73/-73/-73
f -67/-67/-67 -65/-65/-65 -66/-66/-66
f -66/-66/-66 -65/-65/-65 -71/-71/-71
f -65/-65/-65 -64/-64/-64 -71/-71/-71
f -61/-61/-61 -62/-62/-62 -63/-63/-63
f -60/-60/-60 -61/-61/-61 -63/-63/-63
f -59/-59/-59 -61/-61/-61 -60/-60/-60
f -60/-60/-60 -63/-63/-63 -58/-58/-58
f -63/-63/-63 -57/-57/-57 -58/-58/-58
f -58/-58/-58 -57/-57/-57 -56/-56/-56
f -55/-55/-55 -59/-59/-59 -60/-60/-60
f -54/-54/-54 -59/-59/-59 -55/-55/-55
f -58/-58/-58 -53/-53/-53 -60/-60/-60
f -53/-53/-53 -55/-55/-55 -60/-60/-60
f -52/-52/-52 -58/-58/-58 -56/-56/-56
f -53/-53/-53 -58/-58/-58 -52/-52/-52
f -51/-51/-51 -54/-54/-54 -55/-55/-55
f -50/-50/-50 -54/-54/-54 -51/-51/-51
f -49/-49/-49 -50/-50/-50 -51/-51/-51
f -49/-49/-49 -51/-51/-51 -48/-48/-48
f -51/-51/-51 -55/-55/-55 -47/-47/-47
f -55/-55/-55 -53/-53/-53 -47/-47/-47
f -51/-51/-51 -47/-47/-47 -48/-48/-48
f -47/-47/-47 -53/-53/-53 -46/-46/-46
f -46/-46/-46 -53/-53/-53 -52/-52/-52
f -48/-48/-48 -47/-47/-47 -45/-45/-45
f -45/-45/-45 -47/-47/-47 -46/-46/-46
f -44/-44/-44 -48/-48/-48 -45/-45/-45
f -44/-44/-44 -45/-45/-45 -43/-43/-43
f -52/-52/-52 -56/-56/-56 -42/-42/-42
f -56/-56/-56 -41/-41/-41 -42/-42/-42
f -42/-42/-42 -41/-41/-41 -40/-40/-40
f -39/-39/-39 -42/-42/-42 -40/-40/-40
f -39/-39/-39 -38/-38/-38 -42/-42/-42
f -37/-37/-37 -46/-46/-46 -52/-52/-52
f -42/-42/-42 -37/-37/-37 -52/-52/-52
f -46/-46/-46 -37/-37/-37 -45/-45/-45
f -38/-38/-38 -37/-37/-37 -42/-42/-42
f -45/-45/-45 -36/-36/-36 -43/-43/-43
f -37/-37/-37 -36/-36/-36 -45/-45/-45
f -37/-37/-37 -38/-38/-38 -36/-36/-36
f -36/-36/-36 -35/-35/-35 -43/-43/-43
f -38/-38/-38 -35/-35/-35 -36/-36/-36
f -32/-32/-32 -33/-33/-33 -34/-34/-34
f -31/-31/-31 -32/-32/-32 -34/-34/-34
f -30/-30/-30 -32/-32/-32 -31/-31/-31
f -31/-31/-31 -34/-34/-34 -29/-29/-29
f -34/-34/-34 -28/-28/-28 -29/-29/-29
f -28/-28/-28 -27/-27/-27 -29/-29/-29
f -26/-26/-26 -30/-30/-30 -31/-31/-31
f -25/-25/-25 -30/-30/-30 -26/-26/-26
f -29/-29/-29 -24/-24/-24 -31/-31/-31
f -24/-24/-24 -26/-26/-26 -31/-31/-31
f -27/-27/-27 -23/-23/-23 -29/-29/-29
f -29/-29/-29 -23/-23/-23 -24/-24/-24
f -22/-22/-22 -25/-25/-25 -26/-26/-26
f -21/-21/-21 -25/-25/-25 -22/-22/-22
f -26/-26/-26 -24/-24/-24 -20/-20/-20
f -22/-22/-22 -26/-26/-26 -20/-20/-20
f -19/-19/-19 -21/-21/-21 -22/-22/-22
f -18/-18/-18 -21/-21/-21 -19/-19/-19
f -17/-17/-17 -18/-18/-18 -19/-19/-19
f -17/-17/-17 -19/-19/-19 -16/-16/-16
f -19/-19/-19 -22/-22/-22 -15/-15/-15
f -19/-19/-19 -15/-15/-15 -16/-16/-16
f -22/-22/-22 -20/-20/-20 -15/-15/-15
f -24/-24/-24 -14/-14/-14 -20/-20/-20
f -23/-23/-23 -14/-14/-14 -24/-24/-24
f -23/-23/-23 -27/-27/-27 -13/-13/-13
f -27/-27/-27 -12/-12/-12 -13/-13/-13
f -12/-12/-12 -11/-11/-11 -13/-13/-13
f -23/-23/-23 -13/-13/-13 -10/-10/-10
f -10/-10/-10 -13/-13/-13 -11/-11/-11
f -14/-14/-14 -23/-23/-23 -10/-10/-10
f -9/-9/-9 -10/-10/-10 -11/-11/-11
f -9/-9/-9 -8/-8/-8 -10/-10/-10
f -16/-16/-16 -15/-15/-15 -7/-7/-7
f -6/-6/-6 -16/-16/-16 -7/-7/-7
f -6/-6/-6 -7/-7/-7 -5/-5/-5
f -15/-15/-15 -20/-20/-20 -4/-4/-4
f -14/-14/-14 -4/-4/-4 -20/-20/-20
f -7/-7/-7 -15/-15/-15 -4/-4/-4
f -10/-10/-10 -3/-3/-3 -14/-14/-14
f -3/-3/-3 -4/-4/-4 -14/-14/-14
f -8/-8/-8 -3/-3/-3 -10/-10/-10
f -4/-4/-4 -3/-3/-3 -7/-7/-7
f -7/-7/-7 -2/-2/-2 -5/-5/-5
f -3/-3/-3 -2/-2/-2 -7/-7/-7
f -3/-3/-3 -8/-8/-8 -2/-2/-2
f -2/-2/-2 -1/-1/-1 -5/-5/-5
f -8/-8/-8 -1/-1/-1 -2/-2/-2

